<svg width="160" height="160" viewBox="0 0 160 160" fill="none" xmlns="http://www.w3.org/2000/svg">
<path d="M57.125 127H56.0114L60.2443 115.364H61.3807L65.6136 127H64.5L60.8523 116.744H60.7727L57.125 127ZM57.9261 122.54H63.6989V123.494H57.9261V122.54ZM70.5398 127.182C69.8239 127.182 69.197 126.992 68.6591 126.614C68.1212 126.235 67.7008 125.706 67.3977 125.028C67.0985 124.35 66.9489 123.561 66.9489 122.659C66.9489 121.761 67.0985 120.975 67.3977 120.301C67.7008 119.623 68.1231 119.097 68.6648 118.722C69.2064 118.343 69.8371 118.153 70.5568 118.153C71.0871 118.153 71.5284 118.248 71.8807 118.438C72.233 118.623 72.5152 118.854 72.7273 119.131C72.9394 119.407 73.1042 119.676 73.2216 119.938H73.3125V115.364H74.3295V127H73.3409V125.381H73.2216C73.1042 125.646 72.9375 125.919 72.7216 126.199C72.5057 126.475 72.2197 126.708 71.8636 126.898C71.5114 127.087 71.0701 127.182 70.5398 127.182ZM70.6591 126.256C71.2235 126.256 71.7045 126.102 72.1023 125.795C72.5 125.485 72.803 125.059 73.0114 124.517C73.2235 123.972 73.3295 123.347 73.3295 122.642C73.3295 121.945 73.2254 121.33 73.017 120.795C72.8087 120.258 72.5057 119.837 72.108 119.534C71.7102 119.227 71.2273 119.074 70.6591 119.074C70.0758 119.074 69.5833 119.233 69.1818 119.551C68.7841 119.866 68.4811 120.292 68.2727 120.83C68.0682 121.367 67.9659 121.972 67.9659 122.642C67.9659 123.32 68.0701 123.932 68.2784 124.477C68.4867 125.023 68.7898 125.456 69.1875 125.778C69.589 126.097 70.0795 126.256 70.6591 126.256ZM80.6023 127.182C79.8485 127.182 79.1818 126.991 78.6023 126.608C78.0265 126.225 77.5758 125.697 77.25 125.023C76.9242 124.345 76.7614 123.562 76.7614 122.676C76.7614 121.782 76.9242 120.996 77.25 120.318C77.5758 119.636 78.0265 119.106 78.6023 118.727C79.1818 118.345 79.8485 118.153 80.6023 118.153C81.3561 118.153 82.0208 118.345 82.5966 118.727C83.1723 119.11 83.6231 119.64 83.9489 120.318C84.2784 120.996 84.4432 121.782 84.4432 122.676C84.4432 123.562 84.2803 124.345 83.9545 125.023C83.6288 125.697 83.1761 126.225 82.5966 126.608C82.0208 126.991 81.3561 127.182 80.6023 127.182ZM80.6023 126.256C81.2083 126.256 81.7216 126.093 82.142 125.767C82.5625 125.441 82.8807 125.008 83.0966 124.466C83.3163 123.924 83.4261 123.328 83.4261 122.676C83.4261 122.025 83.3163 121.426 83.0966 120.881C82.8807 120.335 82.5625 119.898 82.142 119.568C81.7216 119.239 81.2083 119.074 80.6023 119.074C80 119.074 79.4867 119.239 79.0625 119.568C78.642 119.898 78.322 120.335 78.1023 120.881C77.8864 121.426 77.7784 122.025 77.7784 122.676C77.7784 123.328 77.8864 123.924 78.1023 124.466C78.322 125.008 78.642 125.441 79.0625 125.767C79.483 126.093 79.9962 126.256 80.6023 126.256ZM86.8736 127V115.364H87.8906V119.938H87.9815C88.0952 119.676 88.258 119.407 88.4702 119.131C88.6861 118.854 88.9683 118.623 89.3168 118.438C89.669 118.248 90.1122 118.153 90.6463 118.153C91.3622 118.153 91.991 118.343 92.5327 118.722C93.0743 119.097 93.4967 119.623 93.7997 120.301C94.1027 120.975 94.2543 121.761 94.2543 122.659C94.2543 123.561 94.1027 124.35 93.7997 125.028C93.5005 125.706 93.08 126.235 92.5384 126.614C92.0005 126.992 91.3755 127.182 90.6634 127.182C90.133 127.182 89.6899 127.087 89.3338 126.898C88.9815 126.708 88.6974 126.475 88.4815 126.199C88.2656 125.919 88.099 125.646 87.9815 125.381H87.8565V127H86.8736ZM87.8736 122.642C87.8736 123.347 87.9777 123.972 88.1861 124.517C88.3982 125.059 88.7012 125.485 89.0952 125.795C89.4929 126.102 89.974 126.256 90.5384 126.256C91.1179 126.256 91.6084 126.097 92.0099 125.778C92.4115 125.456 92.7164 125.023 92.9247 124.477C93.133 123.932 93.2372 123.32 93.2372 122.642C93.2372 121.972 93.133 121.367 92.9247 120.83C92.7202 120.292 92.4171 119.866 92.0156 119.551C91.6141 119.233 91.1217 119.074 90.5384 119.074C89.9702 119.074 89.4872 119.227 89.0895 119.534C88.6955 119.837 88.3944 120.258 88.1861 120.795C87.9777 121.33 87.8736 121.945 87.8736 122.642ZM100.004 127.182C99.1899 127.182 98.4853 126.992 97.8906 126.614C97.2959 126.231 96.8357 125.703 96.5099 125.028C96.188 124.35 96.027 123.57 96.027 122.688C96.027 121.809 96.188 121.028 96.5099 120.347C96.8357 119.661 97.2846 119.125 97.8565 118.739C98.4323 118.348 99.0971 118.153 99.8509 118.153C100.324 118.153 100.781 118.241 101.22 118.415C101.66 118.585 102.054 118.848 102.402 119.205C102.754 119.557 103.033 120.002 103.237 120.54C103.442 121.074 103.544 121.706 103.544 122.438V122.938H96.7259V122.045H102.51C102.51 121.485 102.396 120.981 102.169 120.534C101.946 120.083 101.633 119.727 101.232 119.466C100.834 119.205 100.374 119.074 99.8509 119.074C99.2978 119.074 98.8111 119.222 98.3906 119.517C97.9702 119.812 97.6406 120.203 97.402 120.688C97.1671 121.172 97.0478 121.703 97.044 122.278V122.812C97.044 123.506 97.1634 124.112 97.402 124.631C97.6444 125.146 97.9872 125.545 98.4304 125.83C98.8736 126.114 99.3982 126.256 100.004 126.256C100.417 126.256 100.779 126.191 101.089 126.062C101.404 125.934 101.667 125.761 101.879 125.545C102.095 125.326 102.258 125.085 102.368 124.824L103.328 125.136C103.196 125.504 102.978 125.843 102.675 126.153C102.375 126.464 102 126.714 101.55 126.903C101.103 127.089 100.588 127.182 100.004 127.182Z" fill="white"/>
<mask id="mask0_36_853" style="mask-type:luminance" maskUnits="userSpaceOnUse" x="49" y="42" width="62" height="46">
<path d="M111 42H49V87.551H111V42Z" fill="white"/>
</mask>
<g mask="url(#mask0_36_853)">
<path d="M111 63.7619V65.7952C110.98 65.9071 110.954 66.0138 110.944 66.1256C110.837 67.0101 110.77 67.8997 110.622 68.7791C110.148 71.6308 109.117 74.2843 107.586 76.7344C105.259 80.4553 102.121 83.2969 98.1663 85.2336C95.87 86.3621 93.4461 87.0788 90.8998 87.3686C90.3384 87.4346 89.7771 87.4906 89.2158 87.5516H67.4367C67.3295 87.5312 67.2173 87.5007 67.105 87.4906C64.9108 87.3533 62.7982 86.8551 60.7826 85.9757C56.3992 84.0644 53.1282 80.9687 50.9901 76.7039C50.041 74.8129 49.4388 72.8101 49.1837 70.7057C49.1225 70.1973 49.0612 69.689 49 69.1858V67.2135C49.0204 67.1067 49.051 66.9949 49.0612 66.8831C49.1735 64.987 49.5664 63.1469 50.2502 61.3779C52.0974 56.62 55.3225 53.0871 59.9049 50.8047C62.2828 49.6203 64.8138 48.9951 67.4673 48.8578C68.7635 48.7918 70.0596 48.8578 71.3506 49.0358C71.468 49.051 71.6364 49.0002 71.718 48.9188C73.5755 47.033 75.683 45.4978 78.066 44.3388C80.3776 43.2103 82.8066 42.4834 85.3682 42.1937C85.9704 42.1276 86.5725 42.0666 87.1746 42.0056H89.0321C89.1546 42.0259 89.277 42.0463 89.3944 42.0615C90.3129 42.1683 91.2416 42.2344 92.15 42.3869C94.9923 42.8596 97.6407 43.8763 100.09 45.3911C103.846 47.709 106.708 50.8403 108.663 54.79C109.796 57.0775 110.515 59.492 110.811 62.0336C110.878 62.6131 110.934 63.1926 110.995 63.7721M76.331 50.6014C76.3667 50.6522 76.377 50.6726 76.3923 50.6827C77.6731 51.308 78.8825 52.045 80.0357 52.8787C80.1072 52.9295 80.2858 52.9092 80.3776 52.8533C83.5363 50.8606 86.9603 50.1744 90.6344 50.82C94.237 51.4554 97.1712 53.2498 99.4114 56.1167C101.947 59.3598 102.917 63.0249 102.213 67.1016C101.743 69.8364 100.646 72.2865 98.7735 74.3402C95.3648 78.0865 91.0988 79.6318 86.0724 78.9761C82.9801 78.5745 80.3113 77.2427 78.0966 75.0163C75.2594 72.1595 72.4069 69.3281 69.5595 66.4815C69.1819 66.1002 68.7584 65.7952 68.2123 65.7292C67.2581 65.6122 66.3957 66.085 65.9824 66.939C65.615 67.7015 65.6609 68.5605 66.4621 69.3383C69.6309 72.439 72.7743 75.5703 75.9432 78.6762C76.4841 79.2049 77.0658 79.7081 77.6833 80.1503C80 81.8227 82.6076 82.7479 85.4295 83.124C87.6492 83.4138 89.8486 83.3528 92.0326 82.8648C96.1965 81.9346 99.6461 79.8148 102.366 76.5463C104.611 73.8471 105.969 70.7412 106.438 67.2592C106.708 65.2564 106.657 63.2638 106.27 61.2864C105.642 58.0687 104.274 55.1916 102.085 52.7364C97.906 48.0649 92.65 45.9756 86.399 46.4433C83.9956 46.6212 81.7197 47.3278 79.5765 48.441C78.4232 49.0408 77.3414 49.7525 76.3361 50.5912M74.8053 83.2257C74.693 83.124 74.6216 83.0529 74.5501 82.9868C73.254 81.7668 71.9477 80.557 70.6668 79.3218C70.4168 79.0829 70.1923 78.9659 69.8402 78.9761C68.544 79.0066 67.2428 79.0117 65.9671 78.727C59.6089 77.2936 55.9144 70.4057 58.2617 64.3465C60.109 59.5683 65.2272 56.6606 70.2739 57.5553C72.5345 57.9569 74.5195 58.9125 76.1524 60.5849C78.1374 62.6284 80.1837 64.6159 82.1942 66.634C82.6535 67.0965 83.174 67.305 83.8119 67.2135C84.6283 67.0965 85.2815 66.7102 85.5774 65.9071C85.8683 65.1192 85.7254 64.377 85.1284 63.7721C83.0209 61.6473 80.9644 59.4666 78.7702 57.4282C74.5144 53.4734 69.4983 52.2992 63.9514 53.9818C56.491 56.2387 52.123 63.9144 53.8273 71.4885C55.3786 78.3915 61.4408 83.2308 68.5287 83.241C70.5086 83.241 72.4886 83.241 74.4685 83.241C74.5654 83.241 74.6624 83.2308 74.8155 83.2257" fill="white"/>
</g>
</svg>
