<svg width="160" height="58" viewBox="0 0 160 58" fill="none" xmlns="http://www.w3.org/2000/svg">
<g opacity="0.6">
<path d="M14.6555 13.8145C14.6555 15.4341 15.9784 16.7472 17.61 16.7472C19.2417 16.7472 20.5646 15.4341 20.5646 13.8145C20.5646 12.1948 19.2417 10.8818 17.61 10.8818C15.9784 10.8818 14.6555 12.1948 14.6555 13.8145Z" fill="white" stroke="white" stroke-width="1.76311"/>
<path d="M9.85498 19.4246C9.85498 20.9299 11.0843 22.1501 12.6008 22.1501C14.1173 22.1501 15.3466 20.9299 15.3466 19.4246C15.3466 17.9194 14.1173 16.6992 12.6008 16.6992C11.0843 16.6992 9.85498 17.9194 9.85498 19.4246Z" fill="white" stroke="white" stroke-width="2.42429"/>
<path d="M7.62085 26.4375C7.62085 27.8296 8.75777 28.9581 10.1602 28.9581C11.5627 28.9581 12.6996 27.8296 12.6996 26.4375C12.6996 25.0455 11.5627 23.917 10.1602 23.917C8.75777 23.917 7.62085 25.0455 7.62085 26.4375Z" fill="white" stroke="white" stroke-width="3.11694"/>
<path d="M8.33521 33.8323C8.33521 35.1139 9.38195 36.153 10.6732 36.153C11.9644 36.153 13.0111 35.1139 13.0111 33.8323C13.0111 32.5507 11.9644 31.5117 10.6732 31.5117C9.38195 31.5117 8.33521 32.5507 8.33521 33.8323Z" fill="white" stroke="white" stroke-width="3.87886"/>
<path d="M11.968 40.5901C11.968 41.7115 12.8839 42.6207 14.0137 42.6207C15.1436 42.6207 16.0594 41.7115 16.0594 40.5901C16.0594 39.4688 15.1436 38.5596 14.0137 38.5596C12.8839 38.5596 11.968 39.4688 11.968 40.5901Z" fill="white" stroke="white" stroke-width="3.394"/>
<path d="M17.9124 45.5627C17.9124 46.524 18.6973 47.3033 19.6658 47.3033C20.6342 47.3033 21.4192 46.524 21.4192 45.5627C21.4192 44.6016 20.6342 43.8223 19.6658 43.8223C18.6973 43.8223 17.9124 44.6016 17.9124 45.5627Z" fill="white" stroke="white" stroke-width="2.90915"/>
<path d="M25.27 47.9856C25.27 48.7866 25.9242 49.4359 26.7311 49.4359C27.5381 49.4359 28.1924 48.7866 28.1924 47.9856C28.1924 47.1846 27.5381 46.5352 26.7311 46.5352C25.9242 46.5352 25.27 47.1846 25.27 47.9856Z" fill="white" stroke="white" stroke-width="2.42429"/>
<path d="M33.1414 47.3488C33.1414 47.9897 33.6646 48.5091 34.3103 48.5091C34.9559 48.5091 35.4793 47.9897 35.4793 47.3488C35.4793 46.708 34.9559 46.1885 34.3103 46.1885C33.6646 46.1885 33.1414 46.708 33.1414 47.3488Z" fill="white" stroke="white" stroke-width="1.93943"/>
<path d="M43.8163 44.1602C43.8163 42.5406 42.4936 41.2275 40.8618 41.2275C39.2301 41.2275 37.9072 42.5406 37.9072 44.1602C37.9072 45.7799 39.2301 47.0929 40.8618 47.0929C42.4936 47.0929 43.8163 45.7799 43.8163 44.1602Z" fill="white" stroke="white" stroke-width="1.76311"/>
<path d="M48.7469 38.6776C48.7469 37.1723 47.5174 35.9521 46.0009 35.9521C44.4846 35.9521 43.2551 37.1723 43.2551 38.6776C43.2551 40.1828 44.4846 41.403 46.0009 41.403C47.5174 41.403 48.7469 40.1828 48.7469 38.6776Z" fill="white" stroke="white" stroke-width="2.42429"/>
<path d="M50.852 31.4736C50.852 30.0816 49.7151 28.9531 48.3126 28.9531C46.9101 28.9531 45.7732 30.0816 45.7732 31.4736C45.7732 32.8657 46.9101 33.9942 48.3126 33.9942C49.7151 33.9942 50.852 32.8657 50.852 31.4736Z" fill="white" stroke="white" stroke-width="3.11694"/>
<path d="M50.1377 23.887C50.1377 22.6053 49.0908 21.5664 47.7996 21.5664C46.5084 21.5664 45.4617 22.6053 45.4617 23.887C45.4617 25.1686 46.5084 26.2077 47.7996 26.2077C49.0908 26.2077 50.1377 25.1686 50.1377 23.887Z" fill="white" stroke="white" stroke-width="3.87886"/>
<path d="M46.5047 17.2571C46.5047 16.1358 45.5888 15.2266 44.4591 15.2266C43.3292 15.2266 42.4133 16.1358 42.4133 17.2571C42.4133 18.3785 43.3292 19.2877 44.4591 19.2877C45.5888 19.2877 46.5047 18.3785 46.5047 17.2571Z" fill="white" stroke="white" stroke-width="3.394"/>
<path d="M40.5604 12.2844C40.5604 11.3232 39.7754 10.5439 38.8069 10.5439C37.8385 10.5439 37.0535 11.3232 37.0535 12.2844C37.0535 13.2456 37.8385 14.0249 38.8069 14.0249C39.7754 14.0249 40.5604 13.2456 40.5604 12.2844Z" fill="white" stroke="white" stroke-width="2.90915"/>
<path d="M33.2029 10.1164C33.2029 9.31538 32.5488 8.66602 31.7418 8.66602C30.9348 8.66602 30.2805 9.31538 30.2805 10.1164C30.2805 10.9174 30.9348 11.5668 31.7418 11.5668C32.5488 11.5668 33.2029 10.9174 33.2029 10.1164Z" fill="white" stroke="white" stroke-width="2.42429"/>
<path d="M25.3313 10.6261C25.3313 9.98532 24.8081 9.46582 24.1624 9.46582C23.5168 9.46582 22.9934 9.98532 22.9934 10.6261C22.9934 11.267 23.5168 11.7864 24.1624 11.7864C24.8081 11.7864 25.3313 11.267 25.3313 10.6261Z" fill="white" stroke="white" stroke-width="1.93943"/>
<path d="M14.7255 30.6028C15.6364 31.2965 16.9413 31.126 17.6403 30.2219C18.3392 29.3179 18.1674 28.0225 17.2565 27.3288C16.3457 26.6351 15.0407 26.8057 14.3418 27.7096C13.6429 28.6138 13.8147 29.909 14.7255 30.6028Z" fill="white" stroke="white" stroke-width="1.70744"/>
<path d="M15.8271 35.4253C16.6602 36.0596 17.8535 35.9037 18.4928 35.0768C19.1319 34.2501 18.9748 33.0655 18.1419 32.4311C17.3088 31.7966 16.1154 31.9526 15.4762 32.7794C14.837 33.6061 14.9942 34.7907 15.8271 35.4253Z" fill="white" stroke="white" stroke-width="1.70744"/>
<path d="M18.6544 39.6939C19.4095 40.269 20.4914 40.1277 21.0708 39.3782C21.6504 38.6285 21.5078 37.5547 20.7527 36.9795C19.9976 36.4044 18.9156 36.5459 18.3363 37.2954C17.7567 38.0449 17.8992 39.1187 18.6544 39.6939Z" fill="white" stroke="white" stroke-width="1.70744"/>
<path d="M23.1224 42.3875C23.7997 42.9033 24.77 42.7764 25.2898 42.1043C25.8095 41.432 25.6818 40.4687 25.0045 39.9529C24.3272 39.437 23.3568 39.5638 22.8371 40.2361C22.3174 40.9084 22.4451 41.8716 23.1224 42.3875Z" fill="white" stroke="white" stroke-width="1.70744"/>
<path d="M28.3163 43.2743C28.9158 43.7309 29.7746 43.6187 30.2345 43.0236C30.6945 42.4286 30.5815 41.5762 29.982 41.1196C29.3826 40.663 28.5238 40.7752 28.0637 41.3703C27.6038 41.9653 27.7169 42.8178 28.3163 43.2743Z" fill="white" stroke="white" stroke-width="1.70744"/>
<path d="M33.6017 42.2773C34.1234 42.6746 34.8706 42.577 35.2709 42.0592C35.6712 41.5415 35.5727 40.7998 35.0512 40.4025C34.5295 40.0052 33.7823 40.1028 33.3821 40.6206C32.9818 41.1383 33.0802 41.8801 33.6017 42.2773Z" fill="white" stroke="white" stroke-width="1.70744"/>
<path d="M37.9686 39.1818C38.4123 39.5198 39.0481 39.4366 39.3886 38.9962C39.729 38.5558 39.6454 37.9247 39.2016 37.5867C38.7579 37.2487 38.1222 37.3318 37.7816 37.7723C37.4411 38.2127 37.5248 38.8437 37.9686 39.1818Z" fill="white" stroke="white" stroke-width="1.70744"/>
<path d="M41.0501 34.7736C41.416 35.0524 41.9403 34.9838 42.2211 34.6206C42.5019 34.2574 42.4328 33.737 42.0669 33.4584C41.701 33.1797 41.1767 33.2483 40.8961 33.6115C40.6153 33.9747 40.6842 34.4949 41.0501 34.7736Z" fill="white" stroke="white" stroke-width="1.70744"/>
<path d="M43.8761 27.3718C42.9653 26.6781 41.6603 26.8486 40.9614 27.7526C40.2625 28.6567 40.4343 29.952 41.3451 30.6457C42.256 31.3395 43.5609 31.169 44.2599 30.2648C44.9588 29.3607 44.787 28.0655 43.8761 27.3718Z" fill="white" stroke="white" stroke-width="1.70744"/>
<path d="M42.7219 22.3012C41.8889 21.6668 40.6955 21.8227 40.0564 22.6494C39.4171 23.4763 39.5742 24.6609 40.4073 25.2953C41.2402 25.9298 42.4336 25.7738 43.0729 24.947C43.712 24.1203 43.5549 22.9357 42.7219 22.3012Z" fill="white" stroke="white" stroke-width="1.70744"/>
<path d="M39.6902 18.1525C38.9351 17.5772 37.8531 17.7187 37.2738 18.4682C36.6942 19.2177 36.8367 20.2917 37.5919 20.8667C38.347 21.442 39.4289 21.3005 40.0083 20.551C40.5879 19.8015 40.4453 18.7275 39.6902 18.1525Z" fill="white" stroke="white" stroke-width="1.70744"/>
<path d="M35.2069 15.533C34.5296 15.0171 33.5592 15.1439 33.0395 15.8162C32.5198 16.4885 32.6475 17.4516 33.3248 17.9676C34.0021 18.4833 34.9726 18.3566 35.4922 17.6844C36.012 17.0121 35.8842 16.0488 35.2069 15.533Z" fill="white" stroke="white" stroke-width="1.70744"/>
<path d="M30.0016 14.7006C29.4021 14.2441 28.5433 14.3563 28.0834 14.9512C27.6233 15.5463 27.7364 16.3988 28.3359 16.8554C28.9352 17.3119 29.7941 17.1996 30.2541 16.6046C30.714 16.0097 30.601 15.1572 30.0016 14.7006Z" fill="white" stroke="white" stroke-width="1.70744"/>
<path d="M24.8494 15.7706C24.3277 15.3733 23.5804 15.4711 23.1801 15.9887C22.7799 16.5065 22.8784 17.2482 23.3999 17.6456C23.9216 18.0427 24.6688 17.9451 25.0691 17.4274C25.4693 16.9096 25.3709 16.1679 24.8494 15.7706Z" fill="white" stroke="white" stroke-width="1.70744"/>
<path d="M20.4997 18.7928C20.056 18.4548 19.4202 18.5378 19.0797 18.9784C18.7392 19.4188 18.8229 20.0498 19.2667 20.3877C19.7104 20.7257 20.3462 20.6427 20.6867 20.2021C21.0272 19.7617 20.9435 19.1307 20.4997 18.7928Z" fill="white" stroke="white" stroke-width="1.70744"/>
<path d="M17.4821 23.2749C17.1162 22.9961 16.5921 23.0647 16.3113 23.4279C16.0305 23.7911 16.0996 24.3113 16.4655 24.5901C16.8314 24.8688 17.3555 24.8002 17.6363 24.437C17.9171 24.0738 17.848 23.5536 17.4821 23.2749Z" fill="white" stroke="white" stroke-width="1.70744"/>
<path d="M14.6594 13.8144C14.6594 15.4318 15.9804 16.743 17.61 16.743C19.2395 16.743 20.5605 15.4318 20.5605 13.8144C20.5605 12.1969 19.2395 10.8857 17.61 10.8857C15.9804 10.8857 14.6594 12.1969 14.6594 13.8144Z" fill="white" stroke="white" stroke-width="1.70744"/>
<path d="M9.90723 19.4246C9.90723 20.9012 11.1132 22.0983 12.6008 22.0983C14.0885 22.0983 15.2944 20.9012 15.2944 19.4246C15.2944 17.948 14.0885 16.751 12.6008 16.751C11.1132 16.751 9.90723 17.948 9.90723 19.4246Z" fill="white" stroke="white" stroke-width="1.70744"/>
<path d="M7.72363 26.4372C7.72363 27.7729 8.81458 28.8557 10.1603 28.8557C11.5061 28.8557 12.597 27.7729 12.597 26.4372C12.597 25.1015 11.5061 24.0186 10.1603 24.0186C8.81458 24.0186 7.72363 25.1015 7.72363 26.4372Z" fill="white" stroke="white" stroke-width="1.70744"/>
<path d="M8.49341 33.8326C8.49341 35.0274 9.46932 35.9961 10.6732 35.9961C11.877 35.9961 12.8529 35.0274 12.8529 33.8326C12.8529 32.6376 11.877 31.6689 10.6732 31.6689C9.46932 31.6689 8.49341 32.6376 8.49341 33.8326Z" fill="white" stroke="white" stroke-width="1.70744"/>
<path d="M12.0908 40.5901C12.0908 41.6443 12.9517 42.4988 14.0137 42.4988C15.0756 42.4988 15.9365 41.6443 15.9365 40.5901C15.9365 39.5362 15.0756 38.6816 14.0137 38.6816C12.9517 38.6816 12.0908 39.5362 12.0908 40.5901Z" fill="white" stroke="white" stroke-width="1.70744"/>
<path d="M17.9998 45.5628C17.9998 46.4759 18.7457 47.2163 19.6656 47.2163C20.5857 47.2163 21.3316 46.4759 21.3316 45.5628C21.3316 44.6496 20.5857 43.9092 19.6656 43.9092C18.7457 43.9092 17.9998 44.6496 17.9998 45.5628Z" fill="white" stroke="white" stroke-width="1.70744"/>
<path d="M25.322 47.9854C25.322 48.7578 25.9528 49.3839 26.731 49.3839C27.5091 49.3839 28.1401 48.7578 28.1401 47.9854C28.1401 47.2131 27.5091 46.5869 26.731 46.5869C25.9528 46.5869 25.322 47.2131 25.322 47.9854Z" fill="white" stroke="white" stroke-width="1.70744"/>
<path d="M33.1582 47.3476C33.1582 47.9791 33.6741 48.4911 34.3103 48.4911C34.9466 48.4911 35.4625 47.9791 35.4625 47.3476C35.4625 46.716 34.9466 46.2041 34.3103 46.2041C33.6741 46.2041 33.1582 46.716 33.1582 47.3476Z" fill="white" stroke="white" stroke-width="1.70744"/>
<path d="M72.9057 43.4638C64.9159 43.4638 58.4165 36.9768 58.4165 28.9977C58.4165 26.6094 59.0135 24.2438 60.1393 22.1558C61.3562 19.8995 63.1521 18.0025 65.3398 16.6606C67.6142 15.2731 70.2303 14.5361 72.9057 14.5361C75.5812 14.5361 78.1609 15.2595 80.4216 16.6332C82.614 17.9616 84.4234 19.8541 85.6448 22.1058C86.7888 24.2075 87.395 26.5958 87.395 29.0021C87.395 32.6748 86.0165 36.0319 83.7488 38.5852C81.0925 41.576 77.2159 43.4638 72.9057 43.4638ZM72.9057 18.1754C70.9003 18.1754 68.9405 18.7259 67.2449 19.7676C65.6041 20.7729 64.2596 22.1923 63.3481 23.8845C62.5048 25.4448 62.0627 27.2144 62.0627 29.0021C62.0627 34.9706 66.9259 39.8244 72.9057 39.8244C78.8856 39.8244 83.7488 34.9706 83.7488 29.0021C83.7488 27.2008 83.2975 25.4176 82.4407 23.8436C81.5246 22.1558 80.171 20.7411 78.5255 19.7449C76.8346 18.7212 74.893 18.1799 72.9012 18.1799L72.9057 18.1754Z" fill="white"/>
<path d="M87.395 29.002C87.395 32.6746 86.0165 36.0317 83.7488 38.585V43.4636H87.395V29.002Z" fill="white"/>
<path d="M120.016 29C120.016 21.0242 113.518 14.5361 105.525 14.5361C103.132 14.5361 100.763 15.1322 98.6709 16.2559C96.4107 17.4707 94.5103 19.2634 93.1661 21.4472C91.7761 23.7176 91.0378 26.3292 91.0378 29C91.0378 31.6707 91.7624 34.2459 93.1387 36.5025C94.4694 38.691 96.3651 40.4973 98.6208 41.7166C100.726 42.8586 103.119 43.4638 105.529 43.4638C109.208 43.4638 112.571 42.0877 115.129 39.824C118.125 37.1722 120.016 33.3025 120.016 29ZM94.6835 29C94.6835 26.998 95.235 25.0417 96.2785 23.3491C97.2856 21.7112 98.7075 20.369 100.403 19.459C101.966 18.6173 103.738 18.176 105.529 18.176C111.508 18.176 116.371 23.0306 116.371 29C116.371 34.9693 111.508 39.824 105.529 39.824C103.725 39.824 101.938 39.3734 100.362 38.5182C98.6709 37.6036 97.2537 36.2523 96.2558 34.6098C95.2303 32.9218 94.6881 30.9837 94.6881 28.9953L94.6835 29Z" fill="white"/>
<path d="M105.53 43.464C109.209 43.464 112.572 42.088 115.129 39.8242H120.017V43.464H105.53Z" fill="white"/>
<path d="M138.149 43.4638C130.159 43.4638 123.659 36.9768 123.659 28.9977C123.659 26.6094 124.257 24.2438 125.382 22.1558C126.599 19.8995 128.395 18.0025 130.583 16.6606C132.857 15.2731 135.473 14.5361 138.149 14.5361C140.824 14.5361 143.404 15.2595 145.665 16.6332C147.857 17.9616 149.667 19.8541 150.888 22.1058C152.032 24.2075 152.638 26.5958 152.638 29.0021C152.638 32.6748 151.26 36.0319 148.992 38.5852C146.336 41.576 142.459 43.4638 138.149 43.4638ZM138.149 18.1754C136.143 18.1754 134.183 18.7259 132.488 19.7676C130.847 20.7729 129.503 22.1923 128.591 23.8845C127.748 25.4448 127.306 27.2144 127.306 29.0021C127.306 34.9706 132.169 39.8244 138.149 39.8244C144.129 39.8244 148.992 34.9706 148.992 29.0021C148.992 27.2008 148.541 25.4176 147.684 23.8436C146.767 22.1558 145.414 20.7411 143.769 19.7449C142.078 18.7212 140.136 18.1799 138.144 18.1799L138.149 18.1754Z" fill="white"/>
<path d="M152.638 29.002C152.638 32.6746 151.26 36.0317 148.992 38.585V43.4636H152.638V29.002Z" fill="white"/>
</g>
</svg>
