<svg width="161" height="36" viewBox="0 0 161 36" fill="none" xmlns="http://www.w3.org/2000/svg">
<g opacity="0.6">
<path d="M23.4011 3.29337C21.1619 4.07413 19.3553 5.38106 18.1255 7.46876C13.6471 15.0727 9.14333 22.6682 4.64802 30.2637C4.17304 31.0699 3.69807 31.8846 3.20613 32.6823C3.00256 33.0218 2.97712 33.217 3.46058 33.2085C5.80153 33.1746 8.15097 33.3867 10.4665 33.0812C13.6386 32.6654 16.1832 31.1717 17.8541 28.3202C22.748 19.9949 27.6844 11.6866 32.6038 3.36975C32.977 2.73326 32.9685 2.73326 32.2306 2.73326C31.2043 2.73326 30.1865 2.73326 28.6513 2.73326C27.2264 2.71628 25.2756 2.6399 23.4011 3.29337Z" fill="white"/>
<path d="M40.3136 24.4495C36.9294 23.0323 34.6563 20.6391 33.4264 17.0577C33.2398 16.5146 32.485 16.5146 32.2984 17.0577C31.0091 20.8173 28.5919 23.202 24.9871 24.4495C24.4443 24.6362 24.4443 25.3916 24.9956 25.5783C28.7276 26.8258 31.077 29.3123 32.3068 32.8512C32.4934 33.3859 33.2483 33.3944 33.4264 32.8597C34.5969 29.4566 36.7937 26.9531 40.3136 25.5528C40.797 25.3576 40.797 24.6532 40.3136 24.4495Z" fill="white"/>
<path d="M47.2856 33.2761L59.7198 3.48828H64.2491L76.6833 33.2761H71.0429L68.6087 27.3355H55.3602L52.926 33.2761H47.2856ZM57.0227 22.931H66.9293L61.976 10.7952L57.0227 22.931Z" fill="white"/>
<path d="M78.5577 33.2759V30.1104L90.8138 16.3028H79.8385V11.7285H97.947V15.2759L86.1574 28.6932H98.4559V33.2674H78.5577V33.2759Z" fill="white"/>
<path d="M112.9 33.2757V11.7368H117.981V14.9447C119.007 12.6788 121.357 11.3125 124.385 11.3125C124.987 11.3125 125.496 11.3549 125.92 11.4398V16.396C125.275 16.2687 124.554 16.1838 123.782 16.1838C120.237 16.1838 117.972 18.4073 117.972 21.9547V33.2842H112.9V33.2757Z" fill="white"/>
<path d="M144.851 14.3421V11.2191H149.974V26.2658C149.974 28.1073 150.398 28.7863 151.551 28.7863C151.848 28.7863 152.238 28.7438 152.62 28.7014V32.8428C152.069 33.055 151.212 33.1823 150.101 33.1823C148.863 33.1823 147.879 32.9701 147.107 32.4949C146.166 31.8499 145.572 31.0013 145.36 29.8895C143.867 32.1554 141.39 33.2672 137.972 33.2672C134.936 33.2672 132.374 32.1979 130.279 30.0168C128.227 27.8358 127.2 25.188 127.2 21.98C127.2 18.7721 128.227 16.1243 130.279 13.9857C132.374 11.8047 134.936 10.7354 137.972 10.7354C141.433 10.7523 144.037 12.2884 144.851 14.3421ZM143.307 26.6986C144.588 25.4595 145.233 23.881 145.233 21.997C145.233 20.113 144.588 18.5345 143.307 17.2955C142.069 16.0564 140.491 15.4114 138.651 15.4114C136.81 15.4114 135.317 16.0564 134.079 17.2955C132.883 18.5345 132.281 20.113 132.281 21.997C132.281 23.881 132.883 25.4595 134.079 26.6986C135.317 27.9376 136.81 28.5826 138.651 28.5826C140.491 28.5826 142.069 27.9376 143.307 26.6986Z" fill="white"/>
<path d="M102.391 11.3125H107.514V26.444C107.514 28.1074 107.854 28.71 109.007 28.71C109.389 28.71 109.694 28.6675 109.906 28.6251V32.9447C109.397 33.1569 108.541 33.2842 107.345 33.2842C104.054 33.2842 102.391 31.4426 102.391 27.8104V11.3125Z" fill="white"/>
<path d="M101.874 5.75401C101.874 4.04821 103.24 2.71582 104.953 2.71582C106.615 2.71582 107.989 4.03972 107.989 5.75401C107.989 7.45981 106.624 8.7922 104.953 8.7922C103.24 8.7922 101.874 7.45981 101.874 5.75401Z" fill="white"/>
<path d="M152.62 11.567H153.494V13.9348H153.867V11.567H154.741V11.2275H152.62V11.567Z" fill="white"/>
<path d="M156.53 13.2813H156.513L155.648 11.2275H155.105V13.9348H155.47V11.7028H155.478L156.394 13.9348H156.64L157.556 11.7028H157.565V13.9348H157.93V11.2275H157.378L156.53 13.2813Z" fill="white"/>
</g>
</svg>
