<svg width="178" height="47" viewBox="0 0 178 47" fill="none" xmlns="http://www.w3.org/2000/svg">
<g opacity="0.6" clip-path="url(#clip0_3501_733)">
<path d="M96.3983 31.0296H85.9395V14.3721H87.9492V29.0707H96.3983V31.0296Z" fill="white"/>
<path d="M136.719 16.8652L134.039 24.2899H139.344L136.719 16.8652ZM133.355 26.1803L131.605 31.0296H129.432L135.639 14.3721H137.908L143.992 31.0296H141.75L140.027 26.1803H133.369H133.355Z" fill="white"/>
<path d="M147.736 16.4149V29.1684H151.81C154.846 29.1684 157.211 27.2779 157.211 22.7848C157.211 18.2916 154.818 16.4286 151.81 16.4286H147.736V16.4149ZM145.727 14.4697H151.81C156.363 14.4697 159.275 17.6067 159.275 22.7848C159.275 27.9629 156.363 31.141 151.81 31.141H145.727V14.4834V14.4697Z" fill="white"/>
<path d="M175.736 22.7474C175.736 18.9118 173.043 16.0214 169.584 16.0214C166.125 16.0214 163.432 18.9803 163.432 22.7474C163.432 26.5145 166.193 29.4734 169.584 29.4734C172.974 29.4734 175.736 26.5145 175.736 22.7474ZM177.719 22.7474C177.719 27.5967 174.068 31.446 169.57 31.446C165.072 31.446 161.422 27.6241 161.422 22.7474C161.422 17.8707 165.072 14.0762 169.57 14.0762C174.068 14.0762 177.719 17.8022 177.719 22.7474Z" fill="white"/>
<path d="M26.166 34.3838C26.084 34.4112 26.0156 34.4112 25.9336 34.4386C25.9883 34.4249 26.0566 34.4112 26.1113 34.3975C26.125 34.3975 26.1523 34.3975 26.166 34.3838Z" fill="white"/>
<path d="M33.3748 18.8833H33.4021V18.8559C31.6658 14.897 27.7557 12.1436 23.203 12.1436C19.3476 12.1436 15.9433 14.1299 13.9336 17.1436C15.9433 14.1436 19.3339 12.171 23.1757 12.171C27.7147 12.171 31.6248 14.9244 33.3748 18.8833Z" fill="white"/>
<path d="M34.8082 28.5734C32.8668 33.1487 28.3825 36.3405 23.1736 36.3405C16.1873 36.3405 10.5136 30.5871 10.5136 23.5049C10.5136 16.4227 16.1873 10.6693 23.1736 10.6693C28.2868 10.6693 32.6891 13.7378 34.6852 18.1487L43.8862 12.957C40.4136 4.4364 32.8395 -0.00195312 23.1872 -0.00195312C10.3768 -0.00195312 0 10.5186 0 23.5049C0 36.4912 10.3768 46.998 23.1872 46.998C32.8805 46.998 41.1792 40.9569 44.6519 32.3953L34.8219 28.5871L34.8082 28.5734Z" fill="white"/>
<path d="M31.6582 30.833C31.3301 31.2166 30.9883 31.5864 30.6191 31.9289C30.9883 31.5864 31.3437 31.2166 31.6582 30.833Z" fill="white"/>
<path d="M26.6074 34.2784C26.6074 34.2784 26.6348 34.2647 26.6484 34.2647H26.6621C27.0996 34.114 27.5234 33.9359 27.9336 33.7441C27.4961 33.9496 27.0312 34.1414 26.5527 34.2921C26.5527 34.2921 26.5801 34.2921 26.5938 34.2921H26.6211L26.6074 34.2784Z" fill="white"/>
<path d="M31.8301 30.624C32.0898 30.309 32.3223 29.9665 32.5547 29.6104C32.3359 29.9665 32.0898 30.2953 31.8301 30.624Z" fill="white"/>
<path d="M33.4141 28.0283C33.209 28.4804 32.9766 28.9324 32.7305 29.3571C32.9902 28.9324 33.2227 28.4941 33.4141 28.0283Z" fill="white"/>
<path d="M34.3435 23.5055C34.3435 29.7658 29.3397 34.8206 23.1737 34.8206C17.0078 34.8206 12.0176 29.7521 12.0176 23.5055C12.0176 17.2589 17.0214 12.1904 23.1737 12.1904C29.326 12.1904 34.3435 17.2589 34.3435 23.5055Z" fill="white"/>
<path d="M58.2929 31.4451C53.7949 31.4451 50.1445 27.5546 50.1445 22.7464C50.1445 17.9382 53.7949 14.0752 58.2929 14.0752C62.0253 14.0752 64.787 16.3355 65.826 19.6231H63.7206C62.8182 17.5272 60.9725 16.0204 58.3066 16.0204C54.916 16.0204 52.1543 19.0752 52.1543 22.7464C52.1543 26.4177 54.9296 29.4725 58.3066 29.4725C60.7264 29.4725 62.7362 28.0752 63.7206 25.8697H65.826C64.7186 29.2533 61.8202 31.4451 58.2929 31.4451Z" fill="white"/>
<path d="M81.4803 22.7464C81.4803 18.9108 78.787 16.0204 75.328 16.0204C71.8691 16.0204 69.1758 18.9793 69.1758 22.7464C69.1758 26.5136 71.9511 29.4725 75.328 29.4725C78.705 29.4725 81.4803 26.5136 81.4803 22.7464ZM83.4627 22.7464C83.4627 27.5957 79.8124 31.4451 75.3144 31.4451C70.8164 31.4451 67.166 27.6231 67.166 22.7464C67.166 17.8697 70.8164 14.0752 75.3144 14.0752C79.8124 14.0752 83.4627 17.8012 83.4627 22.7464Z" fill="white"/>
<path d="M110.574 22.7464C110.574 18.9108 107.881 16.0204 104.422 16.0204C100.963 16.0204 98.2695 18.9793 98.2695 22.7464C98.2695 26.5136 101.045 29.4725 104.422 29.4725C107.799 29.4725 110.574 26.5136 110.574 22.7464ZM112.556 22.7464C112.556 27.5957 108.906 31.4451 104.408 31.4451C99.9101 31.4451 96.2598 27.6231 96.2598 22.7464C96.2598 17.8697 99.9101 14.0752 104.408 14.0752C108.906 14.0752 112.556 17.8012 112.556 22.7464Z" fill="white"/>
<path d="M122.564 22.6047C124.506 22.6047 125.777 21.4266 125.777 19.5362C125.777 17.3718 124.492 16.4403 122.482 16.4403H117.219V22.6184H122.551L122.564 22.6047ZM127.664 31.1526H125.627C125.435 30.7006 125.312 30.1252 125.312 29.3581V27.0841C125.312 25.4814 124.478 24.591 122.619 24.591H117.246V31.1663H115.236V14.5088H122.51C125.873 14.5088 127.842 16.5773 127.842 19.5499C127.842 21.3307 126.994 22.7691 125.586 23.5773C126.693 24.2485 127.308 25.3992 127.308 27.0841V29.1526C127.308 29.7828 127.473 30.6869 127.664 31.1663" fill="white"/>
</g>
<defs>
<clipPath id="clip0_3501_733">
<rect width="177.719" height="47" fill="white"/>
</clipPath>
</defs>
</svg>
