<svg width="160" height="160" viewBox="0 0 160 160" fill="none" xmlns="http://www.w3.org/2000/svg">
<g clip-path="url(#clip0_36_758)">
<path d="M71.8974 42.752C74.0782 44.9292 74.9083 48.1224 74.0782 51.088C76.7597 49.4716 79.8332 48.6205 82.9627 48.6271H83.0285C87.6273 48.6403 92.0316 50.4909 95.2632 53.7632C97.8557 56.4913 102.165 56.5969 104.889 54.004C107.613 51.4079 107.719 47.0932 105.129 44.3651C105.063 44.2958 104.998 44.2299 104.928 44.1639C99.1504 38.3185 91.2805 35.023 83.0648 34.9999H82.9462C76.7959 34.9868 70.784 36.8209 65.6846 40.2615H65.8756C68.1322 40.2582 70.2997 41.1554 71.8941 42.7586L71.8974 42.752Z" fill="white"/>
<path d="M99.9698 76.3301C98.1745 76.3301 96.4483 77.0426 95.1735 78.306C91.9287 81.5355 87.5408 83.3531 82.9685 83.3465H82.9026C79.7632 83.3432 76.6897 82.4789 74.0115 80.8461C74.2158 81.5883 74.3179 82.3569 74.3179 83.1255C74.3179 87.8361 70.5065 91.6495 65.8057 91.6495H65.585C70.6811 95.1231 76.6963 96.9869 82.8598 96.9968H82.9783C91.148 97.0099 98.9882 93.7706 104.773 87.9945C107.441 85.339 107.461 81.0275 104.812 78.3522C103.534 77.0591 101.792 76.3367 99.9764 76.3367V76.3268H99.9731L99.9698 76.3301Z" fill="white"/>
<path d="M59.7744 77.0921C61.3655 75.4856 63.5364 74.585 65.7929 74.5949C66.5736 74.5949 67.3478 74.7005 68.0989 74.9083C64.7915 69.3994 64.8047 62.5083 68.1351 57.0126C63.5957 58.2595 58.9113 55.5842 57.6694 51.0451C57.4685 50.3062 57.3631 49.5475 57.3631 48.7789V48.548C50.2443 59.0248 50.208 72.7872 57.2807 83.3003V83.1222C57.2708 80.8625 58.1701 78.6886 59.7744 77.0954V77.0921Z" fill="white"/>
<path d="M65.8748 41.769C63.9378 41.769 62.5839 42.5706 60.9401 44.2167C59.3754 45.7803 58.8812 47.1493 58.8779 48.7789C58.8779 52.645 62.0173 55.7854 65.8781 55.7821C69.7389 55.7821 72.875 52.6384 72.8717 48.7723C72.8717 44.9062 69.7389 41.769 65.8748 41.769Z" fill="white"/>
<path d="M58.7793 83.1287C58.7793 85.0618 59.5798 86.4242 61.2203 88.067C62.785 89.6339 64.1488 90.132 65.7762 90.1353C69.6304 90.1221 72.7434 86.9883 72.7302 83.1287C72.7171 79.2692 69.5876 76.1519 65.7334 76.1651C61.889 76.1783 58.7793 79.2989 58.7793 83.1485V83.1254V83.1287Z" fill="white"/>
</g>
<path d="M51.2607 119.339H50.1925C50.1129 118.941 49.969 118.574 49.7607 118.237C49.5561 117.896 49.2985 117.598 48.9879 117.345C48.6773 117.091 48.325 116.894 47.9311 116.754C47.5372 116.613 47.111 116.543 46.6527 116.543C45.9179 116.543 45.2474 116.735 44.6413 117.117C44.0391 117.5 43.5561 118.062 43.1925 118.805C42.8326 119.543 42.6527 120.449 42.6527 121.521C42.6527 122.6 42.8326 123.509 43.1925 124.248C43.5561 124.987 44.0391 125.547 44.6413 125.93C45.2474 126.309 45.9179 126.498 46.6527 126.498C47.111 126.498 47.5372 126.428 47.9311 126.288C48.325 126.148 48.6773 125.953 48.9879 125.703C49.2985 125.449 49.5561 125.151 49.7607 124.81C49.969 124.47 50.1129 124.1 50.1925 123.703H51.2607C51.166 124.237 50.9879 124.735 50.7266 125.197C50.469 125.655 50.1394 126.057 49.7379 126.401C49.3402 126.746 48.8819 127.015 48.3629 127.208C47.844 127.401 47.2739 127.498 46.6527 127.498C45.6754 127.498 44.808 127.254 44.0504 126.765C43.2929 126.273 42.6982 125.579 42.2663 124.685C41.8383 123.792 41.6243 122.737 41.6243 121.521C41.6243 120.305 41.8383 119.25 42.2663 118.356C42.6982 117.462 43.2929 116.771 44.0504 116.282C44.808 115.79 45.6754 115.543 46.6527 115.543C47.2739 115.543 47.844 115.64 48.3629 115.833C48.8819 116.023 49.3402 116.292 49.7379 116.64C50.1394 116.985 50.469 117.386 50.7266 117.845C50.9879 118.303 51.166 118.801 51.2607 119.339ZM56.9382 127.521C56.1844 127.521 55.5178 127.329 54.9382 126.947C54.3625 126.564 53.9117 126.036 53.5859 125.362C53.2602 124.684 53.0973 123.901 53.0973 123.015C53.0973 122.121 53.2602 121.335 53.5859 120.657C53.9117 119.975 54.3625 119.445 54.9382 119.066C55.5178 118.684 56.1844 118.492 56.9382 118.492C57.692 118.492 58.3568 118.684 58.9325 119.066C59.5083 119.449 59.959 119.979 60.2848 120.657C60.6143 121.335 60.7791 122.121 60.7791 123.015C60.7791 123.901 60.6162 124.684 60.2905 125.362C59.9647 126.036 59.5121 126.564 58.9325 126.947C58.3568 127.329 57.692 127.521 56.9382 127.521ZM56.9382 126.595C57.5443 126.595 58.0575 126.432 58.478 126.106C58.8984 125.78 59.2166 125.346 59.4325 124.805C59.6522 124.263 59.7621 123.667 59.7621 123.015C59.7621 122.363 59.6522 121.765 59.4325 121.22C59.2166 120.674 58.8984 120.237 58.478 119.907C58.0575 119.578 57.5443 119.413 56.9382 119.413C56.3359 119.413 55.8227 119.578 55.3984 119.907C54.978 120.237 54.6579 120.674 54.4382 121.22C54.2223 121.765 54.1143 122.363 54.1143 123.015C54.1143 123.667 54.2223 124.263 54.4382 124.805C54.6579 125.346 54.978 125.78 55.3984 126.106C55.8189 126.432 56.3321 126.595 56.9382 126.595ZM64.0107 121.884V127.339H62.9993V118.612H63.9822V119.981H64.0732C64.2777 119.534 64.5959 119.176 65.0277 118.907C65.4633 118.634 66.0012 118.498 66.6413 118.498C67.2285 118.498 67.7436 118.621 68.1868 118.867C68.6338 119.11 68.9804 119.468 69.2266 119.941C69.4766 120.415 69.6016 120.996 69.6016 121.685V127.339H68.5902V121.748C68.5902 121.032 68.3894 120.466 67.9879 120.049C67.5902 119.632 67.0561 119.424 66.3857 119.424C65.9273 119.424 65.5201 119.523 65.1641 119.72C64.808 119.917 64.5258 120.201 64.3175 120.572C64.1129 120.939 64.0107 121.377 64.0107 121.884ZM75.7024 118.612V119.492H71.5376V118.612H75.7024ZM72.8388 116.521H73.8558V125.06C73.8558 125.424 73.9183 125.71 74.0433 125.918C74.1683 126.123 74.3312 126.269 74.532 126.356C74.7327 126.439 74.9467 126.481 75.174 126.481C75.3066 126.481 75.4202 126.473 75.5149 126.458C75.6096 126.439 75.6929 126.42 75.7649 126.401L75.9808 127.316C75.8823 127.354 75.7611 127.388 75.6172 127.418C75.4732 127.453 75.2952 127.47 75.0831 127.47C74.7119 127.47 74.3539 127.388 74.0092 127.225C73.6683 127.062 73.388 126.82 73.1683 126.498C72.9486 126.176 72.8388 125.776 72.8388 125.299V116.521ZM81.4339 127.521C80.6196 127.521 79.915 127.331 79.3203 126.953C78.7256 126.57 78.2654 126.042 77.9396 125.367C77.6177 124.689 77.4567 123.909 77.4567 123.026C77.4567 122.148 77.6177 121.367 77.9396 120.685C78.2654 120 78.7143 119.464 79.2862 119.078C79.862 118.687 80.5268 118.492 81.2805 118.492C81.754 118.492 82.2105 118.579 82.6499 118.754C83.0893 118.924 83.4832 119.187 83.8317 119.543C84.1839 119.896 84.4624 120.341 84.6669 120.879C84.8714 121.413 84.9737 122.045 84.9737 122.776V123.276H78.1555V122.384H83.9396C83.9396 121.824 83.826 121.32 83.5987 120.873C83.3752 120.422 83.0627 120.066 82.6612 119.805C82.2635 119.543 81.8033 119.413 81.2805 119.413C80.7275 119.413 80.2408 119.56 79.8203 119.856C79.3999 120.151 79.0703 120.542 78.8317 121.026C78.5968 121.511 78.4775 122.042 78.4737 122.617V123.151C78.4737 123.845 78.593 124.451 78.8317 124.97C79.0741 125.485 79.4169 125.884 79.8601 126.168C80.3033 126.453 80.8279 126.595 81.4339 126.595C81.8468 126.595 82.2086 126.53 82.5192 126.401C82.8336 126.273 83.0968 126.1 83.3089 125.884C83.5249 125.665 83.6877 125.424 83.7976 125.163L84.7578 125.475C84.6252 125.843 84.4074 126.182 84.1044 126.492C83.8052 126.803 83.4302 127.053 82.9794 127.242C82.5324 127.428 82.0173 127.521 81.4339 127.521ZM88.2138 121.884V127.339H87.2024V118.612H88.1854V119.981H88.2763C88.4808 119.534 88.799 119.176 89.2308 118.907C89.6664 118.634 90.2043 118.498 90.8445 118.498C91.4316 118.498 91.9467 118.621 92.3899 118.867C92.8369 119.11 93.1835 119.468 93.4297 119.941C93.6797 120.415 93.8047 120.996 93.8047 121.685V127.339H92.7933V121.748C92.7933 121.032 92.5926 120.466 92.1911 120.049C91.7933 119.632 91.2592 119.424 90.5888 119.424C90.1304 119.424 89.7232 119.523 89.3672 119.72C89.0111 119.917 88.7289 120.201 88.5206 120.572C88.3161 120.939 88.2138 121.377 88.2138 121.884ZM99.9055 118.612V119.492H95.7408V118.612H99.9055ZM97.0419 116.521H98.0589V125.06C98.0589 125.424 98.1214 125.71 98.2464 125.918C98.3714 126.123 98.5343 126.269 98.7351 126.356C98.9358 126.439 99.1499 126.481 99.3771 126.481C99.5097 126.481 99.6233 126.473 99.718 126.458C99.8127 126.439 99.8961 126.42 99.968 126.401L100.184 127.316C100.085 127.354 99.9643 127.388 99.8203 127.418C99.6764 127.453 99.4983 127.47 99.2862 127.47C98.915 127.47 98.5571 127.388 98.2124 127.225C97.8714 127.062 97.5911 126.82 97.3714 126.498C97.1518 126.176 97.0419 125.776 97.0419 125.299V116.521ZM105.793 118.612V119.492H101.504V118.612H105.793ZM102.844 127.339V117.333C102.844 116.863 102.952 116.468 103.168 116.146C103.388 115.824 103.674 115.579 104.026 115.413C104.379 115.246 104.752 115.163 105.146 115.163C105.411 115.163 105.63 115.185 105.805 115.231C105.983 115.273 106.123 115.314 106.225 115.356L105.93 116.242C105.854 116.22 105.761 116.193 105.651 116.163C105.541 116.132 105.403 116.117 105.237 116.117C104.797 116.117 104.458 116.24 104.219 116.487C103.981 116.733 103.862 117.085 103.862 117.543L103.856 127.339H102.844ZM113.357 124.004V118.612H114.369V127.339H113.357V125.89H113.278C113.073 126.337 112.749 126.71 112.306 127.009C111.863 127.305 111.321 127.453 110.681 127.453C110.124 127.453 109.63 127.331 109.198 127.089C108.766 126.843 108.427 126.483 108.181 126.009C107.935 125.536 107.812 124.954 107.812 124.265V118.612H108.823V124.203C108.823 124.884 109.024 125.434 109.425 125.85C109.827 126.263 110.342 126.47 110.971 126.47C111.365 126.47 111.744 126.375 112.107 126.185C112.471 125.996 112.77 125.72 113.005 125.356C113.24 124.988 113.357 124.538 113.357 124.004ZM118.058 115.703V127.339H117.046V115.703H118.058Z" fill="white"/>
<defs>
<clipPath id="clip0_36_758">
<rect width="55" height="62" fill="white" transform="translate(52 35)"/>
</clipPath>
</defs>
</svg>
