<svg width="130" height="55" viewBox="0 0 130 55" fill="none" xmlns="http://www.w3.org/2000/svg">
<g opacity="0.6">
<path fill-rule="evenodd" clip-rule="evenodd" d="M54.464 27.2642C54.464 39.9188 45.7981 50.5597 34.0483 53.6337C32.8624 53.944 31.7556 53.0094 31.7556 51.7836V33.4814C31.7556 32.3893 32.6409 31.5041 33.7329 31.5041H33.9645C34.489 31.5041 34.9921 31.2957 35.3629 30.9247L38.6774 27.6088C39.9227 26.3631 39.0404 24.2336 37.279 24.2336H1.23981C0.483587 24.2336 -0.10658 23.5713 0.0162345 22.8251C0.114155 22.2301 0.636213 21.8106 1.23915 21.8106H42.494C43.586 21.8106 44.4713 20.9254 44.4713 19.8333V16.5175C44.4713 15.4255 43.586 14.5402 42.494 14.5402H6.10576C4.6144 14.5402 3.67811 12.9582 4.5315 11.7352C9.47983 4.64339 17.7246 0 27.0594 0C42.1945 0 54.464 12.2066 54.464 27.2642ZM2.29604 31.5041C1.08177 31.5041 0.149814 32.5913 0.439986 33.7704C3.20886 45.0215 12.9965 53.5318 24.9232 54.4467C26.0161 54.5305 26.9104 53.6362 26.9104 52.5401V44.7432C26.9104 44.2189 26.7022 43.7161 26.3316 43.3453L15.0744 32.0835C14.7036 31.7125 14.2005 31.5041 13.676 31.5041H2.29604Z" fill="white"/>
<path d="M112.583 39.9969V14.4668H120.298C122.076 14.4668 123.579 14.7316 124.809 15.2611C126.057 15.7906 127.059 16.4903 127.815 17.3602C128.572 18.2112 129.12 19.1473 129.461 20.1685C129.82 21.1708 130 22.1636 130 23.147C130 24.1115 129.829 25.1043 129.489 26.1255C129.149 27.1278 128.591 28.0639 127.815 28.9338C127.059 29.7848 126.066 30.4751 124.837 31.0046C123.608 31.5341 122.095 31.7989 120.298 31.7989H117.518V39.9969H112.583ZM117.518 27.3737H120.015C121.225 27.3737 122.18 27.1656 122.88 26.7496C123.598 26.3146 124.109 25.7757 124.411 25.1327C124.733 24.4897 124.894 23.8278 124.894 23.147C124.894 22.4851 124.742 21.8327 124.44 21.1897C124.137 20.5278 123.627 19.9794 122.908 19.5444C122.208 19.1095 121.244 18.892 120.015 18.892H117.518V27.3737Z" fill="white"/>
<path d="M98.0467 39.9969V27.9126L90.6997 14.4668H96.4298L99.4367 20.1969C99.6447 20.6129 99.8622 21.0384 100.089 21.4734C100.316 21.8894 100.534 22.3906 100.742 22.9768C100.968 22.3906 101.186 21.8894 101.394 21.4734C101.621 21.0384 101.848 20.6129 102.075 20.1969L105.11 14.4668H110.5L103.153 27.9126V39.9969H98.0467Z" fill="white"/>
<path d="M81.6886 40.5073C79.8164 40.5073 78.0671 40.1669 76.4408 39.4861C74.8144 38.7864 73.3771 37.8314 72.129 36.6211C70.8998 35.4108 69.9353 34.0019 69.2356 32.3944C68.5359 30.787 68.186 29.0661 68.186 27.2317C68.186 25.3973 68.5359 23.6764 69.2356 22.0689C69.9353 20.4615 70.8998 19.0526 72.129 17.8423C73.3771 16.632 74.8144 15.6864 76.4408 15.0056C78.0671 14.3059 79.8164 13.9561 81.6886 13.9561C83.3717 13.9561 84.9602 14.2303 86.4542 14.7787C87.9482 15.3271 89.2814 16.1025 90.4539 17.1048L89.0072 23.0618C88.3075 21.8893 87.343 20.9059 86.1138 20.1116C84.8846 19.2985 83.4663 18.8919 81.8588 18.8919C80.327 18.8919 78.937 19.2701 77.6889 20.0265C76.4597 20.7641 75.4857 21.7664 74.7671 23.0334C74.0485 24.2815 73.6892 25.681 73.6892 27.2317C73.6892 28.7635 74.0485 30.1629 74.7671 31.43C75.4857 32.697 76.4597 33.7088 77.6889 34.4652C78.937 35.2027 80.327 35.5715 81.8588 35.5715C83.4473 35.5715 84.8562 35.1744 86.0855 34.3801C87.3336 33.5669 88.3075 32.5741 89.0072 31.4016L90.4539 37.3586C89.2625 38.342 87.9198 39.1174 86.4259 39.6847C84.9508 40.2331 83.3717 40.5073 81.6886 40.5073Z" fill="white"/>
</g>
</svg>
