<svg width="135" height="69" viewBox="0 0 135 69" fill="none" xmlns="http://www.w3.org/2000/svg">
<g opacity="0.6">
<path d="M11.1114 40.9258V44.6006H4.07359V47.3048H10.47V50.9797H4.07359V56.544H0V40.9258H11.1114Z" fill="white"/>
<path d="M20.5415 40.5811C26.0365 40.5811 28.7927 44.3773 28.7927 48.7282C28.7927 53.0791 26.0365 56.8753 20.5415 56.8753C15.0465 56.8753 12.2903 53.0791 12.2903 48.7282C12.2903 44.3773 15.0465 40.5811 20.5415 40.5811ZM20.5415 44.3773C17.872 44.3773 16.4679 46.232 16.4679 48.7282C16.4679 51.2243 17.872 53.0791 20.5415 53.0791C23.211 53.0791 24.6151 51.2243 24.6151 48.7282C24.6151 46.232 23.211 44.3773 20.5415 44.3773Z" fill="white"/>
<path d="M30.925 56.544V40.9258H37.4081C40.5283 40.9258 43.7179 42.0698 43.7179 46.1954C43.7179 48.7782 42.4698 50.1823 40.771 50.8757L45.0179 56.544H40.4243L36.7494 51.465H34.9813V56.544H30.9077H30.925ZM34.9986 48.1022H37.5988C38.7602 48.1022 39.5576 47.4955 39.5576 46.2994C39.5576 45.1033 38.7602 44.4966 37.5988 44.4966H34.9986V48.1195V48.1022Z" fill="white"/>
<path d="M57.6536 40.9258V44.4966H50.6332V46.8888H56.9949V50.4423H50.6332V52.9904H57.7749V56.5613H46.5596V40.9431H57.6536V40.9258Z" fill="white"/>
<path d="M71.2444 40.9258V44.6006H64.2067V47.3048H70.6031V50.9797H64.2067V56.544H60.1331V40.9258H71.2444Z" fill="white"/>
<path d="M73.4114 56.544V40.9258H79.8945C83.0147 40.9258 86.2042 42.0698 86.2042 46.1954C86.2042 48.7782 84.9561 50.1823 83.2573 50.8757L87.5043 56.544H82.9106L79.2357 51.465H77.4676V56.544H73.394H73.4114ZM77.485 48.1022H80.0851C81.2465 48.1022 82.0439 47.4955 82.0439 46.2994C82.0439 45.1033 81.2465 44.4966 80.0851 44.4966H77.485V48.1195V48.1022Z" fill="white"/>
<path d="M96.2761 40.5811C101.771 40.5811 104.527 44.3773 104.527 48.7282C104.527 53.0791 101.771 56.8753 96.2761 56.8753C90.7811 56.8753 88.0249 53.0791 88.0249 48.7282C88.0249 44.3773 90.7811 40.5811 96.2761 40.5811ZM96.2761 44.3773C93.6066 44.3773 92.2025 46.232 92.2025 48.7282C92.2025 51.2243 93.6066 53.0791 96.2761 53.0791C98.9456 53.0791 100.35 51.2243 100.35 48.7282C100.35 46.232 98.9456 44.3773 96.2761 44.3773Z" fill="white"/>
<path d="M106.659 56.544V40.9258H110.507L116.54 49.8876C116.47 49.1596 116.453 48.1715 116.453 47.3048V40.9258H120.526V56.544H116.678L110.646 47.5995C110.715 48.3275 110.733 49.3156 110.733 50.1649V56.544H106.659Z" fill="white"/>
<path d="M135 40.9258V44.6006H130.666V56.544H126.593V44.6006H122.242V40.9258H135Z" fill="white"/>
<path d="M46.8727 59.4736C49.0741 59.4736 50.7556 60.2017 50.7556 62.5765C50.7556 64.9513 49.0741 65.662 46.8727 65.6793H45.6939V68.5221H43.3364V59.4736H46.8553H46.8727ZM46.994 61.5364H45.7112V63.5992H46.994C47.7047 63.5992 48.3461 63.3738 48.3461 62.5591C48.3461 61.7444 47.7047 61.5191 46.994 61.5191V61.5364Z" fill="white"/>
<path d="M56.1808 59.2666C59.3703 59.2666 60.9478 61.4681 60.9478 63.9815C60.9478 66.495 59.353 68.6964 56.1808 68.6964C53.0086 68.6964 51.4138 66.495 51.4138 63.9815C51.4138 61.4681 53.0086 59.2666 56.1808 59.2666ZM56.1808 61.4681C54.638 61.4681 53.8233 62.5428 53.8233 63.9815C53.8233 65.4203 54.638 66.495 56.1808 66.495C57.7236 66.495 58.5383 65.4203 58.5383 63.9815C58.5383 62.5428 57.7236 61.4681 56.1808 61.4681Z" fill="white"/>
<path d="M74.7115 59.4736L71.99 68.5221H69.4419L67.9338 62.9231L66.4257 68.5221H63.8775L61.156 59.4736H63.7042L65.2123 65.8353L66.911 59.4736H68.9738L70.6726 65.8353L72.1807 59.4736H74.7289H74.7115Z" fill="white"/>
<path d="M82.0446 59.4763V61.5391H77.9883V62.9258H81.6632V64.9713H77.9883V66.4447H82.1313V68.5075H75.6309V59.459H82.0446V59.4763Z" fill="white"/>
<path d="M83.4998 68.5075V59.459H87.2613C89.0641 59.459 90.9189 60.1177 90.9189 62.5098C90.9189 64.0006 90.1908 64.8153 89.2201 65.214L91.6816 68.4901H89.0294L86.8973 65.5433H85.8746V68.4901H83.5171L83.4998 68.5075ZM85.8399 63.6192H87.348C88.024 63.6192 88.4747 63.2725 88.4747 62.5792C88.4747 61.8858 88.024 61.5391 87.348 61.5391H85.8399V63.6365V63.6192Z" fill="white"/>
<path d="M71.2619 3.81354L67.5003 7.64441L63.7388 3.81354L67.5003 0L71.2619 3.81354Z" fill="white"/>
<path d="M59.9769 15.2735L56.2153 11.46L52.4364 15.2735L48.6748 19.1044L52.4364 22.9179L56.2153 26.7314L59.9769 22.9179L56.2153 19.1044L59.9769 15.2735Z" fill="white"/>
<path d="M67.5005 7.6463L63.739 3.81543L59.9774 7.6463L56.2158 11.4598L59.9774 15.2734L63.739 19.1043L67.5005 15.2734L63.739 11.4598L67.5005 7.6463Z" fill="white"/>
<path d="M75.0402 7.6463L71.2613 3.81543L67.4998 7.6463L71.2613 11.4598L67.4998 15.2734L71.2613 19.1043L75.0402 15.2734L78.8018 11.4598L75.0402 7.6463Z" fill="white"/>
<path d="M67.5005 22.919L63.739 19.1055L59.9774 22.919L56.2158 26.7325L59.9774 30.5634L63.739 34.377L67.5005 30.5634L63.739 26.7325L67.5005 22.919Z" fill="white"/>
<path d="M71.2619 34.3731L67.5003 38.1867L63.7388 34.3731L67.5003 30.5596L71.2619 34.3731Z" fill="white"/>
<path d="M75.0402 22.919L71.2613 19.1055L67.4998 22.919L71.2613 26.7325L67.4998 30.5634L71.2613 34.377L75.0402 30.5634L78.8018 26.7325L75.0402 22.919Z" fill="white"/>
<path d="M82.5639 15.2735L78.8023 11.46L75.0408 15.2735L78.8023 19.1044L75.0408 22.9179L78.8023 26.7314L82.5639 22.9179L86.3255 19.1044L82.5639 15.2735Z" fill="white"/>
</g>
</svg>
