<svg width="160" height="160" viewBox="0 0 160 160" fill="none" xmlns="http://www.w3.org/2000/svg">
<path d="M58.8814 127V115.364H65.6143V116.318H59.9439V120.699H65.0859V121.653H59.9439V127H58.8814ZM68.0575 127V118.273H69.0746V127H68.0575ZM68.5746 116.773C68.3662 116.773 68.1882 116.703 68.0405 116.562C67.8928 116.419 67.8189 116.246 67.8189 116.045C67.8189 115.845 67.8928 115.674 68.0405 115.534C68.1882 115.39 68.3662 115.318 68.5746 115.318C68.7829 115.318 68.9609 115.39 69.1087 115.534C69.2564 115.674 69.3303 115.845 69.3303 116.045C69.3303 116.246 69.2564 116.419 69.1087 116.562C68.9609 116.703 68.7829 116.773 68.5746 116.773ZM75.0788 130.455C74.4841 130.455 73.9633 130.377 73.5163 130.222C73.0694 130.07 72.6925 129.862 72.3857 129.597C72.0788 129.331 71.8402 129.034 71.6697 128.705L72.4993 128.159C72.6243 128.379 72.791 128.595 72.9993 128.807C73.2114 129.019 73.486 129.195 73.8232 129.335C74.1641 129.475 74.5826 129.545 75.0788 129.545C75.8516 129.545 76.4747 129.352 76.9482 128.966C77.4254 128.58 77.6641 127.979 77.6641 127.165V125.199H77.5732C77.4557 125.464 77.2872 125.729 77.0675 125.994C76.8478 126.256 76.5599 126.473 76.2038 126.648C75.8516 126.822 75.4141 126.909 74.8913 126.909C74.1944 126.909 73.575 126.737 73.0334 126.392C72.4955 126.047 72.0713 125.555 71.7607 124.915C71.4538 124.271 71.3004 123.504 71.3004 122.614C71.3004 121.731 71.45 120.955 71.7493 120.284C72.0523 119.614 72.4747 119.091 73.0163 118.716C73.558 118.341 74.1887 118.153 74.9084 118.153C75.4425 118.153 75.8857 118.248 76.2379 118.438C76.5902 118.623 76.8724 118.854 77.0845 119.131C77.3004 119.407 77.469 119.676 77.5902 119.938H77.6925V118.273H78.6811V127.227C78.6811 127.966 78.5239 128.574 78.2095 129.051C77.8951 129.528 77.4671 129.881 76.9254 130.108C76.3838 130.339 75.7682 130.455 75.0788 130.455ZM75.0107 125.983C75.5713 125.983 76.0504 125.848 76.4482 125.58C76.8459 125.307 77.1508 124.917 77.3629 124.409C77.575 123.902 77.6811 123.297 77.6811 122.597C77.6811 121.915 77.5769 121.311 77.3686 120.784C77.1603 120.254 76.8572 119.837 76.4595 119.534C76.0656 119.227 75.5826 119.074 75.0107 119.074C74.4273 119.074 73.9349 119.231 73.5334 119.545C73.1319 119.86 72.8288 120.284 72.6243 120.818C72.4197 121.348 72.3175 121.941 72.3175 122.597C72.3175 123.263 72.4216 123.852 72.63 124.364C72.8383 124.871 73.1432 125.269 73.5447 125.557C73.9463 125.841 74.4349 125.983 75.0107 125.983ZM81.3587 127V118.273H82.3416V119.614H82.4325C82.6068 119.163 82.8965 118.809 83.3018 118.551C83.7109 118.29 84.2015 118.159 84.7734 118.159C85.3757 118.159 85.87 118.301 86.2564 118.585C86.6465 118.866 86.9382 119.252 87.1314 119.744H87.2053C87.4022 119.259 87.7223 118.875 88.1655 118.591C88.6125 118.303 89.1541 118.159 89.7905 118.159C90.6011 118.159 91.2412 118.415 91.7109 118.926C92.1806 119.434 92.4155 120.176 92.4155 121.153V127H91.4041V121.153C91.4041 120.464 91.228 119.947 90.8757 119.602C90.5234 119.258 90.0594 119.085 89.4837 119.085C88.817 119.085 88.3037 119.29 87.9439 119.699C87.584 120.108 87.4041 120.627 87.4041 121.256V127H86.37V121.062C86.37 120.472 86.2053 119.994 85.8757 119.631C85.5462 119.267 85.0821 119.085 84.4837 119.085C84.0821 119.085 83.7204 119.184 83.3984 119.381C83.0803 119.578 82.8284 119.852 82.6428 120.205C82.4609 120.553 82.37 120.955 82.37 121.409V127H81.3587ZM97.5305 127.199C97.004 127.199 96.523 127.097 96.0874 126.892C95.6518 126.684 95.3052 126.384 95.0476 125.994C94.79 125.6 94.6612 125.123 94.6612 124.562C94.6612 124.131 94.7427 123.767 94.9055 123.472C95.0684 123.176 95.2995 122.934 95.5987 122.744C95.898 122.555 96.2521 122.405 96.6612 122.295C97.0703 122.186 97.5211 122.1 98.0135 122.04C98.5021 121.979 98.915 121.926 99.2521 121.881C99.593 121.835 99.8525 121.763 100.031 121.665C100.209 121.566 100.298 121.407 100.298 121.188V120.983C100.298 120.388 100.12 119.92 99.7635 119.58C99.4112 119.235 98.9036 119.062 98.2408 119.062C97.612 119.062 97.0987 119.201 96.701 119.477C96.3071 119.754 96.0305 120.08 95.8714 120.455L94.9112 120.108C95.1082 119.631 95.3809 119.25 95.7294 118.966C96.0779 118.678 96.468 118.472 96.8999 118.347C97.3317 118.218 97.7692 118.153 98.2124 118.153C98.5457 118.153 98.8923 118.197 99.2521 118.284C99.6158 118.371 99.9529 118.523 100.263 118.739C100.574 118.951 100.826 119.248 101.019 119.631C101.212 120.009 101.309 120.491 101.309 121.074V127H100.298V125.619H100.235C100.114 125.877 99.9339 126.127 99.6953 126.369C99.4567 126.612 99.1574 126.811 98.7976 126.966C98.4377 127.121 98.0154 127.199 97.5305 127.199ZM97.6669 126.273C98.2048 126.273 98.6707 126.153 99.0646 125.915C99.4586 125.676 99.7616 125.36 99.9737 124.966C100.19 124.568 100.298 124.131 100.298 123.653V122.392C100.222 122.464 100.095 122.528 99.9169 122.585C99.7427 122.642 99.54 122.693 99.3089 122.739C99.0817 122.78 98.8544 122.816 98.6271 122.847C98.3999 122.877 98.1953 122.903 98.0135 122.926C97.5211 122.987 97.1006 123.081 96.7521 123.21C96.4036 123.339 96.1366 123.517 95.951 123.744C95.7654 123.968 95.6726 124.256 95.6726 124.608C95.6726 125.138 95.862 125.549 96.2408 125.841C96.6196 126.129 97.0949 126.273 97.6669 126.273Z" fill="white"/>
<path fill-rule="evenodd" clip-rule="evenodd" d="M69.5931 58.1973C65.2859 58.1973 61.7941 61.6907 61.7941 66C61.7941 70.3093 65.2859 73.8027 69.5931 73.8027H77.6029V66V58.1973H69.5931ZM89.1961 54.4014L89.4069 54.4014C93.7141 54.4014 97.2059 50.908 97.2059 46.5986C97.2059 42.2893 93.7141 38.7959 89.4069 38.7959H81.3971V54.4014L89.1961 54.4014ZM95.7643 56.2993C98.9179 54.2264 101 50.6558 101 46.5986C101 40.1929 95.8096 35 89.4069 35H81.3971H79.5H77.6029H69.5931C63.1904 35 58 40.1929 58 46.5986C58 50.6558 60.0821 54.2264 63.2357 56.2993C60.0821 58.3722 58 61.9428 58 66C58 70.0572 60.0821 73.6278 63.2357 75.7007C60.0821 77.7736 58 81.3442 58 85.4014C58 91.8204 63.2562 97 69.6455 97C76.0931 97 81.3971 91.7732 81.3971 85.2959V77.5986V75.7007V74.5818C83.4563 76.4561 86.1928 77.5986 89.1961 77.5986H89.4069C95.8096 77.5986 101 72.4057 101 66C101 61.9428 98.9179 58.3722 95.7643 56.2993ZM89.4069 58.1973L89.1961 58.1973C84.8888 58.1973 81.3971 61.6907 81.3971 66C81.3971 70.3093 84.8888 73.8027 89.1961 73.8027H89.4069C93.7141 73.8027 97.2059 70.3093 97.2059 66C97.2059 61.6907 93.7141 58.1973 89.4069 58.1973ZM61.7941 85.4014C61.7941 81.092 65.2859 77.5986 69.5931 77.5986H77.6029V85.2959C77.6029 89.6502 74.0244 93.2041 69.6455 93.2041C65.3249 93.2041 61.7941 89.6974 61.7941 85.4014ZM77.6029 54.4014H69.5931C65.2859 54.4014 61.7941 50.908 61.7941 46.5986C61.7941 42.2893 65.2859 38.7959 69.5931 38.7959H77.6029V54.4014Z" fill="white"/>
</svg>
