<svg width="178" height="37" viewBox="0 0 178 37" fill="none" xmlns="http://www.w3.org/2000/svg">
<g opacity="0.6">
<path d="M36.0663 1.69123C31.7242 -1.00308 25.9998 -0.369127 20.9134 2.81826C15.8091 -0.369127 10.1024 -1.00308 5.74256 1.69123C-1.11619 5.95282 -1.94916 16.9414 3.88165 26.2218C8.18831 33.0721 14.923 37.0695 20.9134 36.9991C26.9036 37.0695 33.6383 33.0721 37.9449 26.2218C43.7758 16.9414 42.9428 5.95282 36.0663 1.69123ZM7.03632 24.2671C5.81345 22.3124 4.90958 20.252 4.34245 18.1389C3.81077 16.149 3.61581 14.1943 3.7576 12.3628C4.02344 8.92889 5.42354 6.26979 7.70979 4.8434C9.99604 3.417 13.0266 3.32895 16.2522 4.61447C16.7307 4.80818 17.2092 5.0195 17.6877 5.26604C15.9687 6.81571 14.3914 8.66475 13.0621 10.7955C9.51752 16.4307 8.43643 22.6998 9.67703 27.701C8.70228 26.6621 7.83386 25.4998 7.03632 24.2671ZM37.4664 18.1213C36.8993 20.2344 35.9955 22.2948 34.7725 24.2494C33.9927 25.4998 33.1066 26.6444 32.1319 27.6834C33.2307 23.2105 32.4864 17.7162 29.7747 12.5565C29.5798 12.1867 29.1367 12.081 28.8 12.2924L20.3461 17.5402C20.0272 17.7339 19.9209 18.1564 20.1336 18.4911L21.3741 20.4634C21.5691 20.7804 21.9944 20.886 22.3311 20.6747L27.8075 17.2759C27.9847 17.8043 28.1619 18.3326 28.3038 18.8608C28.8355 20.8508 29.0304 22.8055 28.8886 24.6369C28.6228 28.0708 27.2227 30.7299 24.9364 32.1563C23.7845 32.8607 22.4552 33.2482 21.0197 33.2833C20.9842 33.2833 20.9487 33.2833 20.931 33.2833C20.8956 33.2833 20.8779 33.2833 20.8424 33.2833C19.3891 33.2482 18.06 32.8607 16.9257 32.1563C14.6394 30.7299 13.2216 28.0708 12.9735 24.6369C12.8317 22.7878 13.0266 20.8508 13.5583 18.8608C14.1254 16.7477 15.0293 14.6873 16.2522 12.7327C17.475 10.7779 18.9461 9.06977 20.6121 7.64337C22.1894 6.30502 23.8553 5.26604 25.5745 4.59686C28.7823 3.32895 31.8306 3.417 34.1168 4.82578C36.4031 6.25219 37.821 8.91128 38.069 12.3453C38.1931 14.1943 37.9982 16.1313 37.4664 18.1213Z" fill="white"/>
<path d="M81.0819 14.0366C85.5657 14.0366 89.1458 17.488 89.1458 21.8729C89.1458 26.2225 85.5481 29.6213 81.0819 29.6213C76.6335 29.6213 73.0534 26.2401 73.0534 21.8729C73.0357 17.488 76.6335 14.0366 81.0819 14.0366ZM81.0819 25.5357C83.1555 25.5357 84.7151 23.8804 84.7151 21.8553C84.7151 19.8302 83.1555 18.1397 81.0819 18.1397C79.0261 18.1397 77.4664 19.8126 77.4664 21.8553C77.4664 23.898 79.0261 25.5357 81.0819 25.5357ZM110.254 18.5798C110.254 24.8666 105.699 29.1986 99.1592 29.1986H90.989C90.5991 29.1986 90.3154 28.8992 90.3154 28.4942V8.68312C90.3154 8.31331 90.5814 8.01395 90.989 8.01395H99.1592C105.717 8.03156 110.254 12.258 110.254 18.5798ZM105.486 18.5798C105.486 14.8818 102.987 12.2051 99.3719 12.2051H94.888V25.0251H99.3719C102.987 25.0251 105.486 22.2075 105.486 18.5798ZM118.565 14.0366C120.551 14.0366 122.128 14.8818 122.819 16.0264V15.1108C122.819 14.7409 123.155 14.4415 123.458 14.4415H126.541C126.913 14.4415 127.179 14.7409 127.179 15.1108V28.5471C127.179 28.9169 126.913 29.181 126.541 29.181H123.475C123.138 29.181 122.837 28.9169 122.837 28.5471V27.6137C122.128 28.7584 120.515 29.6037 118.548 29.6037C114.72 29.6037 111.157 26.5571 111.157 21.8024C111.14 17.0302 114.738 14.0366 118.565 14.0366ZM119.381 25.5534C121.42 25.5534 122.943 24.0037 122.943 21.8377C122.943 19.6717 121.42 18.122 119.381 18.122C117.343 18.122 115.819 19.6717 115.819 21.8377C115.819 24.0037 117.361 25.5534 119.381 25.5534ZM135.74 14.0366C137.742 14.0366 139.355 14.8818 140.063 15.9736V8.66551C140.063 8.2957 140.365 8.03156 140.737 8.03156H143.821C144.193 8.03156 144.459 8.2957 144.459 8.66551V28.5647C144.459 28.9345 144.193 29.1986 143.821 29.1986H140.719C140.382 29.1986 140.081 28.9345 140.081 28.5647V27.6313C139.266 28.7759 137.759 29.6213 135.792 29.6213C131.964 29.6213 128.402 26.5748 128.402 21.8201C128.402 17.0302 131.929 14.0366 135.74 14.0366ZM136.643 25.6062C138.664 25.6062 140.187 24.039 140.187 21.8553C140.187 19.6717 138.664 18.1044 136.643 18.1044C134.622 18.1044 133.099 19.6717 133.099 21.8553C133.099 24.0213 134.622 25.6062 136.643 25.6062ZM153.001 14.0366C155.004 14.0366 156.617 14.8818 157.325 15.9736V8.66551C157.325 8.2957 157.627 8.03156 157.999 8.03156H161.083C161.455 8.03156 161.721 8.2957 161.721 8.66551V28.5647C161.721 28.9345 161.455 29.1986 161.083 29.1986H157.999C157.662 29.1986 157.361 28.9345 157.361 28.5647V27.6313C156.545 28.7759 155.039 29.6213 153.072 29.6213C149.244 29.6213 145.682 26.5748 145.682 21.8201C145.664 17.0302 149.191 14.0366 153.001 14.0366ZM153.905 25.6062C155.925 25.6062 157.45 24.039 157.45 21.8553C157.45 19.6717 155.925 18.1044 153.905 18.1044C151.885 18.1044 150.361 19.6717 150.361 21.8553C150.361 24.0213 151.885 25.6062 153.905 25.6062ZM177.317 14.4591H174.251C173.772 14.4591 173.524 14.7938 173.436 15.1635L170.6 25.6767L167.57 15.1635C167.392 14.6001 167.126 14.4591 166.719 14.4591H163.493C162.731 14.4591 162.59 14.9698 162.749 15.4806L166.86 28.5471C166.985 28.9169 167.232 29.181 167.676 29.181H169.537L169.147 30.4841C168.757 31.6112 168.03 31.9106 167.091 31.9106C166.275 31.9106 165.744 31.5936 165.177 31.2238C164.964 31.0829 164.787 31.0125 164.574 31.0125C164.291 31.0125 164.113 31.1357 163.847 31.5056L162.944 32.8615C162.766 33.1432 162.677 33.3017 162.677 33.6011C162.677 34.0766 163.156 34.3759 163.741 34.7105C164.734 35.274 166.01 35.5557 167.41 35.5557C170.476 35.5557 172.461 33.9004 173.347 31.1181L177.937 15.4806C178.114 14.8994 177.92 14.4591 177.317 14.4591ZM67.9493 26.3107C66.3365 28.3358 63.5362 29.6037 60.3638 29.6037C54.409 29.6037 49.7656 25.1483 49.7656 18.8264C49.7656 12.2403 54.7812 7.71458 61.126 7.71458C65.8047 7.71458 69.5442 9.72211 71.2103 13.7372C71.2634 13.8604 71.2812 13.9661 71.2812 14.0717C71.2812 14.2654 71.1571 14.4064 70.7494 14.5472L67.8075 15.6743C67.577 15.7447 67.3821 15.7447 67.2403 15.6743C67.0808 15.6038 66.9922 15.4629 66.8858 15.2692C65.8225 13.2616 63.9261 11.8881 61.0196 11.8881C57.2447 11.8881 54.533 14.8289 54.533 18.6151C54.533 22.2955 56.837 25.3245 61.126 25.3245C63.3768 25.3245 65.1845 24.2678 66.0174 23.1056H63.3413C62.9514 23.1056 62.6501 22.8062 62.6501 22.4188V20.1471C62.6501 19.7597 62.9514 19.4603 63.3413 19.4603H71.1748C71.5647 19.4603 71.866 19.7246 71.866 20.112V28.459C71.866 28.8465 71.5647 29.1458 71.1748 29.1458H68.6405C68.2506 29.1458 67.9493 28.8465 67.9493 28.459V26.3107Z" fill="white"/>
</g>
</svg>
