<svg width="179" height="38" viewBox="0 0 179 38" fill="none" xmlns="http://www.w3.org/2000/svg">
<g opacity="0.6">
<path d="M55.6332 28.9011H53.1932V20.2751H43.667V28.9011H41.2441V10.5771H43.667V18.1029H53.1932V10.5771H55.6332V28.9011Z" fill="white"/>
<path d="M60.6375 28.9009H58.2773V15.6396H60.6375V28.9009Z" fill="white"/>
<path fill-rule="evenodd" clip-rule="evenodd" d="M59.6529 11.5408L60.5935 12.0824C60.6962 12.1394 60.7361 12.225 60.7361 12.339V13.4222C60.7361 13.5363 60.6905 13.6218 60.5935 13.6788L59.6529 14.2204C59.5674 14.2774 59.4534 14.2774 59.3507 14.2204L58.4101 13.6788C58.3246 13.6218 58.2676 13.5363 58.2676 13.4222V12.339C58.2676 12.225 58.3246 12.1394 58.4101 12.0824L59.3507 11.5408C59.4534 11.4838 59.5674 11.4838 59.6529 11.5408Z" fill="white"/>
<path d="M74.2685 15.6396L69.2574 28.9009H67.1595L62.1484 15.6396H64.6967L68.2085 26.016L71.7202 15.6396H74.2685Z" fill="white"/>
<path d="M81.413 29.2143C75.1478 29.6989 73.0841 21.1184 76.6585 17.1845C80.9285 12.8401 88.3282 16.5517 87.3762 22.8402H77.3882C76.9094 27.2929 83.682 29.334 84.6854 24.9383H87.1253C86.7662 27.8232 84.2179 29.2257 81.413 29.2143ZM84.8849 20.7707C84.5998 15.7877 77.7303 15.7649 77.4509 20.7707H84.8849Z" fill="white"/>
<path d="M99.5211 29.2146C96.9386 29.2146 95.006 28.6331 93.7291 27.4757C92.4521 26.3184 91.7793 24.8303 91.7109 23.0116H94.0483C94.1737 24.3799 94.7438 25.3891 95.7529 26.0447C96.7676 26.7004 97.9876 27.0253 99.4185 27.0253C100.775 27.0253 101.87 26.746 102.702 26.1872C103.529 25.6285 103.945 24.8702 103.945 23.9124C103.945 22.9033 103.517 22.1735 102.657 21.7117C101.796 21.2556 100.319 20.7995 98.227 20.3548C96.1291 19.9101 94.6298 19.2887 93.712 18.4962C92.7998 17.7037 92.3437 16.649 92.3437 15.332C92.3437 13.8496 92.9366 12.6296 94.1224 11.6831C95.3082 10.731 96.8873 10.2578 98.8541 10.2578C100.918 10.2578 102.588 10.7367 103.854 11.6945C105.119 12.6524 105.792 14.0093 105.866 15.7596H103.506C103.267 13.5418 101.75 12.4357 98.9568 12.4357C97.6056 12.4357 96.5624 12.6923 95.8213 13.1997C95.0802 13.7071 94.7096 14.3856 94.7096 15.2236C94.7096 15.9876 95.006 16.5635 95.6046 16.9511C96.1975 17.3331 97.3149 17.7037 98.9397 18.0629C100.57 18.4221 101.864 18.7756 102.822 19.1233C103.78 19.4711 104.601 20.0184 105.285 20.7539C105.969 21.4894 106.311 22.4814 106.311 23.7243C106.311 25.2978 105.684 26.6091 104.43 27.6468C103.175 28.6901 101.539 29.2089 99.5211 29.2089V29.2146Z" fill="white"/>
<path d="M114.169 29.2149C112.288 29.2149 110.777 28.6105 109.648 27.3961C108.52 26.1818 107.955 24.4771 107.955 22.2764C107.955 20.0757 108.52 18.3596 109.648 17.1509C110.777 15.9422 112.282 15.3379 114.169 15.3379C115.617 15.3379 116.832 15.7028 117.801 16.4382C118.77 17.1737 119.346 18.2285 119.517 19.6139H117.094C117.06 18.8214 116.763 18.217 116.199 17.8009C115.634 17.3847 114.962 17.1737 114.169 17.1737C113.046 17.1737 112.134 17.6013 111.433 18.4565C110.732 19.3117 110.384 20.5831 110.384 22.2764C110.384 23.9697 110.732 25.2296 111.433 26.0848C112.134 26.94 113.046 27.3676 114.169 27.3676C114.962 27.3676 115.64 27.1624 116.199 26.7405C116.763 26.3243 117.06 25.7257 117.094 24.9389H119.517C119.34 26.3243 118.77 27.379 117.801 28.1145C116.832 28.85 115.617 29.2149 114.169 29.2149Z" fill="white"/>
<path d="M123.958 28.9009H121.598V15.6396H123.958V28.9009Z" fill="white"/>
<path fill-rule="evenodd" clip-rule="evenodd" d="M122.983 11.5408L123.924 12.0824C124.026 12.1394 124.066 12.225 124.066 12.339V13.4222C124.066 13.5363 124.021 13.6218 123.924 13.6788L122.983 14.2204C122.897 14.2774 122.783 14.2774 122.681 14.2204L121.74 13.6788C121.655 13.6218 121.598 13.5363 121.598 13.4222V12.339C121.598 12.225 121.655 12.1394 121.74 12.0824L122.681 11.5408C122.783 11.4838 122.897 11.4838 122.983 11.5408Z" fill="white"/>
<path d="M142.64 17.3159C143.814 15.9932 145.137 15.3262 146.602 15.3262C149.595 15.3262 151.088 16.9567 151.088 20.2122V28.8896H148.728V20.3148C148.728 19.2316 148.534 18.4505 148.147 17.9773C147.759 17.5041 147.126 17.2646 146.243 17.2646C145.045 17.2646 143.843 17.9716 142.645 19.3912V28.8896H140.285V15.6283H142.645V17.3159H142.64Z" fill="white"/>
<path d="M159.321 29.2031C157.44 29.2031 155.929 28.5988 154.801 27.3844C153.672 26.17 153.107 24.4654 153.107 22.2647C153.107 20.064 153.672 18.3479 154.801 17.1392C155.929 15.9305 157.434 15.3262 159.321 15.3262C160.769 15.3262 161.984 15.6911 162.953 16.4265C163.922 17.162 164.498 18.2167 164.669 19.6021H162.246C162.212 18.8097 161.915 18.2053 161.351 17.7891C160.787 17.3729 160.114 17.162 159.321 17.162C158.198 17.162 157.286 17.5896 156.585 18.4448C155.884 19.3 155.536 20.5714 155.536 22.2647C155.536 23.9579 155.884 25.2179 156.585 26.0731C157.286 26.9283 158.198 27.3559 159.321 27.3559C160.114 27.3559 160.792 27.1507 161.351 26.7288C161.915 26.3126 162.212 25.7139 162.246 24.9272H164.669C164.492 26.3126 163.922 27.3673 162.953 28.1028C161.984 28.8383 160.769 29.2031 159.321 29.2031Z" fill="white"/>
<path d="M132.476 29.2201C126.21 29.7048 124.147 21.1243 127.721 17.1904C131.991 12.846 139.391 16.5576 138.439 22.8461H128.451C127.972 27.2988 134.744 29.3399 135.748 24.9442H138.188C137.829 27.829 135.28 29.2315 132.476 29.2201ZM135.953 20.7822C135.668 15.7993 128.798 15.7765 128.519 20.7822H135.953Z" fill="white"/>
<path d="M172.952 29.2201C166.687 29.7048 164.623 21.1243 168.198 17.1904C172.468 12.846 179.867 16.5576 178.915 22.8461H168.927C168.448 27.2988 175.221 29.3399 176.224 24.9442H178.664C178.305 27.829 175.757 29.2315 172.952 29.2201ZM176.43 20.7822C176.145 15.7993 169.275 15.7765 168.996 20.7822H176.43Z" fill="white"/>
<mask id="mask0_3501_817" style="mask-type:luminance" maskUnits="userSpaceOnUse" x="0" y="0" width="30" height="38">
<path d="M29.7621 0H0V37.0154H29.7621V0Z" fill="white"/>
</mask>
<g mask="url(#mask0_3501_817)">
<path d="M23.084 17.5139C19.193 19.8365 15.5045 22.0373 11.6135 24.3599C11.6135 21.8173 11.5787 19.5005 11.654 17.1838C11.6656 16.8711 12.1172 16.4888 12.4473 16.2803C15.7072 14.2937 18.9787 12.3245 22.2676 10.3842C22.9103 10.0078 23.1825 9.56759 23.1709 8.82045C23.1361 6.26626 23.1883 3.71207 23.1419 1.15789C23.1246 0.3007 23.4083 -0.0236412 24.2653 0.0111096C25.6433 0.0574441 27.033 0.0806113 28.4053 0.00531781C29.4823 -0.0583921 29.7544 0.358618 29.7487 1.38956C29.7139 12.116 29.7255 22.8424 29.7255 33.5688C29.7255 34.4086 29.6965 35.2485 29.7313 36.0883C29.7544 36.7485 29.4823 37.0034 28.8338 36.9976C27.3052 36.9744 25.7765 36.9513 24.2537 37.0092C23.3909 37.0381 23.1246 36.7312 23.1304 35.874C23.1593 30.2559 23.1477 24.6379 23.1419 19.0198C23.1419 18.6028 23.1014 18.18 23.0667 17.5197L23.084 17.5139Z" fill="white"/>
<path d="M6.60093 18.4699C6.60093 24.198 6.57777 29.9319 6.62409 35.6542C6.63567 36.7141 6.31141 37.0674 5.26337 37.0095C3.88528 36.9284 2.5014 36.9458 1.11753 37.0037C0.254773 37.0384 0 36.7141 0.00579029 35.8627C0.040532 30.6443 0.0231612 25.4259 0.0231612 20.2074C0.0231612 13.9291 0.040532 7.65659 0 1.37827C0 0.335747 0.289514 -0.0580963 1.34914 0.00561356C2.69248 0.0866989 4.04162 0.0751153 5.38497 0.00561356C6.35774 -0.0465127 6.62409 0.341538 6.6183 1.27981C6.58356 7.00791 6.60093 12.7418 6.60093 18.4641V18.4699Z" fill="white"/>
</g>
</g>
</svg>
