<svg width="157" height="34" viewBox="0 0 157 34" fill="none" xmlns="http://www.w3.org/2000/svg">
<path d="M48.7953 25.3492H46.6553V17.7833H38.2999V25.3492H36.1748V9.27734H38.2999V15.8781H46.6553V9.27734H48.7953V25.3492Z" fill="white"/>
<path d="M53.1853 25.3493H51.1152V13.7179H53.1853V25.3493Z" fill="white"/>
<path fill-rule="evenodd" clip-rule="evenodd" d="M52.3215 10.1225L53.1465 10.5975C53.2365 10.6475 53.2715 10.7225 53.2715 10.8225V11.7727C53.2715 11.8727 53.2315 11.9477 53.1465 11.9977L52.3215 12.4727C52.2465 12.5227 52.1465 12.5227 52.0565 12.4727L51.2315 11.9977C51.1564 11.9477 51.1064 11.8727 51.1064 11.7727V10.8225C51.1064 10.7225 51.1564 10.6475 51.2315 10.5975L52.0565 10.1225C52.1465 10.0725 52.2465 10.0725 52.3215 10.1225Z" fill="white"/>
<path d="M65.1412 13.7179L60.746 25.3493H58.9059L54.5107 13.7179H56.7458L59.826 22.819L62.9061 13.7179H65.1412Z" fill="white"/>
<path d="M71.4068 25.6242C65.9115 26.0493 64.1015 18.5234 67.2366 15.073C70.9818 11.2626 77.472 14.5179 76.637 20.0336H67.8766C67.4566 23.939 73.3969 25.7293 74.2769 21.8738H76.417C76.102 24.4041 73.8669 25.6342 71.4068 25.6242ZM74.4519 18.2184C74.2019 13.8479 68.1766 13.8279 67.9316 18.2184H74.4519Z" fill="white"/>
<path d="M87.2868 25.6243C85.0217 25.6243 83.3267 25.1142 82.2066 24.0991C81.0866 23.084 80.4965 21.7788 80.4365 20.1836H82.4866C82.5966 21.3838 83.0966 22.2689 83.9817 22.8439C84.8717 23.419 85.9418 23.704 87.1968 23.704C88.3869 23.704 89.3469 23.459 90.0769 22.969C90.802 22.4789 91.167 21.8138 91.167 20.9737C91.167 20.0886 90.792 19.4485 90.0369 19.0435C89.2819 18.6434 87.9869 18.2434 86.1518 17.8534C84.3117 17.4633 82.9966 16.9182 82.1916 16.2232C81.3916 15.5281 80.9915 14.603 80.9915 13.4478C80.9915 12.1477 81.5116 11.0776 82.5516 10.2475C83.5917 9.41236 84.9767 8.99731 86.7018 8.99731C88.5119 8.99731 89.9769 9.41736 91.087 10.2575C92.197 11.0976 92.7871 12.2877 92.8521 13.8229H90.782C90.572 11.8777 89.2419 10.9075 86.7918 10.9075C85.6067 10.9075 84.6917 11.1326 84.0417 11.5776C83.3917 12.0227 83.0666 12.6177 83.0666 13.3528C83.0666 14.0229 83.3266 14.528 83.8517 14.868C84.3717 15.203 85.3517 15.5281 86.7768 15.8431C88.2069 16.1582 89.3419 16.4682 90.1819 16.7732C91.022 17.0783 91.742 17.5583 92.342 18.2034C92.9421 18.8485 93.2421 19.7186 93.2421 20.8087C93.2421 22.1889 92.692 23.339 91.592 24.2491C90.492 25.1642 89.0569 25.6193 87.2868 25.6193V25.6243Z" fill="white"/>
<path d="M100.138 25.6242C98.4877 25.6242 97.1626 25.0942 96.1726 24.0291C95.1825 22.9639 94.6875 21.4688 94.6875 19.5385C94.6875 17.6083 95.1825 16.1031 96.1726 15.043C97.1626 13.9829 98.4827 13.4528 100.138 13.4528C101.408 13.4528 102.473 13.7729 103.323 14.4179C104.173 15.063 104.678 15.9881 104.828 17.2033H102.703C102.673 16.5082 102.413 15.9781 101.918 15.6131C101.423 15.248 100.833 15.063 100.138 15.063C99.1527 15.063 98.3527 15.4381 97.7376 16.1881C97.1226 16.9382 96.8176 18.0534 96.8176 19.5385C96.8176 21.0237 97.1226 22.1288 97.7376 22.8789C98.3527 23.629 99.1527 24.0041 100.138 24.0041C100.833 24.0041 101.428 23.824 101.918 23.454C102.413 23.0889 102.673 22.5639 102.703 21.8738H104.828C104.673 23.0889 104.173 24.0141 103.323 24.6591C102.473 25.3042 101.408 25.6242 100.138 25.6242Z" fill="white"/>
<path d="M108.722 25.3493H106.652V13.7179H108.722V25.3493Z" fill="white"/>
<path fill-rule="evenodd" clip-rule="evenodd" d="M107.867 10.1225L108.692 10.5975C108.782 10.6475 108.817 10.7225 108.817 10.8225V11.7727C108.817 11.8727 108.777 11.9477 108.692 11.9977L107.867 12.4727C107.792 12.5227 107.692 12.5227 107.602 12.4727L106.777 11.9977C106.702 11.9477 106.652 11.8727 106.652 11.7727V10.8225C106.652 10.7225 106.702 10.6475 106.777 10.5975L107.602 10.1225C107.692 10.0725 107.792 10.0725 107.867 10.1225Z" fill="white"/>
<path d="M125.109 15.1881C126.139 14.0279 127.299 13.4429 128.584 13.4429C131.209 13.4429 132.519 14.873 132.519 17.7284V25.3393H130.449V17.8184C130.449 16.8683 130.279 16.1832 129.939 15.7681C129.599 15.3531 129.044 15.1431 128.269 15.1431C127.219 15.1431 126.164 15.7631 125.114 17.0083V25.3393H123.044V13.7079H125.114V15.1881H125.109Z" fill="white"/>
<path d="M139.739 25.6142C138.089 25.6142 136.764 25.0842 135.774 24.019C134.784 22.9539 134.289 21.4587 134.289 19.5285C134.289 17.5983 134.784 16.0931 135.774 15.033C136.764 13.9729 138.084 13.4428 139.739 13.4428C141.009 13.4428 142.074 13.7628 142.924 14.4079C143.774 15.053 144.279 15.9781 144.429 17.1932H142.304C142.274 16.4982 142.014 15.9681 141.519 15.6031C141.024 15.238 140.434 15.053 139.739 15.053C138.754 15.053 137.954 15.428 137.339 16.1781C136.724 16.9282 136.419 18.0433 136.419 19.5285C136.419 21.0137 136.724 22.1188 137.339 22.8689C137.954 23.619 138.754 23.994 139.739 23.994C140.434 23.994 141.029 23.814 141.519 23.444C142.014 23.0789 142.274 22.5539 142.304 21.8638H144.429C144.274 23.0789 143.774 24.004 142.924 24.6491C142.074 25.2942 141.009 25.6142 139.739 25.6142Z" fill="white"/>
<path d="M116.193 25.6293C110.698 26.0543 108.888 18.5284 112.023 15.078C115.768 11.2676 122.258 14.523 121.423 20.0386H112.663C112.243 23.9441 118.183 25.7343 119.063 21.8788H121.203C120.888 24.4091 118.653 25.6393 116.193 25.6293ZM119.243 18.2284C118.993 13.8579 112.968 13.8379 112.723 18.2284H119.243Z" fill="white"/>
<path d="M151.695 25.6293C146.2 26.0543 144.39 18.5284 147.525 15.078C151.27 11.2676 157.76 14.523 156.925 20.0386H148.165C147.745 23.9441 153.685 25.7343 154.565 21.8788H156.705C156.39 24.4091 154.155 25.6393 151.695 25.6293ZM154.745 18.2284C154.495 13.8579 148.47 13.8379 148.225 18.2284H154.745Z" fill="white"/>
<mask id="mask0_640_1824" style="mask-type:luminance" maskUnits="userSpaceOnUse" x="0" y="0" width="27" height="34">
<path d="M26.1042 0.573242H0V33.0355H26.1042V0.573242Z" fill="white"/>
</mask>
<g mask="url(#mask0_640_1824)">
<path d="M20.2485 15.9332C16.8356 17.97 13.6005 19.9002 10.1877 21.937C10.1877 19.7072 10.1572 17.6754 10.2232 15.6437C10.2334 15.3694 10.6295 15.0342 10.919 14.8513C13.7783 13.1091 16.6477 11.3821 19.5324 9.68051C20.0961 9.35035 20.3348 8.96431 20.3246 8.30908C20.2942 6.06907 20.3399 3.82907 20.2992 1.58907C20.284 0.837322 20.5329 0.552877 21.2845 0.583353C22.4932 0.623988 23.7121 0.644306 24.9157 0.578274C25.8604 0.522401 26.099 0.888116 26.094 1.79224C26.0635 11.1992 26.0737 20.6062 26.0737 30.0132C26.0737 30.7497 26.0483 31.4862 26.0787 32.2227C26.099 32.8018 25.8604 33.0253 25.2915 33.0202C23.9508 32.9999 22.61 32.9796 21.2743 33.0304C20.5176 33.0558 20.284 32.7866 20.2891 32.0348C20.3145 27.1078 20.3043 22.1808 20.2992 17.2538C20.2992 16.8881 20.2637 16.5173 20.2332 15.9383L20.2485 15.9332Z" fill="white"/>
<path d="M5.78964 16.771C5.78964 21.7945 5.76933 26.823 5.80996 31.8414C5.82012 32.771 5.53571 33.0808 4.61648 33.03C3.40776 32.9589 2.19397 32.9741 0.980177 33.0249C0.22346 33.0554 0 32.771 0.00507864 32.0243C0.0355504 27.4478 0.0203145 22.8713 0.0203145 18.2948C0.0203145 12.7887 0.0355504 7.28777 0 1.78173C0 0.867447 0.253932 0.52205 1.18332 0.577923C2.36157 0.649034 3.54489 0.638875 4.72313 0.577923C5.57634 0.532209 5.80996 0.872527 5.80488 1.69538C5.77441 6.71888 5.78964 11.7475 5.78964 16.7659V16.771Z" fill="white"/>
</g>
</svg>
