<svg width="160" height="160" viewBox="0 0 160 160" fill="none" xmlns="http://www.w3.org/2000/svg">
<path d="M32.9595 127V115.364H34.022V120.699H40.6243V115.364H41.6868V127H40.6243V121.653H34.022V127H32.9595ZM44.5732 127V118.273H45.5902V127H44.5732ZM45.0902 116.773C44.8819 116.773 44.7038 116.703 44.5561 116.562C44.4084 116.419 44.3345 116.246 44.3345 116.045C44.3345 115.845 44.4084 115.674 44.5561 115.534C44.7038 115.39 44.8819 115.318 45.0902 115.318C45.2985 115.318 45.4766 115.39 45.6243 115.534C45.772 115.674 45.8459 115.845 45.8459 116.045C45.8459 116.246 45.772 116.419 45.6243 116.562C45.4766 116.703 45.2985 116.773 45.0902 116.773ZM55.0206 118.273L51.8331 127H50.7536L47.5661 118.273H48.6626L51.2536 125.665H51.3331L53.924 118.273H55.0206ZM60.2152 127.182C59.4008 127.182 58.6963 126.992 58.1016 126.614C57.5069 126.231 57.0466 125.703 56.7209 125.028C56.3989 124.35 56.2379 123.57 56.2379 122.688C56.2379 121.809 56.3989 121.028 56.7209 120.347C57.0466 119.661 57.4955 119.125 58.0675 118.739C58.6432 118.348 59.308 118.153 60.0618 118.153C60.5353 118.153 60.9917 118.241 61.4311 118.415C61.8705 118.585 62.2644 118.848 62.6129 119.205C62.9652 119.557 63.2436 120.002 63.4482 120.54C63.6527 121.074 63.755 121.706 63.755 122.438V122.938H56.9368V122.045H62.7209C62.7209 121.485 62.6072 120.981 62.38 120.534C62.1565 120.083 61.844 119.727 61.4425 119.466C61.0447 119.205 60.5845 119.074 60.0618 119.074C59.5088 119.074 59.022 119.222 58.6016 119.517C58.1811 119.812 57.8516 120.203 57.6129 120.688C57.3781 121.172 57.2588 121.703 57.255 122.278V122.812C57.255 123.506 57.3743 124.112 57.6129 124.631C57.8554 125.146 58.1982 125.545 58.6413 125.83C59.0845 126.114 59.6091 126.256 60.2152 126.256C60.6281 126.256 60.9898 126.191 61.3004 126.062C61.6148 125.934 61.8781 125.761 62.0902 125.545C62.3061 125.326 62.469 125.085 62.5788 124.824L63.5391 125.136C63.4065 125.504 63.1887 125.843 62.8857 126.153C62.5864 126.464 62.2114 126.714 61.7607 126.903C61.3137 127.089 60.7985 127.182 60.2152 127.182ZM77.0121 118.273C76.9477 117.625 76.6617 117.11 76.1541 116.727C75.6465 116.345 75.0083 116.153 74.2393 116.153C73.6977 116.153 73.2204 116.246 72.8075 116.432C72.3984 116.617 72.0765 116.875 71.8416 117.205C71.6106 117.53 71.495 117.902 71.495 118.318C71.495 118.625 71.5613 118.894 71.6939 119.125C71.8265 119.356 72.0045 119.555 72.228 119.722C72.4553 119.884 72.7053 120.025 72.978 120.142C73.2545 120.259 73.5329 120.358 73.8132 120.438L75.0405 120.79C75.4117 120.892 75.7829 121.023 76.1541 121.182C76.5253 121.341 76.8643 121.542 77.1712 121.784C77.4818 122.023 77.7299 122.316 77.9155 122.665C78.1049 123.009 78.1996 123.424 78.1996 123.909C78.1996 124.53 78.0386 125.089 77.7166 125.585C77.3947 126.081 76.9325 126.475 76.3303 126.767C75.728 127.055 75.0064 127.199 74.1655 127.199C73.3738 127.199 72.6863 127.068 72.103 126.807C71.5196 126.542 71.0613 126.176 70.728 125.71C70.3946 125.244 70.2071 124.705 70.1655 124.091H71.2564C71.2943 124.549 71.4458 124.937 71.7109 125.256C71.9761 125.574 72.3208 125.816 72.745 125.983C73.1693 126.146 73.6428 126.227 74.1655 126.227C74.745 126.227 75.2602 126.131 75.7109 125.938C76.1655 125.741 76.5215 125.468 76.7791 125.119C77.0405 124.767 77.1712 124.358 77.1712 123.892C77.1712 123.498 77.0689 123.169 76.8643 122.903C76.6598 122.634 76.3738 122.409 76.0064 122.227C75.6428 122.045 75.2204 121.884 74.7393 121.744L73.3473 121.335C72.4344 121.062 71.7261 120.686 71.2223 120.205C70.7185 119.723 70.4666 119.11 70.4666 118.364C70.4666 117.739 70.6333 117.189 70.9666 116.716C71.3037 116.239 71.7583 115.867 72.3303 115.602C72.906 115.333 73.5518 115.199 74.2678 115.199C74.9912 115.199 75.6314 115.331 76.1882 115.597C76.745 115.862 77.1863 116.227 77.5121 116.693C77.8416 117.155 78.0178 117.682 78.0405 118.273H77.0121ZM83.9553 127.182C83.175 127.182 82.495 126.987 81.9155 126.597C81.3397 126.206 80.8928 125.672 80.5746 124.994C80.2564 124.316 80.0973 123.544 80.0973 122.676C80.0973 121.801 80.2583 121.023 80.5803 120.341C80.906 119.659 81.3568 119.125 81.9325 118.739C82.5083 118.348 83.1768 118.153 83.9382 118.153C84.5215 118.153 85.05 118.267 85.5234 118.494C85.9969 118.718 86.3871 119.034 86.6939 119.443C87.0045 119.848 87.1996 120.322 87.2791 120.864H86.2564C86.1503 120.371 85.8946 119.951 85.4893 119.602C85.0878 119.25 84.5765 119.074 83.9553 119.074C83.3984 119.074 82.906 119.225 82.478 119.528C82.05 119.828 81.7147 120.246 81.4723 120.784C81.2337 121.318 81.1143 121.937 81.1143 122.642C81.1143 123.35 81.2318 123.977 81.4666 124.523C81.7015 125.064 82.031 125.489 82.4553 125.795C82.8833 126.102 83.3833 126.256 83.9553 126.256C84.3416 126.256 84.6939 126.184 85.0121 126.04C85.334 125.892 85.603 125.684 85.8189 125.415C86.0386 125.146 86.1863 124.826 86.2621 124.455H87.2848C87.209 124.981 87.0215 125.451 86.7223 125.864C86.4268 126.273 86.0424 126.595 85.5689 126.83C85.0992 127.064 84.5613 127.182 83.9553 127.182ZM89.4638 127V118.273H90.4808V127H89.4638ZM89.9808 116.773C89.7725 116.773 89.5945 116.703 89.4467 116.562C89.299 116.419 89.2251 116.246 89.2251 116.045C89.2251 115.845 89.299 115.674 89.4467 115.534C89.5945 115.39 89.7725 115.318 89.9808 115.318C90.1892 115.318 90.3672 115.39 90.5149 115.534C90.6626 115.674 90.7365 115.845 90.7365 116.045C90.7365 116.246 90.6626 116.419 90.5149 116.562C90.3672 116.703 90.1892 116.773 89.9808 116.773ZM96.6839 127.182C95.8696 127.182 95.165 126.992 94.5703 126.614C93.9756 126.231 93.5154 125.703 93.1896 125.028C92.8677 124.35 92.7067 123.57 92.7067 122.688C92.7067 121.809 92.8677 121.028 93.1896 120.347C93.5154 119.661 93.9643 119.125 94.5362 118.739C95.112 118.348 95.7768 118.153 96.5305 118.153C97.004 118.153 97.4605 118.241 97.8999 118.415C98.3393 118.585 98.7332 118.848 99.0817 119.205C99.4339 119.557 99.7124 120.002 99.9169 120.54C100.121 121.074 100.224 121.706 100.224 122.438V122.938H93.4055V122.045H99.1896C99.1896 121.485 99.076 120.981 98.8487 120.534C98.6252 120.083 98.3127 119.727 97.9112 119.466C97.5135 119.205 97.0533 119.074 96.5305 119.074C95.9775 119.074 95.4908 119.222 95.0703 119.517C94.6499 119.812 94.3203 120.203 94.0817 120.688C93.8468 121.172 93.7275 121.703 93.7237 122.278V122.812C93.7237 123.506 93.843 124.112 94.0817 124.631C94.3241 125.146 94.6669 125.545 95.1101 125.83C95.5533 126.114 96.0779 126.256 96.6839 126.256C97.0968 126.256 97.4586 126.191 97.7692 126.062C98.0836 125.934 98.3468 125.761 98.5589 125.545C98.7749 125.326 98.9377 125.085 99.0476 124.824L100.008 125.136C99.8752 125.504 99.6574 125.843 99.3544 126.153C99.0552 126.464 98.6802 126.714 98.2294 126.903C97.7824 127.089 97.2673 127.182 96.6839 127.182ZM103.464 121.545V127H102.452V118.273H103.435V119.642H103.526C103.731 119.195 104.049 118.837 104.481 118.568C104.916 118.295 105.454 118.159 106.094 118.159C106.682 118.159 107.197 118.282 107.64 118.528C108.087 118.771 108.433 119.129 108.68 119.602C108.93 120.076 109.055 120.657 109.055 121.347V127H108.043V121.409C108.043 120.693 107.843 120.127 107.441 119.71C107.043 119.294 106.509 119.085 105.839 119.085C105.38 119.085 104.973 119.184 104.617 119.381C104.261 119.578 103.979 119.862 103.771 120.233C103.566 120.6 103.464 121.038 103.464 121.545ZM115.127 127.182C114.347 127.182 113.667 126.987 113.087 126.597C112.512 126.206 112.065 125.672 111.746 124.994C111.428 124.316 111.269 123.544 111.269 122.676C111.269 121.801 111.43 121.023 111.752 120.341C112.078 119.659 112.529 119.125 113.104 118.739C113.68 118.348 114.349 118.153 115.11 118.153C115.693 118.153 116.222 118.267 116.695 118.494C117.169 118.718 117.559 119.034 117.866 119.443C118.176 119.848 118.371 120.322 118.451 120.864H117.428C117.322 120.371 117.067 119.951 116.661 119.602C116.26 119.25 115.748 119.074 115.127 119.074C114.57 119.074 114.078 119.225 113.65 119.528C113.222 119.828 112.887 120.246 112.644 120.784C112.406 121.318 112.286 121.937 112.286 122.642C112.286 123.35 112.404 123.977 112.638 124.523C112.873 125.064 113.203 125.489 113.627 125.795C114.055 126.102 114.555 126.256 115.127 126.256C115.513 126.256 115.866 126.184 116.184 126.04C116.506 125.892 116.775 125.684 116.991 125.415C117.21 125.146 117.358 124.826 117.434 124.455H118.457C118.381 124.981 118.193 125.451 117.894 125.864C117.599 126.273 117.214 126.595 116.741 126.83C116.271 127.064 115.733 127.182 115.127 127.182ZM124.153 127.182C123.338 127.182 122.634 126.992 122.039 126.614C121.444 126.231 120.984 125.703 120.658 125.028C120.336 124.35 120.175 123.57 120.175 122.688C120.175 121.809 120.336 121.028 120.658 120.347C120.984 119.661 121.433 119.125 122.005 118.739C122.581 118.348 123.246 118.153 123.999 118.153C124.473 118.153 124.929 118.241 125.369 118.415C125.808 118.585 126.202 118.848 126.55 119.205C126.903 119.557 127.181 120.002 127.386 120.54C127.59 121.074 127.692 121.706 127.692 122.438V122.938H120.874V122.045H126.658C126.658 121.485 126.545 120.981 126.317 120.534C126.094 120.083 125.781 119.727 125.38 119.466C124.982 119.205 124.522 119.074 123.999 119.074C123.446 119.074 122.96 119.222 122.539 119.517C122.119 119.812 121.789 120.203 121.55 120.688C121.316 121.172 121.196 121.703 121.192 122.278V122.812C121.192 123.506 121.312 124.112 121.55 124.631C121.793 125.146 122.136 125.545 122.579 125.83C123.022 126.114 123.547 126.256 124.153 126.256C124.566 126.256 124.927 126.191 125.238 126.062C125.552 125.934 125.816 125.761 126.028 125.545C126.244 125.326 126.406 125.085 126.516 124.824L127.477 125.136C127.344 125.504 127.126 125.843 126.823 126.153C126.524 126.464 126.149 126.714 125.698 126.903C125.251 127.089 124.736 127.182 124.153 127.182Z" fill="white"/>
<mask id="mask0_36_834" style="mask-type:luminance" maskUnits="userSpaceOnUse" x="58" y="38" width="44" height="54">
<path d="M101.418 38H58V92H101.418V38Z" fill="white"/>
</mask>
<g mask="url(#mask0_36_834)">
<path d="M91.6811 63.5506C86.0046 66.9388 80.6237 70.1495 74.9472 73.5377C74.9472 69.8285 74.8965 66.4487 75.0064 63.0689C75.0232 62.6127 75.6821 62.055 76.1636 61.7508C80.9194 58.8527 85.692 55.9799 90.49 53.1494C91.4276 52.6002 91.8247 51.958 91.8078 50.868C91.7571 47.1419 91.8331 43.4157 91.7655 39.6895C91.7402 38.439 92.1541 37.9658 93.4043 38.0165C95.4147 38.0841 97.442 38.1179 99.444 38.0081C101.015 37.9151 101.412 38.5235 101.404 40.0275C101.353 55.6757 101.37 71.324 101.37 86.9722C101.37 88.1974 101.328 89.4226 101.378 90.6477C101.412 91.611 101.015 91.9827 100.069 91.9743C97.839 91.9405 95.609 91.9067 93.3874 91.9912C92.1288 92.0334 91.7402 91.5856 91.7486 90.3351C91.7909 82.1392 91.774 73.9433 91.7655 65.7474C91.7655 65.139 91.7064 64.5222 91.6557 63.559L91.6811 63.5506Z" fill="white"/>
<path d="M67.6298 64.9447C67.6298 73.3011 67.596 81.666 67.6636 90.014C67.6804 91.5602 67.2074 92.0756 65.6785 91.9911C63.668 91.8728 61.6492 91.8982 59.6303 91.9827C58.3717 92.0334 58 91.5602 58.0084 90.3181C58.0591 82.7053 58.0338 75.0924 58.0338 67.4795C58.0338 58.3203 58.0591 49.1697 58 40.0105C58 38.4896 58.4224 37.9151 59.9682 38.008C61.9279 38.1263 63.8961 38.1094 65.8559 38.008C67.275 37.932 67.6636 38.4981 67.6551 39.8669C67.6044 48.2233 67.6298 56.5882 67.6298 64.9362V64.9447Z" fill="white"/>
</g>
</svg>
