<svg width="160" height="160" viewBox="0 0 160 160" fill="none" xmlns="http://www.w3.org/2000/svg">
<path d="M49.6236 127.339V115.703H50.6861V121.038H57.2884V115.703H58.3509V127.339H57.2884V121.992H50.6861V127.339H49.6236ZM66.7713 124.004V118.612H67.7827V127.339H66.7713V125.89H66.6918C66.4872 126.337 66.1634 126.71 65.7202 127.009C65.277 127.305 64.7353 127.453 64.0952 127.453C63.5384 127.453 63.044 127.331 62.6122 127.089C62.1804 126.843 61.8414 126.483 61.5952 126.009C61.349 125.536 61.2259 124.954 61.2259 124.265V118.612H62.2372V124.203C62.2372 124.884 62.438 125.434 62.8395 125.85C63.241 126.263 63.7562 126.47 64.3849 126.47C64.7789 126.47 65.1577 126.375 65.5213 126.185C65.8849 125.996 66.1842 125.72 66.419 125.356C66.6539 124.988 66.7713 124.538 66.7713 124.004ZM70.6705 127.339V115.703H71.6875V120.276H71.7784C71.892 120.015 72.0549 119.746 72.267 119.47C72.483 119.193 72.7652 118.962 73.1136 118.776C73.4659 118.587 73.9091 118.492 74.4432 118.492C75.1591 118.492 75.7879 118.682 76.3295 119.06C76.8712 119.435 77.2936 119.962 77.5966 120.64C77.8996 121.314 78.0511 122.1 78.0511 122.998C78.0511 123.899 77.8996 124.689 77.5966 125.367C77.2973 126.045 76.8769 126.574 76.3352 126.953C75.7973 127.331 75.1723 127.521 74.4602 127.521C73.9299 127.521 73.4867 127.426 73.1307 127.237C72.7784 127.047 72.4943 126.814 72.2784 126.538C72.0625 126.257 71.8958 125.985 71.7784 125.72H71.6534V127.339H70.6705ZM71.6705 122.981C71.6705 123.685 71.7746 124.31 71.983 124.856C72.1951 125.398 72.4981 125.824 72.892 126.134C73.2898 126.441 73.7708 126.595 74.3352 126.595C74.9148 126.595 75.4053 126.435 75.8068 126.117C76.2083 125.795 76.5133 125.362 76.7216 124.816C76.9299 124.271 77.0341 123.659 77.0341 122.981C77.0341 122.31 76.9299 121.706 76.7216 121.168C76.517 120.631 76.214 120.204 75.8125 119.89C75.411 119.572 74.9186 119.413 74.3352 119.413C73.767 119.413 73.2841 119.566 72.8864 119.873C72.4924 120.176 72.1913 120.596 71.983 121.134C71.7746 121.668 71.6705 122.284 71.6705 122.981ZM86.1364 120.526L85.2102 120.788C85.1193 120.526 84.9905 120.29 84.8239 120.078C84.6572 119.865 84.4394 119.697 84.1705 119.572C83.9053 119.447 83.5758 119.384 83.1818 119.384C82.5909 119.384 82.1061 119.524 81.7273 119.805C81.3485 120.085 81.1591 120.447 81.1591 120.89C81.1591 121.265 81.2879 121.57 81.5455 121.805C81.8068 122.036 82.2083 122.22 82.75 122.356L84.0682 122.68C84.7992 122.858 85.3466 123.14 85.7102 123.526C86.0777 123.913 86.2614 124.398 86.2614 124.981C86.2614 125.473 86.125 125.911 85.8523 126.293C85.5795 126.676 85.1989 126.977 84.7102 127.197C84.2254 127.413 83.6629 127.521 83.0227 127.521C82.1705 127.521 81.4678 127.329 80.9148 126.947C80.3617 126.56 80.0076 126.004 79.8523 125.276L80.8239 125.038C80.9489 125.557 81.1932 125.949 81.5568 126.214C81.9242 126.479 82.4072 126.612 83.0057 126.612C83.6761 126.612 84.2121 126.462 84.6136 126.163C85.0152 125.86 85.2159 125.481 85.2159 125.026C85.2159 124.674 85.0985 124.379 84.8636 124.14C84.6288 123.898 84.2727 123.72 83.7955 123.606L82.3693 123.265C81.6117 123.083 81.0511 122.795 80.6875 122.401C80.3239 122.007 80.142 121.519 80.142 120.935C80.142 120.454 80.2727 120.032 80.5341 119.668C80.7955 119.301 81.1553 119.013 81.6136 118.805C82.072 118.596 82.5947 118.492 83.1818 118.492C83.9811 118.492 84.6193 118.674 85.0966 119.038C85.5777 119.398 85.9242 119.894 86.1364 120.526ZM88.4759 130.612V118.612H89.4588V120.276H89.5781C89.6993 120.015 89.866 119.748 90.0781 119.475C90.2902 119.199 90.5705 118.966 90.919 118.776C91.2713 118.587 91.7145 118.492 92.2486 118.492C92.9683 118.492 93.5971 118.682 94.1349 119.06C94.6766 119.435 95.0971 119.962 95.3963 120.64C95.6993 121.314 95.8509 122.1 95.8509 122.998C95.8509 123.899 95.6993 124.689 95.3963 125.367C95.0971 126.045 94.6766 126.574 94.1349 126.953C93.5971 127.331 92.9721 127.521 92.2599 127.521C91.7334 127.521 91.2921 127.426 90.9361 127.237C90.5838 127.047 90.2978 126.814 90.0781 126.538C89.8622 126.257 89.6955 125.985 89.5781 125.72H89.4872V130.612H88.4759ZM89.4759 122.981C89.4759 123.685 89.58 124.31 89.7884 124.856C90.0005 125.398 90.3035 125.824 90.6974 126.134C91.0952 126.441 91.5762 126.595 92.1406 126.595C92.7202 126.595 93.2088 126.435 93.6065 126.117C94.008 125.795 94.313 125.362 94.5213 124.816C94.7334 124.271 94.8395 123.659 94.8395 122.981C94.8395 122.31 94.7353 121.706 94.527 121.168C94.3224 120.631 94.0194 120.204 93.6179 119.89C93.2164 119.572 92.724 119.413 92.1406 119.413C91.5724 119.413 91.0895 119.566 90.6918 119.873C90.294 120.176 89.991 120.596 89.7827 121.134C89.5781 121.668 89.4759 122.284 89.4759 122.981ZM101.462 127.521C100.708 127.521 100.041 127.329 99.4616 126.947C98.8859 126.564 98.4351 126.036 98.1094 125.362C97.7836 124.684 97.6207 123.901 97.6207 123.015C97.6207 122.121 97.7836 121.335 98.1094 120.657C98.4351 119.975 98.8859 119.445 99.4616 119.066C100.041 118.684 100.708 118.492 101.462 118.492C102.215 118.492 102.88 118.684 103.456 119.066C104.032 119.449 104.482 119.979 104.808 120.657C105.138 121.335 105.303 122.121 105.303 123.015C105.303 123.901 105.14 124.684 104.814 125.362C104.488 126.036 104.036 126.564 103.456 126.947C102.88 127.329 102.215 127.521 101.462 127.521ZM101.462 126.595C102.068 126.595 102.581 126.432 103.001 126.106C103.422 125.78 103.74 125.346 103.956 124.805C104.176 124.263 104.286 123.667 104.286 123.015C104.286 122.363 104.176 121.765 103.956 121.22C103.74 120.674 103.422 120.237 103.001 119.907C102.581 119.578 102.068 119.413 101.462 119.413C100.859 119.413 100.346 119.578 99.9219 119.907C99.5014 120.237 99.1813 120.674 98.9616 121.22C98.7457 121.765 98.6378 122.363 98.6378 123.015C98.6378 123.667 98.7457 124.263 98.9616 124.805C99.1813 125.346 99.5014 125.78 99.9219 126.106C100.342 126.432 100.856 126.595 101.462 126.595ZM110.96 118.612V119.492H106.795V118.612H110.96ZM108.097 116.521H109.114V125.06C109.114 125.424 109.176 125.71 109.301 125.918C109.426 126.123 109.589 126.269 109.79 126.356C109.991 126.439 110.205 126.481 110.432 126.481C110.564 126.481 110.678 126.473 110.773 126.458C110.867 126.439 110.951 126.42 111.023 126.401L111.239 127.316C111.14 127.354 111.019 127.388 110.875 127.418C110.731 127.453 110.553 127.47 110.341 127.47C109.97 127.47 109.612 127.388 109.267 127.225C108.926 127.062 108.646 126.82 108.426 126.498C108.206 126.176 108.097 125.776 108.097 125.299V116.521Z" fill="white"/>
<g clip-path="url(#clip0_36_805)">
<path d="M106 64.4508C104.621 62.0885 102.681 60.1942 100.256 58.7681C98.4439 57.7178 96.5642 57.051 94.4469 56.7642V49.2573C96.5642 48.3615 97.8792 46.3801 97.8792 44.0678C97.8792 40.9168 95.3412 38.3626 92.1796 38.3626C89.0179 38.3626 86.433 40.9168 86.433 44.0678C86.433 46.3801 87.6717 48.3615 89.789 49.2573V56.7677C88.095 57.0113 86.3376 57.5373 84.7338 58.3458C81.4568 55.8676 70.7115 47.737 64.4263 42.9889C64.5755 42.4534 64.69 41.9023 64.69 41.3201C64.6883 37.8288 61.8502 35 58.3433 35C54.8364 35 52 37.8288 52 41.3193C52 44.8097 54.8399 47.6394 58.3467 47.6394C59.5429 47.6394 60.6488 47.2913 61.6038 46.7187L62.9301 47.7206L81.1575 60.7989C80.1939 61.6799 79.2961 62.6819 78.5788 63.8065C77.1241 66.0989 76.2351 68.6211 76.2351 71.3722V71.9466C76.2351 73.8779 76.6037 75.7013 77.2308 77.4142C77.7834 78.9094 78.5918 80.2698 79.5928 81.4989L73.5435 87.5375C71.7532 86.8741 69.7383 87.3138 68.3912 88.663C67.4683 89.5768 66.9522 90.8215 66.9565 92.1171C66.9565 93.4214 67.4674 94.648 68.3938 95.5705C69.3115 96.4895 70.5597 97.0052 71.8617 97.0017C73.1636 97.0052 74.4127 96.4895 75.3312 95.5705C76.2533 94.6566 76.7702 93.4128 76.7668 92.1171C76.7668 91.6127 76.6887 91.1195 76.5413 90.6513L82.7935 84.4245C83.6504 85.0144 84.5768 85.5102 85.5717 85.9387C87.5346 86.7843 89.7014 87.2991 92.0729 87.2991H92.5074C95.1287 87.2991 97.6025 86.6858 99.9271 85.4316C102.377 84.1058 104.294 82.2936 105.743 79.9787C107.199 77.6578 108.001 75.0941 108.001 72.2739V72.1331C108.001 69.3587 107.356 66.7985 106.001 64.4526L106 64.4508ZM98.3598 77.5144C96.6623 79.3922 94.7115 80.5496 92.5066 80.5496H92.1431C90.8837 80.5496 89.6511 80.2033 88.4454 79.5727C87.0862 78.8783 86.0523 77.8884 85.2065 76.6342C84.3322 75.4033 83.8577 74.0602 83.8577 72.635V72.2022C83.8577 70.8012 84.1275 69.4736 84.8075 68.2194C85.5344 66.8486 86.5172 65.7819 87.8235 64.9345C89.1064 64.0924 90.476 63.6795 92.0009 63.6795H92.1431C93.5266 63.6795 94.8355 63.9507 96.0716 64.5804C97.331 65.2515 98.3598 66.1689 99.1569 67.3755C99.9315 68.5822 100.392 69.8848 100.54 71.3031C100.564 71.5976 100.576 71.8999 100.576 72.1884C100.576 74.1138 99.8369 75.8957 98.3598 77.5144Z" fill="white"/>
</g>
<defs>
<clipPath id="clip0_36_805">
<rect width="56" height="62" fill="white" transform="translate(52 35)"/>
</clipPath>
</defs>
</svg>
