<svg width="142" height="95" viewBox="0 0 142 95" fill="none" xmlns="http://www.w3.org/2000/svg">
<g opacity="0.6" clip-path="url(#clip0_3501_1122)">
<path d="M5.0764 91.8753C5.0764 91.0315 4.48555 90.4844 3.54822 90.4844H0V94.8703H0.856894V93.2569H3.0347L4.18548 94.8703H5.1723L3.9844 93.2074C4.699 93.0529 5.0764 92.5831 5.0764 91.8753ZM0.856894 92.4811V91.2571H3.37189C3.93491 91.2571 4.20095 91.4549 4.20095 91.8876C4.20095 92.274 3.938 92.4811 3.42139 92.4811H0.856894Z" fill="white"/>
<path d="M7.23873 92.9818H9.8156V92.2029H7.23873V91.2602H10.9416V90.4844H6.38184V94.8703H11.1056V94.0914H7.23873V92.9818Z" fill="white"/>
<path d="M14.3693 93.2443H16.3491C16.0645 93.881 15.4397 94.2302 14.5549 94.2302C13.3485 94.2302 12.5565 93.5842 12.5565 92.6694C12.5565 91.7545 13.3856 91.1147 14.5549 91.1147C15.2107 91.1147 15.7552 91.3218 16.213 91.7576L17.0173 91.3619C16.3677 90.6665 15.582 90.3389 14.6044 90.3389C13.8032 90.3389 13.0979 90.5614 12.5906 90.9292C11.975 91.3805 11.6687 91.9647 11.6687 92.6694C11.6687 93.3741 11.975 93.9737 12.5906 94.425C13.0824 94.7835 13.7754 95.0029 14.5518 95.0029C16.2935 95.0029 17.4164 94.0262 17.4164 92.6075V92.4715H14.3662V93.2473L14.3693 93.2443Z" fill="white"/>
<path d="M19.5105 90.4844H18.6536V94.8703H19.5105V90.4844Z" fill="white"/>
<path d="M25.5924 90.9263C25.0943 90.5647 24.3921 90.3359 23.6373 90.3359C22.8825 90.3359 22.171 90.5647 21.6729 90.9263C21.0542 91.3776 20.7449 91.9617 20.7449 92.6664C20.7449 93.3711 21.0542 93.9708 21.6667 94.422C22.1586 94.7806 22.8577 95 23.6373 95C24.4168 95 25.1067 94.7837 25.6016 94.422C26.2172 93.9739 26.5235 93.3866 26.5235 92.6664C26.5235 91.9463 26.208 91.3776 25.5954 90.9263H25.5924ZM23.6373 94.2273C22.4154 94.2273 21.6296 93.5875 21.6296 92.6664C21.6296 91.7454 22.4432 91.1117 23.6373 91.1117C24.8314 91.1117 25.6264 91.7763 25.6264 92.6664C25.6264 93.5566 24.8499 94.2273 23.6373 94.2273Z" fill="white"/>
<path d="M32.0175 94.1439L29.0292 90.4844H27.7546V94.8703H28.6115V91.2107L31.5936 94.8703H32.8713V90.4844H32.0175V94.1439Z" fill="white"/>
<path d="M36.0483 90.4844L33.6602 94.8703H34.6006L35.1079 93.9307H38.0529L38.5602 94.8703H39.5037L37.1125 90.4844H36.0483ZM35.5379 93.1518L36.5866 91.2076L37.626 93.1518H35.5379Z" fill="white"/>
<path d="M41.1433 90.4844H40.2864V94.8703H44.5368V94.0914H41.1433V90.4844Z" fill="white"/>
<path d="M51.8499 92.2029H48.4594V90.4844H47.6025V94.8703H48.4594V92.9818H51.8499V94.8703H52.7068V90.4844H51.8499V92.2029Z" fill="white"/>
<path d="M55.0608 92.9818H57.6407V92.2029H55.0608V91.2602H58.7667V90.4844H54.2039V94.8703H58.9307V94.0914H55.0608V92.9818Z" fill="white"/>
<path d="M61.7025 90.4844L59.3081 94.8703H60.2485L60.7559 93.9307H63.7039L64.2113 94.8703H65.1548L62.7635 90.4844H61.6994H61.7025ZM61.1858 93.1518L62.2345 91.2076L63.277 93.1518H61.1858Z" fill="white"/>
<path d="M66.7976 90.4844H65.9407V94.8703H70.188V94.0914H66.7976V90.4844Z" fill="white"/>
<path d="M69.2537 91.2602H71.351V94.8703H72.2079V91.2602H74.3053V90.4844H69.2537V91.2602Z" fill="white"/>
<path d="M79.4128 92.2029H76.0192V90.4844H75.1624V94.8703H76.0192V92.9818H79.4128V94.8703H80.2697V90.4844H79.4128V92.2029Z" fill="white"/>
<path d="M84.4428 91.1114C85.2069 91.1114 85.7946 91.3618 86.2339 91.813L87.0197 91.541C86.3391 90.7282 85.4853 90.3418 84.384 90.3418C83.6199 90.3418 82.9115 90.5705 82.4197 90.926C81.8041 91.3772 81.4978 91.9521 81.4978 92.6599C81.4978 94.0075 82.664 94.9873 84.4304 94.9873C85.5131 94.9873 86.2958 94.6628 86.9794 93.8932L86.2432 93.5037C85.7637 94.0013 85.2007 94.2239 84.449 94.2239C83.1652 94.2239 82.3856 93.5903 82.3856 92.663C82.3856 91.7358 83.1776 91.1145 84.4366 91.1145L84.4428 91.1114Z" fill="white"/>
<path d="M89.8036 90.4844L87.4124 94.8703H88.3559L88.8632 93.9307H91.8144L92.3217 94.8703H93.2683L90.877 90.4844H89.8129H89.8036ZM89.2901 93.1518L90.3388 91.2076L91.3813 93.1518H89.2901Z" fill="white"/>
<path d="M99.1182 91.8753C99.1182 91.0315 98.5274 90.4844 97.5931 90.4844H94.0449V94.8703H94.8987V93.2569H97.0765L98.2273 94.8703H99.211L98.0293 93.2074C98.7408 93.0529 99.1213 92.5831 99.1213 91.8753H99.1182ZM94.8987 92.4811V91.2571H97.4137C97.9767 91.2571 98.2428 91.4549 98.2428 91.8876C98.2428 92.274 97.9767 92.4811 97.4632 92.4811H94.8987Z" fill="white"/>
<path d="M101.28 92.9818H103.857V92.2029H101.28V91.2602H104.983V90.4844H100.424V94.8703H105.147V94.0914H101.28V92.9818Z" fill="white"/>
<path d="M111.093 92.1752C109.825 92.0454 109.045 92.1195 109.045 91.6404C109.045 91.2974 109.537 91.1181 110.508 91.1181C111.18 91.1181 111.786 91.2572 112.371 91.5694L112.9 91.0099C112.287 90.5834 111.48 90.3701 110.493 90.3701C108.989 90.3701 108.145 90.9048 108.145 91.7332C108.145 92.4348 108.652 92.7748 109.729 92.8768C110.558 92.9541 111.235 92.9108 111.715 93.0468C112.049 93.1395 112.213 93.3126 112.213 93.5413C112.213 93.9524 111.671 94.2337 110.657 94.2337C109.778 94.2337 109.02 94.0142 108.43 93.6L107.962 94.2058C108.649 94.7282 109.543 94.9786 110.669 94.9786C112.278 94.9786 113.135 94.4346 113.135 93.5011C113.135 92.6326 112.47 92.3173 111.09 92.1813L111.093 92.1752Z" fill="white"/>
<path d="M115.937 92.4811L114.06 90.4844H113.017L115.501 93.1456V94.8703H116.361V93.1456L118.858 90.4844H117.815L115.937 92.4811Z" fill="white"/>
<path d="M122.004 92.1752C120.732 92.0454 119.956 92.1195 119.956 91.6404C119.956 91.2974 120.448 91.1181 121.419 91.1181C122.09 91.1181 122.7 91.2572 123.285 91.5694L123.813 91.0099C123.201 90.5834 122.39 90.3701 121.407 90.3701C119.903 90.3701 119.059 90.9048 119.059 91.7332C119.059 92.4348 119.563 92.7748 120.646 92.8768C121.475 92.9541 122.149 92.9108 122.629 93.0468C122.963 93.1395 123.13 93.3126 123.13 93.5413C123.13 93.9524 122.585 94.2337 121.571 94.2337C120.692 94.2337 119.937 94.0142 119.343 93.6L118.879 94.2058C119.563 94.7282 120.454 94.9786 121.583 94.9786C123.192 94.9786 124.045 94.4346 124.045 93.5011C124.045 92.6326 123.384 92.3173 122.004 92.1813V92.1752Z" fill="white"/>
<path d="M124.095 91.2602H126.192V94.8703H127.052V91.2602H129.15V90.4844H124.095V91.2602Z" fill="white"/>
<path d="M130.863 92.9818H133.44V92.2029H130.863V91.2602H134.569V90.4844H130.007V94.8703H134.733V94.0914H130.863V92.9818Z" fill="white"/>
<path d="M140.716 90.4844L138.919 92.9663L137.125 90.4844H135.838V94.8703H136.695V91.2602L136.72 91.2324L138.919 94.2521L141.122 91.2602L141.146 91.2324V94.8703H142V90.4844H140.716Z" fill="white"/>
<path d="M49.0286 43.8899H57.8141V35.115V26.3339V17.556H66.6027V26.3339H75.3882V17.556H84.1737V8.77798H75.3882V0H66.6027V8.77798H57.8141V17.556H49.0286V26.3339H40.2432V35.115H49.0286V43.8899Z" fill="white"/>
<path d="M92.9591 35.1147H101.745V26.3336H92.9591V17.5557H84.1736V26.3336V35.1147V43.8896H92.9591V35.1147Z" fill="white"/>
<path d="M66.6025 52.6714V61.4493H75.388V52.6714H84.1735V43.8903H75.388V35.1123H66.6025V43.8903H57.814V52.6714H66.6025Z" fill="white"/>
<path d="M2.9604 80.5441H10.5023V85.0258H13.039V74.6221H10.5023V78.4114H2.9604V74.6221H0.420654V85.0258H2.9604V80.5441Z" fill="white"/>
<path d="M22.5112 85.3284C26.4183 85.3284 28.8281 83.7119 28.8281 81.5081V74.5908H26.2915V81.1619C26.2915 82.4323 24.921 83.3101 22.5143 83.3101C20.1076 83.3101 18.7341 82.4446 18.7341 81.1619V74.5908H16.1943V81.5081C16.1943 83.7119 18.6042 85.3284 22.5112 85.3284Z" fill="white"/>
<path d="M35.7329 85.0255H38.2726V76.5937H43.2469V74.5908H30.7585V76.5937H35.7329V85.0255Z" fill="white"/>
<path d="M57.579 82.5042L55.429 81.3513C54.204 82.6773 52.8058 83.2985 51.0456 83.2985C48.2769 83.2985 46.4889 81.8427 46.4889 79.7811C46.4889 77.7196 48.2491 76.2947 50.8445 76.2947C52.7191 76.2947 54.2319 77.0303 55.4012 78.1832L57.7089 77.361C56.0199 75.2716 53.8575 74.2764 51.0456 74.2764C48.9544 74.2764 47.0797 74.91 45.7681 75.9918C44.5864 76.9716 43.9646 78.2821 43.9646 79.7811C43.9646 81.5398 44.8586 83.11 46.2569 83.9754C47.7572 84.8965 49.3132 85.3168 51.16 85.3168C53.8854 85.3168 55.8467 84.4823 57.5759 82.5042H57.579Z" fill="white"/>
<path d="M72.9225 85.0258V74.6221H70.3828V78.4114H62.8409V74.6221H60.3042V85.0258H62.8409V80.5441H70.3828V85.0258H72.9225Z" fill="white"/>
<path d="M78.8003 74.5908H76.2637V85.0224H78.8003V74.5908Z" fill="white"/>
<path d="M92.1114 82.0583H92.0526L84.9716 74.5908H82.0173V85.0255H84.554V77.5735H84.5973L91.6783 85.0255H94.648V74.5908H92.1114V82.0583Z" fill="white"/>
<path d="M97.6765 77.6763C97.6765 79.7657 99.6811 80.5724 103.746 80.7455C105.967 80.8444 107.322 80.8444 107.322 81.7686C107.322 82.6186 106.14 83.2244 104.034 83.2244C102.088 83.2244 100.312 82.7051 98.5241 81.611L97.1414 83.3109C99.1459 84.6925 101.308 85.2705 103.919 85.2705C107.885 85.2705 110.02 83.9291 110.02 81.6666C110.02 79.6205 108.448 78.8292 105.172 78.5263C103.557 78.381 102.215 78.4521 101.222 78.2079C100.615 78.0627 100.312 77.8185 100.312 77.4569C100.312 76.78 101.438 76.3627 103.613 76.3627C105.243 76.3627 106.728 76.7398 108.201 77.531L109.642 75.8589C108.114 74.8513 106.051 74.332 103.498 74.332C99.7182 74.332 97.6734 75.6302 97.6734 77.6763H97.6765Z" fill="white"/>
<path d="M113.719 83.6138C115.019 84.6925 116.893 85.3292 119.012 85.3292C121.131 85.3292 123.006 84.6956 124.321 83.6138C125.502 82.634 126.124 81.3204 126.124 79.7935C126.124 78.2666 125.502 76.9839 124.321 76.0041C123.009 74.9224 121.119 74.2764 119.028 74.2764C116.937 74.2764 115.062 74.91 113.735 76.0041C112.55 76.9839 111.931 78.279 111.931 79.7935C111.931 81.308 112.538 82.634 113.719 83.6138ZM119.028 76.2916C121.769 76.2916 123.513 77.7319 123.513 79.7935C123.513 81.8551 121.784 83.3109 119.015 83.3109C116.247 83.3109 114.545 81.8984 114.545 79.7935C114.545 77.6887 116.306 76.2916 119.031 76.2916H119.028Z" fill="white"/>
<path d="M131.482 77.5735H131.529L138.606 85.0255H141.579V74.5908H139.04V82.0583H138.981L131.903 74.5908H128.946V85.0255H131.482V77.5735Z" fill="white"/>
</g>
<defs>
<clipPath id="clip0_3501_1122">
<rect width="142" height="95" fill="white"/>
</clipPath>
</defs>
</svg>
