<svg width="115" height="37" viewBox="0 0 115 37" fill="none" xmlns="http://www.w3.org/2000/svg">
<g opacity="0.6">
<path d="M3.59915 8.48797H7.8679V31.1191C7.8679 34.6383 5.27317 37 1.67507 37H0V33.0242H1.21367C2.67843 33.0242 3.5981 32.3605 3.5981 30.7888V8.48797H3.59915ZM3.59915 0H7.8679V4.22431H3.59915V0Z" fill="white"/>
<path d="M14.8898 17.102C14.9736 13.913 16.8558 12.215 19.3668 12.215C21.8778 12.215 23.7193 13.913 23.8459 17.102H14.8898ZM28.1115 20.5808V17.102C28.1115 11.6756 24.053 8.24023 19.3658 8.24023C15.2655 8.24023 10.6211 10.8908 10.6211 19.0485C10.6211 27.6596 15.684 29.7314 20.0364 29.7314C22.8823 29.7314 25.6025 28.7375 27.694 26.3364L24.5971 23.7283C23.3416 25.0122 21.5838 25.7566 19.9517 25.7566C17.0242 25.7566 14.8898 24.0182 14.8898 20.5818H28.1115V20.5808Z" fill="white"/>
<path d="M31.4936 2.1084H35.7624V8.48525H38.8593V11.7146H35.7624V23.9309C35.7624 25.0916 36.2227 25.5036 37.269 25.5036H38.8593V29.4795H36.6412C33.6709 29.4795 31.4947 27.6158 31.4947 24.3036V11.7146H29.3613V8.48525H31.4947V2.1084H31.4936Z" fill="white"/>
<path d="M53.0441 16.3961C56.3911 16.3961 57.8977 18.5083 57.8977 20.8275C57.8977 23.1457 56.3911 25.2589 53.0441 25.2589H46.098V16.3961H53.0441ZM41.5781 29.4811H54.1312C58.6071 29.4811 62.4155 26.2104 62.4155 21.1174C62.4155 18.1355 60.8241 15.0709 57.5619 14.3264V14.2446C61.0344 12.7123 61.9562 10.3527 61.9562 7.90919C61.9562 3.27073 58.9419 0 53.1257 0H41.5781V29.4811ZM52.6256 3.97582C55.8879 3.97582 57.4374 5.92128 57.4374 8.19703C57.4374 10.5173 55.8879 12.4213 52.6256 12.4213H46.0969V3.97582H52.6256Z" fill="white"/>
<path d="M64.8711 0H69.1398V24.0579C69.1398 25.0114 69.6839 25.5063 70.7302 25.5063H72.1949V29.4822H70.3127C67.2158 29.4822 64.8721 28.1579 64.8721 24.3902V0H64.8711Z" fill="white"/>
<path d="M73.9932 8.48926H78.2609V20.9955C78.2609 23.8521 80.0595 25.5076 82.4878 25.5076C84.8723 25.5076 86.6708 23.8521 86.6708 20.9955V8.48926H90.9406V29.4835H86.6708V27.2491H86.5882C85.2489 28.9047 83.3238 29.733 81.1068 29.733C77.7598 29.733 73.9922 27.2067 73.9922 22.445V8.48926H73.9932Z" fill="white"/>
<path d="M97.5001 17.102C97.5849 13.913 99.4661 12.215 101.978 12.215C104.488 12.215 106.331 13.913 106.456 17.102H97.5001ZM110.723 20.5808V17.102C110.723 11.6756 106.664 8.24023 101.978 8.24023C97.8768 8.24023 93.2324 10.8908 93.2324 19.0485C93.2324 27.6596 98.2953 29.7314 102.647 29.7314C105.494 29.7314 108.213 28.7375 110.305 26.3364L107.208 23.7283C105.954 25.0122 104.195 25.7566 102.564 25.7566C99.6366 25.7566 97.5012 24.0182 97.5012 20.5818H110.723V20.5808Z" fill="white"/>
<path d="M112.282 8.12109C113.323 8.12109 114.171 8.95664 114.171 9.9889C114.171 11.0212 113.324 11.8567 112.282 11.8567C111.24 11.8567 110.393 11.0222 110.393 9.9889C110.394 8.95664 111.24 8.12109 112.282 8.12109ZM112.282 11.486C113.132 11.486 113.763 10.8607 113.763 9.9889C113.763 9.11712 113.133 8.49279 112.282 8.49279C111.43 8.49279 110.801 9.11712 110.801 9.9889C110.801 10.8607 111.432 11.486 112.282 11.486ZM111.568 8.84896H112.402C112.908 8.84896 113.159 9.04879 113.159 9.49814C113.159 9.93196 112.903 10.0976 112.596 10.1339L113.226 11.0253H112.786L112.157 10.1432H111.942V11.0253H111.566V8.84896H111.568ZM111.942 9.80254H112.204C112.505 9.80254 112.781 9.78286 112.781 9.49814C112.781 9.24551 112.53 9.18856 112.285 9.18856H111.942V9.80254Z" fill="white"/>
</g>
</svg>
