<svg width="145" height="48" viewBox="0 0 145 48" fill="none" xmlns="http://www.w3.org/2000/svg">
<g opacity="0.6">
<path d="M22.3134 10.9668C15.5008 10.9668 10.4609 15.9638 10.4609 23.0062C10.4609 30.0487 15.504 35.0457 22.3134 35.0457C29.1227 35.0457 34.1658 30.0487 34.1658 23.0062C34.1658 15.9638 29.1259 10.9668 22.3134 10.9668ZM22.3134 33.0034C16.8639 33.0034 12.7745 28.9603 12.7745 23.0062C12.7745 17.0521 16.8607 13.0091 22.3134 13.0091C27.766 13.0091 31.8523 17.0521 31.8523 23.0062C31.8523 28.9603 27.766 33.0034 22.3134 33.0034Z" fill="white"/>
<path d="M48.6061 10.9668C41.7935 10.9668 36.7537 15.9638 36.7537 23.0062C36.7537 30.0487 41.7935 35.0457 48.6061 35.0457C55.4187 35.0457 60.4585 30.0487 60.4585 23.0062C60.4585 15.9638 55.4187 10.9668 48.6061 10.9668ZM48.6061 33.0034C43.1567 33.0034 39.0672 28.9603 39.0672 23.0062C39.0672 17.0521 43.1535 13.0091 48.6061 13.0091C54.0587 13.0091 58.145 17.0521 58.145 23.0062C58.145 28.9603 54.0587 33.0034 48.6061 33.0034Z" fill="white"/>
<path d="M102.731 21.0049C102.731 14.3722 99.0066 10.963 93.2852 10.963C88.6998 10.963 85.2471 13.2358 83.7015 16.6866C82.4312 12.9156 79.2953 10.963 75.0266 10.963C70.7579 10.963 67.4876 12.9156 65.9421 16.232V11.8561H65.9325C65.9069 11.2767 65.4333 10.8125 64.8477 10.8125C64.2621 10.8125 63.7886 11.2767 63.763 11.8561H63.7598V11.8913C63.7598 11.8913 63.7598 11.8977 63.7598 11.9009C63.7598 11.9041 63.7598 11.9073 63.7598 11.9105V33.851C63.7598 33.851 63.7598 33.8574 63.7598 33.8606C63.7598 33.8638 63.7598 33.867 63.7598 33.8702V33.9054H63.763C63.7886 34.5137 64.2845 34.997 64.8957 34.997C65.5069 34.997 66.0029 34.5105 66.0285 33.9054V33.8894C66.0285 33.8894 66.0285 33.8702 66.0285 33.8606C66.0285 33.851 66.0285 33.8414 66.0285 33.8318V22.2277C66.0285 16.5937 69.3436 13.0053 74.7034 13.0053C79.3369 13.0053 82.1048 15.8223 82.1048 21.1842V33.9086H82.1112C82.1368 34.5169 82.6328 35.0002 83.2439 35.0002C83.8551 35.0002 84.3799 34.4913 84.3799 33.8638C84.3799 33.8478 84.3767 33.8318 84.3767 33.8158V22.2277C84.3767 16.5937 87.6918 13.0053 93.0516 13.0053C97.6851 13.0053 100.453 15.8223 100.453 21.1842V33.835C100.453 33.835 100.453 33.8542 100.453 33.8638C100.453 33.8734 100.453 33.883 100.453 33.8926V33.9118C100.479 34.5201 100.975 35.0034 101.586 35.0034C102.197 35.0034 102.693 34.5169 102.719 33.9118H102.722V33.8766C102.722 33.8766 102.722 33.8702 102.722 33.867C102.722 33.8638 102.722 33.8606 102.722 33.8574V21.0081L102.731 21.0049Z" fill="white"/>
<path d="M8.35173 32.7804H8.34533C7.83015 32.9533 7.17097 33.0941 6.45419 33.0941C3.63828 33.0941 2.27513 31.4135 2.27513 28.3693V1.24931C2.27513 1.2173 2.28473 1.18849 2.28473 1.15327C2.28153 0.522651 1.76954 0.0136719 1.14236 0.0136719C0.515184 0.0136719 0 0.522651 0 1.15327V28.6414C0 32.5948 2.13433 35.0468 6.1758 35.0468C7.08457 35.0468 8.08294 34.8644 8.90211 34.5474C9.3789 34.3906 9.64769 33.8848 9.5037 33.4014C9.3565 32.9117 8.84132 32.6332 8.35173 32.7804Z" fill="white"/>
<path d="M116.034 33.4006C115.887 32.9108 115.375 32.6323 114.885 32.7796C114.885 32.7796 114.885 32.7796 114.882 32.7796C114.367 32.9524 113.704 33.0933 112.984 33.0933C110.168 33.0933 108.805 31.4127 108.805 28.3684V1.15241C108.805 1.15241 108.805 1.1428 108.805 1.1364C108.805 0.508979 108.296 0 107.669 0C107.042 0 106.533 0.508979 106.533 1.1364C106.533 1.1428 106.533 1.14921 106.533 1.15561V28.6405C106.533 32.5939 108.668 35.046 112.709 35.046C113.618 35.046 114.616 34.8635 115.435 34.5466C115.909 34.3865 116.178 33.8807 116.034 33.4006Z" fill="white"/>
<path d="M144.3 34.4492C144.3 33.8762 143.836 33.4088 143.26 33.4088C142.684 33.4088 142.22 33.8729 142.22 34.4492C142.22 34.4556 142.22 34.462 142.22 34.4684H142.217C142.217 36.7924 141.683 38.3353 140.585 39.1836C139.827 39.7662 138.79 40.0223 137.584 40.0639C137.584 39.9743 137.587 39.8879 137.587 39.7982C137.597 36.9364 137.587 34.3403 137.574 32.3396L137.67 11.8588C137.67 11.2346 137.161 10.7288 136.537 10.7288C135.913 10.7288 135.408 11.2346 135.405 11.8588H135.401V22.7298C135.401 28.3638 132.086 31.9523 126.726 31.9523C121.776 31.9523 118.916 29.1353 118.916 23.7734V11.8556H118.909C118.909 11.2314 118.4 10.7256 117.776 10.7256C117.152 10.7256 116.647 11.2314 116.644 11.8556V23.9559C116.644 30.5886 120.503 33.9978 126.544 33.9978C130.63 33.9978 133.811 32.0899 135.401 28.956L135.497 32.7013C135.51 34.6444 135.517 37.1029 135.507 39.7918C135.507 39.8495 135.507 39.9039 135.507 39.9583C133.411 39.7086 131.05 39.0876 128.838 38.505C123.488 37.0965 117.952 35.6368 116.205 39.5486C115.408 41.3284 115.764 43.1338 117.204 44.6319C119.255 46.7639 123.271 47.9995 127.142 47.9995C129.04 47.9995 130.902 47.7018 132.48 47.0712C134.947 46.0821 136.585 44.3759 137.251 42.1575C139.027 42.1575 140.608 41.7925 141.856 40.8322C143.478 39.5806 144.3 37.439 144.297 34.4684C144.297 34.4684 144.297 34.4556 144.297 34.4492H144.3ZM131.706 45.1409C127.258 46.9272 120.954 45.5347 118.704 43.1914C117.856 42.3079 117.661 41.3956 118.106 40.4C118.532 39.4429 119.552 39.0876 120.938 39.0876C122.883 39.0876 125.552 39.7918 128.31 40.5185C130.611 41.1235 132.947 41.7413 135.107 42.0134C134.55 43.4091 133.411 44.4591 131.706 45.1409Z" fill="white"/>
</g>
</svg>
