<svg width="191" height="58" viewBox="0 0 191 58" fill="none" xmlns="http://www.w3.org/2000/svg">
<g opacity="0.6">
<path d="M14.6814 38.8883L32.9504 14.1549C35.2033 11.1048 38.556 9.11798 42.2397 8.57026L48.5714 0L35.9294 0.107397C31.4983 0.150356 27.3341 2.27681 24.6861 5.85312L0 39.2857L11.8519 39.1891C12.8129 39.1891 13.7525 39.0817 14.6814 38.9098V38.8883Z" fill="white"/>
<path d="M24.0749 48.1745L42.4782 23.441C44.7477 20.391 48.1251 18.4041 51.8359 17.8564L58.2141 9.28613L45.4791 9.39353C41.0154 9.43649 36.8206 11.5629 34.1532 15.1393L9.28552 48.5718L21.2246 48.4752C22.1926 48.4752 23.1391 48.3678 24.0749 48.196V48.1745Z" fill="white"/>
<path d="M67.4999 18.9287L54.8579 19.0351C50.4268 19.0777 46.2626 21.1848 43.6146 24.7286L18.9285 57.8573L30.7804 57.7615C35.7133 57.7189 40.3366 55.3777 43.2836 51.4295L67.4999 18.9394V18.9287Z" fill="white"/>
<path d="M180.848 24.5432L178.717 26.7707V31.5485H174.456V7.53027H178.717V20.9598L184.173 14.923H190.048L183.85 21.4118L190.403 31.5485H184.98L180.848 24.5432Z" fill="white"/>
<path d="M170.674 21.8321V31.5491H166.413V21.8321C166.413 20.8636 166.122 18.5392 163.314 18.5392C161.409 18.5392 160.085 19.9597 160.085 21.8321V31.5491H155.824V14.9236H159.892V16.5377C160.957 15.2787 162.41 14.5039 164.185 14.5039C168.091 14.5039 170.674 17.4416 170.674 21.8321Z" fill="white"/>
<path d="M148.366 31.5491C148.172 31.1294 148.043 30.6129 147.946 29.9996C146.848 31.1617 145.17 31.872 142.845 31.872C139.326 31.872 136.098 30.0964 136.098 26.4808C136.098 22.736 139.23 21.7675 142.91 21.4447C145.686 21.1864 147.655 20.8636 147.655 19.5077C147.655 18.6361 146.525 17.9259 144.621 17.9259C143.103 17.9259 141.36 18.6038 140.973 20.0242H136.712C137.131 16.8605 140.166 14.5039 144.524 14.5039C151.271 14.5039 151.787 18.8621 151.787 20.1856V28.8374C151.787 29.6445 152.046 30.9035 152.272 31.5491H148.366ZM147.817 25.0926V23.543C146.913 24.1241 145.525 24.4147 143.781 24.6084C141.683 24.8343 140.392 25.2863 140.392 26.513C140.392 27.4492 141.489 28.0949 143.2 28.0949C145.751 28.0949 147.817 27.2233 147.817 25.0926Z" fill="white"/>
<path d="M134.085 24.963C134.085 28.9661 131.373 31.5487 127.047 31.5487H116.136V9.14453H126.466C130.953 9.14453 133.213 11.4689 133.213 15.2137C133.213 17.0861 132.406 18.6033 131.018 19.6041C132.923 20.6049 134.085 22.4127 134.085 24.963ZM126.466 13.0184H120.397V17.9577H126.466C127.919 17.9577 129.081 16.9569 129.081 15.4719C129.081 13.9869 128.08 13.0184 126.466 13.0184ZM129.727 24.8016C129.727 22.9292 128.532 21.8639 126.369 21.8639H120.397V27.6425H126.466C128.113 27.6425 129.727 26.9968 129.727 24.8016Z" fill="white"/>
<path d="M112.572 26.9971V31.5489H107.988V26.9971H112.572Z" fill="white"/>
<path d="M104.687 21.8321V31.5491H100.425V21.8321C100.425 20.8636 100.103 18.5392 97.3264 18.5392C95.4217 18.5392 94.0981 19.9597 94.0981 21.8321V31.5491H89.8045V21.8321C89.8045 20.8636 89.514 18.5392 86.7054 18.5392C84.833 18.5392 83.5094 19.9597 83.5094 21.8321V31.5491H79.2158V14.9236H83.3157V16.5377C84.3488 15.2787 85.8015 14.5039 87.6093 14.5039C89.6754 14.5039 91.4186 15.3755 92.5808 16.8605C93.7753 15.4078 95.5185 14.5039 97.6492 14.5039C102.104 14.5039 104.687 17.4739 104.687 21.8321Z" fill="white"/>
<path d="M163.024 42.4873H164.413L167.677 50.46H167.789L171.053 42.4873H172.442V52.092H171.354V44.7947H171.26L168.258 52.092H167.208L164.206 44.7947H164.112V52.092H163.024V42.4873Z" fill="white"/>
<path d="M149.849 52.092V42.4873H155.645V43.5191H151.012V46.7644H155.345V47.7962H151.012V51.0603H155.72V52.092H149.849Z" fill="white"/>
<path d="M135.567 43.5191V42.4873H142.771V43.5191H139.751V52.092H138.588V43.5191H135.567Z" fill="white"/>
<path d="M127.641 44.8889C127.585 44.4137 127.357 44.0448 126.956 43.7821C126.556 43.5195 126.065 43.3882 125.484 43.3882C125.059 43.3882 124.687 43.457 124.368 43.5946C124.052 43.7321 123.805 43.9213 123.627 44.162C123.452 44.4028 123.364 44.6763 123.364 44.9827C123.364 45.2391 123.425 45.4595 123.547 45.644C123.672 45.8253 123.831 45.977 124.025 46.0989C124.219 46.2177 124.422 46.3162 124.635 46.3944C124.848 46.4694 125.043 46.5304 125.221 46.5773L126.197 46.8399C126.447 46.9056 126.725 46.9962 127.031 47.1119C127.341 47.2276 127.636 47.3855 127.918 47.5856C128.202 47.7826 128.437 48.0358 128.621 48.3453C128.806 48.6549 128.898 49.0347 128.898 49.485C128.898 50.004 128.762 50.473 128.49 50.8919C128.221 51.3109 127.827 51.6438 127.308 51.8908C126.792 52.1378 126.165 52.2613 125.428 52.2613C124.74 52.2613 124.144 52.1503 123.641 51.9284C123.14 51.7064 122.747 51.3968 122.459 50.9998C122.174 50.6027 122.013 50.1415 121.976 49.6163H123.176C123.208 49.979 123.33 50.2791 123.542 50.5167C123.758 50.7512 124.03 50.9263 124.358 51.042C124.69 51.1545 125.046 51.2108 125.428 51.2108C125.872 51.2108 126.27 51.1389 126.623 50.9951C126.977 50.8481 127.257 50.6449 127.463 50.3854C127.669 50.1228 127.772 49.8164 127.772 49.4662C127.772 49.1473 127.683 48.8878 127.505 48.6877C127.327 48.4876 127.092 48.325 126.802 48.2C126.511 48.0749 126.197 47.9655 125.859 47.8717L124.677 47.534C123.927 47.3183 123.333 47.0103 122.895 46.6101C122.457 46.2099 122.238 45.6862 122.238 45.039C122.238 44.5013 122.384 44.0323 122.675 43.6321C122.969 43.2288 123.362 42.9161 123.856 42.6941C124.354 42.469 124.909 42.3564 125.521 42.3564C126.14 42.3564 126.691 42.4674 127.172 42.6894C127.654 42.9083 128.035 43.2084 128.316 43.5899C128.601 43.9713 128.751 44.4043 128.767 44.8889H127.641Z" fill="white"/>
<path d="M107.497 42.4873H108.829L111.493 46.9708H111.606L114.269 42.4873H115.601L112.131 48.1338V52.092H110.968V48.1338L107.497 42.4873Z" fill="white"/>
<path d="M99.8714 44.8889C99.8151 44.4137 99.5868 44.0448 99.1866 43.7821C98.7864 43.5195 98.2956 43.3882 97.714 43.3882C97.2888 43.3882 96.9168 43.457 96.5979 43.5946C96.2821 43.7321 96.0351 43.9213 95.8569 44.162C95.6818 44.4028 95.5942 44.6763 95.5942 44.9827C95.5942 45.2391 95.6552 45.4595 95.7771 45.644C95.9022 45.8253 96.0617 45.977 96.2555 46.0989C96.4494 46.2177 96.6526 46.3162 96.8652 46.3944C97.0778 46.4694 97.2732 46.5304 97.4514 46.5773L98.4269 46.8399C98.677 46.9056 98.9553 46.9962 99.2617 47.1119C99.5712 47.2276 99.8667 47.3855 100.148 47.5856C100.433 47.7826 100.667 48.0358 100.852 48.3453C101.036 48.6549 101.128 49.0347 101.128 49.485C101.128 50.004 100.992 50.473 100.72 50.8919C100.451 51.3109 100.057 51.6438 99.5384 51.8908C99.0225 52.1378 98.3956 52.2613 97.6578 52.2613C96.9699 52.2613 96.3743 52.1503 95.8709 51.9284C95.3707 51.7064 94.9767 51.3968 94.6891 50.9998C94.4046 50.6027 94.2436 50.1415 94.2061 49.6163H95.4066C95.4379 49.979 95.5598 50.2791 95.7725 50.5167C95.9882 50.7512 96.2602 50.9263 96.5885 51.042C96.9199 51.1545 97.2763 51.2108 97.6578 51.2108C98.1017 51.2108 98.5004 51.1389 98.8537 50.9951C99.207 50.8481 99.4868 50.6449 99.6931 50.3854C99.8995 50.1228 100.003 49.8164 100.003 49.4662C100.003 49.1473 99.9136 48.8878 99.7353 48.6877C99.5571 48.4876 99.3226 48.325 99.0319 48.2C98.7411 48.0749 98.4269 47.9655 98.0892 47.8717L96.9074 47.534C96.157 47.3183 95.563 47.0103 95.1253 46.6101C94.6875 46.2099 94.4687 45.6862 94.4687 45.039C94.4687 44.5013 94.6141 44.0323 94.9048 43.6321C95.1987 43.2288 95.5927 42.9161 96.0867 42.6941C96.5838 42.469 97.1388 42.3564 97.7516 42.3564C98.3706 42.3564 98.9209 42.4674 99.4024 42.6894C99.8839 42.9083 100.265 43.2084 100.547 43.5899C100.831 43.9713 100.981 44.4043 100.997 44.8889H99.8714Z" fill="white"/>
</g>
</svg>
