<svg width="158" height="23" viewBox="0 0 158 23" fill="none" xmlns="http://www.w3.org/2000/svg">
<g opacity="0.6" clip-path="url(#clip0_3501_905)">
<path d="M72.9756 21.67L71.558 9.25713L71.4982 9.19749L63.3538 21.3105H61.9054L54.2141 9.2878L54.1543 9.37811L52.7966 21.6717H48.4824L50.3531 0.601313H53.1574L62.81 15.0589H62.8698L72.6148 0.599609H75.2395L77.2897 21.67H72.9756Z" fill="white"/>
<path d="M94.6915 22.2408C88.2673 22.2408 81.4189 18.453 81.4189 11.1807C81.4189 3.9085 88.2655 -0.00195312 94.6915 -0.00195312C101.117 -0.00195312 107.902 3.9954 107.902 11.2387C107.902 18.482 101.056 22.2391 94.6915 22.2391V22.2408ZM94.6915 3.69551C89.4728 3.69551 86.005 7.00278 86.005 11.2404C86.005 15.478 89.4745 18.545 94.6915 18.545C99.9085 18.545 103.318 15.3894 103.318 11.2404C103.318 7.09139 99.8487 3.69551 94.6915 3.69551Z" fill="white"/>
<path d="M129.888 20.4689C128.079 21.251 125.514 21.9718 122.679 21.9718C116.948 21.9718 110.645 18.184 110.645 11.031C110.645 3.87806 117.069 0.240234 122.71 0.240234C123.856 0.240234 126.27 0.361211 128.442 0.960984C130.613 1.59143 133.207 3.21525 133.78 3.78605L131.728 6.58215C131.005 6.10165 128.591 5.01968 127.595 4.65845C126.388 4.20692 124.67 3.9377 122.679 3.9377C118.305 3.9377 115.138 6.58215 115.138 10.9714C115.138 15.3606 118.546 18.2147 122.679 18.2147C125.213 18.2147 127.898 17.373 129.557 16.141V13.1354H122.257L122.317 9.88942H133.779V18.2454C133.115 18.8162 131.727 19.6886 129.887 20.4706L129.888 20.4689Z" fill="white"/>
<path d="M138.936 0.599609H143.823V18.0033H158V21.67H138.998L138.938 0.599609H138.936Z" fill="white"/>
<path d="M27.0239 10.7388L20.3585 22.2418H13.5119L16.8446 16.4895L13.5119 10.7371L6.84659 22.2401H0L12.539 0.600586H14.4849L20.2679 10.582L26.0509 0.600586H27.9968L30.5036 4.92849L27.0239 10.7388ZM32.8257 8.93437L29.1869 15.2149L25.1156 22.2418H40.5358L32.8257 8.93437Z" fill="white"/>
</g>
<defs>
<clipPath id="clip0_3501_905">
<rect width="158" height="22.2427" fill="white"/>
</clipPath>
</defs>
</svg>
