<svg width="160" height="160" viewBox="0 0 160 160" fill="none" xmlns="http://www.w3.org/2000/svg">
<path d="M64.8189 115.364V127H63.7848L56.9098 117.256H56.8189V127H55.7564V115.364H56.7848L63.6825 125.119H63.7734V115.364H64.8189ZM71.2308 127.182C70.4164 127.182 69.7119 126.992 69.1172 126.614C68.5225 126.231 68.0623 125.703 67.7365 125.028C67.4145 124.35 67.2536 123.57 67.2536 122.688C67.2536 121.809 67.4145 121.028 67.7365 120.347C68.0623 119.661 68.5111 119.125 69.0831 118.739C69.6589 118.348 70.3236 118.153 71.0774 118.153C71.5509 118.153 72.0073 118.241 72.4467 118.415C72.8861 118.585 73.2801 118.848 73.6286 119.205C73.9808 119.557 74.2592 120.002 74.4638 120.54C74.6683 121.074 74.7706 121.706 74.7706 122.438V122.938H67.9524V122.045H73.7365C73.7365 121.485 73.6229 120.981 73.3956 120.534C73.1721 120.083 72.8596 119.727 72.4581 119.466C72.0604 119.205 71.6001 119.074 71.0774 119.074C70.5244 119.074 70.0376 119.222 69.6172 119.517C69.1967 119.812 68.8672 120.203 68.6286 120.688C68.3937 121.172 68.2744 121.703 68.2706 122.278V122.812C68.2706 123.506 68.3899 124.112 68.6286 124.631C68.871 125.146 69.2138 125.545 69.657 125.83C70.1001 126.114 70.6248 126.256 71.2308 126.256C71.6437 126.256 72.0054 126.191 72.3161 126.062C72.6304 125.934 72.8937 125.761 73.1058 125.545C73.3217 125.326 73.4846 125.085 73.5945 124.824L74.5547 125.136C74.4221 125.504 74.2043 125.843 73.9013 126.153C73.602 126.464 73.227 126.714 72.7763 126.903C72.3293 127.089 71.8142 127.182 71.2308 127.182ZM77.3899 118.273L79.6399 121.994L81.8899 118.273H83.0661L80.2592 122.636L83.0661 127H81.8899L79.6399 123.398L77.3899 127H76.2195L78.9922 122.636L76.2195 118.273H77.3899ZM88.6243 118.273V119.153H84.4595V118.273H88.6243ZM85.7607 116.182H86.7777V124.722C86.7777 125.085 86.8402 125.371 86.9652 125.58C87.0902 125.784 87.2531 125.93 87.4538 126.017C87.6546 126.1 87.8686 126.142 88.0959 126.142C88.2285 126.142 88.3421 126.134 88.4368 126.119C88.5315 126.1 88.6148 126.081 88.6868 126.062L88.9027 126.977C88.8042 127.015 88.683 127.049 88.5391 127.08C88.3951 127.114 88.2171 127.131 88.005 127.131C87.6338 127.131 87.2758 127.049 86.9311 126.886C86.5902 126.723 86.3099 126.481 86.0902 126.159C85.8705 125.837 85.7607 125.438 85.7607 124.96V116.182ZM91.728 127.085C91.5045 127.085 91.3113 127.006 91.1484 126.847C90.9893 126.684 90.9098 126.491 90.9098 126.267C90.9098 126.04 90.9893 125.847 91.1484 125.688C91.3113 125.528 91.5045 125.449 91.728 125.449C91.9553 125.449 92.1484 125.528 92.3075 125.688C92.4666 125.847 92.5462 126.04 92.5462 126.267C92.5462 126.415 92.5083 126.551 92.4325 126.676C92.3606 126.801 92.2621 126.902 92.1371 126.977C92.0159 127.049 91.8795 127.085 91.728 127.085ZM95.2294 118.273H96.2464V127.847C96.2464 128.343 96.1536 128.771 95.968 129.131C95.7862 129.494 95.5211 129.775 95.1726 129.972C94.8241 130.172 94.4036 130.273 93.9112 130.273C93.8733 130.273 93.8355 130.273 93.7976 130.273C93.7597 130.273 93.718 130.271 93.6726 130.267L93.6839 129.318C93.7218 129.318 93.7578 129.318 93.7919 129.318C93.826 129.318 93.862 129.318 93.8999 129.318C94.3165 129.318 94.6423 129.189 94.8771 128.932C95.112 128.674 95.2294 128.313 95.2294 127.847V118.273ZM95.7294 116.773C95.5249 116.773 95.3468 116.703 95.1953 116.562C95.0476 116.419 94.9737 116.246 94.9737 116.045C94.9737 115.845 95.0476 115.674 95.1953 115.534C95.3468 115.39 95.5249 115.318 95.7294 115.318C95.9377 115.318 96.1158 115.39 96.2635 115.534C96.415 115.674 96.4908 115.845 96.4908 116.045C96.4908 116.246 96.415 116.419 96.2635 116.562C96.1158 116.703 95.9377 116.773 95.7294 116.773ZM104.785 120.188L103.859 120.449C103.768 120.187 103.639 119.951 103.472 119.739C103.306 119.527 103.088 119.358 102.819 119.233C102.554 119.108 102.224 119.045 101.83 119.045C101.239 119.045 100.754 119.186 100.376 119.466C99.9969 119.746 99.8075 120.108 99.8075 120.551C99.8075 120.926 99.9363 121.231 100.194 121.466C100.455 121.697 100.857 121.881 101.398 122.017L102.717 122.341C103.448 122.519 103.995 122.801 104.359 123.188C104.726 123.574 104.91 124.059 104.91 124.642C104.91 125.134 104.773 125.572 104.501 125.955C104.228 126.337 103.847 126.638 103.359 126.858C102.874 127.074 102.311 127.182 101.671 127.182C100.819 127.182 100.116 126.991 99.5632 126.608C99.0102 126.222 98.656 125.665 98.5007 124.938L99.4723 124.699C99.5973 125.218 99.8416 125.61 100.205 125.875C100.573 126.14 101.056 126.273 101.654 126.273C102.325 126.273 102.861 126.123 103.262 125.824C103.664 125.521 103.864 125.142 103.864 124.688C103.864 124.335 103.747 124.04 103.512 123.801C103.277 123.559 102.921 123.381 102.444 123.267L101.018 122.926C100.26 122.744 99.6996 122.456 99.3359 122.062C98.9723 121.669 98.7905 121.18 98.7905 120.597C98.7905 120.116 98.9212 119.693 99.1825 119.33C99.4439 118.962 99.8037 118.674 100.262 118.466C100.72 118.258 101.243 118.153 101.83 118.153C102.629 118.153 103.268 118.335 103.745 118.699C104.226 119.059 104.573 119.555 104.785 120.188Z" fill="white"/>
<g clip-path="url(#clip0_36_780)">
<path d="M77.969 35.0162C77.835 35.0284 77.4117 35.0704 77.0302 35.1015C68.2243 35.8955 59.9756 40.6461 54.7516 47.9479C51.842 52.0086 49.982 56.6131 49.2787 61.4909C49.0298 63.1939 49 63.6971 49 66.0048C49 68.3124 49.0298 68.817 49.2787 70.5186C50.9641 82.1598 59.2479 91.9397 70.4846 95.5635C72.496 96.2114 74.6184 96.6537 77.0302 96.9202C77.969 97.023 82.0297 97.023 82.9698 96.9202C87.1333 96.4603 90.6611 95.4296 94.1389 93.6535C94.6718 93.3802 94.7746 93.3086 94.7029 93.2477C94.6542 93.2112 92.3817 90.1636 89.6547 86.4789L84.6972 79.7831L78.4857 70.5903C75.0675 65.5367 72.2552 61.4043 72.2309 61.4043C72.2065 61.3989 72.1822 65.4826 72.17 70.4699C72.1524 79.2015 72.1457 79.5532 72.0361 79.7588C71.8792 80.0564 71.7575 80.1768 71.5032 80.3107C71.3097 80.4081 71.1393 80.4257 70.2249 80.4257H69.1765L68.8979 80.2498C68.7166 80.1348 68.5827 79.9833 68.4921 79.8075L68.3649 79.5342L68.3771 67.3845L68.3947 55.2293L68.5827 54.9926C68.6801 54.8654 68.8857 54.7018 69.0318 54.6233C69.2807 54.5016 69.3767 54.4894 70.4251 54.4894C71.6614 54.4894 71.867 54.5381 72.189 54.8898C72.2796 54.9872 75.6437 60.053 79.6679 66.1549C83.6921 72.2568 89.1948 80.5893 91.8975 84.6798L96.8064 92.1155L97.0552 91.9518C99.2547 90.522 101.583 88.4863 103.425 86.3653C107.346 81.8636 109.873 76.373 110.721 70.5186C110.97 68.8156 111 68.3124 111 66.0048C111 63.6971 110.97 63.1925 110.721 61.4909C109.036 49.8497 100.752 40.0699 89.5154 36.446C87.5337 35.8035 85.4249 35.3612 83.0604 35.0947C82.4788 35.0338 78.4722 34.9676 77.969 35.0162ZM90.6598 53.7657C90.9506 53.9118 91.1873 54.1905 91.2725 54.4813C91.3212 54.6382 91.3334 58.0077 91.3212 65.6003L91.3037 76.4961L89.3829 73.5513L87.4553 70.6066V62.6866C87.4553 57.5667 87.4796 54.6882 87.5162 54.5489C87.6135 54.2094 87.8246 53.9429 88.1167 53.786C88.3656 53.6589 88.4563 53.6467 89.4072 53.6467C90.304 53.6467 90.4623 53.6589 90.6611 53.7684L90.6598 53.7657Z" fill="white"/>
</g>
<defs>
<clipPath id="clip0_36_780">
<rect width="62" height="62" fill="white" transform="translate(49 35)"/>
</clipPath>
</defs>
</svg>
