<svg width="231" height="24" viewBox="0 0 231 24" fill="none" xmlns="http://www.w3.org/2000/svg">
<g opacity="0.6" clip-path="url(#clip0_3650_130)">
<path d="M11.3733 8.69223C13.6924 6.1315 16.3669 4.09579 19.2495 2.58802C17.2266 0.966178 14.6691 -0.00341797 11.8862 -0.00341797C8.59612 -0.00341797 5.61957 1.3508 3.46808 3.53568H8.26956L11.1854 7.63781C10.9094 7.9186 10.6363 8.19354 10.3777 8.48457C9.72316 9.20847 9.11773 9.96455 8.54265 10.7426L3.44352 3.562C1.31514 5.73518 0.00170898 8.72441 0.00170898 12.0251C0.00170898 15.9883 1.896 19.5026 4.81764 21.6933C5.7814 16.9974 7.92134 12.5033 11.3733 8.69077V8.69223Z" fill="white"/>
<path d="M13.1543 10.4095L20.3225 20.4988C22.4538 18.3242 23.7701 15.3321 23.7701 12.0284C23.7701 8.9763 22.646 6.19182 20.7936 4.07129C18.1422 5.67851 15.589 7.76248 13.1528 10.411L13.1543 10.4095Z" fill="white"/>
<path d="M15.4927 20.5204C15.4927 20.5204 12.0134 15.6271 10.6147 13.6587C8.73917 16.3847 7.26535 19.4075 6.27124 22.6322C7.94302 23.5418 9.85465 24.0595 11.8862 24.0595C15.1749 24.0595 18.1514 22.7068 20.3029 20.5219H15.4927V20.5204Z" fill="white"/>
<path d="M31.632 20.3076C31.4514 20.157 31.3618 19.9317 31.3618 19.6319V4.44892C31.3618 4.13303 31.4514 3.89904 31.632 3.74841C31.8112 3.59778 32.1247 3.52319 32.5698 3.52319H34.0306C34.3268 3.52319 34.5594 3.55683 34.7299 3.62264C34.899 3.68991 35.068 3.82299 35.2385 4.02335L45.7215 15.4786V4.44892C45.7215 4.13303 45.8111 3.89904 45.9917 3.74841C46.1708 3.59778 46.4728 3.52319 46.8976 3.52319H48.581C49.0043 3.52319 49.3121 3.59778 49.5014 3.74841C49.6921 3.89904 49.7875 4.13157 49.7875 4.44892V19.6319C49.7875 19.9317 49.6979 20.157 49.5173 20.3076C49.3367 20.4582 49.0246 20.5328 48.581 20.5328H47.0884C46.7922 20.5328 46.5696 20.5035 46.4208 20.4451C46.272 20.3866 46.1029 20.2579 45.9122 20.0575L35.4293 8.6271V19.6319C35.4293 19.9317 35.3382 20.157 35.1591 20.3076C34.9785 20.4582 34.6664 20.5328 34.2213 20.5328H32.538C32.1146 20.5328 31.8126 20.4582 31.632 20.3076Z" fill="white"/>
<path d="M52.6227 20.3076C52.4421 20.1569 52.3525 19.9317 52.3525 19.6319V4.44892C52.3525 4.13303 52.4421 3.89904 52.6227 3.74841C52.8019 3.59778 53.1039 3.52319 53.5287 3.52319H66.744C67.1673 3.52319 67.4592 3.59047 67.6182 3.72355C67.7771 3.85663 67.8566 4.08184 67.8566 4.39919V5.07484C67.8566 5.39219 67.7771 5.62179 67.6182 5.76218C67.4592 5.90404 67.1673 5.97424 66.744 5.97424H56.4186V10.8266H63.9163C64.3396 10.8266 64.6358 10.8939 64.8049 11.027C64.9739 11.16 65.0592 11.3853 65.0592 11.7026V12.3285C65.0592 12.6459 64.9739 12.8755 64.8049 13.0159C64.6358 13.1577 64.3396 13.2279 63.9163 13.2279H56.4186V18.1052H66.7122C67.1356 18.1052 67.4318 18.1768 67.6023 18.3172C67.7713 18.4591 67.8566 18.6887 67.8566 19.0046V19.6802C67.8566 19.98 67.7713 20.1979 67.6023 20.331C67.4318 20.4641 67.1356 20.5313 66.7122 20.5313H53.5287C53.1053 20.5313 52.8034 20.4568 52.6227 20.3061V20.3076Z" fill="white"/>
<path d="M70.0034 20.4304C69.908 20.3646 69.8604 20.2798 69.8604 20.1804C69.8604 20.0809 69.9124 19.9639 70.0193 19.8308L77.6759 11.8269L70.4325 4.2237C70.3054 4.09062 70.2418 3.96485 70.2418 3.84785C70.2418 3.74841 70.2837 3.66944 70.369 3.61094C70.4528 3.55244 70.5799 3.52319 70.7504 3.52319H73.7053C73.9379 3.52319 74.107 3.54367 74.2139 3.58608C74.3194 3.62849 74.4249 3.70746 74.5318 3.82299L79.9329 9.45045L85.334 3.82299C85.4395 3.706 85.545 3.62703 85.6519 3.58608C85.7574 3.54513 85.9265 3.52319 86.1605 3.52319H89.1472C89.2946 3.52319 89.4116 3.55244 89.4969 3.61094C89.5807 3.66944 89.624 3.74841 89.624 3.84785C89.624 3.96485 89.5604 4.08916 89.4333 4.2237L82.1899 11.8269L89.8465 19.8308C89.952 19.9639 90.0055 20.0809 90.0055 20.1804C90.0055 20.2798 89.9578 20.3646 89.8624 20.4304C89.7671 20.4977 89.6457 20.5299 89.4969 20.5299H86.542C86.3296 20.5299 86.1707 20.5138 86.0652 20.4802C85.9583 20.4465 85.8528 20.3719 85.7473 20.2549L79.9329 14.2019L74.1518 20.2549C74.0449 20.3719 73.9394 20.4465 73.8339 20.4802C73.727 20.5138 73.5695 20.5299 73.3571 20.5299H70.3704C70.2216 20.5299 70.1002 20.4962 70.0048 20.4304H70.0034Z" fill="white"/>
<path d="M98.8025 20.3061C98.6118 20.1555 98.5164 19.9303 98.5164 19.6305V5.97424H92.9563C92.533 5.97424 92.2411 5.90843 92.0822 5.77388C91.9232 5.6408 91.8438 5.41559 91.8438 5.09824V4.42259C91.8438 4.10671 91.9232 3.8771 92.0822 3.73525C92.2411 3.59339 92.5315 3.52319 92.9563 3.52319H108.141C108.564 3.52319 108.861 3.59485 109.031 3.73525C109.2 3.8771 109.285 4.10671 109.285 4.42259V5.09824C109.285 5.41559 109.2 5.6408 109.031 5.77388C108.862 5.90697 108.564 5.97424 108.141 5.97424H102.581V19.6305C102.581 19.9303 102.49 20.1555 102.311 20.3061C102.13 20.4567 101.818 20.5313 101.373 20.5313H99.7215C99.2981 20.5313 98.9903 20.4567 98.7996 20.3061H98.8025Z" fill="white"/>
<path d="M128.171 4.96833C126.914 4.01043 125.065 3.52344 122.673 3.52344H113.628C112.74 3.52344 112.608 4.02652 112.608 4.32632V19.7112C112.608 20.011 112.741 20.514 113.628 20.514H113.9C114.789 20.514 114.921 20.011 114.921 19.7112V14.4961H122.642C125.056 14.4961 126.917 14.0106 128.174 13.0512C129.452 12.0772 130.1 10.7172 130.1 9.00904C130.1 7.30091 129.453 5.94231 128.174 4.96686L128.171 4.96833ZM126.659 11.8623C125.848 12.497 124.552 12.8187 122.808 12.8187H114.919V5.20232H122.808C124.55 5.20232 125.847 5.52405 126.659 6.15875C127.45 6.77882 127.852 7.73818 127.852 9.0105C127.852 10.2828 127.45 11.2436 126.659 11.8623Z" fill="white"/>
<path d="M149.458 4.19678C147.766 3.50943 145.719 3.15991 143.371 3.15991C141.023 3.15991 138.975 3.50943 137.283 4.19678C135.575 4.89144 134.25 5.91661 133.346 7.24596C132.441 8.57532 131.982 10.1825 131.982 12.0194C131.982 13.8562 132.441 15.4634 133.346 16.7927C134.25 18.1221 135.575 19.1473 137.283 19.8419C138.975 20.5293 141.024 20.8788 143.371 20.8788C145.717 20.8788 147.765 20.5293 149.458 19.8419C151.166 19.1473 152.491 18.1221 153.396 16.7927C154.3 15.4634 154.76 13.8576 154.76 12.0194C154.76 10.1811 154.3 8.57532 153.396 7.24596C152.491 5.91807 151.166 4.89144 149.458 4.19678ZM152.514 12.0194C152.514 14.3549 151.714 16.1639 150.135 17.3953C148.536 18.6413 146.261 19.2745 143.371 19.2745C140.481 19.2745 138.204 18.6427 136.607 17.3953C135.028 16.1639 134.227 14.3549 134.227 12.0194C134.227 9.68384 135.028 7.87481 136.607 6.64344C138.204 5.39744 140.48 4.76567 143.371 4.76567C146.262 4.76567 148.536 5.39744 150.135 6.6449C151.714 7.87627 152.514 9.68531 152.514 12.0208V12.0194Z" fill="white"/>
<path d="M181.351 3.5249H180.605C180.309 3.5249 180.105 3.56146 179.964 3.64043C179.806 3.72818 179.69 3.89051 179.631 4.10256L175.091 17.4341L169.947 5.33978C169.866 5.16575 169.783 5.03852 169.692 4.95078C169.575 4.83963 169.393 4.78698 169.119 4.78698H168.273C168.01 4.78698 167.822 4.83671 167.698 4.93761C167.589 5.02682 167.494 5.15844 167.407 5.3471L162.268 17.4341L157.732 4.11426C157.668 3.88758 157.556 3.72818 157.395 3.63897C157.254 3.56 157.05 3.52344 156.754 3.52344H156.008C155.393 3.52344 155.326 3.88173 155.326 4.03529C155.326 4.15082 155.344 4.23857 155.383 4.31023L160.935 19.9525C161.024 20.1645 161.133 20.3078 161.268 20.3926C161.398 20.4745 161.583 20.514 161.836 20.514H162.445C162.705 20.514 162.885 20.4731 163.009 20.3839C163.12 20.3034 163.226 20.1718 163.338 19.9671L168.679 7.41937L174.013 19.9525C174.102 20.1645 174.21 20.3078 174.344 20.3926C174.474 20.4745 174.661 20.5155 174.912 20.5155H175.522C175.773 20.5155 175.96 20.476 176.09 20.3941C176.226 20.3093 176.334 20.163 176.426 19.9408L181.984 4.28683C182.073 4.02798 182.008 3.85249 181.936 3.74865C181.83 3.59802 181.638 3.5249 181.349 3.5249H181.351Z" fill="white"/>
<path d="M200.464 3.66529C200.301 3.57024 200.067 3.52344 199.751 3.52344H185.657C184.768 3.52344 184.637 4.02652 184.637 4.32632V19.7112C184.637 20.011 184.77 20.514 185.657 20.514H199.751C200.069 20.514 200.301 20.4672 200.464 20.3722C200.579 20.3049 200.771 20.1396 200.771 19.7843V19.6146C200.771 19.3236 200.638 18.8366 199.749 18.8366H186.947V12.8465H196.802C197.69 12.8465 197.822 12.3595 197.822 12.0685V11.8988C197.822 11.5449 197.629 11.3782 197.515 11.3109C197.352 11.2159 197.118 11.1691 196.802 11.1691H186.947V5.20232H199.749C200.638 5.20232 200.771 4.71532 200.771 4.4243V4.25466C200.771 3.89928 200.579 3.73403 200.463 3.66676L200.464 3.66529Z" fill="white"/>
<path d="M215.594 13.3422C217.13 13.0717 218.32 12.5481 219.137 11.7847C220.031 10.9482 220.485 9.84994 220.485 8.52351C220.485 6.93969 219.833 5.69223 218.549 4.81477C217.294 3.95778 215.448 3.52344 213.061 3.52344H204.015C203.127 3.52344 202.995 4.02652 202.995 4.32632V19.7112C202.995 20.011 203.128 20.514 204.015 20.514H204.287C205.176 20.514 205.309 20.011 205.309 19.7112V13.525H213.234L217.231 19.989C217.369 20.2084 217.495 20.3429 217.625 20.4131C217.754 20.4819 217.94 20.514 218.213 20.514H219.027C219.59 20.514 219.676 20.2391 219.676 20.0753L219.59 19.7857L215.598 13.3422H215.594ZM218.239 8.52351C218.239 9.65982 217.842 10.5022 217.06 11.0257C216.247 11.5712 214.946 11.8462 213.197 11.8462H205.307V5.20085H213.197C214.946 5.20085 216.247 5.47725 217.06 6.02128C217.842 6.54483 218.239 7.3872 218.239 8.52351Z" fill="white"/>
<path d="M226.223 20.3308V18.6022H225.552C225.479 18.6022 225.429 18.589 225.401 18.5627C225.372 18.5364 225.359 18.4896 225.359 18.4223V18.2819C225.359 18.2088 225.374 18.1576 225.401 18.1298C225.429 18.102 225.479 18.0874 225.552 18.0874H227.444C227.517 18.0874 227.569 18.102 227.599 18.1298C227.629 18.1591 227.645 18.2088 227.645 18.2819V18.4223C227.645 18.4896 227.631 18.5364 227.603 18.5627C227.574 18.589 227.522 18.6022 227.444 18.6022H226.772V20.3308C226.772 20.4609 226.707 20.5267 226.579 20.5267H226.417C226.288 20.5267 226.223 20.4609 226.223 20.3308ZM227.846 20.3308V18.2746C227.846 18.1488 227.908 18.0874 228.031 18.0874H228.248C228.304 18.0874 228.347 18.0947 228.375 18.1064C228.404 18.1196 228.428 18.1488 228.449 18.1956L229.144 19.6888L229.831 18.1956C229.852 18.1488 229.876 18.1181 229.905 18.1064C229.934 18.0933 229.976 18.0874 230.032 18.0874H230.249C230.373 18.0874 230.434 18.1503 230.434 18.2746V20.3308C230.434 20.4609 230.369 20.5267 230.24 20.5267H230.078C229.95 20.5267 229.885 20.4609 229.885 20.3308V19.1184L229.329 20.3308C229.287 20.4141 229.226 20.4565 229.144 20.4565C229.055 20.4565 228.992 20.4156 228.95 20.3308L228.394 19.1184V20.3308C228.394 20.4609 228.329 20.5267 228.2 20.5267H228.038C227.91 20.5267 227.845 20.4609 227.845 20.3308H227.846Z" fill="white"/>
</g>
<defs>
<clipPath id="clip0_3650_130">
<rect width="231" height="24" fill="white"/>
</clipPath>
</defs>
</svg>
