<svg width="81" height="67" viewBox="0 0 81 67" fill="none" xmlns="http://www.w3.org/2000/svg">
<g opacity="0.6">
<path d="M8.71626 40.121C8.71626 42.4194 6.76909 44.2786 4.36196 44.2786C1.95484 44.2786 0.00766601 42.4194 0 40.121C0 37.8226 1.94717 35.9634 4.3543 35.9561C6.76142 35.9561 8.70859 37.8153 8.70859 40.1136" fill="white"/>
<path d="M70.4966 56.9754H69.1168C65.4064 56.8803 62.4397 55.7897 60.2779 53.7401C58.7753 52.2762 57.9014 51.0319 57.6024 49.9339L57.5871 49.8753L57.6407 49.8461L65.1228 45.7031V45.8275C65.3221 48.3675 67.6372 50.2779 70.2973 50.0949C72.1142 49.9705 73.7087 48.8725 74.4063 47.2695L74.437 47.1817L74.506 47.0499C74.529 46.9475 74.5596 46.845 74.598 46.7498C74.6593 46.5742 74.6976 46.3912 74.7283 46.2008V46.135L74.7666 46.0545L74.7896 45.9813V45.7617H74.8203V43.5365L74.7436 43.5731L74.5366 43.639C72.9881 44.2465 71.3246 44.5686 69.6457 44.5832H69.4311C67.0929 44.5978 64.8008 44.0123 62.777 42.8923C58.5223 40.6232 55.9006 36.3192 55.9236 31.6639C55.9082 29.9145 56.2915 28.1797 57.0428 26.584C59.1893 21.8775 64.0495 18.8398 69.4234 18.8398C72.4362 18.8398 74.6976 19.2204 76.1388 19.9743C77.626 20.5672 78.9523 21.4676 80.0332 22.6021C73.6474 5.0568 53.5624 -4.22459 35.187 1.87272C25.3668 5.12999 17.5552 12.3692 13.8448 21.6506C14.9487 20.8454 16.1676 20.2013 17.4708 19.7255C20.9359 18.4738 24.7689 18.4738 28.2339 19.7255C29.9358 20.3111 31.4996 21.2041 32.8489 22.3606C37.0038 25.9472 38.2764 31.6786 36.0149 36.5681C35.256 38.1272 34.1828 39.518 32.8565 40.6745C31.515 41.8383 29.9434 42.7459 28.2416 43.3388C24.1863 44.8174 19.6633 44.5612 15.8303 42.6142C14.5118 41.9481 13.3082 41.0917 12.2656 40.0743C16.1446 58.2784 34.75 70.0265 53.8077 66.3154C60.7148 64.9686 67.0469 61.682 71.9762 56.8657C71.4856 56.9315 71.0256 56.9681 70.489 56.9901M53.4781 26.2254L53.3554 26.1522C52.8955 25.8814 52.3665 25.735 51.8222 25.7276H51.4006C49.4994 25.8228 48.5335 27.1111 48.5335 29.5778V43.5877H40.6452V29.5778C40.6452 26.2254 41.5498 23.6269 43.3436 21.8555C45.1375 20.0841 47.8436 19.1033 51.4006 18.935H51.8299C52.3589 18.9569 52.8878 19.0082 53.4168 19.096L53.4858 19.1106V26.2327L53.4781 26.2254Z" fill="white"/>
<path d="M18.1238 35.5851C19.2353 36.6758 20.7609 37.2906 22.3631 37.2979H22.4627C24.1109 37.3345 25.7054 36.7124 26.863 35.5851C28.8945 33.8064 29.3085 30.8932 27.8366 28.668C27.2693 27.797 26.4797 27.0723 25.5445 26.5673C23.6586 25.5205 21.3358 25.5205 19.4576 26.5673C18.5071 27.0577 17.7175 27.7823 17.1655 28.668C16.5906 29.5171 16.2916 30.5053 16.2916 31.5081C16.2686 33.0598 16.9432 34.5384 18.1391 35.5851" fill="white"/>
<path d="M70.1311 25.9175C69.0962 25.9102 68.0766 26.1663 67.1797 26.6641C66.2521 27.1691 65.4702 27.8938 64.9182 28.7648C63.5 30.99 63.9063 33.8667 65.8918 35.6527L66.0221 35.7771C68.3602 37.9438 72.1013 37.8852 74.3704 35.6527C76.3559 33.8594 76.7622 30.99 75.344 28.7575C74.2324 27.0228 72.2622 25.9468 70.1311 25.9102" fill="white"/>
</g>
</svg>
