<svg width="151" height="48" viewBox="0 0 151 48" fill="none" xmlns="http://www.w3.org/2000/svg">
<g opacity="0.6">
<path d="M53.1153 9.46582C54.8688 9.46582 56.4634 9.91612 57.8964 10.822C59.332 11.6988 60.4472 12.9331 61.2445 14.5277C62.0683 16.0958 62.4788 17.8626 62.4788 19.828C62.4788 21.7934 62.0683 23.6132 61.2445 25.2077C60.4472 26.7759 59.332 28.0102 57.8964 28.9134C56.4872 29.8167 54.9085 30.2696 53.155 30.2696C51.6134 30.2696 50.1936 29.9121 48.8904 29.1942C47.6163 28.4499 46.5912 27.4672 45.8231 26.2461V36.7672C45.8231 37.1115 45.7039 37.3923 45.4655 37.6042C45.2536 37.8426 44.9728 37.9618 44.6285 37.9618C44.2841 37.9618 43.9901 37.8426 43.7517 37.6042C43.5398 37.3923 43.4338 37.1115 43.4338 36.7672V10.7823C43.4338 10.4379 43.5398 10.1439 43.7517 9.90552C43.9901 9.66713 44.2841 9.54793 44.6285 9.54793C44.9728 9.54793 45.2536 9.66713 45.4655 9.90552C45.7039 10.1439 45.8231 10.4379 45.8231 10.7823V13.492C46.5144 12.2444 47.5104 11.2591 48.8109 10.5439C50.1115 9.82606 51.5472 9.46847 53.1153 9.46847V9.46582ZM52.9166 28.0367C54.2966 28.0367 55.5336 27.6923 56.6223 27.001C57.7375 26.2832 58.601 25.3005 59.2129 24.0529C59.8512 22.8053 60.1691 21.3961 60.1691 19.828C60.1691 18.2599 59.8512 16.9064 59.2129 15.6826C58.601 14.435 57.7375 13.4655 56.6223 12.7742C55.5336 12.0564 54.2966 11.6988 52.9166 11.6988C51.5366 11.6988 50.2466 12.0431 49.1314 12.7345C48.0163 13.4258 47.1528 14.3953 46.5409 15.6429C45.929 16.864 45.6244 18.2599 45.6244 19.828C45.6244 21.3961 45.929 22.8026 46.5409 24.0529C47.1528 25.3005 48.0163 26.2858 49.1314 27.001C50.2466 27.6923 51.5101 28.0367 52.9166 28.0367Z" fill="white"/>
<path d="M70.0223 28.7947C70.0223 29.139 69.9031 29.4331 69.6647 29.6714C69.4528 29.8834 69.172 29.9893 68.8277 29.9893C68.4833 29.9893 68.1893 29.8834 67.9509 29.6714C67.739 29.4331 67.6331 29.139 67.6331 28.7947V1.69462C67.6331 1.35027 67.739 1.0695 67.9509 0.857591C68.1893 0.619197 68.4833 0.5 68.8277 0.5C69.172 0.5 69.4528 0.619197 69.6647 0.857591C69.9031 1.0695 70.0223 1.35027 70.0223 1.69462V28.7947Z" fill="white"/>
<path d="M91.6202 9.74316C91.9645 9.74316 92.2453 9.86236 92.4572 10.1008C92.6956 10.3127 92.8148 10.5934 92.8148 10.9378V22.1767C92.8148 24.7805 92.0837 26.7857 90.6242 28.1948C89.1621 29.5749 87.1437 30.2662 84.5664 30.2662C81.9891 30.2662 80.0104 29.5749 78.5483 28.1948C77.1126 26.7857 76.3948 24.7805 76.3948 22.1767V10.9378C76.3948 10.5934 76.5007 10.3127 76.7126 10.1008C76.951 9.86236 77.245 9.74316 77.5894 9.74316C77.9337 9.74316 78.2145 9.86236 78.4264 10.1008C78.6648 10.3127 78.7867 10.5934 78.7867 10.9378V22.1767C78.7867 24.0892 79.2926 25.5513 80.2991 26.5605C81.3083 27.5432 82.7307 28.0359 84.5637 28.0359C86.3967 28.0359 87.8589 27.5459 88.8681 26.5605C89.9038 25.5513 90.4229 24.0892 90.4229 22.1767V10.9378C90.4229 10.5934 90.5289 10.3127 90.7408 10.1008C90.9792 9.86236 91.2705 9.74316 91.6175 9.74316H91.6202Z" fill="white"/>
<path d="M103.068 11.9383V25.2883C103.068 26.2975 103.253 26.9889 103.627 27.3597C103.998 27.7041 104.49 27.8789 105.102 27.8789C105.261 27.8789 105.46 27.8524 105.701 27.7994C105.939 27.72 106.125 27.6802 106.26 27.6802C106.498 27.6802 106.697 27.7862 106.858 27.9981C107.044 28.1835 107.137 28.4086 107.137 28.6762C107.137 29.047 106.925 29.3675 106.498 29.6324C106.074 29.8708 105.568 29.99 104.983 29.99C104.265 29.99 103.627 29.9238 103.071 29.7913C102.514 29.6589 101.969 29.2589 101.436 28.5967C100.93 27.9319 100.679 26.8697 100.679 25.4075V11.9383H97.7704C97.4525 11.9383 97.1717 11.8323 96.9333 11.6204C96.7214 11.4085 96.6155 11.141 96.6155 10.8231C96.6155 10.5053 96.7214 10.2378 96.9333 10.0258C97.1717 9.81394 97.4499 9.70799 97.7704 9.70799H100.679V5.28446C100.679 4.94011 100.785 4.65934 100.997 4.44743C101.235 4.20904 101.526 4.08984 101.873 4.08984C102.22 4.08984 102.499 4.20904 102.71 4.44743C102.951 4.65934 103.071 4.94011 103.071 5.28446V9.70799H107.057C107.348 9.70799 107.603 9.82719 107.815 10.0656C108.053 10.304 108.175 10.5715 108.175 10.8629C108.175 11.1807 108.069 11.4483 107.857 11.6602C107.645 11.8456 107.38 11.9383 107.06 11.9383H103.073H103.068Z" fill="white"/>
<path d="M131.201 19.7868C131.201 21.7787 130.761 23.5852 129.884 25.2063C129.008 26.8274 127.8 28.1014 126.258 29.0312C124.717 29.9344 123.003 30.3874 121.117 30.3874C119.231 30.3874 117.517 29.9344 115.975 29.0312C114.434 28.1014 113.226 26.8247 112.349 25.2063C111.472 23.5852 111.035 21.7787 111.035 19.7868C111.035 17.7949 111.472 15.9884 112.349 14.3673C113.226 12.7462 114.434 11.4721 115.975 10.5424C117.517 9.61268 119.231 9.14648 121.117 9.14648C123.003 9.14648 124.717 9.61268 126.258 10.5424C127.8 11.4721 129.008 12.7489 129.884 14.3673C130.761 15.9884 131.201 17.7949 131.201 19.7868ZM128.809 19.7868C128.809 18.1922 128.478 16.7592 127.813 15.4825C127.148 14.2084 126.218 13.2124 125.024 12.4946C123.856 11.7503 122.552 11.3794 121.119 11.3794C119.686 11.3794 118.383 11.7503 117.215 12.4946C116.047 13.2124 115.117 14.2084 114.426 15.4825C113.761 16.7592 113.43 18.1922 113.43 19.7868C113.43 21.3814 113.761 22.7747 114.426 24.0514C115.117 25.3255 116.047 26.3373 117.215 27.079C118.383 27.7968 119.686 28.1544 121.119 28.1544C122.552 28.1544 123.856 27.7968 125.024 27.079C126.218 26.3612 127.148 25.3652 127.813 24.0911C128.478 22.8144 128.809 21.3814 128.809 19.7868Z" fill="white"/>
<path d="M44.6274 38.4617C44.1453 38.4617 43.7321 38.2921 43.3983 37.9557C43.0884 37.6458 42.9321 37.2459 42.9321 36.7664V10.7842C42.9321 10.3153 43.0831 9.90741 43.3771 9.57631L43.3983 9.55512C43.7347 9.21872 44.1479 9.04919 44.6274 9.04919C45.1068 9.04919 45.5227 9.22666 45.8273 9.56571C46.1557 9.89946 46.3226 10.31 46.3226 10.7868V11.9099C46.9424 11.1947 47.6947 10.5908 48.5715 10.1087C49.9409 9.35381 51.4719 8.96973 53.1168 8.96973C54.9578 8.96973 56.6557 9.45181 58.1628 10.4001C59.67 11.3219 60.8567 12.6357 61.6911 14.3018C62.5466 15.9335 62.981 17.7929 62.981 19.8299C62.981 21.8668 62.5466 23.7793 61.6911 25.4374C60.8567 27.077 59.67 28.3909 58.1655 29.3365C56.6822 30.2874 54.9975 30.7695 53.1539 30.7695C51.5355 30.7695 50.0204 30.3854 48.6483 29.6305L48.6377 29.6252C47.753 29.1087 46.9795 28.4783 46.32 27.7393V36.7664C46.32 37.2406 46.1451 37.6538 45.8167 37.9584C45.5121 38.2895 45.1015 38.4643 44.6247 38.4643L44.6274 38.4617ZM44.1162 10.2491C43.9917 10.3948 43.9334 10.5643 43.9334 10.7815V36.7638C43.9334 37.0419 44.0314 37.1743 44.1056 37.2459C44.2512 37.3915 44.4155 37.4578 44.6274 37.4578C44.8393 37.4578 44.9744 37.3995 45.0909 37.2671L45.1095 37.2459L45.1306 37.2273C45.2631 37.1108 45.3214 36.9677 45.3214 36.7638V24.513L46.2432 25.9751C46.9663 27.1221 47.9384 28.0571 49.1357 28.7564C50.3541 29.4266 51.7077 29.7682 53.1539 29.7682C54.8015 29.7682 56.306 29.3391 57.6251 28.4915H57.6278C58.9787 27.6386 60.0435 26.4572 60.7958 24.9792C61.5772 23.4614 61.9745 21.7291 61.9745 19.8272C61.9745 17.9254 61.5772 16.246 60.7958 14.76L60.7905 14.7521C60.0409 13.2502 58.976 12.0715 57.6304 11.2477H57.6251C56.2795 10.3974 54.7591 9.96568 53.1089 9.96568C51.6335 9.96568 50.2667 10.3074 49.0456 10.9802C47.8324 11.6477 46.8948 12.5748 46.2538 13.7323L45.3161 13.4913V10.7815C45.3161 10.5696 45.2498 10.4027 45.1042 10.2571L45.083 10.2359C44.9664 10.1034 44.8234 10.0451 44.6194 10.0451C44.4155 10.0451 44.2486 10.1087 44.1082 10.2465L44.1162 10.2491ZM52.9182 28.5392C51.4216 28.5392 50.0601 28.1657 48.8681 27.4293L48.8602 27.424C47.6709 26.6612 46.7411 25.599 46.0922 24.2746C45.4512 22.9634 45.1254 21.4695 45.1254 19.8299C45.1254 18.1903 45.4512 16.7096 46.0948 15.4249C46.7438 14.0978 47.6788 13.0489 48.8708 12.3125C50.0628 11.5762 51.4242 11.2027 52.9208 11.2027C54.4174 11.2027 55.7312 11.5921 56.8967 12.3576C58.0834 13.0939 59.0158 14.1376 59.6647 15.462C60.3349 16.7493 60.6739 18.2194 60.6739 19.8325C60.6739 21.4457 60.3349 22.9661 59.6647 24.2799C59.0158 25.6043 58.086 26.6612 56.8967 27.4267C55.7312 28.1684 54.3936 28.5418 52.9235 28.5418L52.9182 28.5392ZM49.3979 26.5817C50.4283 27.2174 51.6123 27.5406 52.9182 27.5406C54.224 27.5406 55.3524 27.2174 56.3563 26.5844C57.3894 25.9195 58.1999 24.9951 58.7668 23.8375V23.8296C59.3681 22.6588 59.6727 21.3132 59.6727 19.8325C59.6727 18.3518 59.3707 17.0645 58.7721 15.9202L58.7668 15.9096C58.1999 14.7521 57.392 13.8436 56.3616 13.2052L56.351 13.1972C55.3498 12.5377 54.1949 12.2039 52.9208 12.2039C51.6467 12.2039 50.4283 12.5271 49.3979 13.1655C48.3675 13.8038 47.5596 14.7124 46.9928 15.8699C46.4206 17.0195 46.1293 18.3518 46.1293 19.8352C46.1293 21.3185 46.4206 22.6668 46.9954 23.8402C47.5623 24.9977 48.3728 25.9222 49.4032 26.587L49.3979 26.5817Z" fill="white"/>
<path d="M68.8296 30.4905C68.3581 30.4905 67.9528 30.3396 67.6217 30.0455L67.6005 30.027L67.582 30.0058C67.2853 29.6747 67.137 29.2668 67.137 28.798V1.69524C67.137 1.21316 67.2932 0.813187 67.6031 0.505924C67.9369 0.172173 68.3528 0 68.8322 0C69.3116 0 69.7196 0.174822 70.0242 0.505924C70.3553 0.810538 70.5274 1.22111 70.5274 1.69789V28.798C70.5274 29.28 70.3579 29.6933 70.0215 30.027C69.7116 30.3369 69.3116 30.4932 68.8322 30.4932L68.8296 30.4905ZM68.3077 29.3171C68.4508 29.4363 68.6176 29.4893 68.8296 29.4893C69.1077 29.4893 69.2401 29.3913 69.3116 29.3171C69.4573 29.1714 69.5235 29.0072 69.5235 28.7927V1.69524C69.5235 1.49128 69.4653 1.34825 69.3328 1.2317L69.3116 1.21316L69.2931 1.19197C69.1765 1.05953 69.0335 1.00125 68.8296 1.00125C68.6256 1.00125 68.4508 1.06747 68.3051 1.21316C68.2309 1.28733 68.1329 1.41712 68.1329 1.69789V28.798C68.1329 29.0099 68.1885 29.1767 68.3051 29.3198L68.3077 29.3171Z" fill="white"/>
<path d="M84.5644 30.7665C81.8944 30.7665 79.7541 30.0222 78.2045 28.5574L78.1966 28.5521C76.6682 27.0528 75.8948 24.9073 75.8948 22.1764V10.9374C75.8948 10.458 76.0511 10.058 76.361 9.74811C76.6921 9.41701 77.1159 9.24219 77.5927 9.24219C78.0695 9.24219 78.48 9.41701 78.7846 9.74546C79.1157 10.0501 79.2906 10.4606 79.2906 10.9374V22.1764C79.2906 23.9405 79.7488 25.2967 80.6547 26.2052C81.5632 27.0873 82.8797 27.5349 84.567 27.5349C86.2543 27.5349 87.6132 27.0873 88.5217 26.2026C89.4514 25.2967 89.9256 23.9405 89.9256 22.1764V10.9374C89.9256 10.4553 90.0819 10.0554 90.3918 9.74811C90.7255 9.41436 91.1414 9.24219 91.6208 9.24219C92.1002 9.24219 92.5082 9.41701 92.8128 9.74546C93.1439 10.0501 93.3161 10.4606 93.3161 10.9374V22.1764C93.3161 24.91 92.5267 27.0555 90.9719 28.5547H90.9692C89.4196 30.0248 87.2662 30.7665 84.5697 30.7665H84.5644ZM78.8932 27.8342C79.5687 28.47 80.3792 28.9547 81.309 29.2752C82.2546 29.601 83.3486 29.7652 84.5644 29.7652C85.7802 29.7652 86.898 29.601 87.8489 29.2752C88.7839 28.9547 89.6024 28.47 90.2752 27.8316C90.9454 27.1853 91.4566 26.388 91.7956 25.4609C92.14 24.5179 92.3122 23.4134 92.3122 22.1737V10.9348C92.3122 10.7308 92.2539 10.5878 92.1214 10.4712L92.1003 10.4527L92.0817 10.4315C91.9652 10.2991 91.8221 10.2408 91.6182 10.2408C91.4142 10.2408 91.2394 10.307 91.0937 10.4527C91.0195 10.5269 90.9215 10.6567 90.9215 10.9348V22.1737C90.9215 24.2186 90.3467 25.8132 89.2157 26.9151C88.1138 27.9879 86.5483 28.5309 84.5617 28.5309C82.5751 28.5309 81.0494 27.9879 79.9475 26.9151L79.9422 26.9098C78.8403 25.8079 78.2814 24.2133 78.2814 22.1737V10.9348C78.2814 10.7308 78.2231 10.5904 78.0906 10.4712L78.0695 10.4527L78.0509 10.4315C77.9344 10.2991 77.7913 10.2408 77.5874 10.2408C77.3834 10.2408 77.2086 10.307 77.0656 10.4527C76.9914 10.5269 76.8934 10.6593 76.8934 10.9374V22.1764C76.8934 23.4134 77.0656 24.5206 77.402 25.4662C77.7331 26.3906 78.2337 27.1879 78.8932 27.8342Z" fill="white"/>
<path d="M104.984 30.491C104.232 30.491 103.549 30.4194 102.955 30.2791C102.288 30.1201 101.647 29.6592 101.046 28.9096L101.038 28.899C100.46 28.1388 100.179 26.9972 100.179 25.4079V12.4366H97.769C97.3267 12.4366 96.932 12.2856 96.6009 11.9916L96.5797 11.9704C96.2751 11.6658 96.1135 11.2685 96.1135 10.8208C96.1135 10.3732 96.2751 9.97586 96.5771 9.67125L96.5983 9.65006C96.9294 9.35339 97.324 9.20506 97.7664 9.20506H100.177V5.28216C100.177 4.80007 100.333 4.4001 100.643 4.09284C100.977 3.75909 101.393 3.58691 101.872 3.58691C102.351 3.58691 102.759 3.76174 103.064 4.09284C103.395 4.39745 103.57 4.80802 103.57 5.28481V9.20771H107.056C107.485 9.20771 107.872 9.38518 108.176 9.72423C108.505 10.058 108.672 10.4421 108.672 10.8632C108.672 11.3109 108.51 11.7108 108.205 12.0155L108.182 12.0393C107.877 12.3068 107.498 12.4419 107.056 12.4419H103.57V25.2913C103.57 26.3615 103.79 26.8118 103.975 27.0051C104.253 27.2594 104.622 27.3839 105.104 27.3839C105.186 27.3839 105.331 27.3733 105.57 27.3203C105.851 27.2276 106.076 27.1826 106.261 27.1826C106.648 27.1826 106.984 27.3521 107.236 27.6726C107.498 27.9481 107.636 28.2951 107.636 28.6792C107.636 29.3679 107.162 29.8102 106.764 30.0592L106.743 30.0724C106.245 30.3532 105.652 30.4963 104.984 30.4963V30.491ZM101.832 28.2898C102.288 28.8593 102.744 29.201 103.189 29.3069C103.705 29.4288 104.309 29.4924 104.984 29.4924C105.474 29.4924 105.898 29.3944 106.243 29.2036C106.635 28.9546 106.635 28.7454 106.635 28.6765C106.635 28.5441 106.595 28.4434 106.502 28.3534L106.478 28.3295L106.457 28.3004C106.375 28.1891 106.314 28.1812 106.259 28.1812C106.232 28.1812 106.121 28.1891 105.859 28.2739L105.835 28.2818L105.811 28.2871C105.533 28.3481 105.302 28.3799 105.104 28.3799C104.365 28.3799 103.755 28.16 103.289 27.7282L103.276 27.715C102.802 27.2409 102.571 26.4462 102.571 25.2887V11.438H107.056C107.247 11.438 107.392 11.393 107.511 11.2923C107.623 11.1758 107.673 11.0433 107.673 10.8606C107.673 10.7626 107.652 10.6089 107.461 10.4156L107.44 10.3944C107.289 10.2249 107.156 10.2037 107.056 10.2037H102.571V5.27951C102.571 5.07555 102.513 4.93251 102.381 4.81597L102.357 4.79478L102.336 4.77094C102.219 4.6385 102.076 4.58022 101.872 4.58022C101.668 4.58022 101.493 4.64644 101.35 4.79213C101.276 4.86629 101.178 4.99609 101.178 5.27421V10.1984H97.769C97.5783 10.1984 97.4194 10.2566 97.2764 10.3811C97.1651 10.4977 97.1148 10.6354 97.1148 10.8155C97.1148 10.9957 97.1678 11.1334 97.2764 11.2499C97.422 11.3744 97.5783 11.4327 97.769 11.4327H101.178V25.4026C101.178 26.7429 101.398 27.7124 101.83 28.2845L101.832 28.2898Z" fill="white"/>
<path d="M121.121 30.8869C119.153 30.8869 117.339 30.4075 115.728 29.4645H115.723C114.112 28.4898 112.83 27.1389 111.914 25.4463C111.003 23.759 110.539 21.8571 110.539 19.7884C110.539 17.7197 111.003 15.8178 111.914 14.1305C112.83 12.4379 114.11 11.087 115.723 10.1149C117.336 9.14279 119.153 8.64746 121.121 8.64746C123.089 8.64746 124.906 9.14014 126.519 10.1149C128.13 11.087 129.412 12.4379 130.328 14.1305C131.242 15.8178 131.703 17.7223 131.703 19.7884C131.703 21.8545 131.24 23.759 130.328 25.4463C129.412 27.1389 128.13 28.4898 126.519 29.4619H126.514C124.904 30.4102 123.089 30.8896 121.121 30.8896V30.8869ZM116.234 28.601C117.691 29.4539 119.333 29.8857 121.121 29.8857C122.909 29.8857 124.551 29.4539 126.006 28.601C127.46 27.7216 128.617 26.5005 129.449 24.9668C130.281 23.4279 130.705 21.6849 130.705 19.7857C130.705 17.8865 130.283 16.1436 129.449 14.6047C128.62 13.071 127.46 11.8472 126.003 10.9678C124.549 10.0911 122.906 9.64606 121.121 9.64606C119.336 9.64606 117.694 10.0911 116.239 10.9678C114.782 11.8472 113.625 13.071 112.793 14.6047C111.961 16.1436 111.538 17.8865 111.538 19.7857C111.538 21.6849 111.959 23.4279 112.793 24.9668C113.622 26.5005 114.78 27.7216 116.237 28.601H116.234ZM121.121 28.654C119.601 28.654 118.197 28.2673 116.955 27.5044L116.947 27.4991C115.712 26.7124 114.714 25.6317 113.985 24.2861V24.2781C113.283 22.9378 112.928 21.4254 112.928 19.7831C112.928 18.1408 113.283 16.5886 113.983 15.2483V15.2404C114.716 13.8948 115.712 12.8273 116.949 12.0671C118.194 11.2751 119.595 10.8751 121.118 10.8751C122.642 10.8751 124.043 11.2751 125.288 12.0644C126.554 12.8273 127.552 13.8974 128.257 15.2483C128.956 16.5913 129.309 18.117 129.309 19.7831C129.309 21.4492 128.954 22.9776 128.257 24.3179C127.552 25.6688 126.551 26.7415 125.282 27.5044C124.04 28.2673 122.639 28.654 121.118 28.654H121.121ZM117.482 26.6541C118.565 27.3163 119.789 27.6554 121.121 27.6554C122.453 27.6554 123.683 27.319 124.766 26.6541H124.771C125.881 25.9866 126.755 25.0463 127.375 23.8596C127.997 22.6624 128.315 21.2929 128.315 19.7857C128.315 18.2786 128 16.9091 127.375 15.7119C126.758 14.5252 125.881 13.5875 124.771 12.92L124.761 12.9121C123.68 12.2234 122.456 11.8737 121.124 11.8737C119.791 11.8737 118.568 12.2234 117.487 12.9121L117.479 12.9174C116.393 13.5849 115.514 14.5252 114.87 15.7145C114.247 16.9091 113.932 18.2786 113.932 19.7831C113.932 21.2876 114.247 22.6173 114.87 23.812C115.516 25.0039 116.396 25.9575 117.484 26.6515L117.482 26.6541Z" fill="white"/>
<path d="M137.172 13.2686C137.733 13.2686 138.242 13.1243 138.7 12.834C139.159 12.5531 139.516 12.1576 139.771 11.6467C140.034 11.1442 140.165 10.5781 140.165 9.94839C140.165 9.31865 140.034 8.73558 139.771 8.22466C139.516 7.72222 139.159 7.32672 138.7 7.03731C138.25 6.7479 137.746 6.60277 137.185 6.60277C136.692 6.60277 136.239 6.71734 135.822 6.94735C135.415 7.18583 135.087 7.50071 134.842 7.89196L134.842 4.52088C134.842 4.41054 134.804 4.32058 134.727 4.25268C134.66 4.1763 134.57 4.13811 134.46 4.13811C134.35 4.13811 134.256 4.1763 134.18 4.25268C134.112 4.32058 134.078 4.41054 134.078 4.52088L134.078 12.8467C134.078 12.9571 134.112 13.0513 134.18 13.1277C134.256 13.2041 134.35 13.2422 134.46 13.2422C134.57 13.2422 134.66 13.2041 134.727 13.1277C134.804 13.0513 134.842 12.9571 134.842 12.8467L134.842 11.9785C135.063 12.3783 135.381 12.694 135.797 12.9231C136.212 13.1531 136.671 13.2677 137.172 13.2677L137.172 13.2686ZM137.109 7.31823C137.55 7.31823 137.945 7.42857 138.293 7.65008C138.65 7.88008 138.926 8.19495 139.121 8.5947C139.325 8.99444 139.427 9.44595 139.427 9.94839C139.427 10.4508 139.325 10.8845 139.121 11.2766C138.926 11.6764 138.65 11.987 138.293 12.2085C137.945 12.4385 137.55 12.5531 137.109 12.5531C136.668 12.5531 136.256 12.4428 135.899 12.2212C135.543 11.9997 135.267 11.6891 135.071 11.2894C134.876 10.8981 134.778 10.4508 134.778 9.94839C134.778 9.44595 134.876 8.99529 135.071 8.5947C135.267 8.19495 135.543 7.87923 135.899 7.65008C136.256 7.42857 136.659 7.31823 137.109 7.31823Z" fill="white"/>
<path d="M142.722 12.9934C142.722 13.073 142.679 13.141 142.594 13.1961C142.518 13.2451 142.418 13.2696 142.295 13.2696C142.173 13.2696 142.068 13.2451 141.983 13.1961C141.907 13.141 141.869 13.073 141.869 12.9934V6.72832C141.869 6.64872 141.907 6.58381 141.983 6.53482C142.068 6.4797 142.173 6.45215 142.295 6.45215C142.418 6.45215 142.518 6.4797 142.594 6.53482C142.679 6.58381 142.722 6.64872 142.722 6.72832V12.9934Z" fill="white"/>
<path d="M151 9.80614C151 10.4569 150.857 11.047 150.571 11.5766C150.285 12.1062 149.891 12.5224 149.389 12.8262C148.886 13.1212 148.327 13.2692 147.713 13.2692C147.098 13.2692 146.539 13.1212 146.036 12.8262C145.534 12.5224 145.14 12.1053 144.854 11.5766C144.569 11.047 144.426 10.4569 144.426 9.80614C144.426 9.1554 144.569 8.56524 144.854 8.03566C145.14 7.50607 145.534 7.08984 146.036 6.78611C146.539 6.48238 147.098 6.33008 147.713 6.33008C148.327 6.33008 148.886 6.48238 149.389 6.78611C149.891 7.08984 150.285 7.50694 150.571 8.03566C150.857 8.56524 151 9.1554 151 9.80614ZM150.22 9.80614C150.22 9.2852 150.112 8.81706 149.896 8.39997C149.679 7.98374 149.376 7.65837 148.986 7.42386C148.605 7.1807 148.181 7.05956 147.713 7.05956C147.246 7.05956 146.821 7.1807 146.441 7.42386C146.06 7.65837 145.757 7.98374 145.531 8.39997C145.315 8.81706 145.207 9.2852 145.207 9.80614C145.207 10.3271 145.315 10.7822 145.531 11.1993C145.757 11.6156 146.06 11.9461 146.441 12.1884C146.821 12.4229 147.246 12.5397 147.713 12.5397C148.181 12.5397 148.605 12.4229 148.986 12.1884C149.376 11.9539 149.679 11.6285 149.896 11.2123C150.112 10.7952 150.22 10.3271 150.22 9.80614Z" fill="white"/>
<ellipse cx="142.294" cy="4.87023" rx="0.548348" ry="0.48742" fill="white"/>
<circle cx="132.374" cy="12.7833" r="0.48742" fill="white"/>
<path d="M5.94187 47.7392C2.66663 47.7392 0 45.075 0 41.7973C0 38.5197 2.66419 35.8555 5.94187 35.8555H13.6338V43.8383C13.6338 45.9892 11.8837 47.7392 9.73284 47.7392H5.93943H5.94187Z" fill="white"/>
<path d="M35.6286 1.69693C37.3588 1.69693 38.7676 3.0927 38.7676 4.80989C38.7676 6.52708 37.3601 7.92285 35.6286 7.92285L31.565 7.92285L31.565 3.74065C31.565 2.61378 32.4896 1.69693 33.6259 1.69693L35.6299 1.69693L35.6286 1.69693Z" fill="white"/>
<path d="M6.90625 34.0463V17.5616C6.90625 13.1215 10.5247 9.50879 14.9719 9.50879H35.106V25.9935C35.106 30.4336 31.4876 34.0463 27.0404 34.0463H6.90625Z" fill="white"/>
</g>
</svg>
