<svg width="160" height="36" viewBox="0 0 160 36" fill="none" xmlns="http://www.w3.org/2000/svg">
<g clip-path="url(#clip0_3501_1163)">
<g opacity="0.6">
<path fill-rule="evenodd" clip-rule="evenodd" d="M0.657875 16.4128L16.4061 0.658574C17.2833 -0.217519 18.7031 -0.218926 19.5802 0.658574L27.3496 8.43092L31.6553 4.12357C32.5325 3.24748 33.9523 3.24748 34.8294 4.12357L47.1238 16.4226C47.9996 17.2987 47.9996 18.7204 47.1238 19.5979L34.8294 31.897C33.9523 32.7745 32.5325 32.7745 31.6553 31.897L27.3398 27.5798L19.5788 35.3437C18.7016 36.2198 17.2819 36.2198 16.4047 35.3437L0.657875 19.5881C-0.219292 18.7106 -0.219292 17.2903 0.657875 16.4128ZM26.0802 9.70076L19.3623 16.4212C18.4852 17.2973 18.4852 18.719 19.3623 19.5965L26.0718 26.3086L18.3109 34.0725C18.1351 34.2483 17.8512 34.2483 17.6755 34.0725L1.92724 18.3183C1.75152 18.1425 1.75152 17.8584 1.92724 17.6826L17.6755 1.92842C17.8512 1.75264 18.1351 1.75264 18.3109 1.92842L26.0802 9.70076ZM28.6105 26.3086L32.9247 30.6244C33.1004 30.8001 33.3844 30.8001 33.5601 30.6244L45.8545 18.3253C46.0302 18.1495 46.0302 17.8654 45.8545 17.6897L33.5601 5.39061C33.3844 5.21482 33.1004 5.21482 32.9247 5.39061L28.619 9.69795L35.3285 16.41C36.2056 17.2875 36.2056 18.7078 35.3285 19.5853L28.6105 26.3058V26.3086Z" fill="white"/>
<path d="M56.1401 34.4043V1.4502H68.4331C70.6738 1.4502 72.6489 1.86363 74.3582 2.6891C76.0971 3.48504 77.4536 4.66488 78.4264 6.22723C79.3991 7.76004 79.8855 9.63316 79.8855 11.8452C79.8855 14.0572 79.3837 15.8994 78.3814 17.4632C77.4086 18.996 76.0676 20.1758 74.3582 21.0013C72.6489 21.8268 70.6738 22.2402 68.4331 22.2402H62.1538V34.4043H56.1401ZM62.1538 16.9316H68.5217C69.6125 16.9316 70.5558 16.7249 71.3514 16.3128C72.147 15.8699 72.7669 15.2666 73.2083 14.4988C73.6511 13.7324 73.8718 12.8479 73.8718 11.8452C73.8718 10.8425 73.6511 9.92848 73.2083 9.1916C72.7655 8.42519 72.147 7.83457 71.3514 7.42254C70.5558 6.97957 69.6125 6.75879 68.5217 6.75879H62.1538V16.933V16.9316Z" fill="white"/>
<path d="M91.1353 34.9361C89.2784 34.9361 87.6576 34.5227 86.2716 33.6972C84.915 32.8718 83.8692 31.7214 83.1326 30.2463C82.4255 28.7711 82.0713 27.0471 82.0713 25.0713V10.3408H87.8642V24.5847C87.8642 25.5874 88.0554 26.4719 88.4392 27.2383C88.8525 27.9752 89.4274 28.5658 90.164 29.0074C90.9301 29.4208 91.7848 29.6261 92.728 29.6261C93.6713 29.6261 94.5119 29.4194 95.2485 29.0074C95.9851 28.5644 96.56 27.9611 96.9733 27.1933C97.3866 26.4269 97.5918 25.5129 97.5918 24.4511V10.3408H103.385V34.4046H97.9011V29.6711L98.3874 30.5121C97.828 31.9872 96.8988 33.0925 95.6013 33.8294C94.3334 34.5663 92.8447 34.9347 91.1353 34.9347V34.9361Z" fill="white"/>
<path d="M107 34.4046V0.918945H112.793V34.4046H107Z" fill="white"/>
<path d="M125.525 34.9356C122.961 34.9356 120.72 34.3309 118.804 33.1215C116.918 31.8826 115.62 30.2162 114.913 28.1237L119.247 26.0453C119.865 27.4023 120.72 28.464 121.811 29.2304C122.931 29.9968 124.17 30.3807 125.525 30.3807C126.586 30.3807 127.427 30.1445 128.045 29.6734C128.664 29.2009 128.974 28.5821 128.974 27.8157C128.974 27.3432 128.842 26.9607 128.577 26.6654C128.34 26.3406 128.002 26.0762 127.56 25.8695C127.147 25.6332 126.69 25.442 126.19 25.2943L122.254 24.189C120.22 23.5998 118.672 22.6998 117.611 21.4904C116.579 20.2811 116.063 18.8509 116.063 17.2C116.063 15.7248 116.431 14.4423 117.168 13.3511C117.934 12.2303 118.981 11.3612 120.307 10.7411C121.663 10.1223 123.211 9.81152 124.95 9.81152C127.22 9.81152 129.225 10.3571 130.964 11.4484C132.702 12.5396 133.941 14.0725 134.677 16.0482L130.256 18.1267C129.843 17.0354 129.15 16.1664 128.177 15.5167C127.205 14.8684 126.114 14.5436 124.905 14.5436C123.932 14.5436 123.166 14.7643 122.605 15.2073C122.046 15.6489 121.765 16.224 121.765 16.9328C121.765 17.3757 121.883 17.7582 122.119 18.0831C122.355 18.4079 122.678 18.6723 123.092 18.879C123.534 19.0857 124.035 19.277 124.596 19.4542L128.443 20.6045C130.418 21.1937 131.936 22.0796 132.998 23.2581C134.088 24.4379 134.634 25.8821 134.634 27.5936C134.634 29.0378 134.25 30.3217 133.484 31.4425C132.718 32.5337 131.657 33.3887 130.3 34.0075C128.945 34.6262 127.352 34.937 125.525 34.937V34.9356Z" fill="white"/>
<path d="M148.725 34.936C146.248 34.936 144.082 34.3749 142.225 33.2555C140.368 32.1348 138.923 30.616 137.891 28.6993C136.859 26.7826 136.343 24.6591 136.343 22.329C136.343 19.9988 136.859 17.7727 137.891 15.9151C138.952 14.0279 140.382 12.5387 142.18 11.4474C144.009 10.3562 146.043 9.81055 148.282 9.81055C150.168 9.81055 151.82 10.1199 153.234 10.7401C154.679 11.3588 155.902 12.2152 156.905 13.3051C157.907 14.3963 158.673 15.6493 159.204 17.0654C159.734 18.452 160 19.9552 160 21.5766C160 21.9901 159.971 22.4176 159.911 22.8591C159.882 23.3021 159.809 23.6846 159.691 24.0095H141.118V19.5854H156.418L153.677 21.6638C153.943 20.3068 153.868 19.0988 153.456 18.0371C153.073 16.9754 152.425 16.1345 151.511 15.5157C150.625 14.897 149.55 14.5876 148.282 14.5876C147.014 14.5876 145.998 14.897 145.054 15.5157C144.111 16.1049 143.389 16.9909 142.888 18.1693C142.416 19.3196 142.239 20.7202 142.357 22.3712C142.239 23.8463 142.431 25.1584 142.932 26.3087C143.463 27.4295 144.229 28.2985 145.232 28.9187C146.263 29.5374 147.443 29.8482 148.768 29.8482C150.094 29.8482 151.216 29.5684 152.129 29.0073C153.073 28.4476 153.809 27.6952 154.341 26.7516L159.027 29.0523C158.555 30.2026 157.818 31.2193 156.816 32.1038C155.814 32.9884 154.62 33.6816 153.234 34.1823C151.879 34.6843 150.375 34.9346 148.725 34.9346V34.936Z" fill="white"/>
</g>
</g>
<defs>
<clipPath id="clip0_3501_1163">
<rect width="160" height="36" fill="white"/>
</clipPath>
</defs>
</svg>
