<svg width="160" height="160" viewBox="0 0 160 160" fill="none" xmlns="http://www.w3.org/2000/svg">
<path d="M59.6214 118.612C59.5571 117.964 59.2711 117.449 58.7635 117.066C58.2559 116.684 57.6177 116.492 56.8487 116.492C56.3071 116.492 55.8298 116.585 55.4169 116.771C55.0078 116.956 54.6858 117.214 54.451 117.543C54.2199 117.869 54.1044 118.24 54.1044 118.657C54.1044 118.964 54.1707 119.233 54.3033 119.464C54.4358 119.695 54.6139 119.894 54.8374 120.06C55.0646 120.223 55.3146 120.363 55.5874 120.481C55.8639 120.598 56.1423 120.697 56.4226 120.776L57.6499 121.129C58.0211 121.231 58.3923 121.362 58.7635 121.521C59.1347 121.68 59.4737 121.881 59.7805 122.123C60.0911 122.362 60.3393 122.655 60.5249 123.004C60.7143 123.348 60.8089 123.763 60.8089 124.248C60.8089 124.869 60.648 125.428 60.326 125.924C60.004 126.42 59.5419 126.814 58.9396 127.106C58.3374 127.394 57.6158 127.538 56.7749 127.538C55.9832 127.538 55.2957 127.407 54.7124 127.146C54.129 126.881 53.6707 126.515 53.3374 126.049C53.004 125.583 52.8165 125.043 52.7749 124.43H53.8658C53.9036 124.888 54.0552 125.276 54.3203 125.595C54.5855 125.913 54.9302 126.155 55.3544 126.322C55.7786 126.485 56.2521 126.566 56.7749 126.566C57.3544 126.566 57.8696 126.47 58.3203 126.276C58.7749 126.079 59.1309 125.807 59.3885 125.458C59.6499 125.106 59.7805 124.697 59.7805 124.231C59.7805 123.837 59.6783 123.507 59.4737 123.242C59.2692 122.973 58.9832 122.748 58.6158 122.566C58.2521 122.384 57.8298 122.223 57.3487 122.083L55.9567 121.674C55.0438 121.401 54.3355 121.024 53.8317 120.543C53.3279 120.062 53.076 119.449 53.076 118.703C53.076 118.078 53.2427 117.528 53.576 117.055C53.9131 116.578 54.3677 116.206 54.9396 115.941C55.5154 115.672 56.1612 115.538 56.8771 115.538C57.6006 115.538 58.2408 115.67 58.7976 115.935C59.3544 116.201 59.7957 116.566 60.1214 117.032C60.451 117.494 60.6271 118.021 60.6499 118.612H59.6214ZM64.1669 121.884V127.339H63.1555V115.703H64.1669V119.981H64.2578C64.4624 119.53 64.7786 119.17 65.2067 118.901C65.6385 118.632 66.1839 118.498 66.843 118.498C67.4339 118.498 67.9529 118.619 68.3999 118.862C68.8468 119.104 69.1953 119.462 69.4453 119.935C69.6953 120.409 69.8203 120.992 69.8203 121.685V127.339H68.8033V121.748C68.8033 121.028 68.6025 120.462 68.201 120.049C67.8033 119.632 67.2654 119.424 66.5874 119.424C66.1214 119.424 65.7067 119.523 65.343 119.72C64.9794 119.917 64.6915 120.201 64.4794 120.572C64.2711 120.939 64.1669 121.377 64.1669 121.884ZM75.8757 127.521C75.1219 127.521 74.4553 127.329 73.8757 126.947C73.3 126.564 72.8492 126.036 72.5234 125.362C72.1977 124.684 72.0348 123.901 72.0348 123.015C72.0348 122.121 72.1977 121.335 72.5234 120.657C72.8492 119.975 73.3 119.445 73.8757 119.066C74.4553 118.684 75.1219 118.492 75.8757 118.492C76.6295 118.492 77.2943 118.684 77.87 119.066C78.4458 119.449 78.8965 119.979 79.2223 120.657C79.5518 121.335 79.7166 122.121 79.7166 123.015C79.7166 123.901 79.5537 124.684 79.228 125.362C78.9022 126.036 78.4496 126.564 77.87 126.947C77.2943 127.329 76.6295 127.521 75.8757 127.521ZM75.8757 126.595C76.4818 126.595 76.995 126.432 77.4155 126.106C77.8359 125.78 78.1541 125.346 78.37 124.805C78.5897 124.263 78.6996 123.667 78.6996 123.015C78.6996 122.363 78.5897 121.765 78.37 121.22C78.1541 120.674 77.8359 120.237 77.4155 119.907C76.995 119.578 76.4818 119.413 75.8757 119.413C75.2734 119.413 74.7602 119.578 74.3359 119.907C73.9155 120.237 73.5954 120.674 73.3757 121.22C73.1598 121.765 73.0518 122.363 73.0518 123.015C73.0518 123.667 73.1598 124.263 73.3757 124.805C73.5954 125.346 73.9155 125.78 74.3359 126.106C74.7564 126.432 75.2696 126.595 75.8757 126.595ZM81.9368 130.612V118.612H82.9197V120.276H83.0391C83.1603 120.015 83.3269 119.748 83.5391 119.475C83.7512 119.199 84.0315 118.966 84.38 118.776C84.7322 118.587 85.1754 118.492 85.7095 118.492C86.4292 118.492 87.058 118.682 87.5959 119.06C88.1375 119.435 88.558 119.962 88.8572 120.64C89.1603 121.314 89.3118 122.1 89.3118 122.998C89.3118 123.899 89.1603 124.689 88.8572 125.367C88.558 126.045 88.1375 126.574 87.5959 126.953C87.058 127.331 86.433 127.521 85.7209 127.521C85.1944 127.521 84.7531 127.426 84.397 127.237C84.0447 127.047 83.7588 126.814 83.5391 126.538C83.3232 126.257 83.1565 125.985 83.0391 125.72H82.9482V130.612H81.9368ZM82.9368 122.981C82.9368 123.685 83.041 124.31 83.2493 124.856C83.4614 125.398 83.7644 125.824 84.1584 126.134C84.5561 126.441 85.0372 126.595 85.6016 126.595C86.1811 126.595 86.6697 126.435 87.0675 126.117C87.469 125.795 87.7739 125.362 87.9822 124.816C88.1944 124.271 88.3004 123.659 88.3004 122.981C88.3004 122.31 88.1963 121.706 87.9879 121.168C87.7834 120.631 87.4804 120.204 87.0788 119.89C86.6773 119.572 86.1849 119.413 85.6016 119.413C85.0334 119.413 84.5504 119.566 84.1527 119.873C83.755 120.176 83.4519 120.596 83.2436 121.134C83.0391 121.668 82.9368 122.284 82.9368 122.981ZM91.5419 127.339V118.612H92.5589V127.339H91.5419ZM92.0589 117.112C91.8506 117.112 91.6726 117.042 91.5249 116.901C91.3771 116.757 91.3033 116.585 91.3033 116.384C91.3033 116.184 91.3771 116.013 91.5249 115.873C91.6726 115.729 91.8506 115.657 92.0589 115.657C92.2673 115.657 92.4453 115.729 92.593 115.873C92.7408 116.013 92.8146 116.184 92.8146 116.384C92.8146 116.585 92.7408 116.757 92.593 116.901C92.4453 117.042 92.2673 117.112 92.0589 117.112ZM98.8246 118.612V119.492H94.5348V118.612H98.8246ZM95.8757 127.339V117.333C95.8757 116.863 95.9837 116.468 96.1996 116.146C96.4193 115.824 96.7053 115.579 97.0575 115.413C97.4098 115.246 97.7829 115.163 98.1768 115.163C98.442 115.163 98.6617 115.185 98.8359 115.231C99.014 115.273 99.1541 115.314 99.2564 115.356L98.9609 116.242C98.8852 116.22 98.7924 116.193 98.6825 116.163C98.5727 116.132 98.4344 116.117 98.2678 116.117C97.8284 116.117 97.4893 116.24 97.2507 116.487C97.0121 116.733 96.8928 117.085 96.8928 117.543L96.8871 127.339H95.8757ZM101.548 130.612C101.347 130.612 101.159 130.593 100.985 130.555C100.811 130.517 100.673 130.475 100.57 130.43L100.843 129.538C101.188 129.644 101.495 129.682 101.763 129.651C102.032 129.625 102.271 129.504 102.479 129.288C102.688 129.076 102.873 128.75 103.036 128.31L103.354 127.424L100.144 118.612H101.241L103.832 126.004H103.911L106.502 118.612H107.599L103.906 128.72C103.75 129.14 103.559 129.49 103.332 129.771C103.104 130.055 102.841 130.265 102.542 130.401C102.246 130.542 101.915 130.612 101.548 130.612Z" fill="white"/>
<g clip-path="url(#clip0_36_819)">
<path d="M100.172 42.9393C100.128 42.627 99.8525 42.4537 99.6256 42.4339C99.3988 42.4158 94.9623 42.3472 94.9623 42.3472C94.9623 42.3472 91.2516 38.7622 90.8851 38.3975C90.5185 38.0329 89.8018 38.143 89.5242 38.2242C89.5206 38.2242 88.8274 38.4391 87.6607 38.7983C87.4665 38.1683 87.178 37.3939 86.7679 36.6176C85.447 34.1103 83.5127 32.7835 81.1756 32.7799H81.1683C81.0068 32.7799 80.8453 32.7943 80.6838 32.8088C80.6149 32.7257 80.5459 32.6445 80.4734 32.5669C79.4554 31.4856 78.1471 30.9567 76.583 31.0036C73.5636 31.0903 70.557 33.2582 68.1201 37.1105C66.4035 39.8218 65.1007 43.2281 64.7287 45.8637C61.263 46.9323 58.837 47.6797 58.7844 47.6959C57.0352 48.2429 56.9789 48.297 56.7503 49.9361C56.5761 51.1781 51.998 86.3985 51.998 86.3985L90.3679 93L106.998 88.8878C106.998 88.8878 100.214 43.2516 100.17 42.9393H100.172ZM80.7546 40.9266C78.7441 41.5457 76.5504 42.2227 74.3493 42.8996C74.9699 40.5403 76.1421 38.1936 77.5846 36.6538C78.1217 36.0815 78.8711 35.4425 79.7602 35.0778C80.5967 36.8108 80.7764 39.2658 80.7564 40.9248L80.7546 40.9266ZM76.6411 33.0019C77.3506 32.9875 77.9475 33.1427 78.4574 33.4767C77.6427 33.8973 76.8534 34.5038 76.1131 35.2927C74.1951 37.3397 72.7253 40.5168 72.1411 43.582C70.312 44.1452 68.5247 44.6957 66.8789 45.203C67.9169 40.376 71.9814 33.1355 76.6411 33.0037V33.0019ZM70.7657 60.4873C70.9689 63.7023 79.4717 64.4045 79.949 71.9338C80.3246 77.8583 76.7899 81.9109 71.6983 82.2304C65.587 82.6149 62.2211 79.0263 62.2211 79.0263L63.5166 73.5458C63.5166 73.5458 66.9025 76.0875 69.6134 75.9178C71.3844 75.8059 72.0177 74.3744 71.9524 73.3599C71.6856 69.1665 64.7632 69.4138 64.3259 62.5235C63.9576 56.7235 67.7862 50.8495 76.2328 50.3188C79.4881 50.1148 81.1538 50.9416 81.1538 50.9416L79.2213 58.1297C79.2213 58.1297 77.0675 57.1531 74.5126 57.3138C70.7675 57.5485 70.7276 59.8988 70.7657 60.4891V60.4873ZM82.7615 40.3092C82.7397 38.7874 82.5564 36.6718 81.8451 34.8432C84.1369 35.2746 85.2637 37.8542 85.7409 39.3922C84.8572 39.6648 83.852 39.9734 82.7633 40.3092H82.7615Z" fill="white"/>
<path d="M99.626 42.4338C99.3992 42.4158 94.9627 42.3472 94.9627 42.3472C94.9627 42.3472 91.252 38.7621 90.8854 38.3975C90.7494 38.2621 90.5643 38.1917 90.3701 38.161V92.9981L106.998 88.886C106.998 88.886 100.214 43.2498 100.17 42.9375C100.127 42.6252 99.851 42.4519 99.6242 42.432L99.626 42.4338Z" fill="white"/>
</g>
<defs>
<clipPath id="clip0_36_819">
<rect width="55" height="62" fill="white" transform="translate(52 31)"/>
</clipPath>
</defs>
</svg>
