<svg width="226" height="50" viewBox="0 0 226 50" fill="none" xmlns="http://www.w3.org/2000/svg">
<g opacity="0.6">
<path d="M45.7799 28.3157C45.7057 28.3334 45.6283 28.3334 45.5541 28.3157L33.8914 23.4533C33.794 23.4144 33.7092 23.3495 33.6462 23.2656C33.5833 23.1817 33.5447 23.0821 33.5347 22.9777C33.523 22.8708 33.54 22.7628 33.5839 22.6646C33.6277 22.5664 33.6969 22.4816 33.7844 22.419L49.3822 11.6123C49.4814 11.5437 49.599 11.507 49.7196 11.5068C49.8401 11.5067 49.9579 11.5433 50.0572 11.6116C50.1565 11.68 50.2327 11.7769 50.2756 11.8896C50.3186 12.0022 50.3262 12.1252 50.2976 12.2424L46.3506 27.9115C46.3299 27.9951 46.2916 28.0733 46.2383 28.141C46.185 28.2086 46.1179 28.2641 46.0415 28.3038C45.9558 28.3242 45.8671 28.3282 45.7799 28.3157ZM35.3537 22.7281L45.3638 26.901L48.7521 13.4431L35.3537 22.7281Z" fill="white"/>
<path d="M49.3345 50H28.7078L6.88036 45.3872L5.0733 45.0544C4.90782 45.02 4.76258 44.9217 4.66909 44.7809L1.18574 39.1101C1.11431 39.0009 1.08244 38.8706 1.09542 38.7408C1.1084 38.611 1.16545 38.4896 1.25707 38.3967L3.63479 35.8169L0.0682137 29.2544C0.00403583 29.1308 -0.0156346 28.9889 0.012511 28.8525C0.0406565 28.7161 0.114901 28.5935 0.222764 28.5054L15.6779 16.3078L21.8243 0.377112C21.8528 0.302996 21.896 0.235321 21.9511 0.178147C22.0062 0.120973 22.0723 0.0754242 22.1453 0.0441976C22.2942 -0.0147325 22.46 -0.0147325 22.6089 0.0441976L49.8813 11.5048C50.039 11.5284 50.1808 11.6138 50.2755 11.742C50.3703 11.8702 50.4102 12.0308 50.3866 12.1884C50.3629 12.3461 50.2776 12.4878 50.1494 12.5826C50.0212 12.6774 49.8607 12.7173 49.703 12.6937L30.6813 14.6196L14.5842 26.4368L33.9744 22.2758C34.0918 22.2537 34.213 22.2667 34.323 22.3132C34.433 22.3598 34.5268 22.4378 34.5926 22.5374C34.6591 22.6357 34.6946 22.7516 34.6946 22.8703C34.6946 22.9889 34.6591 23.1048 34.5926 23.2031L29.3735 30.6454L43.2832 36.875L46.2553 34.6756L45.1735 27.8159C45.1534 27.6799 45.1801 27.5412 45.2492 27.4224C45.3183 27.3036 45.4258 27.2118 45.5539 27.1621C45.6831 27.1121 45.8258 27.1097 45.9565 27.1555C46.0872 27.2012 46.1974 27.2921 46.2672 27.4117L52.1283 36.9226C52.2055 37.0466 52.2312 37.196 52.1996 37.3387L49.9051 49.5363C49.8778 49.6674 49.8061 49.7851 49.7022 49.8696C49.5982 49.954 49.4684 50.0001 49.3345 50ZM28.8861 48.8111H48.8351L51.0107 37.3268L46.826 30.5384L47.4917 34.854C47.5095 34.9606 47.4979 35.0701 47.4581 35.1707C47.4183 35.2712 47.3518 35.359 47.2658 35.4246L43.6993 38.0401C43.6154 38.104 43.5154 38.1433 43.4105 38.1538C43.3055 38.1643 43.1997 38.1455 43.1048 38.0995L28.2204 31.4301C28.1403 31.395 28.069 31.3427 28.0115 31.277C27.9539 31.2112 27.9116 31.1336 27.8875 31.0496C27.8645 30.9653 27.8601 30.877 27.8745 30.7909C27.8888 30.7047 27.9217 30.6226 27.9707 30.5503L32.7261 23.7619L12.2064 28.1845C12.0726 28.2146 11.9325 28.1965 11.8107 28.1334C11.6889 28.0703 11.5933 27.9663 11.5407 27.8397C11.5082 27.7667 11.4915 27.6878 11.4915 27.6079C11.4915 27.528 11.5082 27.449 11.5407 27.376L14.9765 18.4834L1.4354 29.1831L4.91875 35.6742C4.97619 35.7821 4.99902 35.905 4.98413 36.0262C4.96924 36.1475 4.91735 36.2612 4.83553 36.3519L2.45781 38.9198L5.56073 43.9725L7.1538 44.234L28.8861 48.8111ZM16.7479 17.033L13.324 25.9137L30.1225 13.514C30.212 13.4558 30.3137 13.4192 30.4197 13.407L47.3372 11.695L22.7873 1.39951L16.843 16.8547V16.926L16.7479 17.033Z" fill="white"/>
<path d="M22.8002 0.474275L21.7885 1.09863L29.9551 14.3318L30.9668 13.7075L22.8002 0.474275Z" fill="white"/>
<path d="M11.7037 26.9888L1.31836 38.4346L2.1988 39.2334L12.5842 27.7877L11.7037 26.9888Z" fill="white"/>
<path d="M12.4861 27.0264L12.259 28.1934L28.3633 31.3266L28.5903 30.1596L12.4861 27.0264Z" fill="white"/>
<path d="M43.9103 37.1516L42.8447 37.6787L48.7748 49.6668L49.8404 49.1397L43.9103 37.1516Z" fill="white"/>
<path d="M42.9697 37.1143L28.4355 48.9385L29.1858 49.8607L43.7199 38.0365L42.9697 37.1143Z" fill="white"/>
<path d="M43.239 36.987L6.87769 44.1934L7.10881 45.3595L43.4702 38.1532L43.239 36.987Z" fill="white"/>
<path d="M82.1892 28.7434C81.0703 28.2366 79.8503 27.9926 78.6226 28.03H74.8777C74.4801 28.0658 74.0793 28.0188 73.7008 27.892C73.3222 27.7651 72.9741 27.5611 72.6783 27.293C72.4537 27.0727 72.2749 26.8101 72.1525 26.5204C72.03 26.2306 71.9663 25.9194 71.965 25.6048C71.9615 25.2813 72.024 24.9606 72.1487 24.6621C72.2734 24.3637 72.4576 24.0938 72.6902 23.869C72.949 23.6062 73.2613 23.4022 73.6059 23.2709C73.9506 23.1397 74.3195 23.0842 74.6875 23.1082H81.9395C82.1515 23.1269 82.365 23.1013 82.5665 23.033C82.768 22.9647 82.9531 22.8553 83.1101 22.7116C83.267 22.568 83.3923 22.3932 83.478 22.1984C83.5638 22.0037 83.608 21.7933 83.608 21.5805C83.608 21.3677 83.5638 21.1573 83.478 20.9626C83.3923 20.7678 83.267 20.5931 83.1101 20.4494C82.9531 20.3057 82.768 20.1962 82.5665 20.128C82.365 20.0597 82.1515 20.0341 81.9395 20.0528H74.426C73.3474 20.0301 72.283 20.3014 71.3468 20.8375C70.4888 21.3309 69.7786 22.0452 69.2901 22.9061C68.807 23.773 68.5535 24.749 68.5535 25.7415C68.5535 26.734 68.807 27.7099 69.2901 28.5769C69.807 29.4332 70.5749 30.1098 71.4895 30.5147C72.5388 30.9706 73.6745 31.1937 74.8183 31.1686H78.8247C79.3805 31.1475 79.9315 31.279 80.4178 31.549C80.8153 31.7948 81.1428 32.1387 81.3689 32.5477C81.5889 32.9612 81.7032 33.4227 81.7018 33.8911C81.695 34.3908 81.5642 34.881 81.3213 35.3177C81.0605 35.7786 80.6886 36.1668 80.2395 36.4472C79.7075 36.7481 79.1027 36.8962 78.4918 36.8751H70.6573C70.2754 36.9089 69.9199 37.0844 69.661 37.3672C69.4021 37.65 69.2585 38.0194 69.2585 38.4028C69.2585 38.7862 69.4021 39.1557 69.661 39.4385C69.9199 39.7212 70.2754 39.8968 70.6573 39.9305H78.9793C80.1192 39.9535 81.2418 39.6481 82.213 39.0508C83.1128 38.4766 83.8562 37.6882 84.3767 36.7562C84.8783 35.8459 85.1414 34.8235 85.1414 33.7841C85.1414 32.7447 84.8783 31.7223 84.3767 30.812C83.8682 29.9212 83.107 29.2013 82.1892 28.7434Z" fill="white"/>
<path d="M144.058 28.7439C142.94 28.2363 141.719 27.9922 140.492 28.0305H136.735C136.338 28.0645 135.939 28.0155 135.562 27.8865C135.186 27.7576 134.84 27.5515 134.547 27.2816C134.321 27.0652 134.141 26.805 134.018 26.5168C133.896 26.2286 133.833 25.9185 133.834 25.6053C133.829 25.2827 133.89 24.9625 134.012 24.6641C134.135 24.3657 134.317 24.0953 134.547 23.8695C134.808 23.6058 135.122 23.4013 135.469 23.27C135.816 23.1387 136.187 23.0837 136.557 23.1087H143.809C144.19 23.075 144.546 22.8994 144.805 22.6167C145.064 22.3339 145.207 21.9644 145.207 21.581C145.207 21.1976 145.064 20.8281 144.805 20.5454C144.546 20.2626 144.19 20.0871 143.809 20.0533H136.295C135.212 20.0284 134.144 20.2998 133.204 20.838C132.347 21.3284 131.64 22.0436 131.159 22.9066C130.676 23.7735 130.422 24.7496 130.422 25.742C130.422 26.7345 130.676 27.7104 131.159 28.5774C131.675 29.427 132.438 30.0989 133.347 30.5034C134.394 30.9667 135.53 31.194 136.675 31.1691H140.694C141.249 31.1492 141.8 31.2807 142.287 31.5496C142.679 31.8022 143.005 32.1446 143.238 32.5482C143.454 32.9628 143.564 33.4242 143.559 33.8916C143.55 34.4063 143.412 34.9106 143.156 35.3574C142.9 35.8043 142.536 36.1793 142.097 36.4477C141.565 36.7504 140.96 36.8986 140.349 36.8756H132.598C132.386 36.8569 132.172 36.8825 131.971 36.9508C131.769 37.0191 131.584 37.1285 131.427 37.2722C131.27 37.4159 131.145 37.5907 131.059 37.7854C130.973 37.9801 130.929 38.1906 130.929 38.4033C130.929 38.6161 130.973 38.8265 131.059 39.0213C131.145 39.216 131.27 39.3908 131.427 39.5345C131.584 39.6781 131.769 39.7876 131.971 39.8559C132.172 39.9242 132.386 39.9497 132.598 39.931H140.92C142.056 39.9517 143.174 39.6464 144.141 39.0513C145.045 38.4775 145.792 37.6892 146.317 36.7568C146.834 35.8469 147.108 34.8193 147.114 33.7727C147.139 32.7248 146.88 31.6894 146.365 30.7768C145.821 29.8795 145.017 29.1701 144.058 28.7439Z" fill="white"/>
<path d="M160.154 23.1193C160.491 23.0294 160.788 22.831 161 22.5547C161.213 22.2785 161.328 21.9399 161.328 21.5916C161.328 21.2433 161.213 20.9047 161 20.6285C160.788 20.3522 160.491 20.1538 160.154 20.0639H153.996V16.854C153.99 16.443 153.821 16.0512 153.527 15.7639C153.233 15.4766 152.838 15.3172 152.427 15.3204H152.07C151.659 15.3172 151.263 15.4766 150.969 15.7639C150.675 16.0512 150.507 16.443 150.501 16.854V34.1757C150.463 34.9581 150.587 35.74 150.865 36.4723C151.143 37.2046 151.57 37.8717 152.117 38.4317C152.711 38.9743 153.407 39.3926 154.164 39.6621C154.922 39.9316 155.725 40.0469 156.528 40.001H159.69C159.902 40.0198 160.116 39.9942 160.317 39.9259C160.519 39.8576 160.704 39.7482 160.861 39.6045C161.018 39.4608 161.143 39.286 161.229 39.0913C161.315 38.8966 161.359 38.6861 161.359 38.4734C161.359 38.2606 161.315 38.0502 161.229 37.8554C161.143 37.6607 161.018 37.4859 160.861 37.3422C160.704 37.1985 160.519 37.0891 160.317 37.0208C160.116 36.9525 159.902 36.927 159.69 36.9457H157.063C156.646 36.9779 156.226 36.9251 155.829 36.7902C155.433 36.6553 155.068 36.4412 154.757 36.161C154.215 35.5288 153.941 34.7095 153.996 33.8784V23.1787L160.154 23.1193Z" fill="white"/>
<path d="M203.823 28.612C203.879 26.9769 203.467 25.3598 202.634 23.9516C201.835 22.6653 200.701 21.6213 199.353 20.9319C197.937 20.2372 196.382 19.876 194.805 19.876C193.229 19.876 191.673 20.2372 190.258 20.9319C188.904 21.6217 187.762 22.6652 186.953 23.9516C186.125 25.3618 185.713 26.9775 185.764 28.612V38.4319C185.764 38.8387 185.925 39.2287 186.213 39.5164C186.501 39.804 186.891 39.9656 187.298 39.9656H187.642C188.049 39.9656 188.439 39.804 188.727 39.5164C189.014 39.2287 189.176 38.8387 189.176 38.4319V28.7427C189.141 27.635 189.417 26.5396 189.972 25.5804C190.473 24.7551 191.188 24.0812 192.041 23.6307C192.895 23.1933 193.84 22.9651 194.799 22.9649C195.773 22.9625 196.732 23.1992 197.593 23.6544C198.459 24.1064 199.184 24.7895 199.685 25.6279C200.2 26.5817 200.435 27.6614 200.363 28.7427V38.4557C200.366 38.8635 200.53 39.2536 200.82 39.5409C201.109 39.8282 201.501 39.9893 201.909 39.9893H202.241C202.649 39.9893 203.041 39.8282 203.33 39.5409C203.62 39.2536 203.784 38.8635 203.787 38.4557L203.823 28.612Z" fill="white"/>
<path d="M172.648 20.2305C170.697 20.2305 168.789 20.8092 167.166 21.8934C165.543 22.9777 164.279 24.5188 163.532 26.3218C162.785 28.1249 162.59 30.1089 162.97 32.023C163.351 33.9372 164.291 35.6954 165.671 37.0754C167.051 38.4554 168.809 39.3952 170.723 39.7759C172.637 40.1566 174.621 39.9612 176.424 39.2144C178.227 38.4675 179.768 37.2028 180.853 35.5801C181.937 33.9574 182.516 32.0496 182.516 30.098C182.513 27.4819 181.472 24.9739 179.622 23.1241C177.772 21.2742 175.264 20.2336 172.648 20.2305ZM172.648 36.8745C171.308 36.8745 169.998 36.477 168.883 35.7324C167.769 34.9878 166.9 33.9295 166.388 32.6912C165.875 31.453 165.74 30.0905 166.002 28.776C166.263 27.4615 166.909 26.254 167.856 25.3063C168.804 24.3586 170.012 23.7132 171.326 23.4517C172.641 23.1902 174.003 23.3245 175.241 23.8373C176.48 24.3502 177.538 25.2188 178.283 26.3332C179.027 27.4475 179.425 28.7577 179.425 30.098C179.421 31.8943 178.707 33.6161 177.436 34.8862C176.166 36.1564 174.444 36.8713 172.648 36.8745Z" fill="white"/>
<path d="M118.9 20.2305C116.948 20.2305 115.041 20.8092 113.418 21.8934C111.795 22.9777 110.53 24.5188 109.784 26.3218C109.037 28.1249 108.841 30.1089 109.222 32.023C109.603 33.9372 110.543 35.6954 111.923 37.0754C113.303 38.4554 115.061 39.3952 116.975 39.7759C118.889 40.1566 120.873 39.9612 122.676 39.2144C124.479 38.4675 126.02 37.2028 127.105 35.5801C128.189 33.9574 128.767 32.0496 128.767 30.098C128.764 27.4819 127.724 24.9739 125.874 23.1241C124.024 21.2742 121.516 20.2336 118.9 20.2305ZM118.9 36.8745C117.56 36.8745 116.25 36.477 115.135 35.7324C114.021 34.9878 113.152 33.9295 112.639 32.6912C112.126 31.453 111.992 30.0905 112.254 28.776C112.515 27.4615 113.161 26.254 114.108 25.3063C115.056 24.3586 116.263 23.7132 117.578 23.4517C118.892 23.1902 120.255 23.3245 121.493 23.8373C122.731 24.3502 123.79 25.2188 124.534 26.3332C125.279 27.4475 125.676 28.7577 125.676 30.098C125.676 31.8952 124.963 33.6188 123.692 34.8897C122.421 36.1605 120.697 36.8745 118.9 36.8745Z" fill="white"/>
<path d="M97.0363 20.2305C95.0847 20.2305 93.1769 20.8092 91.5542 21.8934C89.9315 22.9777 88.6668 24.5188 87.9199 26.3218C87.1731 28.1249 86.9777 30.1089 87.3584 32.023C87.7392 33.9372 88.679 35.6954 90.059 37.0754C91.439 38.4554 93.1972 39.3952 95.1113 39.7759C97.0254 40.1566 99.0094 39.9612 100.812 39.2144C102.616 38.4675 104.157 37.2028 105.241 35.5801C106.325 33.9574 106.904 32.0496 106.904 30.098C106.901 27.4819 105.86 24.9739 104.01 23.1241C102.16 21.2742 99.6524 20.2336 97.0363 20.2305ZM97.0363 36.8745C95.6961 36.8745 94.3859 36.477 93.2715 35.7324C92.1571 34.9878 91.2886 33.9295 90.7757 32.6912C90.2628 31.453 90.1286 30.0905 90.3901 28.776C90.6515 27.4615 91.2969 26.254 92.2446 25.3063C93.1924 24.3586 94.3998 23.7132 95.7143 23.4517C97.0288 23.1902 98.3913 23.3245 99.6296 23.8373C100.868 24.3502 101.926 25.2188 102.671 26.3332C103.415 27.4475 103.813 28.7577 103.813 30.098C103.81 31.8943 103.095 33.6161 101.825 34.8862C100.554 36.1564 98.8326 36.8713 97.0363 36.8745Z" fill="white"/>
<path d="M216.85 20.0998C211.477 20.0998 207.434 24.4035 207.434 30.0981C207.386 31.401 207.603 32.7001 208.071 33.917C208.539 35.1338 209.249 36.243 210.158 37.1776C211.067 38.1122 212.156 38.8528 213.36 39.3544C214.563 39.8561 215.856 40.1085 217.159 40.0963C218.482 40.1241 219.797 39.8823 221.023 39.3856C222.249 38.8889 223.362 38.1478 224.292 37.2074C224.499 37.0275 224.647 36.7889 224.715 36.5234C224.784 36.2578 224.77 35.9778 224.676 35.7202C224.582 35.4625 224.412 35.2395 224.189 35.0805C223.965 34.9215 223.699 34.8341 223.425 34.8297C223.217 34.8311 223.013 34.88 222.827 34.9728C222.642 35.0655 222.48 35.1996 222.355 35.3647C221.022 36.4782 219.336 37.0809 217.599 37.0648C216.041 37.1443 214.51 36.6421 213.301 35.6557C212.093 34.6693 211.294 33.269 211.06 31.7268V31.5485H224.661C225.695 31.5485 225.85 30.847 225.85 29.4799C225.908 28.2647 225.718 27.0505 225.291 25.9113C224.864 24.7721 224.21 23.7318 223.368 22.854C222.526 21.9761 221.513 21.2792 220.393 20.8056C219.272 20.3321 218.067 20.0919 216.85 20.0998ZM210.906 28.8735V28.7071C211.027 27.2308 211.696 25.853 212.78 24.8436C213.864 23.8342 215.286 23.266 216.767 23.2503C218.245 23.2424 219.668 23.8058 220.74 24.8226C221.813 25.8394 222.451 27.2311 222.521 28.7071V28.8735H210.906Z" fill="white"/>
</g>
</svg>
