<svg width="192" height="42" viewBox="0 0 192 42" fill="none" xmlns="http://www.w3.org/2000/svg">
<g opacity="0.6" clip-path="url(#clip0_3501_1172)">
<path d="M0 31.1973C0 27.6039 1.54375 27.0852 5.09286 26.4162L34.8781 20.9961C32.0025 23.0559 30.7539 24.2436 30.7539 28.6714C26.4556 29.0247 24.3065 29.1976 20.0082 29.551C20.0082 34.3245 20.0082 36.7076 20.0082 41.4736C16.3002 41.4887 14.4462 41.4962 10.7381 41.5037C10.7381 37.0233 10.7381 34.7831 10.7381 30.3102C6.43986 30.6635 4.29071 30.8364 0 31.1898L0 31.1973Z" fill="white"/>
<path d="M36.1041 41.4281C36.1041 35.2263 33.8112 24.3861 40.0543 20.056C43.6488 19.402 45.4422 19.0788 49.0292 18.4247C46.9482 20.6499 45.3741 21.319 45.3741 25.2581C50.9437 24.7319 53.7361 24.4688 59.3057 23.9426C59.3057 19.6952 60.6905 18.7104 62.5219 15.9741C66.1164 15.32 67.9098 14.9968 71.4968 14.3428C65.9423 20.9506 68.5682 33.3544 68.5682 41.3229C64.8602 41.3379 63.0062 41.3455 59.2981 41.353C59.2981 37.0229 59.2981 34.8579 59.2981 30.5278C53.7285 30.8661 50.9362 31.0315 45.3666 31.3623C45.3666 35.3766 45.3666 37.3838 45.3666 41.3981C41.6585 41.4131 39.8045 41.4206 36.0965 41.4281H36.1041Z" fill="white"/>
<path d="M74.0167 41.3001C74.0167 32.9332 71.4891 20.5745 76.7712 13.3803C80.3657 12.7263 82.1592 12.403 85.7461 11.749C80.956 19.928 83.2867 32.219 83.2867 41.2776C79.5787 41.2926 77.7247 41.3001 74.0167 41.3076V41.3001Z" fill="white"/>
<path d="M122.698 5.02148C120.185 16.6059 121.449 29.3931 121.449 41.1428C117.075 41.1579 114.888 41.1654 110.514 41.1804C106.367 33.8058 102.137 26.5289 97.7632 19.2896C97.7632 26.6041 97.7632 33.911 97.7632 41.2255C94.1536 41.2406 92.345 41.2406 88.7353 41.2556C88.7353 31.7836 86.5332 19.5226 91.0207 10.7874C95.2206 10.0206 97.3168 9.64472 101.517 8.87794C104.43 15.7865 108.698 22.3116 112.421 28.7841C112.262 21.6802 111.937 13.5312 113.957 6.61518C117.454 5.9762 119.202 5.66047 122.698 5.02148Z" fill="white"/>
<path d="M144.938 26.2582V16.3126C151.371 15.7187 154.594 15.418 161.027 14.8166V41.9997C161.027 41.9997 146.686 41.7592 142.048 41.7667C137.371 41.7667 133.519 39.8798 130.5 36.2865C127.473 32.6931 125.959 28.0699 125.959 22.2213C125.959 16.2675 127.791 11.5616 131.279 7.76524C134.768 3.96893 139.164 1.39044 144.628 0.368069C149.055 -0.45885 152.695 0.0974412 155.654 2.25495C158.62 4.41246 160.406 7.95318 160.928 12.7268C156.986 13.1177 155.011 13.3206 151.068 13.7115C150.674 11.96 149.865 10.6895 148.677 9.95282C147.489 9.21611 146.051 8.96803 144.363 9.17852C141.73 9.50929 139.52 10.7346 137.999 13.0275C136.478 15.3203 135.721 18.1168 135.721 21.4696C135.721 25.0554 136.508 27.8293 138.075 29.844C139.641 31.8587 141.737 32.8585 144.356 32.7683C146.384 32.7006 148.139 32.0692 149.63 30.8363C151.121 29.611 152.074 27.9346 152.498 25.8222C149.479 25.9951 147.965 26.0778 144.946 26.2507L144.938 26.2582Z" fill="white"/>
<path d="M168.443 0.774414L171.424 9.9457L174.406 0.774414H178.031L173.664 13.5315H169.04L164.712 0.774414H168.45H168.443Z" fill="white"/>
<path d="M183.32 4.4951C182.768 5.18671 182.488 6.07377 182.488 7.14876C182.488 8.22376 182.768 9.11082 183.32 9.80242C183.873 10.494 184.614 10.8398 185.538 10.8398C186.317 10.8398 186.945 10.6444 187.422 10.261C187.899 9.8776 188.201 9.38896 188.307 8.8026H191.993C191.841 10.3963 191.168 11.6216 189.957 12.4711C188.746 13.3206 187.271 13.7491 185.538 13.7491C183.426 13.7491 181.777 13.1552 180.589 11.9599C179.4 10.7647 178.803 9.16344 178.803 7.15628C178.803 5.14912 179.4 3.5479 180.589 2.35263C181.777 1.15736 183.426 0.563477 185.538 0.563477C186.658 0.563477 187.679 0.736378 188.587 1.0897C189.495 1.44302 190.267 1.99179 190.888 2.75106C191.508 3.51032 191.872 4.42745 191.97 5.50996H188.307C188.194 4.9236 187.899 4.43496 187.422 4.05157C186.945 3.66818 186.309 3.47273 185.538 3.47273C184.614 3.47273 183.873 3.81853 183.32 4.51014V4.4951Z" fill="white"/>
</g>
<defs>
<clipPath id="clip0_3501_1172">
<rect width="192" height="42" fill="white"/>
</clipPath>
</defs>
</svg>
