<svg width="149" height="39" viewBox="0 0 149 39" fill="none" xmlns="http://www.w3.org/2000/svg">
<g opacity="0.6" clip-path="url(#clip0_3501_753)">
<path d="M52.7632 36.4027C48.5879 36.4027 46.3345 34.1992 46.3345 30.0755V17.9967H44.8795C43.4726 17.9967 42.3008 16.7996 42.3008 15.264C42.3008 13.873 43.4726 12.6759 44.8795 12.6759H46.3345V9.08144C46.3345 7.40425 47.648 6.0625 49.3832 6.0625C51.025 6.0625 52.3384 7.40425 52.3384 9.08144V12.6759H54.6852C56.0468 12.6759 57.2187 13.873 57.2187 15.3594C57.2187 16.8457 56.0468 17.9936 54.6852 17.9936H52.3384V28.4414C52.3384 30.2632 53.4651 30.9803 54.402 30.9803H54.9171C56.6072 30.9803 57.544 32.1312 57.544 33.6145C57.544 35.0979 56.6523 36.3934 52.7572 36.3934L52.7632 36.4027Z" fill="white"/>
<path d="M71.531 36.4027C64.0721 36.4027 59.5684 30.8419 59.5684 24.2285C59.5684 17.6152 64.0721 12.1035 71.531 12.1035C78.99 12.1035 83.5418 17.6644 83.5418 24.2285C83.5418 30.7926 79.0382 36.4027 71.531 36.4027ZM71.531 17.5198C67.8256 17.5198 65.7621 20.6341 65.7621 24.2285C65.7621 27.8229 67.8256 30.9865 71.531 30.9865C75.2364 30.9865 77.3481 27.8722 77.3481 24.2285C77.3481 20.5849 75.2364 17.5198 71.531 17.5198Z" fill="white"/>
<path d="M104.608 36.1164H104.138C103.668 36.1164 101.56 35.7317 101.56 33.4329C100.011 35.3009 97.336 36.4057 94.3807 36.4057C90.7687 36.4057 86.5 33.913 86.5 28.7368C86.5 23.5606 90.7687 21.2587 94.3807 21.2587C97.3842 21.2587 100.059 22.265 101.56 24.0868V20.9725C101.56 18.6244 99.5893 17.0888 96.5859 17.0888C94.8025 17.0888 93.0673 17.5196 91.5188 18.5752C91.1905 18.766 90.8139 18.9106 90.4404 18.9106C89.3619 18.9106 88.187 17.9997 88.187 16.5625C88.187 16.1317 88.3286 15.7009 88.5154 15.3654C89.9222 13.0635 94.9892 12.1064 97.6161 12.1064C102.777 12.1064 107.515 14.2145 107.515 20.8771V33.0975C107.515 34.7746 106.202 36.1164 104.605 36.1164H104.608ZM101.556 27.3919C100.571 26.0502 98.6946 25.3793 96.7696 25.3793C94.4229 25.3793 92.5009 26.6257 92.5009 28.8783C92.5009 31.131 94.4259 32.2819 96.7696 32.2819C98.6946 32.2819 100.571 31.6111 101.556 30.2693V27.395V27.3919Z" fill="white"/>
<path d="M121.593 36.4029C118.638 36.4029 113.899 35.3966 112.492 33.3347C112.212 32.95 112.07 32.5192 112.07 32.0391C112.07 30.602 113.29 29.5003 114.556 29.5003C114.977 29.5003 115.399 29.5957 115.776 29.8357C117.559 30.8912 119.906 31.7037 121.876 31.7037C124.458 31.7037 125.678 30.6481 125.678 29.211C125.678 25.3765 112.212 28.4909 112.212 19.3848C112.212 15.5011 115.544 12.1006 121.502 12.1006C124.458 12.1006 128.494 13.0577 129.76 14.9287C129.995 15.2642 130.136 15.695 130.136 16.1258C130.136 17.4214 129.01 18.4277 127.79 18.4277C127.413 18.4277 126.991 18.3323 126.663 18.1415C125.208 17.2799 123.379 16.7506 121.551 16.7506C119.394 16.7506 117.984 17.7569 117.984 19.0525C117.984 22.5022 131.402 19.6279 131.402 28.974C131.402 33.1931 127.883 36.4029 121.596 36.4029H121.593Z" fill="white"/>
<path d="M143.408 36.4027C139.232 36.4027 136.979 34.1992 136.979 30.0755V17.9967H135.524C134.117 17.9967 132.945 16.7996 132.945 15.264C132.945 13.873 134.117 12.6759 135.524 12.6759H136.979V9.08144C136.979 7.40425 138.293 6.0625 140.028 6.0625C141.67 6.0625 142.983 7.40425 142.983 9.08144V12.6759H145.33C146.691 12.6759 147.863 13.873 147.863 15.3594C147.863 16.8457 146.691 17.9936 145.33 17.9936H142.983V28.4414C142.983 30.2632 144.11 30.9803 145.047 30.9803H145.562C147.252 30.9803 148.189 32.1312 148.189 33.6145C148.189 35.0979 147.297 36.3934 143.402 36.3934L143.408 36.4027Z" fill="white"/>
<path d="M38.4724 26.8752C38.4815 24.3179 38.4122 21.736 38.1471 19.2002C37.9663 17.4768 37.403 15.2734 35.6076 14.8241C35.8124 14.8764 36.1588 14.8826 36.3095 14.7995C38.3941 13.667 38.2314 10.8789 37.4934 8.86315C36.5264 6.21966 34.2248 4.34859 31.9444 3.10532C23.7654 -1.36308 12.812 -0.987635 4.87703 4.1024C2.81347 5.42568 0.433592 8.01379 1.47893 10.8789C1.74403 11.602 2.20796 12.2298 2.71707 12.7868C2.94903 13.0423 3.50333 13.6362 3.50333 13.6362C2.43389 15.138 1.65968 16.4828 1.15659 18.3046C-0.346646 23.7794 -0.0966083 27.2968 0.316104 31.6914C0.572167 34.4087 1.43977 38.4678 4.45829 38.911H4.47336C6.93457 39.2679 9.60666 38.4247 12.0588 38.1262C14.7731 37.7939 17.5054 37.2769 20.2378 37.3507C24.1028 37.4523 27.9347 38.4094 31.7998 38.4463C33.8422 38.4647 37.2403 38.6679 37.8458 35.8736C38.4242 33.2208 38.4393 30.4512 38.4634 27.7369C38.4634 27.4507 38.4694 27.1614 38.4694 26.8752H38.4724ZM34.0561 31.4698C33.0951 33.7163 30.3748 33.467 28.48 33.3009C25.6422 33.0516 22.8496 32.3407 19.9968 32.2515C17.4723 32.1745 14.9749 32.67 12.5137 33.2301C10.6731 33.6486 8.10643 34.7472 6.44052 33.2793C4.59687 31.6514 4.26851 28.8786 4.24441 26.5459C4.22332 24.5241 4.52457 22.2499 4.83184 20.2557C5.03067 18.9663 5.45242 17.7322 5.91333 16.5197C6.57608 14.7749 7.54912 13.7316 7.60033 13.7839C7.10628 13.2515 6.51282 12.9684 6.17542 12.2391C4.91619 9.50017 8.06426 7.18596 9.78138 6.38891C15.8034 3.59155 24.2324 3.86852 29.932 7.45985C31.7064 8.57695 35.1527 12.4299 31.9323 14.3502C33.9206 15.3226 34.4236 18.2585 34.6405 20.348C34.99 23.6901 34.8966 27.0906 34.3513 30.3989C34.2851 30.8082 34.1826 31.1621 34.0501 31.4698H34.0561Z" fill="white"/>
</g>
<defs>
<clipPath id="clip0_3501_753">
<rect width="148.2" height="39" fill="white"/>
</clipPath>
</defs>
</svg>
