<svg width="160" height="160" viewBox="0 0 160 160" fill="none" xmlns="http://www.w3.org/2000/svg">
<path d="M58.4062 115.364L62.0426 125.619H62.1449L65.7812 115.364H66.8949L62.6619 127H61.5256L57.2926 115.364H58.4062ZM71.3949 127.182C70.5805 127.182 69.8759 126.992 69.2812 126.614C68.6866 126.231 68.2263 125.703 67.9006 125.028C67.5786 124.35 67.4176 123.57 67.4176 122.688C67.4176 121.809 67.5786 121.028 67.9006 120.347C68.2263 119.661 68.6752 119.125 69.2472 118.739C69.8229 118.348 70.4877 118.153 71.2415 118.153C71.715 118.153 72.1714 118.241 72.6108 118.415C73.0502 118.585 73.4441 118.848 73.7926 119.205C74.1449 119.557 74.4233 120.002 74.6278 120.54C74.8324 121.074 74.9347 121.706 74.9347 122.438V122.938H68.1165V122.045H73.9006C73.9006 121.485 73.7869 120.981 73.5597 120.534C73.3362 120.083 73.0237 119.727 72.6222 119.466C72.2244 119.205 71.7642 119.074 71.2415 119.074C70.6884 119.074 70.2017 119.222 69.7812 119.517C69.3608 119.812 69.0313 120.203 68.7926 120.688C68.5578 121.172 68.4384 121.703 68.4347 122.278V122.812C68.4347 123.506 68.554 124.112 68.7926 124.631C69.035 125.146 69.3778 125.545 69.821 125.83C70.2642 126.114 70.7888 126.256 71.3949 126.256C71.8078 126.256 72.1695 126.191 72.4801 126.062C72.7945 125.934 73.0578 125.761 73.2699 125.545C73.4858 125.326 73.6487 125.085 73.7585 124.824L74.7188 125.136C74.5862 125.504 74.3684 125.843 74.0653 126.153C73.7661 126.464 73.3911 126.714 72.9403 126.903C72.4934 127.089 71.9782 127.182 71.3949 127.182ZM77.1634 127V118.273H78.1463V119.614H78.2202C78.3944 119.174 78.6974 118.82 79.1293 118.551C79.5649 118.278 80.0573 118.142 80.6065 118.142C80.6899 118.142 80.7827 118.144 80.8849 118.148C80.9872 118.152 81.0724 118.155 81.1406 118.159V119.188C81.0952 119.18 81.0156 119.169 80.902 119.153C80.7884 119.138 80.6652 119.131 80.5327 119.131C80.0781 119.131 79.6728 119.227 79.3168 119.42C78.9645 119.61 78.6861 119.873 78.4815 120.21C78.277 120.547 78.1747 120.932 78.1747 121.364V127H77.1634ZM86.0099 127.182C85.2296 127.182 84.5497 126.987 83.9702 126.597C83.3944 126.206 82.9474 125.672 82.6293 124.994C82.3111 124.316 82.152 123.544 82.152 122.676C82.152 121.801 82.313 121.023 82.6349 120.341C82.9607 119.659 83.4115 119.125 83.9872 118.739C84.563 118.348 85.2315 118.153 85.9929 118.153C86.5762 118.153 87.1046 118.267 87.5781 118.494C88.0516 118.718 88.4418 119.034 88.7486 119.443C89.0592 119.848 89.2543 120.322 89.3338 120.864H88.3111C88.205 120.371 87.9493 119.951 87.544 119.602C87.1425 119.25 86.6312 119.074 86.0099 119.074C85.4531 119.074 84.9607 119.225 84.5327 119.528C84.1046 119.828 83.7694 120.246 83.527 120.784C83.2884 121.318 83.169 121.937 83.169 122.642C83.169 123.35 83.2865 123.977 83.5213 124.523C83.7562 125.064 84.0857 125.489 84.5099 125.795C84.938 126.102 85.438 126.256 86.0099 126.256C86.3963 126.256 86.7486 126.184 87.0668 126.04C87.3887 125.892 87.6577 125.684 87.8736 125.415C88.0933 125.146 88.241 124.826 88.3168 124.455H89.3395C89.2637 124.981 89.0762 125.451 88.777 125.864C88.4815 126.273 88.0971 126.595 87.6236 126.83C87.1539 127.064 86.616 127.182 86.0099 127.182ZM95.0355 127.182C94.2211 127.182 93.5166 126.992 92.9219 126.614C92.3272 126.231 91.867 125.703 91.5412 125.028C91.2192 124.35 91.0582 123.57 91.0582 122.688C91.0582 121.809 91.2192 121.028 91.5412 120.347C91.867 119.661 92.3158 119.125 92.8878 118.739C93.4635 118.348 94.1283 118.153 94.8821 118.153C95.3556 118.153 95.812 118.241 96.2514 118.415C96.6908 118.585 97.0848 118.848 97.4332 119.205C97.7855 119.557 98.0639 120.002 98.2685 120.54C98.473 121.074 98.5753 121.706 98.5753 122.438V122.938H91.7571V122.045H97.5412C97.5412 121.485 97.4276 120.981 97.2003 120.534C96.9768 120.083 96.6643 119.727 96.2628 119.466C95.8651 119.205 95.4048 119.074 94.8821 119.074C94.3291 119.074 93.8423 119.222 93.4219 119.517C93.0014 119.812 92.6719 120.203 92.4332 120.688C92.1984 121.172 92.0791 121.703 92.0753 122.278V122.812C92.0753 123.506 92.1946 124.112 92.4332 124.631C92.6757 125.146 93.0185 125.545 93.4616 125.83C93.9048 126.114 94.4295 126.256 95.0355 126.256C95.4484 126.256 95.8101 126.191 96.1207 126.062C96.4351 125.934 96.6984 125.761 96.9105 125.545C97.1264 125.326 97.2893 125.085 97.3991 124.824L98.3594 125.136C98.2268 125.504 98.009 125.843 97.706 126.153C97.4067 126.464 97.0317 126.714 96.581 126.903C96.134 127.089 95.6188 127.182 95.0355 127.182ZM101.815 115.364V127H100.804V115.364H101.815Z" fill="white"/>
<g clip-path="url(#clip0_36_773)">
<path d="M80 37L111 91H49L80 37Z" fill="white"/>
</g>
<defs>
<clipPath id="clip0_36_773">
<rect width="62" height="54" fill="white" transform="translate(49 37)"/>
</clipPath>
</defs>
</svg>
