<svg width="160" height="160" viewBox="0 0 160 160" fill="none" xmlns="http://www.w3.org/2000/svg">
<path d="M51.3182 127.339L48.1307 115.703H49.2102L51.8466 125.708H51.9375L54.5739 115.703H55.8011L58.4375 125.708H58.5284L61.1648 115.703H62.25L59.0625 127.339H57.9261L55.2273 117.47H55.1534L52.4545 127.339H51.3182ZM66.6761 127.521C65.8617 127.521 65.1572 127.331 64.5625 126.953C63.9678 126.57 63.5076 126.042 63.1818 125.367C62.8598 124.689 62.6989 123.909 62.6989 123.026C62.6989 122.148 62.8598 121.367 63.1818 120.685C63.5076 120 63.9564 119.464 64.5284 119.078C65.1042 118.687 65.7689 118.492 66.5227 118.492C66.9962 118.492 67.4527 118.579 67.892 118.754C68.3314 118.924 68.7254 119.187 69.0739 119.543C69.4261 119.896 69.7045 120.341 69.9091 120.879C70.1136 121.413 70.2159 122.045 70.2159 122.776V123.276H63.3977V122.384H69.1818C69.1818 121.824 69.0682 121.32 68.8409 120.873C68.6174 120.422 68.3049 120.066 67.9034 119.805C67.5057 119.543 67.0455 119.413 66.5227 119.413C65.9697 119.413 65.483 119.56 65.0625 119.856C64.642 120.151 64.3125 120.542 64.0739 121.026C63.839 121.511 63.7197 122.042 63.7159 122.617V123.151C63.7159 123.845 63.8352 124.451 64.0739 124.97C64.3163 125.485 64.6591 125.884 65.1023 126.168C65.5455 126.453 66.0701 126.595 66.6761 126.595C67.089 126.595 67.4508 126.53 67.7614 126.401C68.0758 126.273 68.339 126.1 68.5511 125.884C68.767 125.665 68.9299 125.424 69.0398 125.163L70 125.475C69.8674 125.843 69.6496 126.182 69.3466 126.492C69.0473 126.803 68.6723 127.053 68.2216 127.242C67.7746 127.428 67.2595 127.521 66.6761 127.521ZM72.6548 127.339V115.703H73.6719V120.276H73.7628C73.8764 120.015 74.0393 119.746 74.2514 119.47C74.4673 119.193 74.7495 118.962 75.098 118.776C75.4503 118.587 75.8935 118.492 76.4276 118.492C77.1435 118.492 77.7723 118.682 78.3139 119.06C78.8556 119.435 79.2779 119.962 79.581 120.64C79.884 121.314 80.0355 122.1 80.0355 122.998C80.0355 123.899 79.884 124.689 79.581 125.367C79.2817 126.045 78.8613 126.574 78.3196 126.953C77.7817 127.331 77.1567 127.521 76.4446 127.521C75.9143 127.521 75.4711 127.426 75.1151 127.237C74.7628 127.047 74.4787 126.814 74.2628 126.538C74.0469 126.257 73.8802 125.985 73.7628 125.72H73.6378V127.339H72.6548ZM73.6548 122.981C73.6548 123.685 73.759 124.31 73.9673 124.856C74.1795 125.398 74.4825 125.824 74.8764 126.134C75.2741 126.441 75.7552 126.595 76.3196 126.595C76.8991 126.595 77.3897 126.435 77.7912 126.117C78.1927 125.795 78.4976 125.362 78.706 124.816C78.9143 124.271 79.0185 123.659 79.0185 122.981C79.0185 122.31 78.9143 121.706 78.706 121.168C78.5014 120.631 78.1984 120.204 77.7969 119.89C77.3954 119.572 76.9029 119.413 76.3196 119.413C75.7514 119.413 75.2685 119.566 74.8707 119.873C74.4768 120.176 74.1757 120.596 73.9673 121.134C73.759 121.668 73.6548 122.284 73.6548 122.981ZM85.848 118.612V119.492H81.5582V118.612H85.848ZM82.8991 127.339V117.333C82.8991 116.863 83.0071 116.468 83.223 116.146C83.4427 115.824 83.7287 115.579 84.081 115.413C84.4332 115.246 84.8063 115.163 85.2003 115.163C85.4654 115.163 85.6851 115.185 85.8594 115.231C86.0374 115.273 86.1776 115.314 86.2798 115.356L85.9844 116.242C85.9086 116.22 85.8158 116.193 85.706 116.163C85.5961 116.132 85.4579 116.117 85.2912 116.117C84.8518 116.117 84.5128 116.24 84.2741 116.487C84.0355 116.733 83.9162 117.085 83.9162 117.543L83.9105 127.339H82.8991ZM88.8778 115.703V127.339H87.8665V115.703H88.8778ZM94.946 127.521C94.1922 127.521 93.5256 127.329 92.946 126.947C92.3703 126.564 91.9195 126.036 91.5938 125.362C91.268 124.684 91.1051 123.901 91.1051 123.015C91.1051 122.121 91.268 121.335 91.5938 120.657C91.9195 119.975 92.3703 119.445 92.946 119.066C93.5256 118.684 94.1922 118.492 94.946 118.492C95.6998 118.492 96.3646 118.684 96.9403 119.066C97.5161 119.449 97.9669 119.979 98.2926 120.657C98.6222 121.335 98.7869 122.121 98.7869 123.015C98.7869 123.901 98.6241 124.684 98.2983 125.362C97.9725 126.036 97.5199 126.564 96.9403 126.947C96.3646 127.329 95.6998 127.521 94.946 127.521ZM94.946 126.595C95.5521 126.595 96.0653 126.432 96.4858 126.106C96.9063 125.78 97.2244 125.346 97.4403 124.805C97.66 124.263 97.7699 123.667 97.7699 123.015C97.7699 122.363 97.66 121.765 97.4403 121.22C97.2244 120.674 96.9063 120.237 96.4858 119.907C96.0653 119.578 95.5521 119.413 94.946 119.413C94.3438 119.413 93.8305 119.578 93.4062 119.907C92.9858 120.237 92.6657 120.674 92.446 121.22C92.2301 121.765 92.1222 122.363 92.1222 123.015C92.1222 123.667 92.2301 124.263 92.446 124.805C92.6657 125.346 92.9858 125.78 93.4062 126.106C93.8267 126.432 94.34 126.595 94.946 126.595ZM102.648 127.339L100.011 118.612H101.08L103.148 125.81H103.222L105.284 118.612H106.358L108.403 125.793H108.483L110.551 118.612H111.619L108.983 127.339H107.938L105.869 120.185H105.761L103.693 127.339H102.648Z" fill="white"/>
<g clip-path="url(#clip0_36_768)">
<path fill-rule="evenodd" clip-rule="evenodd" d="M120 46L99.5779 86H80.3953L88.9412 69.4227H88.5586C81.5072 78.5934 70.9871 84.6304 55.9971 86V69.6533C55.9971 69.6533 65.5856 69.0865 71.2228 63.1468H55.9998V46H73.1138V60.102H73.4993L80.4896 46H93.4305V60.0131H93.8131L101.07 46H120Z" fill="white"/>
</g>
<defs>
<clipPath id="clip0_36_768">
<rect width="64" height="40" fill="white" transform="translate(56 46)"/>
</clipPath>
</defs>
</svg>
