<svg width="70" height="50" viewBox="0 0 70 50" fill="none" xmlns="http://www.w3.org/2000/svg">
<g opacity="0.6" clip-path="url(#clip0_3501_771)">
<path d="M34.4779 21.2292L27.5955 39.4861C27.4767 39.8029 27.1945 39.9589 26.8726 39.9589H22.8917C22.5699 39.9589 22.2877 39.7981 22.1689 39.4861L17.4601 27.3652L12.7514 39.4861C12.6326 39.8029 12.3504 39.9589 12.0285 39.9589H8.00308C7.68124 39.9589 7.39902 39.7981 7.28018 39.4861L0.397825 21.2292C0.239382 20.7955 0.437436 20.5566 0.883056 20.5566H4.90849C5.23033 20.5566 5.51256 20.7175 5.63139 21.0294L10.1767 33.9009L14.8458 21.0294C14.925 20.8296 15.0488 20.6736 15.2469 20.6346C15.3261 20.5956 15.4499 20.5566 15.5687 20.5566H19.3515C19.4704 20.5566 19.5942 20.5956 19.6734 20.6346C19.8764 20.6736 19.9952 20.8344 20.0744 21.0294L24.7832 33.9009L29.2493 21.0294C29.3681 20.7126 29.6503 20.5566 29.9722 20.5566H33.9976C34.4383 20.5566 34.6363 20.7955 34.4779 21.2292Z" fill="white"/>
<path d="M52.3346 32.1982H39.6988C40.2237 34.7715 42.2339 36.2385 45.3334 36.2385C46.903 36.2385 48.1508 35.8437 49.5173 34.8933C49.8788 34.6545 50.1214 34.6545 50.4036 34.9323L52.1762 36.6332C52.4584 36.911 52.4584 37.1888 52.1366 37.5056C50.2452 39.3674 47.6705 40.4737 44.8135 40.4737C38.659 40.4737 34.4355 35.9996 34.4355 30.2974C34.4355 24.5952 38.659 20.1211 44.3729 20.1211C50.0867 20.1211 53.7458 24.5952 53.7458 29.8636C53.7408 31.4037 53.5428 32.1982 52.3346 32.1982ZM39.6196 28.7914H49.0321C48.6706 26.0573 46.7792 24.5562 44.4075 24.5562C41.9962 24.5513 40.0652 26.0573 39.6196 28.7914Z" fill="white"/>
<path d="M56.7935 11.0527H57.3728C59.6554 11.0527 61.9974 12.8706 61.9974 15.1174V39.369C61.9974 39.6955 61.725 39.9636 61.3933 39.9636H56.7935C56.4618 39.9636 56.1895 39.6955 56.1895 39.369V11.6473C56.1895 11.3159 56.4618 11.0527 56.7935 11.0527Z" fill="white"/>
<path d="M70.386 11.6463V39.368C70.386 39.6946 70.1137 39.9626 69.782 39.9626H65.1822C64.8504 39.9626 64.5781 39.6946 64.5781 39.368V15.1116C64.5781 12.8648 66.9201 11.0469 69.2027 11.0469H69.782C70.1187 11.0517 70.386 11.3149 70.386 11.6463Z" fill="white"/>
<path d="M63.1462 10.3791C66.0585 10.3791 68.4194 8.05519 68.4194 5.18855C68.4194 2.32192 66.0585 -0.00195312 63.1462 -0.00195312C60.2339 -0.00195312 57.873 2.32192 57.873 5.18855C57.873 8.05519 60.2339 10.3791 63.1462 10.3791Z" fill="white"/>
</g>
<defs>
<clipPath id="clip0_3501_771">
<rect width="70" height="50" fill="white"/>
</clipPath>
</defs>
</svg>
