<svg width="160" height="160" viewBox="0 0 160 160" fill="none" xmlns="http://www.w3.org/2000/svg">
<path d="M43.8182 127.339L40.6307 115.703H41.7102L44.3466 125.708H44.4375L47.0739 115.703H48.3011L50.9375 125.708H51.0284L53.6648 115.703H54.75L51.5625 127.339H50.4261L47.7273 117.47H47.6534L44.9545 127.339H43.8182ZM59.0398 127.521C58.286 127.521 57.6193 127.329 57.0398 126.947C56.464 126.564 56.0133 126.036 55.6875 125.362C55.3617 124.684 55.1989 123.901 55.1989 123.015C55.1989 122.121 55.3617 121.335 55.6875 120.657C56.0133 119.975 56.464 119.445 57.0398 119.066C57.6193 118.684 58.286 118.492 59.0398 118.492C59.7936 118.492 60.4583 118.684 61.0341 119.066C61.6098 119.449 62.0606 119.979 62.3864 120.657C62.7159 121.335 62.8807 122.121 62.8807 123.015C62.8807 123.901 62.7178 124.684 62.392 125.362C62.0663 126.036 61.6136 126.564 61.0341 126.947C60.4583 127.329 59.7936 127.521 59.0398 127.521ZM59.0398 126.595C59.6458 126.595 60.1591 126.432 60.5795 126.106C61 125.78 61.3182 125.346 61.5341 124.805C61.7538 124.263 61.8636 123.667 61.8636 123.015C61.8636 122.363 61.7538 121.765 61.5341 121.22C61.3182 120.674 61 120.237 60.5795 119.907C60.1591 119.578 59.6458 119.413 59.0398 119.413C58.4375 119.413 57.9242 119.578 57.5 119.907C57.0795 120.237 56.7595 120.674 56.5398 121.22C56.3239 121.765 56.2159 122.363 56.2159 123.015C56.2159 123.667 56.3239 124.263 56.5398 124.805C56.7595 125.346 57.0795 125.78 57.5 126.106C57.9205 126.432 58.4337 126.595 59.0398 126.595ZM65.1009 127.339V118.612H66.0838V119.953H66.1577C66.3319 119.513 66.6349 119.159 67.0668 118.89C67.5024 118.617 67.9948 118.481 68.544 118.481C68.6274 118.481 68.7202 118.483 68.8224 118.487C68.9247 118.49 69.0099 118.494 69.0781 118.498V119.526C69.0327 119.519 68.9531 119.507 68.8395 119.492C68.7259 119.477 68.6027 119.47 68.4702 119.47C68.0156 119.47 67.6103 119.566 67.2543 119.759C66.902 119.949 66.6236 120.212 66.419 120.549C66.2145 120.886 66.1122 121.271 66.1122 121.703V127.339H65.1009ZM73.6804 127.521C72.9645 127.521 72.3376 127.331 71.7997 126.953C71.2618 126.574 70.8414 126.045 70.5384 125.367C70.2391 124.689 70.0895 123.899 70.0895 122.998C70.0895 122.1 70.2391 121.314 70.5384 120.64C70.8414 119.962 71.2637 119.435 71.8054 119.06C72.3471 118.682 72.9777 118.492 73.6974 118.492C74.2277 118.492 74.669 118.587 75.0213 118.776C75.3736 118.962 75.6558 119.193 75.8679 119.47C76.08 119.746 76.2448 120.015 76.3622 120.276H76.4531V115.703H77.4702V127.339H76.4815V125.72H76.3622C76.2448 125.985 76.0781 126.257 75.8622 126.538C75.6463 126.814 75.3603 127.047 75.0043 127.237C74.652 127.426 74.2107 127.521 73.6804 127.521ZM73.7997 126.595C74.3641 126.595 74.8452 126.441 75.2429 126.134C75.6406 125.824 75.9437 125.398 76.152 124.856C76.3641 124.31 76.4702 123.685 76.4702 122.981C76.4702 122.284 76.366 121.668 76.1577 121.134C75.9493 120.596 75.6463 120.176 75.2486 119.873C74.8509 119.566 74.3679 119.413 73.7997 119.413C73.2164 119.413 72.724 119.572 72.3224 119.89C71.9247 120.204 71.6217 120.631 71.4134 121.168C71.2088 121.706 71.1065 122.31 71.1065 122.981C71.1065 123.659 71.2107 124.271 71.419 124.816C71.6274 125.362 71.9304 125.795 72.3281 126.117C72.7296 126.435 73.2202 126.595 73.7997 126.595ZM80.3509 130.612V118.612H81.3338V120.276H81.4531C81.5743 120.015 81.741 119.748 81.9531 119.475C82.1652 119.199 82.4455 118.966 82.794 118.776C83.1463 118.587 83.5895 118.492 84.1236 118.492C84.8433 118.492 85.4721 118.682 86.0099 119.06C86.5516 119.435 86.9721 119.962 87.2713 120.64C87.5743 121.314 87.7259 122.1 87.7259 122.998C87.7259 123.899 87.5743 124.689 87.2713 125.367C86.9721 126.045 86.5516 126.574 86.0099 126.953C85.4721 127.331 84.8471 127.521 84.1349 127.521C83.6084 127.521 83.1671 127.426 82.8111 127.237C82.4588 127.047 82.1728 126.814 81.9531 126.538C81.7372 126.257 81.5705 125.985 81.4531 125.72H81.3622V130.612H80.3509ZM81.3509 122.981C81.3509 123.685 81.455 124.31 81.6634 124.856C81.8755 125.398 82.1785 125.824 82.5724 126.134C82.9702 126.441 83.4512 126.595 84.0156 126.595C84.5952 126.595 85.0838 126.435 85.4815 126.117C85.883 125.795 86.188 125.362 86.3963 124.816C86.6084 124.271 86.7145 123.659 86.7145 122.981C86.7145 122.31 86.6103 121.706 86.402 121.168C86.1974 120.631 85.8944 120.204 85.4929 119.89C85.0914 119.572 84.599 119.413 84.0156 119.413C83.4474 119.413 82.9645 119.566 82.5668 119.873C82.169 120.176 81.866 120.596 81.6577 121.134C81.4531 121.668 81.3509 122.284 81.3509 122.981ZM89.9446 127.339V118.612H90.9276V119.953H91.0014C91.1757 119.513 91.4787 119.159 91.9105 118.89C92.3461 118.617 92.8385 118.481 93.3878 118.481C93.4711 118.481 93.5639 118.483 93.6662 118.487C93.7685 118.49 93.8537 118.494 93.9219 118.498V119.526C93.8764 119.519 93.7969 119.507 93.6832 119.492C93.5696 119.477 93.4465 119.47 93.3139 119.47C92.8594 119.47 92.4541 119.566 92.098 119.759C91.7457 119.949 91.4673 120.212 91.2628 120.549C91.0582 120.886 90.956 121.271 90.956 121.703V127.339H89.9446ZM98.9105 127.521C98.0961 127.521 97.3916 127.331 96.7969 126.953C96.2022 126.57 95.742 126.042 95.4162 125.367C95.0942 124.689 94.9332 123.909 94.9332 123.026C94.9332 122.148 95.0942 121.367 95.4162 120.685C95.742 120 96.1908 119.464 96.7628 119.078C97.3385 118.687 98.0033 118.492 98.7571 118.492C99.2306 118.492 99.687 118.579 100.126 118.754C100.566 118.924 100.96 119.187 101.308 119.543C101.661 119.896 101.939 120.341 102.143 120.879C102.348 121.413 102.45 122.045 102.45 122.776V123.276H95.6321V122.384H101.416C101.416 121.824 101.303 121.32 101.075 120.873C100.852 120.422 100.539 120.066 100.138 119.805C99.7401 119.543 99.2798 119.413 98.7571 119.413C98.2041 119.413 97.7173 119.56 97.2969 119.856C96.8764 120.151 96.5469 120.542 96.3082 121.026C96.0734 121.511 95.9541 122.042 95.9503 122.617V123.151C95.9503 123.845 96.0696 124.451 96.3082 124.97C96.5507 125.485 96.8935 125.884 97.3366 126.168C97.7798 126.453 98.3045 126.595 98.9105 126.595C99.3234 126.595 99.6851 126.53 99.9957 126.401C100.31 126.273 100.573 126.1 100.786 125.884C101.001 125.665 101.164 125.424 101.274 125.163L102.234 125.475C102.102 125.843 101.884 126.182 101.581 126.492C101.282 126.803 100.907 127.053 100.456 127.242C100.009 127.428 99.4938 127.521 98.9105 127.521ZM110.543 120.526L109.616 120.788C109.526 120.526 109.397 120.29 109.23 120.078C109.063 119.865 108.846 119.697 108.577 119.572C108.312 119.447 107.982 119.384 107.588 119.384C106.997 119.384 106.512 119.524 106.134 119.805C105.755 120.085 105.565 120.447 105.565 120.89C105.565 121.265 105.694 121.57 105.952 121.805C106.213 122.036 106.615 122.22 107.156 122.356L108.474 122.68C109.205 122.858 109.753 123.14 110.116 123.526C110.484 123.913 110.668 124.398 110.668 124.981C110.668 125.473 110.531 125.911 110.259 126.293C109.986 126.676 109.605 126.977 109.116 127.197C108.632 127.413 108.069 127.521 107.429 127.521C106.577 127.521 105.874 127.329 105.321 126.947C104.768 126.56 104.414 126.004 104.259 125.276L105.23 125.038C105.355 125.557 105.599 125.949 105.963 126.214C106.33 126.479 106.813 126.612 107.412 126.612C108.082 126.612 108.618 126.462 109.02 126.163C109.421 125.86 109.622 125.481 109.622 125.026C109.622 124.674 109.505 124.379 109.27 124.14C109.035 123.898 108.679 123.72 108.202 123.606L106.776 123.265C106.018 123.083 105.457 122.795 105.094 122.401C104.73 122.007 104.548 121.519 104.548 120.935C104.548 120.454 104.679 120.032 104.94 119.668C105.202 119.301 105.562 119.013 106.02 118.805C106.478 118.596 107.001 118.492 107.588 118.492C108.387 118.492 109.026 118.674 109.503 119.038C109.984 119.398 110.33 119.894 110.543 120.526ZM118.746 120.526L117.82 120.788C117.729 120.526 117.6 120.29 117.433 120.078C117.267 119.865 117.049 119.697 116.78 119.572C116.515 119.447 116.185 119.384 115.791 119.384C115.2 119.384 114.715 119.524 114.337 119.805C113.958 120.085 113.768 120.447 113.768 120.89C113.768 121.265 113.897 121.57 114.155 121.805C114.416 122.036 114.818 122.22 115.359 122.356L116.678 122.68C117.409 122.858 117.956 123.14 118.32 123.526C118.687 123.913 118.871 124.398 118.871 124.981C118.871 125.473 118.734 125.911 118.462 126.293C118.189 126.676 117.808 126.977 117.32 127.197C116.835 127.413 116.272 127.521 115.632 127.521C114.78 127.521 114.077 127.329 113.524 126.947C112.971 126.56 112.617 126.004 112.462 125.276L113.433 125.038C113.558 125.557 113.803 125.949 114.166 126.214C114.534 126.479 115.017 126.612 115.615 126.612C116.286 126.612 116.821 126.462 117.223 126.163C117.625 125.86 117.825 125.481 117.825 125.026C117.825 124.674 117.708 124.379 117.473 124.14C117.238 123.898 116.882 123.72 116.405 123.606L114.979 123.265C114.221 123.083 113.661 122.795 113.297 122.401C112.933 122.007 112.751 121.519 112.751 120.935C112.751 120.454 112.882 120.032 113.143 119.668C113.405 119.301 113.765 119.013 114.223 118.805C114.681 118.596 115.204 118.492 115.791 118.492C116.59 118.492 117.229 118.674 117.706 119.038C118.187 119.398 118.534 119.894 118.746 120.526Z" fill="white"/>
<g clip-path="url(#clip0_36_793)">
<path d="M53.4059 66.9985C53.4059 77.5259 59.5239 86.6225 68.3926 90.9328L55.7076 56.1778C54.232 59.4853 53.4059 63.1461 53.4059 67.0015V66.9985ZM97.9499 65.6575C97.9499 62.3709 96.7706 60.096 95.7559 58.324C94.409 56.1329 93.1459 54.277 93.1459 52.0889C93.1459 49.6434 94.9986 47.3685 97.6117 47.3685C97.7284 47.3685 97.8421 47.3835 97.9559 47.3895C93.2237 43.0552 86.9201 40.4091 79.997 40.4091C70.7063 40.4091 62.532 45.1744 57.7789 52.3972C58.4015 52.4152 58.9911 52.4302 59.491 52.4302C62.2716 52.4302 66.5787 52.0919 66.5787 52.0919C68.0125 52.0081 68.1801 54.1124 66.7493 54.283C66.7493 54.283 65.3096 54.4536 63.7053 54.5374L73.3881 83.3419L79.2068 65.888L75.0643 54.5344C73.6336 54.4506 72.2747 54.28 72.2747 54.28C70.841 54.1962 71.0086 52.0051 72.4423 52.0889C72.4423 52.0889 76.8333 52.4272 79.4463 52.4272C82.2269 52.4272 86.534 52.0889 86.534 52.0889C87.9678 52.0051 88.1384 54.1094 86.7046 54.28C86.7046 54.28 85.2619 54.4506 83.6606 54.5344L93.2716 83.1234L95.9235 74.2602C97.0729 70.5815 97.9469 67.9414 97.9469 65.6635L97.9499 65.6575ZM80.4639 69.3243L72.4842 92.5103C74.8668 93.2107 77.387 93.5939 79.997 93.5939C83.0949 93.5939 86.0641 93.0581 88.8268 92.0853C88.7549 91.9715 88.6921 91.8518 88.6382 91.7201L80.4639 69.3243ZM103.332 54.2411C103.445 55.0882 103.511 55.9982 103.511 56.977C103.511 59.6769 103.008 62.7091 101.488 66.5016L93.3644 89.987C101.269 85.3773 106.588 76.8105 106.588 67.0015C106.588 62.3769 105.409 58.0306 103.332 54.2411ZM80 36C62.9061 36 49 49.9068 49 66.9985C49 84.0902 62.9061 98 80 98C97.0938 98 111 84.0932 111 66.9985C111 49.9068 97.0909 36 80 36ZM80 96.5782C63.6904 96.5782 50.4217 83.3089 50.4217 66.9985C50.4217 50.6881 63.6904 37.4218 80 37.4218C96.3096 37.4218 109.575 50.6911 109.575 66.9985C109.575 83.3059 96.3067 96.5782 80 96.5782Z" fill="white"/>
</g>
<defs>
<clipPath id="clip0_36_793">
<rect width="62" height="62" fill="white" transform="translate(49 36)"/>
</clipPath>
</defs>
</svg>
