<svg width="191" height="55" viewBox="0 0 191 55" fill="none" xmlns="http://www.w3.org/2000/svg">
<g opacity="0.6" clip-path="url(#clip0_3501_1187)">
<path d="M52.8521 38.461H55.6637C57.3224 38.461 58.3731 39.4275 58.3731 40.8896V40.9094C58.3731 42.54 57.0889 43.3876 55.5226 43.3876H54.1071V45.722H52.8521V38.4561V38.461ZM55.5615 42.2377C56.5101 42.2377 57.0987 41.6975 57.0987 40.9392V40.9193C57.0987 40.0669 56.4955 39.6208 55.5615 39.6208H54.1071V42.2377H55.5615Z" fill="white"/>
<path d="M69.6202 38.4062H70.7828L73.9203 45.7217H72.5972L71.8724 43.9672H68.5014L67.7669 45.7217H66.4827L69.6202 38.4062ZM71.4152 42.8372L70.1845 39.9328L68.9635 42.8372H71.42H71.4152Z" fill="white"/>
<path d="M83.2881 38.46H86.4645C87.3596 38.46 88.0649 38.7276 88.5221 39.1885C88.8967 39.585 89.1107 40.1203 89.1107 40.7547V40.7745C89.1107 41.969 88.4103 42.6827 87.4082 42.9751L89.3345 45.7259H87.8557L86.1045 43.1932H86.0851H84.5382V45.7259H83.2832V38.46H83.2881ZM86.3721 42.0632C87.2671 42.0632 87.8411 41.5874 87.8411 40.8489V40.8291C87.8411 40.0509 87.2914 39.6247 86.3624 39.6247H84.5382V42.0632H86.3721Z" fill="white"/>
<path d="M100.523 39.6406H98.261V38.4561H104.045V39.6406H101.783V45.722H100.518V39.6406H100.523Z" fill="white"/>
<path d="M113.525 38.46H114.687L118.506 43.4856V38.46H119.736V45.7259H118.686L114.755 40.5565V45.7259H113.525V38.46Z" fill="white"/>
<path d="M129.718 38.461H135.005V39.601H130.973V41.4893H134.548V42.6293H130.973V44.582H135.059V45.722H129.722V38.4561L129.718 38.461Z" fill="white"/>
<path d="M144.696 38.46H147.872C148.767 38.46 149.473 38.7276 149.93 39.1885C150.304 39.585 150.518 40.1203 150.518 40.7547V40.7745C150.518 41.969 149.818 42.6827 148.816 42.9751L150.742 45.7259H149.263L147.512 43.1932H147.493H145.946V45.7259H144.691V38.46H144.696ZM147.78 42.0632C148.675 42.0632 149.249 41.5874 149.249 40.8489V40.8291C149.249 40.0509 148.699 39.6247 147.77 39.6247H145.946V42.0632H147.78Z" fill="white"/>
<path d="M159.731 44.6667L160.485 43.7548C161.166 44.3545 161.852 44.7014 162.737 44.7014C163.511 44.7014 164.002 44.3396 164.002 43.7894V43.7696C164.002 43.2492 163.715 42.9717 162.392 42.6594C160.874 42.2877 160.018 41.8317 160.018 40.4886V40.4687C160.018 39.2247 161.035 38.3623 162.45 38.3623C163.491 38.3623 164.313 38.6845 165.038 39.2743L164.367 40.2407C163.725 39.755 163.083 39.4923 162.431 39.4923C161.696 39.4923 161.268 39.8789 161.268 40.3547V40.3746C161.268 40.9346 161.594 41.1824 162.961 41.5145C164.469 41.8862 165.252 42.4364 165.252 43.6408V43.6606C165.252 45.0186 164.201 45.8314 162.708 45.8314C161.618 45.8314 160.587 45.4449 159.736 44.6667H159.731Z" fill="white"/>
<path d="M55.0071 30.4072H52.9106L50.4395 11.7021H52.9349L54.0099 21.4264L54.0586 22.036H54.258L54.331 21.4264L55.479 11.7021H57.4247L58.5727 21.4264L58.6457 22.036H58.8451L58.8937 21.4264L59.9688 11.7021H62.4691L59.998 30.4072H57.9014L56.6513 21.5503L56.5005 20.455H56.3983L56.2475 21.5503L54.9974 30.4072H55.0071Z" fill="white"/>
<path d="M78.2784 26.5662C78.2541 27.3295 78.1033 28.0184 77.8309 28.6033C77.6071 29.1138 77.2569 29.5945 76.7559 29.9762C76.2548 30.3826 75.5836 30.6155 74.6836 30.6155C73.7837 30.6155 73.0833 30.3875 72.5871 29.9762C72.0861 29.5945 71.765 29.1138 71.5364 28.6033C71.264 28.0184 71.1132 27.3345 71.0889 26.5662V15.5434C71.1132 14.8049 71.264 14.121 71.5364 13.5312C71.7602 13.0207 72.0861 12.5151 72.5871 12.1335C73.0881 11.7519 73.7886 11.4941 74.6836 11.4941C75.5787 11.4941 76.2548 11.7519 76.7559 12.1335C77.2569 12.5151 77.6023 13.0256 77.8309 13.5312C78.1082 14.116 78.2541 14.8049 78.2784 15.5434V26.5613V26.5662ZM75.5836 15.5484C75.5836 15.0379 75.4814 14.686 75.2333 14.3787C75.1069 14.2498 74.9074 14.1755 74.6836 14.1755C74.2069 14.1755 73.9832 14.5323 73.8859 14.8644C73.8129 15.0676 73.7837 15.2956 73.7837 15.5533V26.5712C73.7837 27.1065 73.9102 27.4633 74.1583 27.7409C74.2848 27.8697 74.4599 27.9441 74.6836 27.9441C75.1604 27.9441 75.3841 27.6368 75.4814 27.2552C75.5544 27.0767 75.5836 26.8487 75.5836 26.5662V15.5434V15.5484Z" fill="white"/>
<path d="M92.4124 30.4072L91.0163 22.5168H90.2915V30.4072H87.5967V11.7021H90.2915C93.5166 11.7021 94.8884 13.5608 94.8884 17.0996C94.8884 18.9582 94.4117 20.6383 93.3902 21.3471L95.1122 30.4072H92.4124ZM90.2867 19.9742C90.6612 19.9742 91.1623 19.9246 91.5611 19.5678C91.96 19.2109 92.2859 18.522 92.2859 17.1987C92.2859 15.8753 91.96 15.1616 91.5611 14.8048C91.1623 14.4479 90.6612 14.4232 90.2867 14.4232V19.9692V19.9742Z" fill="white"/>
<path d="M104.098 11.7021H106.793V27.8646H110.364V30.4122H104.094V11.7021H104.098Z" fill="white"/>
<path d="M118.955 30.4072V11.7021H121.076C123.576 11.7021 124.924 12.2126 125.648 13.6351C126.349 15.0576 126.446 17.4019 126.446 21.0646C126.446 24.7273 126.344 27.0468 125.648 28.4693C124.924 29.8967 123.576 30.4022 121.076 30.4022H118.955V30.4072ZM121.65 27.6565C122.574 27.6565 123.1 27.5573 123.372 26.6404C123.498 26.2092 123.596 25.5451 123.625 24.6579C123.649 23.7658 123.649 22.5713 123.649 21.0448C123.649 19.5182 123.649 18.3188 123.625 17.4316C123.601 16.5692 123.498 15.9051 123.372 15.4491C123.1 14.557 122.574 14.4578 121.65 14.4578V27.6664V27.6565Z" fill="white"/>
<path d="M139.606 30.4072H137.51L135.039 11.7021H137.539L138.614 21.4264L138.663 22.036H138.862L138.935 21.4264L140.083 11.7021H142.029L143.177 21.4264L143.25 22.036H143.449L143.498 21.4264L144.573 11.7021H147.073L144.602 30.4072H142.505L141.255 21.5503L141.104 20.455H141.002L140.852 21.5503L139.601 30.4072H139.606Z" fill="white"/>
<path d="M155.864 11.7021H158.559V30.4072H155.864V11.7021Z" fill="white"/>
<path d="M168.05 30.4072V11.7021H170.171C172.671 11.7021 174.018 12.2126 174.743 13.6351C175.444 15.0576 175.541 17.4019 175.541 21.0646C175.541 24.7273 175.439 27.0468 174.743 28.4693C174.018 29.8967 172.671 30.4022 170.171 30.4022H168.05V30.4072ZM170.745 27.6565C171.669 27.6565 172.194 27.5573 172.467 26.6404C172.593 26.2092 172.69 25.5451 172.72 24.6579C172.744 23.7658 172.744 22.5713 172.744 21.0448C172.744 19.5182 172.744 18.3188 172.72 17.4316C172.695 16.5692 172.593 15.9051 172.467 15.4491C172.194 14.557 171.669 14.4578 170.745 14.4578V27.6664V27.6565Z" fill="white"/>
<path d="M184.833 11.7021H191.001V14.5272H187.527V19.4389H190.028V22.4424H187.527V27.5821H191.001V30.4072H184.833V11.7021Z" fill="white"/>
<path fill-rule="evenodd" clip-rule="evenodd" d="M38.7972 36.1712C39.5707 35.8391 39.7555 36.8601 39.3226 38.3768C38.8313 39.7943 37.9362 41.3654 37.2455 41.9205C36.3699 42.4657 35.9078 41.6231 36.331 39.9529C36.6861 38.2182 37.839 36.4934 38.7972 36.1712Z" fill="white"/>
<path fill-rule="evenodd" clip-rule="evenodd" d="M35.0607 30.5711C36.5005 30.4819 37.454 32.0233 37.2886 33.976C37.0551 35.909 35.8195 37.6536 34.4283 37.946C32.8912 38.1988 31.7091 36.7466 31.8794 34.6402C32.0058 32.4743 33.47 30.6405 35.0607 30.5711Z" fill="white"/>
<path fill-rule="evenodd" clip-rule="evenodd" d="M37.1579 12.8665C37.8583 13.4464 38.7534 15.0176 39.2593 16.4301C39.7068 17.9467 39.5219 18.938 38.7485 18.5861C37.8 18.2689 36.6422 16.5491 36.2725 14.8094C35.8445 13.1639 36.2871 12.3213 37.1579 12.8665Z" fill="white"/>
<path fill-rule="evenodd" clip-rule="evenodd" d="M26.4507 49.6379C28.09 49.2216 28.9364 49.8312 28.4256 50.8869C27.8906 51.7641 26.3194 52.8248 24.9087 53.3254C23.3715 53.7764 22.3452 53.4443 22.6711 52.4729C22.9921 51.3181 24.6947 50.0146 26.4556 49.6428" fill="white"/>
<path fill-rule="evenodd" clip-rule="evenodd" d="M12.4346 51.0047C14.4873 50.9948 16.0731 52.0405 15.9856 53.235C15.8834 54.2511 14.3317 54.9945 12.5221 55.0044C10.7126 54.94 9.16082 54.1618 9.00516 53.1508C8.87869 51.9662 10.3964 50.9551 12.4346 51.0047Z" fill="white"/>
<path fill-rule="evenodd" clip-rule="evenodd" d="M24.9048 1.68075C26.3154 2.18134 27.8866 3.23703 28.4217 4.11925C28.9325 5.16998 28.0861 5.7796 26.4468 5.36823C24.6859 4.99651 22.9882 3.68805 22.6623 2.53819C22.3364 1.56675 23.3627 1.23468 24.8999 1.68571" fill="white"/>
<path fill-rule="evenodd" clip-rule="evenodd" d="M39.4748 23.8094C40.2775 23.9531 40.8758 25.4697 40.9196 27.2441C40.8904 28.9937 40.2969 30.5103 39.4943 30.6342C38.502 30.773 37.6361 29.2217 37.6653 27.2292C37.6312 25.212 38.4874 23.6756 39.4797 23.8044" fill="white"/>
<path fill-rule="evenodd" clip-rule="evenodd" d="M31.6562 6.73051C32.8188 7.32527 34.1662 8.76259 34.7597 10.0264C35.2996 11.4241 34.7597 12.2816 33.4366 11.8256C31.9773 11.4192 30.4061 9.76872 30.0023 8.20749C29.5645 6.78999 30.338 6.16054 31.6562 6.73051Z" fill="white"/>
<path fill-rule="evenodd" clip-rule="evenodd" d="M12.5199 0C14.3295 0.00991259 15.8812 0.753357 15.9834 1.7694C16.0758 2.96386 14.4851 4.00964 12.4324 3.99973C10.3942 4.04929 8.87649 3.04316 9.00297 1.85365C9.15863 0.84257 10.7104 0.0644318 12.5199 0Z" fill="white"/>
<path fill-rule="evenodd" clip-rule="evenodd" d="M23.6162 6.95384C23.3632 5.43721 21.6072 4.08414 19.6906 3.86111C17.847 3.70746 16.3634 4.64916 16.2515 6.07657C16.1299 6.9687 15.6191 7.80136 15.2786 8.03431C14.7338 8.40603 14.0577 8.83227 12.613 8.62906C12.6276 8.62906 12.6421 8.63898 12.6567 8.64393C12.5643 8.63898 12.4719 8.62906 12.3746 8.62906C10.1856 8.66871 8.36149 10.2597 8.27879 12.2521C8.20096 14.3536 10.0056 16.0932 12.326 16.0685C14.5003 16.0734 16.2515 14.5271 16.4266 12.5991C17.0104 11.0874 18.3675 9.80866 20.289 9.7591C22.3952 9.92266 23.8691 8.63402 23.6113 6.95384H23.6162Z" fill="white"/>
<path d="M21.3402 45.39C21.3402 45.39 21.3552 45.3849 21.3651 45.3799C21.3552 45.3799 21.3452 45.3849 21.3352 45.39H21.3402Z" fill="white"/>
<path d="M30.2593 44.8496C30.2593 44.8496 30.279 44.8793 30.2889 44.8992C30.279 44.8843 30.2692 44.8645 30.2593 44.8496Z" fill="white"/>
<path d="M33.4198 43.258C33.0744 43.3572 32.7242 43.5207 32.3788 43.7437C31.1724 44.1799 30.4963 43.5554 30.9195 42.2073C30.9487 42.0883 30.9876 41.9694 31.0314 41.8504L31.0119 41.8356C31.08 41.6324 31.1384 41.4292 31.1724 41.221C31.3816 39.7192 30.6714 38.5149 29.465 38.1233C29.465 38.1233 25.0822 37.3154 24.4888 41.1665C24.4353 44.2394 22.0663 45.1067 21.789 45.2306C21.7793 45.2356 21.7696 45.2405 21.7696 45.2405C21.6334 45.2951 21.502 45.3397 21.3707 45.3793C21.361 45.3793 21.3561 45.3843 21.3464 45.3892C17.8586 46.4548 16.662 43.4365 16.662 43.4365C16.4869 42.9458 16.5063 42.4551 16.4236 41.9397C16.1609 40.081 14.4438 38.6239 12.3327 38.6288C10.0172 38.6041 8.21255 40.3536 8.27578 42.465C8.36334 44.3484 9.96372 45.875 11.963 46.098C15.1589 46.3706 16.1074 46.4251 16.3117 49.3146C16.3117 49.3146 16.4042 49.6516 16.4334 49.7111C16.8857 50.7321 18.1699 51.3417 19.6925 51.2079C21.6139 50.9849 23.3554 49.6467 23.6132 48.1301C23.6132 48.1152 23.6132 48.1003 23.6132 48.0855C23.7397 47.6047 23.9537 47.1487 24.2504 46.7423C24.265 46.7175 24.2747 46.6878 24.2893 46.663C24.8633 45.6024 26.5902 44.5913 28.2879 44.4029C28.5846 44.3583 28.857 44.3435 29.0953 44.3583C29.6839 44.3831 30.0828 44.5665 30.2628 44.854C30.2725 44.8688 30.2822 44.8837 30.292 44.9035C30.2968 44.9134 30.3017 44.9283 30.3114 44.9382C30.4428 45.2108 30.4428 45.5974 30.292 46.0881C30.1655 46.3458 30.0634 46.6085 30.0001 46.8662C29.5526 48.2837 30.3212 48.9032 31.6394 48.3333C32.802 47.7336 34.1543 46.3012 34.7478 45.0373C35.278 43.6644 34.7429 42.807 33.4246 43.263L33.4198 43.258Z" fill="white"/>
<path fill-rule="evenodd" clip-rule="evenodd" d="M36.3758 20.435C35.8456 18.616 34.5517 17.2877 33.2967 17.4562C31.9395 17.6892 31.0882 19.2355 31.3217 21.0347C31.3266 22.1598 31.3412 24.3653 27.7123 24.3653C26.8854 24.2464 26.1752 23.8796 25.6498 23.374C24.9932 22.5067 24.7937 21.228 24.7548 20.2218C24.7548 20.1772 24.7548 20.1376 24.7548 20.093C24.7937 19.86 24.818 19.6172 24.818 19.3743C24.818 19.3198 24.8132 19.2702 24.8083 19.2157C24.8083 19.181 24.8132 19.1463 24.8132 19.1116C24.8132 18.958 24.8132 18.8093 24.7986 18.6606C24.6283 16.5145 22.8869 14.9434 20.7806 15.0276C20.693 15.0326 20.6055 15.0475 20.5228 15.0574C18.5478 15.1565 16.9475 16.7277 16.6702 18.7548C16.5632 19.2256 16.5437 19.6717 16.4805 20.1128C16.3589 22.1003 14.5785 23.7061 12.3506 23.7012C10.2687 23.721 8.60018 22.3283 8.32291 20.5242C8.14293 19.751 8.1332 18.9283 7.90944 18.2691C7.82675 18.0163 7.71973 17.7833 7.59326 17.5603C6.94629 16.237 5.60859 15.3845 4.07144 15.4489C1.92139 15.5778 0.121565 17.4909 -4.48042e-05 19.7609C-4.48042e-05 19.8105 -4.48042e-05 19.865 -4.48042e-05 19.9146C-0.00490919 20.0732 -4.48037e-05 20.2268 0.00968396 20.3904C0.165344 22.1845 1.4009 23.5624 3.00614 23.9292C4.37303 24.2364 5.37023 23.5921 6.77604 24.7717C7.34031 25.3169 7.7781 26.1496 8.01159 27.3787C8.04078 29.6785 9.80169 31.5519 12.0247 31.7056C12.0685 31.7056 12.1123 31.7105 12.156 31.7105C12.2047 31.7105 12.2533 31.7204 12.3068 31.7204C12.3312 31.7204 12.3604 31.7204 12.3847 31.7204C12.4868 31.7204 12.5841 31.7155 12.6863 31.7056C12.7544 31.7006 12.8225 31.7006 12.8906 31.6907C15.0406 31.4082 16.6167 29.5545 16.6507 27.4085C16.6605 27.349 16.6751 27.2945 16.6848 27.235C16.7821 26.4866 17.0496 25.8125 17.4388 25.2674C17.5944 25.0443 17.7744 24.8461 17.9641 24.6726C18.4943 24.1819 19.1413 23.8647 19.8466 23.7904C19.978 23.7755 20.1093 23.7755 20.2407 23.7755C20.3185 23.7755 20.3914 23.7755 20.4693 23.7854C22.3421 23.9738 23.7381 25.9018 23.6506 28.1073C23.6409 28.3056 23.636 28.261 23.5971 28.6624C23.5971 28.7417 23.5776 28.8508 23.5825 28.9301C23.5825 28.9945 23.5971 29.0341 23.5922 29.0986C23.7965 31.3239 25.6255 33.0636 27.8631 33.0785C30.237 33.0785 32.1487 31.1306 32.1827 28.7169C32.1876 28.37 32.0903 27.8198 32.0319 27.5126C31.9979 27.2548 31.9784 27.0219 31.9687 26.8038C31.9687 26.4073 31.9881 25.9711 32.0465 25.5548C32.3043 24.3802 33.0826 24.3604 33.5447 24.4644C33.6615 24.514 33.7734 24.5487 33.8901 24.5784H33.895C34.2987 24.6776 34.7122 24.6676 35.1062 24.519C36.2882 24.0729 36.7796 22.2688 36.3709 20.4498L36.3758 20.435Z" fill="white"/>
<path fill-rule="evenodd" clip-rule="evenodd" d="M30.6855 15.7169C31.5708 14.1259 30.9871 11.9254 29.3186 10.716C27.7961 9.61077 25.9038 9.74459 24.8288 10.9291C24.8288 10.9291 22.9998 13.095 25.8211 15.6029C25.8211 15.6029 28.8954 18.1653 30.6807 15.7169H30.6855Z" fill="white"/>
<path d="M23.9096 35.8114C24.1842 33.5264 22.8006 31.4737 20.8193 31.2265C18.838 30.9794 17.0093 32.6314 16.7347 34.9164C16.4601 37.2014 17.8437 39.2541 19.825 39.5012C21.8063 39.7484 23.635 38.0964 23.9096 35.8114Z" fill="white"/>
</g>
<defs>
<clipPath id="clip0_3501_1187">
<rect width="191" height="55" fill="white"/>
</clipPath>
</defs>
</svg>
