<svg width="94" height="39" viewBox="0 0 94 39" fill="none" xmlns="http://www.w3.org/2000/svg">
<path d="M10.5216 0H0V38.0001H10.5216V0Z" fill="white"/>
<path d="M24.4357 0H13.9141V38.0001H24.4357V0Z" fill="white"/>
<path d="M38.3498 0H27.8281V38.0001H38.3498V0Z" fill="white"/>
<g clip-path="url(#clip0_812_4131)">
<path d="M54.1595 20.5807L55.7153 22.1294L72.5137 39L90.7308 20.6908L91.2517 20.0507C93.0473 17.848 94 15.1705 94 12.3277C94 11.1163 93.8287 9.95305 93.4997 8.87928C91.9645 3.64808 87.1052 0.0137663 81.6702 0.0137663C81.2796 0.0137663 80.9369 0.0344158 80.6422 0.0688316L80.4091 0.0894811C77.7842 0.344158 75.358 1.4317 73.3978 3.2282L72.4794 4.07483L71.5953 3.1869C71.5405 3.13184 71.4514 3.06989 71.3486 2.98729L71.1704 2.84275C68.9361 0.977409 66.222 0 63.3092 0C61.3285 0 59.3683 0.481821 57.6138 1.39728L57.3602 1.63131L57.1752 1.64508C53.3645 3.83392 51 7.90187 51 12.314C51 15.143 51.939 17.8067 53.7072 20.0094L54.1595 20.5738V20.5807Z" fill="white"/>
</g>
<defs>
<clipPath id="clip0_812_4131">
<rect width="43" height="39" fill="white" transform="translate(51)"/>
</clipPath>
</defs>
</svg>
