<svg width="614" height="271" viewBox="0 0 614 271" fill="none" xmlns="http://www.w3.org/2000/svg">
<rect x="0.5" y="0.890625" width="612.711" height="269" stroke="#B0B1BC" stroke-opacity="0.5"/>
<mask id="mask0_1494_3103" style="mask-type:alpha" maskUnits="userSpaceOnUse" x="0" y="0" width="614" height="271">
<rect width="613.711" height="270.391" fill="#F9F9F9"/>
<rect x="0.5" y="0.5" width="612.711" height="269.391" stroke="#B0B1BC" stroke-opacity="0.5"/>
</mask>
<g mask="url(#mask0_1494_3103)">
<path opacity="0.4" d="M-43.5098 389.006C10.8585 483.174 131.271 515.439 225.44 461.071C319.609 406.702 351.873 286.289 297.505 192.121C243.137 97.952 122.724 65.6875 28.5551 120.056C-65.6135 174.424 -97.8781 294.837 -43.5098 389.006Z" fill="url(#paint0_radial_1494_3103)"/>
<path opacity="0.4" d="M549.604 514.424C713.08 514.424 845.604 381.9 845.604 218.424C845.604 54.9475 713.08 -77.5762 549.604 -77.5762C386.127 -77.5762 253.604 54.9475 253.604 218.424C253.604 381.9 386.127 514.424 549.604 514.424Z" fill="url(#paint1_radial_1494_3103)"/>
</g>
<defs>
<radialGradient id="paint0_radial_1494_3103" cx="0" cy="0" r="1" gradientUnits="userSpaceOnUse" gradientTransform="translate(115.854 332.16) rotate(-30) scale(239.547)">
<stop offset="0.01" stop-color="#830FCE" stop-opacity="0"/>
<stop offset="0.5" stop-color="#FF9200" stop-opacity="0"/>
<stop offset="0.69" stop-color="#FF9201" stop-opacity="0"/>
<stop offset="0.75" stop-color="#FF9508" stop-opacity="0.03"/>
<stop offset="0.8" stop-color="#FF9A14" stop-opacity="0.08"/>
<stop offset="0.84" stop-color="#FFA125" stop-opacity="0.15"/>
<stop offset="0.87" stop-color="#FFAB3B" stop-opacity="0.23"/>
<stop offset="0.9" stop-color="#FFB756" stop-opacity="0.34"/>
<stop offset="0.93" stop-color="#FFC477" stop-opacity="0.47"/>
<stop offset="0.95" stop-color="#FFD59C" stop-opacity="0.61"/>
<stop offset="0.98" stop-color="#FFE7C7" stop-opacity="0.78"/>
<stop offset="1" stop-color="white"/>
</radialGradient>
<radialGradient id="paint1_radial_1494_3103" cx="0" cy="0" r="1" gradientUnits="userSpaceOnUse" gradientTransform="translate(595.385 264.202) rotate(-90) scale(360.139)">
<stop offset="0.01" stop-color="#830FCE" stop-opacity="0"/>
<stop offset="0.5" stop-color="#FF9200" stop-opacity="0"/>
<stop offset="0.69" stop-color="#FF9201" stop-opacity="0"/>
<stop offset="0.75" stop-color="#FF9508" stop-opacity="0.03"/>
<stop offset="0.8" stop-color="#FF9A14" stop-opacity="0.08"/>
<stop offset="0.84" stop-color="#FFA125" stop-opacity="0.15"/>
<stop offset="0.87" stop-color="#FFAB3B" stop-opacity="0.23"/>
<stop offset="0.9" stop-color="#FFB756" stop-opacity="0.34"/>
<stop offset="0.93" stop-color="#FFC477" stop-opacity="0.47"/>
<stop offset="0.95" stop-color="#FFD59C" stop-opacity="0.61"/>
<stop offset="0.98" stop-color="#FFE7C7" stop-opacity="0.78"/>
<stop offset="1" stop-color="white"/>
</radialGradient>
</defs>
</svg>
