<svg width="40" height="40" viewBox="0 0 40 40" fill="none" xmlns="http://www.w3.org/2000/svg">
<g id="Group">
<path id="Vector" d="M37.8838 22.091C38.2931 18.5067 37.6158 14.8822 35.94 11.6874C34.2641 8.49272 31.667 5.87529 28.4854 4.17463C25.3038 2.47398 21.6846 1.76858 18.0972 2.14994C14.5098 2.5313 11.1198 3.98181 8.36689 6.31334C5.61395 8.64487 3.62511 11.7498 2.65836 15.2255C1.6916 18.7011 1.79152 22.3871 2.94518 25.8052C4.09883 29.2234 6.25297 32.216 9.12819 34.3949C12.0034 36.5739 15.467 37.8386 19.0698 38.025" stroke="#076EFF" stroke-width="2.5" stroke-linecap="round" stroke-linejoin="round"/>
<path id="Vector_2" d="M20 10.049V20.049L26 26.049M26 34.049L30 38.049L38 30.049" stroke="#076EFF" stroke-width="2.5" stroke-linecap="round" stroke-linejoin="round"/>
</g>
</svg>
