<svg width="42" height="42" viewBox="0 0 42 42" fill="none" xmlns="http://www.w3.org/2000/svg">
<g id="Group">
<path id="Vector" d="M21.0039 15.051C18.7939 15.051 17.0039 16.395 17.0039 18.051C17.0039 19.707 18.7939 21.051 21.0039 21.051C23.2139 21.051 25.0039 22.395 25.0039 24.051C25.0039 25.707 23.2119 27.051 21.0039 27.051M21.0039 15.051C22.7439 15.051 24.2279 15.885 24.7759 17.051M21.0039 15.051V13.051M21.0039 27.051C19.2639 27.051 17.7799 26.217 17.2319 25.051M21.0039 27.051V29.051" stroke="#076EFF" stroke-width="2.5" stroke-linecap="round" stroke-linejoin="round"/>
<path id="Vector_2" d="M24 2.05112H21C12.044 2.05112 7.564 2.05112 4.782 4.83312C2 7.61512 2 12.0931 2 21.0511C2 30.0071 2 34.4851 4.782 37.2691C7.564 40.0491 12.042 40.0491 21 40.0491C29.956 40.0491 34.436 40.0491 37.218 37.2671C40 34.4851 40 30.0091 40 21.0491V18.0491M30 12.0471L38.352 3.69112M40 11.0031L39.764 4.82112C39.764 3.36312 38.894 2.45512 37.308 2.34112L31.06 2.04712" stroke="#076EFF" stroke-width="2.5" stroke-linecap="round" stroke-linejoin="round"/>
</g>
</svg>
