<svg width="34" height="34" viewBox="0 0 34 34" fill="none" xmlns="http://www.w3.org/2000/svg">
<g clip-path="url(#clip0_1195_12021)">
<path d="M12.0209 29.0209C8.94578 32.096 4.69452 34 1.47521e-06 34C2.29603e-06 24.611 7.61097 17 17 17C17 21.6945 15.096 25.9458 12.0209 29.0209Z" fill="white"/>
<mask id="mask0_1195_12021" style="mask-type:alpha" maskUnits="userSpaceOnUse" x="17" y="0" width="17" height="34">
<path d="M17 17C26.389 17 34 24.611 34 34C29.3055 34 25.0542 32.096 21.9791 29.0209C18.904 25.9458 17 21.6945 17 17Z" fill="#009DFF"/>
<path d="M17 1.97644e-07C26.389 1.01846e-06 34 7.61096 34 17C29.3055 17 25.0542 15.096 21.9791 12.0209C18.904 8.94578 17 4.69452 17 1.97644e-07Z" fill="#009DFF"/>
</mask>
<g mask="url(#mask0_1195_12021)">
<rect x="-165.617" y="-100.711" width="369.844" height="211.864" fill="white" fill-opacity="0.5"/>
</g>
<path d="M12.0209 12.0209C8.94578 15.096 4.69452 17 1.47521e-06 17C2.29603e-06 7.61096 7.61097 8.63015e-07 17 1.68383e-06C17 4.69452 15.096 8.94578 12.0209 12.0209Z" fill="white"/>
</g>
<defs>
<clipPath id="clip0_1195_12021">
<rect width="34" height="34" fill="white" transform="translate(34 34) rotate(-180)"/>
</clipPath>
</defs>
</svg>
