<svg width="385" height="440" viewBox="0 0 385 440" fill="none" xmlns="http://www.w3.org/2000/svg">
<mask id="mask0_1251_3246" style="mask-type:alpha" maskUnits="userSpaceOnUse" x="0" y="0" width="385" height="440">
<rect width="385" height="440" fill="#F9F9F9"/>
<rect x="0.5" y="0.5" width="384" height="439" stroke="#B0B1BC" stroke-opacity="0.5"/>
</mask>
<g mask="url(#mask0_1251_3246)">
</g>
<mask id="mask1_1251_3246" style="mask-type:alpha" maskUnits="userSpaceOnUse" x="0" y="0" width="385" height="440">
<rect width="385" height="440" fill="#F9F9F9"/>
<rect x="0.5" y="0.5" width="384" height="439" stroke="#B0B1BC" stroke-opacity="0.5"/>
</mask>
<g mask="url(#mask1_1251_3246)">
<path opacity="0.4" d="M209.858 141.48C104.831 246.508 104.83 416.791 209.858 521.819C314.885 626.846 485.169 626.846 590.196 521.819C695.224 416.791 695.224 246.508 590.196 141.48C485.169 36.4529 314.885 36.4529 209.858 141.48Z" fill="url(#paint0_radial_1251_3246)"/>
<path opacity="0.4" d="M-154.841 483.587C-126.584 589.044 -18.1878 651.627 87.2691 623.37C192.726 595.113 255.309 486.716 227.052 381.259C198.795 275.802 90.398 213.219 -15.0589 241.476C-120.516 269.734 -183.099 378.13 -154.841 483.587Z" fill="url(#paint1_radial_1251_3246)"/>
</g>
<defs>
<radialGradient id="paint0_radial_1251_3246" cx="0" cy="0" r="1" gradientUnits="userSpaceOnUse" gradientTransform="translate(400.029 390.473) rotate(-45) scale(327.215 327.215)">
<stop offset="0.01" stop-color="#830FCE" stop-opacity="0"/>
<stop offset="0.5" stop-color="#12B76A" stop-opacity="0"/>
<stop offset="0.69" stop-color="#13B76B" stop-opacity="0"/>
<stop offset="0.75" stop-color="#1AB96F" stop-opacity="0.03"/>
<stop offset="0.8" stop-color="#25BC75" stop-opacity="0.08"/>
<stop offset="0.84" stop-color="#34C17F" stop-opacity="0.15"/>
<stop offset="0.87" stop-color="#49C78C" stop-opacity="0.23"/>
<stop offset="0.9" stop-color="#62CF9C" stop-opacity="0.34"/>
<stop offset="0.93" stop-color="#80D8AF" stop-opacity="0.47"/>
<stop offset="0.95" stop-color="#A3E3C5" stop-opacity="0.61"/>
<stop offset="0.98" stop-color="#CBEFDE" stop-opacity="0.78"/>
<stop offset="1" stop-color="white"/>
</radialGradient>
<radialGradient id="paint1_radial_1251_3246" cx="0" cy="0" r="1" gradientUnits="userSpaceOnUse" gradientTransform="translate(73.5512 454.041) rotate(-105) scale(240.517)">
<stop offset="0.01" stop-color="#830FCE" stop-opacity="0"/>
<stop offset="0.5" stop-color="#12B76A" stop-opacity="0"/>
<stop offset="0.69" stop-color="#13B76B" stop-opacity="0"/>
<stop offset="0.75" stop-color="#1AB96F" stop-opacity="0.03"/>
<stop offset="0.8" stop-color="#25BC75" stop-opacity="0.08"/>
<stop offset="0.84" stop-color="#34C17F" stop-opacity="0.15"/>
<stop offset="0.87" stop-color="#49C78C" stop-opacity="0.23"/>
<stop offset="0.9" stop-color="#62CF9C" stop-opacity="0.34"/>
<stop offset="0.93" stop-color="#80D8AF" stop-opacity="0.47"/>
<stop offset="0.95" stop-color="#A3E3C5" stop-opacity="0.61"/>
<stop offset="0.98" stop-color="#CBEFDE" stop-opacity="0.78"/>
<stop offset="1" stop-color="white"/>
</radialGradient>
</defs>
</svg>
