<svg width="40" height="40" viewBox="0 0 40 40" fill="none" xmlns="http://www.w3.org/2000/svg">
<g id="Group">
<path id="Vector" d="M38 17.7992C37.4496 13.84 35.6128 10.1715 32.7725 7.35888C29.9321 4.54623 26.2459 2.74538 22.2815 2.2337C18.7412 1.77448 15.144 2.36512 11.9365 3.9323C8.7289 5.49948 6.05224 7.97418 4.23875 11.0492M2 22.2992C2.52052 26.0457 4.19384 29.5374 6.78794 32.2902C9.38203 35.043 12.7684 36.9205 16.4774 37.6623C20.1864 38.4041 24.0344 37.9735 27.4877 36.4302C30.941 34.8868 33.8286 32.3073 35.75 29.0492" stroke="#076EFF" stroke-width="2.5" stroke-linecap="round" stroke-linejoin="round"/>
<path id="Vector_2" d="M33.5 29.0493C33.5 29.6461 33.7371 30.2184 34.159 30.6403C34.581 31.0623 35.1533 31.2993 35.75 31.2993C36.3467 31.2993 36.919 31.0623 37.341 30.6403C37.7629 30.2184 38 29.6461 38 29.0493C38 28.4526 37.7629 27.8803 37.341 27.4583C36.919 27.0364 36.3467 26.7993 35.75 26.7993C35.1533 26.7993 34.581 27.0364 34.159 27.4583C33.7371 27.8803 33.5 28.4526 33.5 29.0493ZM2 11.0493C2 11.6461 2.23705 12.2183 2.65901 12.6403C3.08097 13.0623 3.65326 13.2993 4.25 13.2993C4.84674 13.2993 5.41903 13.0623 5.84099 12.6403C6.26295 12.2183 6.5 11.6461 6.5 11.0493C6.5 10.4526 6.26295 9.88028 5.84099 9.45833C5.41903 9.03637 4.84674 8.79932 4.25 8.79932C3.65326 8.79932 3.08097 9.03637 2.65901 9.45833C2.23705 9.88028 2 10.4526 2 11.0493ZM13.25 20.0493C13.25 21.8395 13.9612 23.5564 15.227 24.8223C16.4929 26.0882 18.2098 26.7993 20 26.7993C21.7902 26.7993 23.5071 26.0882 24.773 24.8223C26.0388 23.5564 26.75 21.8395 26.75 20.0493C26.75 18.2591 26.0388 16.5422 24.773 15.2763C23.5071 14.0105 21.7902 13.2993 20 13.2993C18.2098 13.2993 16.4929 14.0105 15.227 15.2763C13.9612 16.5422 13.25 18.2591 13.25 20.0493Z" stroke="#076EFF" stroke-width="2.5" stroke-linecap="round" stroke-linejoin="round"/>
</g>
</svg>
