<svg width="1490" height="2609" viewBox="0 0 1490 2609" fill="none" xmlns="http://www.w3.org/2000/svg">
<path opacity="0.2" d="M932.5 1115C1240.4 1115 1490 865.399 1490 557.5C1490 249.601 1240.4 0 932.5 0C624.601 0 375 249.601 375 557.5C375 865.399 624.601 1115 932.5 1115Z" fill="url(#paint0_radial_1270_3297)"/>
<path opacity="0.2" d="M434.5 1115C674.468 1115 869 920.692 869 681C869 441.308 674.468 247 434.5 247C194.532 247 0 441.308 0 681C0 920.692 194.532 1115 434.5 1115Z" fill="url(#paint1_radial_1270_3297)"/>
<path opacity="0.2" d="M1279.65 2346.01C1363.31 2201.1 1313.8 2015.88 1169.05 1932.31C1024.31 1848.74 839.15 1898.47 755.486 2043.38C671.823 2188.29 721.337 2373.51 866.08 2457.08C1010.82 2540.64 1195.98 2490.92 1279.65 2346.01Z" fill="url(#paint2_radial_1270_3297)"/>
<defs>
<radialGradient id="paint0_radial_1270_3297" cx="0" cy="0" r="1" gradientUnits="userSpaceOnUse" gradientTransform="translate(846.273 643.727) scale(678.301)">
<stop offset="0.01" stop-color="#076EFF" stop-opacity="0"/>
<stop offset="0.5" stop-color="#076EFF" stop-opacity="0"/>
<stop offset="0.69" stop-color="#076EFF" stop-opacity="0"/>
<stop offset="0.75" stop-color="#076EFF" stop-opacity="0.03"/>
<stop offset="0.8" stop-color="#1621D5" stop-opacity="0.08"/>
<stop offset="0.84" stop-color="#076EFF" stop-opacity="0.15"/>
<stop offset="0.87" stop-color="#076EFF" stop-opacity="0.23"/>
<stop offset="0.9" stop-color="#076EFF" stop-opacity="0.34"/>
<stop offset="0.93" stop-color="#076EFF" stop-opacity="0.47"/>
<stop offset="0.95" stop-color="#0868F0" stop-opacity="0.61"/>
<stop offset="0.98" stop-color="#4F91EB" stop-opacity="0.78"/>
<stop offset="1" stop-color="#EFF4FC"/>
</radialGradient>
<radialGradient id="paint1_radial_1270_3297" cx="0" cy="0" r="1" gradientUnits="userSpaceOnUse" gradientTransform="translate(367.297 748.126) scale(528.649 528.041)">
<stop offset="0.01" stop-color="#076EFF" stop-opacity="0"/>
<stop offset="0.5" stop-color="#076EFF" stop-opacity="0"/>
<stop offset="0.69" stop-color="#076EFF" stop-opacity="0"/>
<stop offset="0.75" stop-color="#076EFF" stop-opacity="0.03"/>
<stop offset="0.8" stop-color="#1621D5" stop-opacity="0.08"/>
<stop offset="0.84" stop-color="#076EFF" stop-opacity="0.15"/>
<stop offset="0.87" stop-color="#076EFF" stop-opacity="0.23"/>
<stop offset="0.9" stop-color="#076EFF" stop-opacity="0.34"/>
<stop offset="0.93" stop-color="#076EFF" stop-opacity="0.47"/>
<stop offset="0.95" stop-color="#0868F0" stop-opacity="0.61"/>
<stop offset="0.98" stop-color="#4F91EB" stop-opacity="0.78"/>
<stop offset="1" stop-color="#EFF4FC"/>
</radialGradient>
<radialGradient id="paint2_radial_1270_3297" cx="0" cy="0" r="1" gradientUnits="userSpaceOnUse" gradientTransform="translate(1034.67 2258.68) rotate(-60) scale(368.622 368.198)">
<stop offset="0.01" stop-color="#076EFF" stop-opacity="0"/>
<stop offset="0.5" stop-color="#076EFF" stop-opacity="0"/>
<stop offset="0.69" stop-color="#076EFF" stop-opacity="0"/>
<stop offset="0.75" stop-color="#076EFF" stop-opacity="0.03"/>
<stop offset="0.8" stop-color="#1621D5" stop-opacity="0.08"/>
<stop offset="0.84" stop-color="#076EFF" stop-opacity="0.15"/>
<stop offset="0.87" stop-color="#076EFF" stop-opacity="0.23"/>
<stop offset="0.9" stop-color="#076EFF" stop-opacity="0.34"/>
<stop offset="0.93" stop-color="#076EFF" stop-opacity="0.47"/>
<stop offset="0.95" stop-color="#0868F0" stop-opacity="0.61"/>
<stop offset="0.98" stop-color="#4F91EB" stop-opacity="0.78"/>
<stop offset="1" stop-color="#EFF4FC"/>
</radialGradient>
</defs>
</svg>
