<svg width="47" height="37" viewBox="0 0 47 37" fill="none" xmlns="http://www.w3.org/2000/svg">
<g id="Layer_1" clip-path="url(#clip0_5564_589)">
<path id="Vector" d="M46.5053 17.5217L30.7232 1.31282C30.0305 0.601456 28.9421 0.601456 28.2989 1.31282C27.6063 2.02418 27.6063 3.14204 28.2989 3.80259L41.1621 17.0136H1.73158C0.791579 17.0136 0 17.8266 0 18.792C0 19.7574 0.791579 20.5704 1.73158 20.5704H41.1126L28.2495 33.7814C27.5568 34.4928 27.5568 35.6106 28.2495 36.2712C28.5958 36.6269 29.0411 36.7793 29.4863 36.7793C29.9316 36.7793 30.3768 36.6269 30.7232 36.2712L46.5053 20.0623C46.8516 19.7066 47 19.3001 47 18.792C47 18.2839 46.8021 17.8774 46.5053 17.5217Z" fill="white"/>
</g>
<defs>
<clipPath id="clip0_5564_589">
<rect width="47" height="36" fill="white" transform="translate(0 0.779297)"/>
</clipPath>
</defs>
</svg>
