<svg width="141" height="42" viewBox="0 0 141 42" fill="none" xmlns="http://www.w3.org/2000/svg">
<g clip-path="url(#clip0_4890_869)">
<path d="M41.7365 0H30.2599V41.6982H41.7365V0Z" fill="#0D0F25"/>
<path d="M26.6093 0H15.1327V41.6982H26.6093V0Z" fill="#0D0F25"/>
<path d="M11.4766 0H0V41.6982H11.4766V0Z" fill="#0D0F25"/>
<path d="M78.3274 32.3158H73.6988V14.1772L68.6768 32.3158H63.6547L58.6327 14.1772V32.3158H54.0042V7.58521H60.9833L66.1466 26.1155L71.3099 7.58521H78.3253V32.3158H78.3274Z" fill="#0D0F25"/>
<path d="M94.7792 30.6058C93.5686 31.8879 91.7163 32.6733 89.1519 32.6733C85.2698 32.6733 81.7086 30.7129 81.7086 26.7213C81.7086 22.7298 85.1629 21.5184 89.2225 21.163C92.2853 20.8784 94.4584 20.521 94.4584 19.0249C94.4584 18.0619 93.2115 17.2785 91.111 17.2785C89.4384 17.2785 87.5135 18.0275 87.0878 19.5943H82.3866C82.8486 16.1014 86.198 13.501 91.0041 13.501C98.4474 13.501 99.0163 18.3122 99.0163 19.772V29.3218C99.0163 30.2121 99.3008 31.6032 99.551 32.3159H95.2412C95.0274 31.8536 94.8841 31.2822 94.7792 30.6058ZM94.6359 23.4788C93.6392 24.1209 92.1078 24.4399 90.1849 24.6539C87.8706 24.9042 86.4461 25.4029 86.4461 26.7556C86.4461 27.7894 87.6568 28.5021 89.5453 28.5021C92.358 28.5021 94.638 27.539 94.638 25.1889V23.4788H94.6359Z" fill="#0D0F25"/>
<path d="M111.871 32.2796C106.494 32.8489 103.645 29.6064 103.645 24.5832V18.1325H101.438V13.9633H103.645V9.29541H108.346V13.9633H111.657V18.1325H108.346V24.6175C108.346 27.1836 109.52 28.1447 111.871 28.0034V32.2796Z" fill="#0D0F25"/>
<path d="M119.349 11.9684H114.648V7.58521H119.349V11.9684ZM119.349 32.3158H114.648V13.9632H119.349V32.3158Z" fill="#0D0F25"/>
<path d="M132.135 32.744C126.615 32.744 122.662 28.4677 122.662 23.1578C122.662 17.8479 126.615 13.501 132.135 13.501C136.552 13.501 139.899 15.9944 140.966 20.1293H135.944C135.303 18.8816 133.844 17.8135 132.133 17.8135C129.534 17.8135 127.432 20.2363 127.432 23.1941C127.432 26.152 129.532 28.4677 132.133 28.4677C133.878 28.4677 135.373 27.3997 135.979 26.1156H141.001C139.933 30.2848 136.584 32.744 132.133 32.744H132.135Z" fill="#0D0F25"/>
</g>
<defs>
<clipPath id="clip0_4890_869">
<rect width="141" height="41.6982" fill="white"/>
</clipPath>
</defs>
</svg>
