<svg width="132" height="44" viewBox="0 0 132 44" fill="none" xmlns="http://www.w3.org/2000/svg">
<path d="M132 29.4357V36.0858H129.084V29.4357C129.084 28.7729 128.863 27.1822 126.963 27.1822C125.659 27.1822 124.754 28.1543 124.754 29.4357V36.0858H121.815V29.4357C121.815 28.7729 121.616 27.1822 119.694 27.1822C118.413 27.1822 117.507 28.1543 117.507 29.4357V36.0858H114.569V24.7077H117.374V25.8124C118.081 24.9507 119.076 24.4205 120.313 24.4205C121.727 24.4205 122.92 25.017 123.715 26.0333C124.533 25.0391 125.726 24.4205 127.184 24.4205C130.233 24.4205 132 26.4531 132 29.4357Z" fill="#000227"/>
<path d="M112.979 31.5346H104.384C104.76 32.9264 105.865 33.7881 107.234 33.7881C108.206 33.7881 109.157 33.3683 109.643 32.4625H112.758C112.095 34.7823 110.084 36.3509 107.256 36.3509C104.053 36.3509 101.424 33.6997 101.424 30.4078C101.424 27.1159 104.053 24.4205 107.256 24.4205C110.615 24.4205 113.398 27.0275 112.979 31.5346ZM104.429 29.1485H110.084C109.731 27.8229 108.626 26.9833 107.234 26.9833C105.909 26.9833 104.848 27.8229 104.429 29.1485Z" fill="#000227"/>
<path d="M100.539 33.4125V36.0637C97.2027 36.4172 95.4352 34.4067 95.4352 31.2915V27.2926H94.0654V24.7077H95.4352V21.8135H98.3515V24.7077H100.406V27.2926H98.3515V31.3136C98.3515 32.9043 99.0806 33.5009 100.539 33.4125Z" fill="#000227"/>
<path d="M93.422 32.5067C93.422 34.7602 91.3452 36.3509 88.4289 36.3509C85.5346 36.3509 83.3916 34.8265 83.0381 32.3741H85.9986C86.3963 33.3462 87.5672 33.6997 88.4289 33.6997C89.5998 33.6997 90.4836 33.3462 90.4836 32.6834C90.4836 32.0427 90.0859 31.7776 88.0975 31.4683C86.0649 31.159 83.3474 30.6066 83.3474 28.0659C83.3474 26.2763 84.916 24.4205 88.2079 24.4205C90.815 24.4205 92.7592 25.8345 93.1348 27.9775H90.108C89.9312 27.4473 89.2905 27.0275 88.2079 27.0275C86.8602 27.0275 86.3079 27.5136 86.3079 27.9333C86.3079 28.5299 87.1475 28.7287 88.5614 28.9496C91.3894 29.4136 93.422 30.0322 93.422 32.5067Z" fill="#000227"/>
<path d="M82.9004 24.7077L77.8631 38.1626C76.7584 41.1231 75.0131 41.5208 72.627 41.3661V38.7149C74.0851 38.8033 74.77 38.4498 75.2561 37.1463L75.5875 36.2847L71.1909 24.7077H74.284L77.0678 32.9265L79.7852 24.7077H82.9004Z" fill="#000227"/>
<path d="M64.8297 20.3553C68.8728 20.3553 70.7065 22.9624 70.7065 25.3926H67.7902C67.7902 24.067 66.6855 23.0728 64.8297 23.0728C63.2832 23.0728 61.8471 23.6694 61.8471 24.8403C61.8471 25.9008 62.8855 26.2764 65.2274 26.7624C68.8728 27.4915 71.1705 28.3973 71.1705 31.5346C71.1705 34.4951 68.696 36.3509 64.8297 36.3509C61.825 36.3509 58.5552 34.6939 58.5552 31.0043H61.4715C61.4715 32.816 63.2832 33.6776 64.8297 33.6776C66.5088 33.6776 68.2542 33.0811 68.2542 31.623C68.2542 30.6509 67.4588 30.0543 64.6309 29.502C61.8029 28.9497 58.9308 28.1101 58.9308 24.8182C58.9308 22.1891 61.2506 20.3553 64.8297 20.3553Z" fill="#000227"/>
<path d="M130.436 17.6747H128.16L124.272 11.8862L122.084 14.0072V17.6747H120.207V1.23724H122.084V11.4002L127.276 6.29663H130.038L125.642 10.5606L130.436 17.6747Z" fill="#000227"/>
<path d="M117.462 17.6746H115.606V10.7594C115.606 9.87565 115.371 9.15393 114.899 8.59423C114.428 8.0198 113.736 7.73259 112.822 7.73259C112.395 7.73259 111.998 7.8136 111.629 7.97562C111.261 8.12291 110.945 8.32911 110.679 8.59423C110.414 8.85935 110.208 9.17602 110.061 9.54425C109.913 9.89774 109.84 10.2881 109.84 10.7152V17.6746H107.962V6.29652H109.774V7.53375C110.157 7.06242 110.628 6.6942 111.188 6.42908C111.762 6.14923 112.395 6.00931 113.088 6.00931C113.78 6.00931 114.398 6.12714 114.943 6.3628C115.488 6.59846 115.945 6.92986 116.313 7.357C116.696 7.78414 116.983 8.29229 117.175 8.88145C117.366 9.4706 117.462 10.1187 117.462 10.8257V17.6746Z" fill="#000227"/>
<path d="M103.69 17.6746C103.616 17.5126 103.55 17.3211 103.491 17.1002C103.447 16.8792 103.417 16.6362 103.402 16.3711C102.99 16.8719 102.452 17.2622 101.79 17.542C101.141 17.8072 100.376 17.9397 99.4918 17.9397C98.9026 17.9397 98.3356 17.8734 97.7906 17.7409C97.2604 17.6083 96.789 17.4021 96.3766 17.1223C95.9789 16.8277 95.6549 16.4595 95.4045 16.0176C95.1689 15.5757 95.051 15.0455 95.051 14.4269C95.051 13.2486 95.4561 12.3796 96.2662 11.8199C97.0762 11.2602 98.2177 10.9435 99.6906 10.8698C100.383 10.8404 100.965 10.7888 101.436 10.7152C101.907 10.6268 102.283 10.5164 102.563 10.3838C102.857 10.2512 103.064 10.0966 103.181 9.91983C103.314 9.74309 103.38 9.54425 103.38 9.32331C103.38 8.86672 103.159 8.49113 102.717 8.19655C102.276 7.88724 101.569 7.73259 100.596 7.73259C100.302 7.73259 99.9852 7.76205 99.6464 7.82096C99.3224 7.87988 99.0205 7.98298 98.7406 8.13027C98.4608 8.27756 98.2177 8.48377 98.0115 8.74889C97.8053 9.01401 97.6801 9.35277 97.6359 9.76518H95.6917C95.7654 8.61633 96.2367 7.70313 97.1057 7.0256C97.9747 6.34807 99.1457 6.00931 100.619 6.00931C102.15 6.00931 103.299 6.33334 104.065 6.98142C104.831 7.62949 105.214 8.48376 105.214 9.54425V15.8188C105.214 16.1133 105.243 16.4447 105.302 16.813C105.376 17.1665 105.457 17.4537 105.545 17.6746H103.69ZM103.38 11.5547C102.997 11.8935 102.496 12.1218 101.878 12.2396C101.259 12.3427 100.611 12.4164 99.9337 12.4606C99.315 12.5048 98.8069 12.5858 98.4092 12.7036C98.0263 12.8214 97.717 12.9687 97.4813 13.1455C97.2604 13.3222 97.1057 13.5211 97.0173 13.742C96.9437 13.9629 96.9069 14.1912 96.9069 14.4269C96.9069 14.7362 96.9731 15.0013 97.1057 15.2222C97.253 15.4432 97.4445 15.6273 97.6801 15.7746C97.9305 15.9219 98.2104 16.0323 98.5197 16.106C98.8437 16.1649 99.1898 16.1944 99.5581 16.1944C100.044 16.1944 100.515 16.1428 100.972 16.0397C101.429 15.9219 101.834 15.7525 102.187 15.5316C102.541 15.2959 102.821 14.9939 103.027 14.6257C103.248 14.2575 103.365 13.8156 103.38 13.3001V11.5547Z" fill="#000227"/>
<path d="M93.7773 13.1898C93.7773 13.8232 93.6668 14.4123 93.4459 14.9573C93.2249 15.5023 92.9082 15.981 92.4958 16.3934C92.0834 16.791 91.5826 17.1077 90.9935 17.3434C90.4043 17.5643 89.7415 17.6748 89.0051 17.6748H82.355V2.34198H88.9609C89.6384 2.34198 90.2497 2.44508 90.7946 2.65129C91.3396 2.84276 91.7962 3.12261 92.1644 3.49083C92.5474 3.84433 92.842 4.27883 93.0482 4.79434C93.2544 5.29513 93.3575 5.85483 93.3575 6.47344C93.3575 7.04787 93.2028 7.62966 92.8935 8.21882C92.5842 8.79324 92.0982 9.24984 91.4354 9.58861C92.2749 9.88318 92.8714 10.3619 93.2249 11.0247C93.5931 11.6727 93.7773 12.3945 93.7773 13.1898ZM91.8993 13.2119C91.8993 12.2545 91.6342 11.577 91.104 11.1793C90.5737 10.7669 89.8815 10.5607 89.0272 10.5607H84.2329V15.8631H89.0935C89.9183 15.8631 90.5884 15.6348 91.104 15.1782C91.6342 14.7069 91.8993 14.0515 91.8993 13.2119ZM84.2329 8.77115H89.0272C89.307 8.77115 89.5942 8.73433 89.8888 8.66068C90.1834 8.57231 90.4485 8.43975 90.6842 8.263C90.9198 8.07153 91.1113 7.8285 91.2586 7.53392C91.4059 7.23934 91.4795 6.87848 91.4795 6.45135C91.4795 5.62653 91.2512 5.03737 90.7946 4.68388C90.3381 4.31565 89.7268 4.13154 88.9609 4.13154H84.2329V8.77115Z" fill="#000227"/>
<path d="M79.8983 17.6748H77.689V15.3991H79.8983V17.6748Z" fill="#000227"/>
<path d="M75.4785 17.6746H73.6006V10.5826C73.6006 9.6989 73.387 9.00664 72.9599 8.50586C72.5474 7.99035 71.8994 7.73259 71.0156 7.73259C70.6327 7.73259 70.2718 7.8136 69.9331 7.97562C69.609 8.12291 69.3292 8.32911 69.0935 8.59423C68.8579 8.85935 68.6737 9.17602 68.5412 9.54425C68.4086 9.89774 68.3423 10.2881 68.3423 10.7152V17.6746H66.4865V10.5826C66.4865 9.6989 66.2656 9.00664 65.8237 8.50586C65.3966 7.99035 64.7632 7.73259 63.9237 7.73259C63.5407 7.73259 63.1799 7.8136 62.8411 7.97562C62.5171 8.12291 62.2298 8.32911 61.9795 8.59423C61.7438 8.85935 61.5597 9.17602 61.4271 9.54425C61.2946 9.89774 61.2283 10.2881 61.2283 10.7152V17.6746H59.3503V6.29652H61.162V7.53375C61.5155 7.06242 61.95 6.6942 62.4655 6.42908C62.981 6.14923 63.5554 6.00931 64.1888 6.00931C64.9989 6.00931 65.6985 6.17869 66.2877 6.51746C66.8768 6.85622 67.3481 7.33491 67.7016 7.95352C68.0551 7.36437 68.5265 6.89304 69.1156 6.53955C69.7195 6.18605 70.4338 6.00931 71.2587 6.00931C72.5843 6.00931 73.6153 6.42172 74.3517 7.24654C75.1029 8.07136 75.4785 9.19812 75.4785 10.6268V17.6746Z" fill="#000227"/>
<path d="M11.0579 29.0602L24.8179 10.5776C26.5148 8.29833 29.04 6.81362 31.8145 6.40432L36.5835 0L27.0617 0.0802547C23.7242 0.112357 20.5878 1.7014 18.5933 4.37388L0 29.3571L8.92673 29.2849C9.65052 29.2849 10.3582 29.2046 11.0579 29.0762V29.0602Z" fill="url(#paint0_linear_1_18423)"/>
<path d="M18.0584 36.0608L31.8184 17.5782C33.5153 15.2989 36.0405 13.8142 38.815 13.4049L43.584 7.00061L34.0622 7.08086C30.7247 7.11297 27.5883 8.70201 25.5938 11.3745L7.00049 36.3577L15.9272 36.2855C16.651 36.2855 17.3587 36.2053 18.0584 36.0769V36.0608Z" fill="url(#paint1_linear_1_18423)"/>
<path d="M50.8106 14.0012L41.2887 14.0814C37.9512 14.1135 34.8148 15.7026 32.8204 18.3751L14.2271 43.3583L23.1538 43.2861C26.8692 43.254 30.3515 41.4884 32.5711 38.5109L50.8106 14.0092V14.0012Z" fill="url(#paint2_linear_1_18423)"/>
<defs>
<linearGradient id="paint0_linear_1_18423" x1="-0.917065" y1="-1.50254" x2="40.5875" y2="4.24075" gradientUnits="userSpaceOnUse">
<stop stop-color="#70DEB0"/>
<stop offset="1" stop-color="#05DBF2"/>
</linearGradient>
<linearGradient id="paint1_linear_1_18423" x1="6.08342" y1="5.49807" x2="47.588" y2="11.2414" gradientUnits="userSpaceOnUse">
<stop stop-color="#70DEB0"/>
<stop offset="1" stop-color="#05DBF2"/>
</linearGradient>
<linearGradient id="paint2_linear_1_18423" x1="13.31" y1="12.4986" x2="54.8145" y2="18.2419" gradientUnits="userSpaceOnUse">
<stop stop-color="#70DEB0"/>
<stop offset="1" stop-color="#05DBF2"/>
</linearGradient>
</defs>
</svg>
