<svg width="76" height="61" viewBox="0 0 76 61" fill="none" xmlns="http://www.w3.org/2000/svg">
<g id="Vector">
<path d="M6.36483 8.78543C11.6261 3.08168 19.5873 0.19043 30.0236 0.19043V0.19043C32.0947 0.19043 33.7736 1.86936 33.7736 3.94043V7.68682C33.7736 9.47482 32.5118 11.0144 30.7586 11.3654V11.3654C25.6211 12.3929 22.0473 14.4142 20.1348 17.3804V17.3804C18.5106 19.9804 21.0472 22.6904 24.1129 22.6904H30.0236C31.0182 22.6904 31.972 23.0855 32.6752 23.7888C33.3785 24.492 33.7736 25.4459 33.7736 26.4404V52.6904C33.7736 56.8267 30.4098 60.1904 26.2736 60.1904H3.77358C2.77902 60.1904 1.82519 59.7953 1.12193 59.0921C0.418668 58.3888 0.0235794 57.435 0.0235794 56.4404V37.6904L0.0348295 26.7442C0.00107945 26.3279 -0.711421 16.4654 6.36483 8.78543ZM67.5236 60.1904H45.0236C44.029 60.1904 43.0752 59.7953 42.3719 59.0921C41.6687 58.3888 41.2736 57.435 41.2736 56.4404V37.6904L41.2848 26.7442C41.2511 26.3279 40.5386 16.4654 47.6148 8.78543C52.8761 3.08168 60.8374 0.19043 71.2736 0.19043V0.19043C73.3447 0.19043 75.0236 1.86936 75.0236 3.94043V7.68682C75.0236 9.47482 73.7618 11.0144 72.0086 11.3654V11.3654C66.8711 12.3929 63.2974 14.4142 61.3849 17.3804V17.3804C59.7606 19.9804 62.2973 22.6904 65.3629 22.6904H71.2736C72.2682 22.6904 73.222 23.0855 73.9253 23.7888C74.6285 24.492 75.0236 25.4459 75.0236 26.4404V52.6904C75.0236 56.8267 71.6599 60.1904 67.5236 60.1904Z" fill="url(#paint0_radial_612_1616)" fill-opacity="0.2"/>
<path d="M19.7146 17.1095L20.1348 17.3804L19.7108 17.1155C18.7726 18.6173 19.044 20.177 19.977 21.3257C20.8931 22.4534 22.4406 23.1904 24.1129 23.1904H30.0236C30.8855 23.1904 31.7122 23.5328 32.3217 24.1423C32.9312 24.7518 33.2736 25.5785 33.2736 26.4404V52.6904C33.2736 56.5505 30.1337 59.6904 26.2736 59.6904H3.77358C2.91163 59.6904 2.08498 59.348 1.47548 58.7385C0.865989 58.129 0.523579 57.3024 0.523579 56.4404V37.6904L0.534829 26.7447L0.53485 26.7242L0.533194 26.7038C0.50177 26.3162 -0.193832 16.6418 6.73235 9.12444C11.8695 3.55522 19.6766 0.69043 30.0236 0.69043C31.8185 0.69043 33.2736 2.1455 33.2736 3.94043V7.68682C33.2736 9.23648 32.18 10.5708 30.6605 10.8751C25.4548 11.9163 21.7296 13.9842 19.7146 17.1095ZM60.9646 17.1095L61.3849 17.3804L60.9608 17.1155C60.0226 18.6173 60.294 20.177 61.2271 21.3257C62.1432 22.4534 63.6906 23.1904 65.3629 23.1904H71.2736C72.1356 23.1904 72.9622 23.5328 73.5717 24.1423C74.1812 24.7518 74.5236 25.5785 74.5236 26.4404V52.6904C74.5236 56.5505 71.3837 59.6904 67.5236 59.6904H45.0236C44.1616 59.6904 43.335 59.348 42.7255 58.7385C42.116 58.129 41.7736 57.3024 41.7736 56.4404V37.6909V37.6904L41.7848 26.7447L41.7849 26.7242L41.7832 26.7038C41.7518 26.3162 41.0562 16.6418 47.9824 9.12444C53.1195 3.55522 60.9267 0.69043 71.2736 0.69043C73.0685 0.69043 74.5236 2.1455 74.5236 3.94043V7.68682C74.5236 9.23648 73.43 10.5708 71.9105 10.8751C66.7048 11.9163 62.9797 13.9842 60.9646 17.1095Z" stroke="url(#paint1_linear_612_1616)" stroke-opacity="0.9" style="mix-blend-mode:lighten"/>
</g>
<defs>
<radialGradient id="paint0_radial_612_1616" cx="0" cy="0" r="1" gradientUnits="userSpaceOnUse" gradientTransform="translate(38 -55.8096) rotate(90.053) scale(134 119.93)">
<stop stop-color="#98AEE6"/>
<stop offset="1" stop-color="#D6E2FF" stop-opacity="0.1"/>
</radialGradient>
<linearGradient id="paint1_linear_612_1616" x1="72.702" y1="-23.3189" x2="94.1158" y2="63.7156" gradientUnits="userSpaceOnUse">
<stop stop-color="#CFDCFF"/>
<stop offset="0.583189" stop-color="#6994FF" stop-opacity="0.3"/>
<stop offset="1" stop-color="#2664FF" stop-opacity="0"/>
</linearGradient>
</defs>
</svg>
