<svg width="108" height="19" viewBox="0 0 108 19" fill="none" xmlns="http://www.w3.org/2000/svg">
<g clip-path="url(#clip0_419_7052)">
<path d="M18.3462 6.24893L12.9023 5.67738L10.5858 0.761987C10.4699 0.419052 10.0066 0.19043 9.65915 0.19043C9.31167 0.19043 8.84836 0.419052 8.73253 0.761987L6.41597 5.67738L0.972063 6.24893C0.508751 6.24893 0.277096 6.59187 0.0454398 6.9348C-0.070388 7.27774 0.0454398 7.73498 0.277096 7.9636L4.33107 11.6216L3.17279 16.9942C3.05696 17.3371 3.28862 17.7944 3.6361 18.023C3.86776 18.2516 4.111 18.3659 4.21524 18.3659C4.4469 18.3659 4.56273 18.3659 4.67855 18.2516L9.54332 15.5082L14.2923 18.2516C14.6397 18.4803 15.1031 18.4803 15.4505 18.1373C15.798 17.9087 15.9139 17.4515 15.9139 17.1085L14.7556 11.7359L18.8096 8.07792C19.157 7.84929 19.2729 7.39205 19.0412 7.04911C19.0412 6.59187 18.6937 6.36325 18.3462 6.24893Z" fill="#076EFF"/>
<path d="M40.5079 6.24893L35.064 5.67738L32.7474 0.761987C32.6316 0.419052 32.1683 0.19043 31.8208 0.19043C31.4733 0.19043 31.01 0.419052 30.8941 0.761987L28.5776 5.67738L23.1337 6.24893C22.6704 6.24893 22.4387 6.59187 22.2071 6.9348C22.0912 7.27774 22.2071 7.73498 22.4387 7.9636L26.4927 11.6216L25.3344 16.9942C25.2186 17.3371 25.4502 17.7944 25.7977 18.023C26.0294 18.2516 26.2726 18.3659 26.3769 18.3659C26.6085 18.3659 26.7243 18.3659 26.8402 18.2516L31.7049 15.5082L36.4539 18.2516C36.8014 18.4803 37.2647 18.4803 37.6122 18.1373C37.9596 17.9087 38.0755 17.4515 38.0755 17.1085L36.9172 11.7359L40.9712 8.07792C41.3187 7.84929 41.4345 7.39205 41.2028 7.04911C41.2028 6.59187 40.8553 6.36325 40.5079 6.24893Z" fill="#076EFF"/>
<path d="M62.6695 6.24893L57.2256 5.67738L54.909 0.761987C54.7932 0.419052 54.3299 0.19043 53.9824 0.19043C53.6349 0.19043 53.1716 0.419052 53.0558 0.761987L50.7392 5.67738L45.2953 6.24893C44.832 6.24893 44.6003 6.59187 44.3687 6.9348C44.2529 7.27774 44.3687 7.73498 44.6003 7.9636L48.6543 11.6216L47.496 16.9942C47.3802 17.3371 47.6119 17.7944 47.9593 18.023C48.191 18.2516 48.4342 18.3659 48.5385 18.3659C48.7701 18.3659 48.886 18.3659 49.0018 18.2516L53.8666 15.5082L58.6155 18.2516C58.963 18.4803 59.4263 18.4803 59.7738 18.1373C60.1213 17.9087 60.2371 17.4515 60.2371 17.1085L59.0788 11.7359L63.1328 8.07792C63.4803 7.84929 63.5961 7.39205 63.3645 7.04911C63.3645 6.59187 63.017 6.36325 62.6695 6.24893Z" fill="#076EFF"/>
<path d="M84.8316 6.24893L79.3877 5.67738L77.0711 0.761987C76.9553 0.419052 76.492 0.19043 76.1445 0.19043C75.797 0.19043 75.3337 0.419052 75.2179 0.761987L72.9013 5.67738L67.4574 6.24893C66.9941 6.24893 66.7624 6.59187 66.5308 6.9348C66.415 7.27774 66.5308 7.73498 66.7624 7.9636L70.8164 11.6216L69.6581 16.9942C69.5423 17.3371 69.774 17.7944 70.1215 18.023C70.3531 18.2516 70.5963 18.3659 70.7006 18.3659C70.9322 18.3659 71.0481 18.3659 71.1639 18.2516L76.0287 15.5082L80.7776 18.2516C81.1251 18.4803 81.5884 18.4803 81.9359 18.1373C82.2834 17.9087 82.3992 17.4515 82.3992 17.1085L81.2409 11.7359L85.2949 8.07792C85.6424 7.84929 85.7582 7.39205 85.5266 7.04911C85.5266 6.59187 85.1791 6.36325 84.8316 6.24893Z" fill="#076EFF"/>
<path d="M106.993 6.24893L101.549 5.67738L99.2327 0.761987C99.1169 0.419052 98.6536 0.19043 98.3061 0.19043C97.9586 0.19043 97.4953 0.419052 97.3795 0.761987L95.0629 5.67738L89.619 6.24893C89.1557 6.24893 88.9241 6.59187 88.6924 6.9348C88.5766 7.27774 88.6924 7.73498 88.9241 7.9636L92.978 11.6216L91.8198 16.9942C91.7039 17.3371 91.9356 17.7944 92.2831 18.023C92.5147 18.2516 92.758 18.3659 92.8622 18.3659C93.0939 18.3659 93.2097 18.3659 93.3255 18.2516L98.1903 15.5082L102.939 18.2516C103.287 18.4803 103.75 18.4803 104.098 18.1373C104.445 17.9087 104.561 17.4515 104.561 17.1085L103.403 11.7359L107.457 8.07792C107.804 7.84929 107.92 7.39205 107.688 7.04911C107.688 6.59187 107.341 6.36325 106.993 6.24893Z" fill="#076EFF"/>
</g>
<defs>
<clipPath id="clip0_419_7052">
<rect width="107.809" height="18.2205" fill="white" transform="translate(0 0.19043)"/>
</clipPath>
</defs>
</svg>
