<svg width="1472" height="597" viewBox="0 0 1472 597" fill="none" xmlns="http://www.w3.org/2000/svg">
<g filter="url(#filter0_d_714_2027)">
<mask id="path-1-inside-1_714_2027" fill="white">
<path d="M60 66C60 61.5817 63.5817 58 68 58H1404C1408.42 58 1412 61.5817 1412 66V526C1412 530.418 1408.42 534 1404 534H68C63.5817 534 60 530.418 60 526V66Z"/>
</mask>
<path d="M60 66C60 61.5817 63.5817 58 68 58H1404C1408.42 58 1412 61.5817 1412 66V526C1412 530.418 1408.42 534 1404 534H68C63.5817 534 60 530.418 60 526V66Z" fill="url(#paint0_radial_714_2027)" fill-opacity="0.02" shape-rendering="crispEdges"/>
<path d="M68 60H1404V56H68V60ZM1410 66V526H1414V66H1410ZM1404 532H68V536H1404V532ZM62 526V66H58V526H62ZM68 532C64.6863 532 62 529.314 62 526H58C58 531.523 62.4771 536 68 536V532ZM1410 526C1410 529.314 1407.31 532 1404 532V536C1409.52 536 1414 531.523 1414 526H1410ZM1404 60C1407.31 60 1410 62.6863 1410 66H1414C1414 60.4772 1409.52 56 1404 56V60ZM68 56C62.4772 56 58 60.4772 58 66H62C62 62.6863 64.6863 60 68 60V56Z" fill="url(#paint1_linear_714_2027)" fill-opacity="0.7" style="mix-blend-mode:lighten" mask="url(#path-1-inside-1_714_2027)"/>
<path d="M68 60H1404V56H68V60ZM1410 66V526H1414V66H1410ZM1404 532H68V536H1404V532ZM62 526V66H58V526H62ZM68 532C64.6863 532 62 529.314 62 526H58C58 531.523 62.4771 536 68 536V532ZM1410 526C1410 529.314 1407.31 532 1404 532V536C1409.52 536 1414 531.523 1414 526H1410ZM1404 60C1407.31 60 1410 62.6863 1410 66H1414C1414 60.4772 1409.52 56 1404 56V60ZM68 56C62.4772 56 58 60.4772 58 66H62C62 62.6863 64.6863 60 68 60V56Z" fill="url(#paint2_radial_714_2027)" fill-opacity="0.7" style="mix-blend-mode:lighten" mask="url(#path-1-inside-1_714_2027)"/>
<path d="M68 60H1404V56H68V60ZM1410 66V526H1414V66H1410ZM1404 532H68V536H1404V532ZM62 526V66H58V526H62ZM68 532C64.6863 532 62 529.314 62 526H58C58 531.523 62.4771 536 68 536V532ZM1410 526C1410 529.314 1407.31 532 1404 532V536C1409.52 536 1414 531.523 1414 526H1410ZM1404 60C1407.31 60 1410 62.6863 1410 66H1414C1414 60.4772 1409.52 56 1404 56V60ZM68 56C62.4772 56 58 60.4772 58 66H62C62 62.6863 64.6863 60 68 60V56Z" fill="url(#paint3_radial_714_2027)" fill-opacity="0.7" style="mix-blend-mode:lighten" mask="url(#path-1-inside-1_714_2027)"/>
<path d="M68 60H1404V56H68V60ZM1410 66V526H1414V66H1410ZM1404 532H68V536H1404V532ZM62 526V66H58V526H62ZM68 532C64.6863 532 62 529.314 62 526H58C58 531.523 62.4771 536 68 536V532ZM1410 526C1410 529.314 1407.31 532 1404 532V536C1409.52 536 1414 531.523 1414 526H1410ZM1404 60C1407.31 60 1410 62.6863 1410 66H1414C1414 60.4772 1409.52 56 1404 56V60ZM68 56C62.4772 56 58 60.4772 58 66H62C62 62.6863 64.6863 60 68 60V56Z" fill="url(#paint4_radial_714_2027)" fill-opacity="0.3" style="mix-blend-mode:lighten" mask="url(#path-1-inside-1_714_2027)"/>
<path d="M68 60H1404V56H68V60ZM1410 66V526H1414V66H1410ZM1404 532H68V536H1404V532ZM62 526V66H58V526H62ZM68 532C64.6863 532 62 529.314 62 526H58C58 531.523 62.4771 536 68 536V532ZM1410 526C1410 529.314 1407.31 532 1404 532V536C1409.52 536 1414 531.523 1414 526H1410ZM1404 60C1407.31 60 1410 62.6863 1410 66H1414C1414 60.4772 1409.52 56 1404 56V60ZM68 56C62.4772 56 58 60.4772 58 66H62C62 62.6863 64.6863 60 68 60V56Z" fill="url(#paint5_linear_714_2027)" fill-opacity="0.7" style="mix-blend-mode:lighten" mask="url(#path-1-inside-1_714_2027)"/>
<path d="M68 60H1404V56H68V60ZM1410 66V526H1414V66H1410ZM1404 532H68V536H1404V532ZM62 526V66H58V526H62ZM68 532C64.6863 532 62 529.314 62 526H58C58 531.523 62.4771 536 68 536V532ZM1410 526C1410 529.314 1407.31 532 1404 532V536C1409.52 536 1414 531.523 1414 526H1410ZM1404 60C1407.31 60 1410 62.6863 1410 66H1414C1414 60.4772 1409.52 56 1404 56V60ZM68 56C62.4772 56 58 60.4772 58 66H62C62 62.6863 64.6863 60 68 60V56Z" fill="url(#paint6_radial_714_2027)" fill-opacity="0.6" mask="url(#path-1-inside-1_714_2027)"/>
<path d="M68 60H1404V56H68V60ZM1410 66V526H1414V66H1410ZM1404 532H68V536H1404V532ZM62 526V66H58V526H62ZM68 532C64.6863 532 62 529.314 62 526H58C58 531.523 62.4771 536 68 536V532ZM1410 526C1410 529.314 1407.31 532 1404 532V536C1409.52 536 1414 531.523 1414 526H1410ZM1404 60C1407.31 60 1410 62.6863 1410 66H1414C1414 60.4772 1409.52 56 1404 56V60ZM68 56C62.4772 56 58 60.4772 58 66H62C62 62.6863 64.6863 60 68 60V56Z" fill="url(#paint7_radial_714_2027)" fill-opacity="0.6" mask="url(#path-1-inside-1_714_2027)"/>
</g>
<defs>
<filter id="filter0_d_714_2027" x="-20" y="-22" width="1512" height="636" filterUnits="userSpaceOnUse" color-interpolation-filters="sRGB">
<feFlood flood-opacity="0" result="BackgroundImageFix"/>
<feColorMatrix in="SourceAlpha" type="matrix" values="0 0 0 0 0 0 0 0 0 0 0 0 0 0 0 0 0 0 127 0" result="hardAlpha"/>
<feOffset dy="2.5"/>
<feGaussianBlur stdDeviation="30"/>
<feComposite in2="hardAlpha" operator="out"/>
<feColorMatrix type="matrix" values="0 0 0 0 0.920833 0 0 0 0 0.00230199 0 0 0 0 0.660583 0 0 0 0.15 0"/>
<feBlend mode="normal" in2="BackgroundImageFix" result="effect1_dropShadow_714_2027"/>
<feBlend mode="normal" in="SourceGraphic" in2="effect1_dropShadow_714_2027" result="shape"/>
</filter>
<radialGradient id="paint0_radial_714_2027" cx="0" cy="0" r="1" gradientUnits="userSpaceOnUse" gradientTransform="translate(828.5 14.3929) rotate(117.117) scale(650.481 632.442)">
<stop stop-color="#000A43"/>
<stop offset="1" stop-color="#000A43" stop-opacity="0.1"/>
</radialGradient>
<linearGradient id="paint1_linear_714_2027" x1="92.9526" y1="38.4429" x2="270.362" y2="518.62" gradientUnits="userSpaceOnUse">
<stop stop-color="white"/>
<stop offset="0.360364" stop-color="white" stop-opacity="0.3"/>
<stop offset="1" stop-color="white" stop-opacity="0"/>
</linearGradient>
<radialGradient id="paint2_radial_714_2027" cx="0" cy="0" r="1" gradientUnits="userSpaceOnUse" gradientTransform="translate(1412 479.969) rotate(178.923) scale(387.968 90.7495)">
<stop stop-color="white"/>
<stop offset="0.360364" stop-color="white" stop-opacity="0.3"/>
<stop offset="1" stop-color="white" stop-opacity="0"/>
</radialGradient>
<radialGradient id="paint3_radial_714_2027" cx="0" cy="0" r="1" gradientUnits="userSpaceOnUse" gradientTransform="translate(1562.64 101.755) rotate(144.404) scale(662.3 524.566)">
<stop stop-color="white"/>
<stop offset="0.360364" stop-color="white" stop-opacity="0.3"/>
<stop offset="1" stop-color="white" stop-opacity="0"/>
</radialGradient>
<radialGradient id="paint4_radial_714_2027" cx="0" cy="0" r="1" gradientUnits="userSpaceOnUse" gradientTransform="translate(95.7771 580.075) rotate(-17.7073) scale(201.619 77.8005)">
<stop stop-color="white"/>
<stop offset="1" stop-color="white" stop-opacity="0"/>
</radialGradient>
<linearGradient id="paint5_linear_714_2027" x1="1507.29" y1="95.1224" x2="1447.13" y2="591.397" gradientUnits="userSpaceOnUse">
<stop stop-color="#DD2590"/>
<stop offset="1" stop-color="#6D32ED"/>
</linearGradient>
<radialGradient id="paint6_radial_714_2027" cx="0" cy="0" r="1" gradientUnits="userSpaceOnUse" gradientTransform="translate(736 58) rotate(90) scale(144.309 409.885)">
<stop/>
<stop offset="1" stop-opacity="0"/>
</radialGradient>
<radialGradient id="paint7_radial_714_2027" cx="0" cy="0" r="1" gradientUnits="userSpaceOnUse" gradientTransform="translate(1412 545.681) rotate(-155.129) scale(365.693 289.7)">
<stop/>
<stop offset="1" stop-opacity="0"/>
</radialGradient>
</defs>
</svg>
