<svg width="48" height="49" viewBox="0 0 48 49" fill="none" xmlns="http://www.w3.org/2000/svg">
<g id="Component 4">
<path id="Vector" d="M24.9315 37.0397C24.3485 36.7325 23.6516 36.7322 23.0684 37.0389L15.2433 41.153C13.776 41.9244 12.0611 40.6785 12.3414 39.0446L13.8362 30.3302C13.9476 29.6809 13.7321 29.0184 13.26 28.5589L6.92195 22.3894C5.7334 21.2325 6.38861 19.2149 8.03012 18.977L16.7731 17.7099C17.4248 17.6154 17.9883 17.2062 18.2797 16.6157L22.1927 8.687C22.9263 7.2005 25.046 7.2005 25.7796 8.68701L29.6926 16.6157C29.9841 17.2062 30.5475 17.6154 31.1992 17.7099L39.9422 18.977C41.5837 19.2149 42.2389 21.2325 41.0504 22.3894L34.7123 28.5589C34.2402 29.0184 34.0247 29.6809 34.1361 30.3302L35.6302 39.0399C35.9106 40.6746 34.1939 41.9206 32.7266 41.1474L24.9315 37.0397Z" stroke="#076EFF" stroke-width="2.5" stroke-linecap="round" stroke-linejoin="round"/>
</g>
</svg>
