<svg width="138" height="26" viewBox="0 0 138 26" fill="none" xmlns="http://www.w3.org/2000/svg">
<g clip-path="url(#clip0_612_1199)">
<path d="M0 25.4217H6.77546L6.77546 0.668945L0 0.668945L0 25.4217Z" fill="#000227"/>
<path d="M8.91406 25.4217H15.6895L15.6895 0.668945L8.91406 0.668945L8.91406 25.4217Z" fill="#000227"/>
<path d="M55.0139 6.45195C53.5678 6.39108 52.1216 6.3243 50.6764 6.25244V11.5339C48.2741 11.5072 45.8728 11.4772 43.4727 11.4434V14.8118C45.8728 14.7746 48.2741 14.7416 50.6764 14.712V19.9939C52.1221 19.9199 53.5678 19.8518 55.0139 19.7897V14.663C57.4169 14.638 59.8208 14.6169 62.2256 14.6V11.6353C59.8208 11.6197 57.4169 11.6006 55.0139 11.5782V6.45195Z" fill="#000227"/>
<path d="M19.104 13.0449H19.1045C19.1045 7.54026 21.3222 3.02896 24.5229 1.46504C22.2896 1.17634 20.058 0.869477 17.8281 0.544434C17.8281 8.87763 17.8281 17.2112 17.8281 25.5444C20.058 25.2194 22.2896 24.9129 24.5229 24.6238C21.3222 23.0603 19.104 18.5482 19.1036 13.044L19.104 13.0449Z" fill="#000227"/>
<path d="M131.266 1.67969C134.467 3.22248 136.684 7.64882 136.685 13.0448C136.685 18.4408 134.467 22.8671 131.266 24.4099C133.499 24.688 135.73 24.9839 137.96 25.2971V0.79248C135.731 1.10611 133.499 1.40199 131.266 1.67969Z" fill="#000227"/>
<path d="M34.7607 11.1239C33.4827 11.0166 32.2051 10.905 30.9279 10.7888C29.262 10.6429 28.7068 10.164 28.7068 9.39263C28.7068 8.50838 29.5385 8.02863 32.4547 8.18122C34.899 8.30549 36.0942 8.73198 36.5666 10.0626C38.1602 10.1091 39.7542 10.1535 41.3491 10.1945C41.0432 6.28211 36.9536 5.35601 32.6493 4.98405C26.1231 4.39271 23.5208 5.92114 23.52 9.2244C23.52 12.1819 25.6532 13.8524 30.1223 14.0624C31.4087 14.1279 32.6951 14.1905 33.9824 14.2509C35.7328 14.3355 36.3442 14.7121 36.3442 15.5241C36.3442 16.5174 35.26 17.1045 32.3433 17.2351C29.9827 17.3408 28.3458 17.0077 27.9852 15.5934C26.3941 15.6373 24.8043 15.6834 23.2148 15.7316C23.52 20.4407 27.5944 20.786 32.0382 20.4335C32.0382 20.4335 32.0382 20.4335 32.0387 20.4335C32.0479 20.4327 32.0571 20.4323 32.0664 20.4314C38.8162 19.8887 41.6286 18.1887 41.6278 15.3068C41.6282 12.7098 39.3735 11.4946 34.7607 11.1239Z" fill="#000227"/>
<path d="M78.3469 13.4212C78.3469 15.1779 76.9243 16.0123 74.0519 16.0237C71.1789 16.0376 69.7845 15.2041 69.7845 13.4255V6.83161C68.0556 6.80414 66.3266 6.76863 64.5977 6.7251V13.4322C64.5977 16.8513 67.2184 18.8295 74.0519 18.7542C80.8853 18.7136 83.5073 16.749 83.5073 13.4225V6.88107C81.7872 6.89586 80.0675 6.90305 78.3474 6.90178V13.4208L78.3469 13.4212Z" fill="#000227"/>
<path d="M94.4389 6.64984C91.2516 6.7403 88.0635 6.80328 84.875 6.83878V18.7394C88.0635 18.772 91.2516 18.8299 94.4389 18.9127C100.6 19.1105 104.581 16.7084 104.582 12.7656C104.582 8.82243 100.6 6.43723 94.4389 6.64984ZM94.4112 16.0393C92.9617 16.0199 91.5118 16.0034 90.0619 15.9899V9.58199C91.5118 9.56551 92.9617 9.54606 94.4112 9.52366C97.701 9.46364 99.3446 10.7913 99.3446 12.7749C99.3446 14.7586 97.701 16.0917 94.4112 16.0397V16.0393Z" fill="#000227"/>
<path d="M105.754 19.3121C107.48 19.389 109.206 19.4735 110.932 19.5657V6.02588C109.206 6.12479 107.48 6.21566 105.754 6.29893V19.3125V19.3121Z" fill="#000227"/>
<path d="M122.999 5.16687C116.332 5.75736 112.406 8.95537 112.406 12.7587C112.405 16.5616 116.331 19.7427 122.999 20.2909C126.332 20.5398 128.974 19.9067 130.783 18.5334C132.593 17.1732 133.569 15.0724 133.569 12.6915C133.569 10.3105 132.593 8.21779 130.783 6.87113C128.974 5.51093 126.332 4.89677 122.999 5.16687ZM122.998 16.7898C119.526 16.641 117.635 14.9921 117.635 12.7451C117.635 10.4982 119.526 8.83914 122.998 8.6688C126.47 8.49296 128.356 10.1714 128.356 12.7113C128.356 15.2508 126.47 16.9432 122.998 16.7898Z" fill="#000227"/>
</g>
<defs>
<clipPath id="clip0_612_1199">
<rect width="138" height="25" fill="white" transform="translate(0 0.544922)"/>
</clipPath>
</defs>
</svg>
