<svg width="30" height="46" viewBox="0 0 30 46" fill="none" xmlns="http://www.w3.org/2000/svg">
<g clip-path="url(#clip0_612_1544)">
<path d="M14.707 22.8137C14.707 20.8343 15.475 18.9361 16.8421 17.5365C18.2091 16.1369 20.0633 15.3506 21.9966 15.3506C23.9299 15.3506 25.784 16.1369 27.151 17.5365C28.5181 18.9361 29.2861 20.8343 29.2861 22.8137C29.2861 24.793 28.5181 26.6913 27.151 28.0909C25.784 29.4905 23.9299 30.2768 21.9966 30.2768C20.0633 30.2768 18.2091 29.4905 16.8421 28.0909C15.475 26.6913 14.707 24.793 14.707 22.8137Z" fill="#000227"/>
<path d="M0.128906 37.7385C0.128906 35.7591 0.896908 33.8609 2.26396 32.4613C3.63101 31.0617 5.48513 30.2754 7.41844 30.2754H14.708V37.7385C14.708 39.7178 13.94 41.6161 12.5729 43.0157C11.2059 44.4153 9.35174 45.2016 7.41844 45.2016C5.48513 45.2016 3.63101 44.4153 2.26396 43.0157C0.896908 41.6161 0.128906 39.7178 0.128906 37.7385H0.128906Z" fill="#000227"/>
<path d="M14.707 0.423828V15.35H21.9966C23.9299 15.35 25.784 14.5637 27.151 13.1641C28.5181 11.7645 29.2861 9.86625 29.2861 7.88692C29.2861 5.90758 28.5181 4.00932 27.151 2.60972C25.784 1.21012 23.9299 0.423828 21.9966 0.423828L14.707 0.423828Z" fill="#000227"/>
<path d="M0.128906 7.88692C0.128906 9.86625 0.896908 11.7645 2.26396 13.1641C3.63101 14.5637 5.48513 15.35 7.41844 15.35H14.708V0.423828H7.41844C5.48513 0.423828 3.63101 1.21012 2.26396 2.60972C0.896908 4.00932 0.128906 5.90758 0.128906 7.88692H0.128906Z" fill="#000227"/>
<path d="M0.128906 22.8137C0.128906 24.793 0.896908 26.6913 2.26396 28.0909C3.63101 29.4905 5.48513 30.2768 7.41844 30.2768H14.708V15.3506H7.41844C5.48513 15.3506 3.63101 16.1369 2.26396 17.5365C0.896908 18.9361 0.128906 20.8343 0.128906 22.8137H0.128906Z" fill="#000227"/>
</g>
<defs>
<clipPath id="clip0_612_1544">
<rect width="29.1581" height="44.7785" fill="white" transform="translate(0.128906 0.423828)"/>
</clipPath>
</defs>
</svg>
